<svg xmlns="http://www.w3.org/2000/svg" viewBox="0 0 203.89 308.7"><defs><style>.cls-1{fill:#00aced;}.cls-1,.cls-11,.cls-4{fill-rule:evenodd;}.cls-10,.cls-12,.cls-2,.cls-3,.cls-5,.cls-6,.cls-9{fill:none;}.cls-12,.cls-2,.cls-3,.cls-5,.cls-6,.cls-9{stroke:#2f3190;}.cls-10,.cls-12,.cls-2,.cls-5,.cls-6{stroke-miterlimit:22.93;}.cls-10,.cls-2{stroke-width:1.24px;}.cls-3,.cls-9{stroke-linejoin:round;}.cls-3{stroke-width:0.62px;}.cls-4,.cls-7{fill:#fff;}.cls-5{stroke-width:1.7px;}.cls-6{stroke-width:1.02px;}.cls-8{fill:#2f3190;}.cls-9{stroke-width:0.98px;}.cls-10{stroke:#232020;}.cls-11{fill:#a9dff7;}.cls-12{stroke-width:1.02px;}</style></defs><g id="Layer_2" data-name="Layer 2"><g id="Layer_1-2" data-name="Layer 1"><path class="cls-1" d="M7.17.62H196.72c3.6,0,6.55,2.54,6.55,5.64V302.44c0,3.1-3,5.64-6.55,5.64H7.17c-3.6,0-6.55-2.54-6.55-5.64V6.26C.62,3.16,3.57.62,7.17.62Z"/><path class="cls-2" d="M7.17.62H196.72c3.6,0,6.55,2.54,6.55,5.64V302.44c0,3.1-3,5.64-6.55,5.64H7.17c-3.6,0-6.55-2.54-6.55-5.64V6.26C.62,3.16,3.57.62,7.17.62Z"/><path class="cls-3" d="M18.26,224.08H43.54M30.9,301.18c-31.71-.52-21.32-14-18.72-31.67,3.18-21.57-11.2-39,5.87-45.37.75-.71.11-6.69.11-10H43.64c0,3.32-.64,9.3.11,10,17.07,6.41,2.69,23.8,5.87,45.37C52.22,287.18,62.61,300.66,30.9,301.18Z"/><path class="cls-4" d="M18.26,224.08H43.53M30.9,301.18c-31.71-.53-21.33-14-18.72-31.67,3.18-21.57-11.21-39,5.87-45.37.75-.71.11-6.7.11-10H43.64c0,3.31-.64,9.3.11,10,17.07,6.41,2.69,23.8,5.87,45.37C52.22,287.18,62.61,300.65,30.9,301.18Z"/><path class="cls-4" d="M14,163c-.06.77,0,1.66-.07,2.44a3.38,3.38,0,0,0-.65,2.32c0,2,0,3.95,0,5.92,2,9.61,33.18,9.61,35.2,0,0-2,0-3.95,0-5.92a3.43,3.43,0,0,0-.65-2.32c-.06-.78,0-1.67-.08-2.44C46.63,152.54,15.17,152.54,14,163Z"/><path class="cls-2" d="M14,163c-.06.77,0,1.66-.07,2.44a3.38,3.38,0,0,0-.65,2.32c0,2,0,3.95,0,5.92,2,9.61,33.18,9.61,35.2,0,0-2,0-3.95,0-5.92a3.43,3.43,0,0,0-.65-2.32c-.06-.78,0-1.67-.08-2.44C46.63,152.54,15.17,152.54,14,163Z"/><path class="cls-2" d="M13.92,165.48c-1,10.87,35,10.87,33.95,0"/><path class="cls-5" d="M30.9,193.36c8.1,0,14.66,1.85,14.66,4.13S39,201.62,30.9,201.62s-14.66-1.85-14.66-4.13S22.8,193.36,30.9,193.36Zm0-.92c9.89,0,17.9,2.26,17.9,5.05s-8,5-17.9,5-17.9-2.26-17.9-5S21,192.44,30.9,192.44Z"/><path class="cls-4" d="M30.9,193.35c8.1,0,14.66,1.85,14.66,4.14S39,201.62,30.9,201.62s-14.67-1.85-14.67-4.13,6.57-4.14,14.67-4.14m0-.91c9.89,0,17.9,2.26,17.9,5.05s-8,5-17.9,5-17.9-2.25-17.9-5S21,192.44,30.9,192.44Z"/><path class="cls-6" d="M30.93,193.33c8.09,0,14.66,1.85,14.66,4.14S39,201.6,30.93,201.6s-14.67-1.85-14.67-4.13S22.83,193.33,30.93,193.33Z"/><path class="cls-4" d="M30.9,193.35c8.1,0,14.66,1.85,14.66,4.14S39,201.62,30.9,201.62s-14.66-1.85-14.66-4.13,6.56-4.14,14.66-4.14"/><path class="cls-4" d="M15.73,40.46H46.07V22.69a15.17,15.17,0,0,0-30.34,0Z"/><path class="cls-2" d="M15.73,40.46H46.07V22.69a15.17,15.17,0,0,0-30.34,0Z"/><line class="cls-2" x1="15.73" y1="38.22" x2="46.07" y2="38.22"/><path class="cls-7" d="M163.81,22.34l.08,0a4.81,4.81,0,0,1,.64-.64,2.19,2.19,0,0,1,.63-.36,2,2,0,0,1,.76-.13,4.41,4.41,0,0,1,.66,0v1.4h-.7a1.47,1.47,0,0,0-.32-.48.67.67,0,0,0-.46-.15.8.8,0,0,0-.44.13,1.81,1.81,0,0,0-.43.37A1.46,1.46,0,0,0,164,23a1.5,1.5,0,0,0-.08.5v2.13a2.7,2.7,0,0,0,.07.77.48.48,0,0,0,.23.3,1.27,1.27,0,0,0,.47.16v.3h-2.5v-.3a2.24,2.24,0,0,0,.34-.13.8.8,0,0,0,.17-.15.7.7,0,0,0,.11-.3,3.34,3.34,0,0,0,0-.63V23c0-.26,0-.47,0-.63a.92.92,0,0,0-.09-.38.41.41,0,0,0-.22-.21,1.7,1.7,0,0,0-.44-.12v-.32l1.46-.06h.38Zm-4,1.31a5.32,5.32,0,0,0-.17-1.08,1.45,1.45,0,0,0-.39-.64,1.1,1.1,0,0,0-.69-.22,1.22,1.22,0,0,0-1,.51,2.72,2.72,0,0,0-.45,1.43Zm1,2.47a6.28,6.28,0,0,1-.73.64,3.1,3.1,0,0,1-.73.36,2.75,2.75,0,0,1-.88.13,2.43,2.43,0,0,1-1.93-.75,3.32,3.32,0,0,1-.65-2.22,3.69,3.69,0,0,1,.33-1.6,2.48,2.48,0,0,1,.95-1.07,2.66,2.66,0,0,1,1.41-.38,2.62,2.62,0,0,1,1.07.2,1.75,1.75,0,0,1,.71.53,2.59,2.59,0,0,1,.41.85,5.33,5.33,0,0,1,.16,1.34H157.1v.11a3.79,3.79,0,0,0,.17,1.21,1.47,1.47,0,0,0,.53.77,1.67,1.67,0,0,0,1,.28,2.26,2.26,0,0,0,.92-.19,2.69,2.69,0,0,0,.81-.61Zm-9.07-4.79v.3a2.51,2.51,0,0,0-.41.13.4.4,0,0,0-.18.16.63.63,0,0,0,0,.26,1.5,1.5,0,0,0,0,.35,3.44,3.44,0,0,0,.12.41L152.42,26l1.27-2.95q.12-.3.18-.48a1.5,1.5,0,0,0,0-.35.48.48,0,0,0-.14-.39,1.11,1.11,0,0,0-.51-.22v-.3h2.32v.3a.84.84,0,0,0-.37.15,1.55,1.55,0,0,0-.26.32,5.26,5.26,0,0,0-.31.6l-2.09,4.52h-.73l-1.69-4.55a4.29,4.29,0,0,0-.27-.64.75.75,0,0,0-.23-.26.82.82,0,0,0-.35-.14v-.3Zm-7.4,2.84a3.77,3.77,0,0,0,.41,1.93,1.28,1.28,0,0,0,1.17.67,1.21,1.21,0,0,0,.71-.2,1.51,1.51,0,0,0,.47-.53,2.47,2.47,0,0,0,.26-.78,4.57,4.57,0,0,0,.08-.92,4.49,4.49,0,0,0-.2-1.48,1.77,1.77,0,0,0-.55-.87,1.21,1.21,0,0,0-.79-.28,1.29,1.29,0,0,0-1.16.64A3.53,3.53,0,0,0,144.42,24.17Zm1.48,3.08a2.55,2.55,0,0,1-2-.74,3.21,3.21,0,0,1-.68-2.21,3.65,3.65,0,0,1,.36-1.7,2.33,2.33,0,0,1,1-1,2.83,2.83,0,0,1,1.41-.34,2.54,2.54,0,0,1,2,.76,3.11,3.11,0,0,1,.69,2.17,3.94,3.94,0,0,1-.34,1.71,2.33,2.33,0,0,1-1,1A3.06,3.06,0,0,1,145.9,27.25Zm-4-8.23v1.69h-.62a2.54,2.54,0,0,0-.38-.84,1.32,1.32,0,0,0-.53-.45,1.84,1.84,0,0,0-.74-.14,1.7,1.7,0,0,0-1.13.42,2.73,2.73,0,0,0-.79,1.25,6.36,6.36,0,0,0-.29,2,7.48,7.48,0,0,0,.24,2,2.7,2.7,0,0,0,.7,1.28,1.6,1.6,0,0,0,1.13.43,2,2,0,0,0,.83-.15,1.23,1.23,0,0,0,.54-.45,3.39,3.39,0,0,0,.42-.91h.62V27a9.42,9.42,0,0,1-1.2.23,11.25,11.25,0,0,1-1.35.07,2.84,2.84,0,0,1-2.38-1,5.07,5.07,0,0,1-.81-3.13,5.73,5.73,0,0,1,.42-2.28,3.34,3.34,0,0,1,1.24-1.52,3.48,3.48,0,0,1,1.94-.53,8.33,8.33,0,0,1,1,.06A8,8,0,0,1,141.92,19ZM127.86,25a4.18,4.18,0,0,0,.07.9,1.08,1.08,0,0,0,.27.52,1.23,1.23,0,0,0,.44.3,2.11,2.11,0,0,0,.68.09,1.24,1.24,0,0,0,1.13-.61,3.51,3.51,0,0,0,.38-1.81c0-1.59-.47-2.38-1.42-2.38a1.57,1.57,0,0,0-.6.1,1.69,1.69,0,0,0-.5.35,1.52,1.52,0,0,0-.35.46,1.12,1.12,0,0,0-.1.48Zm0,2v1.29c0,.26,0,.46,0,.59a.87.87,0,0,0,.1.3.55.55,0,0,0,.21.19,1.59,1.59,0,0,0,.43.13v.3h-2.53v-.3l.36-.12a.48.48,0,0,0,.21-.19.72.72,0,0,0,.1-.34,4.17,4.17,0,0,0,0-.56V23c0-.29,0-.5,0-.62a2,2,0,0,0,0-.31.75.75,0,0,0-.11-.2.5.5,0,0,0-.2-.13,1.33,1.33,0,0,0-.4-.11v-.33l1.46,0h.38l-.08,1,.1,0a8,8,0,0,1,.6-.56,2.59,2.59,0,0,1,.47-.29,1.8,1.8,0,0,1,.46-.16,1.71,1.71,0,0,1,.46-.05,1.84,1.84,0,0,1,1.58.75,3.66,3.66,0,0,1,.55,2.2,4.22,4.22,0,0,1-.31,1.69,2.19,2.19,0,0,1-.91,1,2.73,2.73,0,0,1-1.41.34,4.21,4.21,0,0,1-.83-.07A3.19,3.19,0,0,1,127.86,27Zm-4.41-2.59a4.51,4.51,0,0,0-1.89.33,1,1,0,0,0-.63.95,1,1,0,0,0,.14.55.78.78,0,0,0,.37.28,1.53,1.53,0,0,0,.51.07,1.51,1.51,0,0,0,1.3-.71,1.16,1.16,0,0,0,.2-.61Zm.1,1.9-.09,0a3.79,3.79,0,0,1-1,.77,2.28,2.28,0,0,1-1,.22,1.86,1.86,0,0,1-.84-.18,1.27,1.27,0,0,1-.55-.5,1.45,1.45,0,0,1-.19-.76,1.5,1.5,0,0,1,.89-1.37,6.5,6.5,0,0,1,2.7-.56v-.4a3.2,3.2,0,0,0-.13-1,.93.93,0,0,0-.39-.54,1.36,1.36,0,0,0-.71-.17,1.13,1.13,0,0,0-.78.25,1.45,1.45,0,0,0-.45.75h-.81V22a7.58,7.58,0,0,1,1-.45,6,6,0,0,1,.8-.23,4.26,4.26,0,0,1,.8-.08,2.13,2.13,0,0,1,1,.19,1.23,1.23,0,0,1,.56.59,2.8,2.8,0,0,1,.19,1.19v2.12c0,.3,0,.52,0,.64a1.79,1.79,0,0,0,0,.34.66.66,0,0,0,.09.25.63.63,0,0,0,.19.17,2.28,2.28,0,0,0,.39.14v.3h-1.7ZM118.68,19v1.69h-.62a2.35,2.35,0,0,0-.38-.84,1.32,1.32,0,0,0-.53-.45,1.79,1.79,0,0,0-.73-.14,1.71,1.71,0,0,0-1.14.42,2.73,2.73,0,0,0-.79,1.25,6.36,6.36,0,0,0-.29,2,7.9,7.9,0,0,0,.24,2,2.7,2.7,0,0,0,.7,1.28,1.6,1.6,0,0,0,1.13.43,2,2,0,0,0,.83-.15,1.23,1.23,0,0,0,.54-.45,3.39,3.39,0,0,0,.42-.91h.62V27a9.42,9.42,0,0,1-1.2.23,11.08,11.08,0,0,1-1.34.07,2.84,2.84,0,0,1-2.39-1,5.07,5.07,0,0,1-.8-3.13,5.91,5.91,0,0,1,.41-2.28,3.34,3.34,0,0,1,1.24-1.52,3.5,3.5,0,0,1,1.94-.53,8.22,8.22,0,0,1,1,.06A8,8,0,0,1,118.68,19Z"/><path class="cls-7" d="M144.73,71.1l.08,0a4.52,4.52,0,0,1,.64-.66,2.09,2.09,0,0,1,1.39-.5,6.32,6.32,0,0,1,.66,0v1.43h-.7a1.43,1.43,0,0,0-.32-.49.67.67,0,0,0-.46-.15.86.86,0,0,0-.45.13,1.8,1.8,0,0,0-.42.38,1.46,1.46,0,0,0-.28.46,1.62,1.62,0,0,0-.08.52v2.17a2.74,2.74,0,0,0,.07.78.55.55,0,0,0,.22.32,1.7,1.7,0,0,0,.48.15V76h-2.5V75.7a2.24,2.24,0,0,0,.34-.13.8.8,0,0,0,.17-.15.7.7,0,0,0,.11-.31,3.32,3.32,0,0,0,0-.64V71.76c0-.26,0-.47,0-.64a.92.92,0,0,0-.09-.38.47.47,0,0,0-.22-.22,1.7,1.7,0,0,0-.44-.12v-.33l1.46-.06h.37Zm-4,1.33a5,5,0,0,0-.16-1.1,1.43,1.43,0,0,0-.39-.65,1,1,0,0,0-.69-.23,1.2,1.2,0,0,0-1,.52,2.83,2.83,0,0,0-.45,1.46ZM141.81,75a5.61,5.61,0,0,1-.73.65,2.79,2.79,0,0,1-.73.37,2.75,2.75,0,0,1-.88.14,2.41,2.41,0,0,1-1.93-.77,3.45,3.45,0,0,1-.65-2.27,3.83,3.83,0,0,1,.33-1.63,2.47,2.47,0,0,1,.95-1.09,2.58,2.58,0,0,1,1.41-.39,2.62,2.62,0,0,1,1.07.2,2,2,0,0,1,.71.54,2.87,2.87,0,0,1,.41.88,6,6,0,0,1,.16,1.36H138v.12a4,4,0,0,0,.16,1.23,1.58,1.58,0,0,0,.54.78,1.6,1.6,0,0,0,1,.28,2.1,2.1,0,0,0,.92-.19,2.69,2.69,0,0,0,.81-.61Zm-10.36-1.18a4.27,4.27,0,0,0,.08.92,1.16,1.16,0,0,0,.26.52,1.25,1.25,0,0,0,.45.31,2.11,2.11,0,0,0,.68.09,1.23,1.23,0,0,0,1.13-.62,3.61,3.61,0,0,0,.38-1.84c0-1.62-.47-2.44-1.42-2.44a1.57,1.57,0,0,0-.6.11,1.61,1.61,0,0,0-.5.36,1.52,1.52,0,0,0-.35.46,1.17,1.17,0,0,0-.11.49Zm0,2v1.31a4.33,4.33,0,0,0,0,.6.8.8,0,0,0,.1.32.65.65,0,0,0,.21.19,1.59,1.59,0,0,0,.43.13v.31h-2.54v-.31a1.74,1.74,0,0,0,.37-.13.43.43,0,0,0,.21-.19.76.76,0,0,0,.1-.34,4.51,4.51,0,0,0,0-.58V71.8c0-.3,0-.51,0-.64a1.25,1.25,0,0,0-.05-.31.54.54,0,0,0-.1-.2.6.6,0,0,0-.2-.14,1.43,1.43,0,0,0-.4-.11v-.33l1.46-.06h.38l-.08,1,.09,0a8.34,8.34,0,0,1,.61-.57,2.52,2.52,0,0,1,.46-.29A2,2,0,0,1,133,70a2.42,2.42,0,0,1,.47,0,1.81,1.81,0,0,1,1.58.77A3.87,3.87,0,0,1,135.6,73a4.34,4.34,0,0,1-.31,1.72,2.19,2.19,0,0,1-.91,1,2.64,2.64,0,0,1-1.41.36,4.17,4.17,0,0,1-.83-.08A3.48,3.48,0,0,1,131.45,75.82Zm-7.07-2a5.2,5.2,0,0,0,.07.92,1.17,1.17,0,0,0,.27.52,1.1,1.1,0,0,0,.45.31,2.07,2.07,0,0,0,.68.09A1.24,1.24,0,0,0,127,75a3.62,3.62,0,0,0,.37-1.84c0-1.62-.47-2.44-1.42-2.44a1.57,1.57,0,0,0-.6.11,1.89,1.89,0,0,0-.5.36,1.7,1.7,0,0,0-.35.46,1.16,1.16,0,0,0-.1.49Zm0,2v1.31a4.33,4.33,0,0,0,0,.6.8.8,0,0,0,.1.32.61.61,0,0,0,.2.19,1.68,1.68,0,0,0,.44.13v.31h-2.54v-.31a1.63,1.63,0,0,0,.36-.13.41.41,0,0,0,.22-.19.91.91,0,0,0,.1-.34c0-.15,0-.34,0-.58V71.8c0-.3,0-.51,0-.64a1.25,1.25,0,0,0,0-.31.55.55,0,0,0-.11-.2.55.55,0,0,0-.19-.14,1.43,1.43,0,0,0-.4-.11v-.33L124,70h.38l-.08,1,.09,0a8.34,8.34,0,0,1,.61-.57,2.52,2.52,0,0,1,.46-.29,1.85,1.85,0,0,1,.46-.17,2.34,2.34,0,0,1,.47,0,1.79,1.79,0,0,1,1.57.77,3.8,3.8,0,0,1,.55,2.24,4.17,4.17,0,0,1-.31,1.72,2.23,2.23,0,0,1-.9,1,2.69,2.69,0,0,1-1.41.36,4.28,4.28,0,0,1-.84-.08A3.38,3.38,0,0,1,124.38,75.82Zm-5.22-.12a2.05,2.05,0,0,0,.35-.13.61.61,0,0,0,.17-.15.7.7,0,0,0,.11-.31,3.14,3.14,0,0,0,0-.64V71.76c0-.26,0-.47,0-.64a1.14,1.14,0,0,0-.08-.38.54.54,0,0,0-.23-.22,1.61,1.61,0,0,0-.43-.12v-.33l1.44-.06h.38v4.44a4,4,0,0,0,0,.75.61.61,0,0,0,.19.31,1.27,1.27,0,0,0,.46.19V76h-2.44Zm1.78-8.06v1.2H119.8v-1.2Zm-7.37,6.44a2.57,2.57,0,0,0,.33.86,1.39,1.39,0,0,0,.55.47,2.11,2.11,0,0,0,.86.15,1.55,1.55,0,0,0,1.12-.38,1.46,1.46,0,0,0,.38-1.1,1.68,1.68,0,0,0-.16-.79,1.78,1.78,0,0,0-.52-.6A8.44,8.44,0,0,0,115,72a6,6,0,0,1-1.15-.7,2.43,2.43,0,0,1-.63-.75,1.87,1.87,0,0,1-.21-.88,2.17,2.17,0,0,1,.33-1.21,2.08,2.08,0,0,1,1-.79,3.51,3.51,0,0,1,1.45-.28c.31,0,.62,0,.92,0a9.11,9.11,0,0,1,1.13.22v1.68h-.62a2.41,2.41,0,0,0-.36-.85,1.16,1.16,0,0,0-.51-.43,2,2,0,0,0-.75-.12,1.7,1.7,0,0,0-.73.15,1.15,1.15,0,0,0-.5.45,1.29,1.29,0,0,0-.19.72,1.53,1.53,0,0,0,.16.74,1.72,1.72,0,0,0,.49.57,6.5,6.5,0,0,0,1,.58,8.57,8.57,0,0,1,1.24.74,2.62,2.62,0,0,1,.68.78,2.08,2.08,0,0,1,.25,1,2.65,2.65,0,0,1-.21,1.11,2.06,2.06,0,0,1-.57.73,2.34,2.34,0,0,1-.87.41,4.74,4.74,0,0,1-1.1.13,9.06,9.06,0,0,1-2.25-.33v-1.7Z"/><path class="cls-7" d="M146.56,136.24a4.86,4.86,0,0,0-.16-1.09,1.43,1.43,0,0,0-.39-.65,1,1,0,0,0-.69-.23,1.22,1.22,0,0,0-1,.51,2.87,2.87,0,0,0-.45,1.46Zm1.05,2.53a6.47,6.47,0,0,1-.73.65,2.79,2.79,0,0,1-.73.37,2.75,2.75,0,0,1-.88.13,2.38,2.38,0,0,1-1.93-.77,3.42,3.42,0,0,1-.65-2.26,3.8,3.8,0,0,1,.33-1.63,2.56,2.56,0,0,1,.95-1.1,2.66,2.66,0,0,1,1.41-.38,2.62,2.62,0,0,1,1.07.2,1.77,1.77,0,0,1,.71.54,2.7,2.7,0,0,1,.41.87,5.53,5.53,0,0,1,.16,1.37h-3.91v.11a4.06,4.06,0,0,0,.16,1.24,1.58,1.58,0,0,0,.54.78,1.6,1.6,0,0,0,1,.28,2.1,2.1,0,0,0,.92-.19,2.74,2.74,0,0,0,.81-.62Zm-6.76-.5a3.91,3.91,0,0,0,.05.74.54.54,0,0,0,.19.32,1.47,1.47,0,0,0,.46.19v.3h-2.47v-.3a1.44,1.44,0,0,0,.43-.17.6.6,0,0,0,.18-.21,1.17,1.17,0,0,0,.07-.33c0-.14,0-.32,0-.54v-5.2c0-.4,0-.67,0-.83a1.5,1.5,0,0,0-.05-.4.57.57,0,0,0-.11-.26.58.58,0,0,0-.19-.15,2.09,2.09,0,0,0-.44-.11V131l1.5-.06h.37Zm-7-.68a4.34,4.34,0,0,0,.08.92,1.07,1.07,0,0,0,.26.52,1.23,1.23,0,0,0,.45.3,1.84,1.84,0,0,0,.68.1,1.24,1.24,0,0,0,1.13-.62,3.66,3.66,0,0,0,.37-1.85c0-1.62-.47-2.43-1.42-2.43a1.57,1.57,0,0,0-.6.11,1.66,1.66,0,0,0-.49.35,1.6,1.6,0,0,0-.36.47,1.3,1.3,0,0,0-.1.49Zm0,2V141a4.33,4.33,0,0,0,0,.6.75.75,0,0,0,.1.31.61.61,0,0,0,.2.19,1.62,1.62,0,0,0,.44.14v.3H132v-.3a2,2,0,0,0,.37-.13.48.48,0,0,0,.21-.19,1,1,0,0,0,.1-.35c0-.14,0-.33,0-.57v-5.33c0-.3,0-.51,0-.64a1.25,1.25,0,0,0-.05-.31.47.47,0,0,0-.11-.21.53.53,0,0,0-.19-.13,1.78,1.78,0,0,0-.4-.12v-.33l1.46,0h.38l-.08,1,.09,0a8.34,8.34,0,0,1,.61-.57,2.59,2.59,0,0,1,.46-.3,1.8,1.8,0,0,1,.46-.16,1.78,1.78,0,0,1,.47-.06,1.81,1.81,0,0,1,1.57.77,3.81,3.81,0,0,1,.55,2.25,4.2,4.2,0,0,1-.31,1.72,2.18,2.18,0,0,1-.9,1,2.68,2.68,0,0,1-1.41.35,3.63,3.63,0,0,1-.84-.08A4.5,4.5,0,0,1,133.8,139.64Zm-7.07-2a4.45,4.45,0,0,0,.07.92,1.08,1.08,0,0,0,.27.52,1.12,1.12,0,0,0,.44.3,1.88,1.88,0,0,0,.68.1,1.24,1.24,0,0,0,1.13-.62,3.55,3.55,0,0,0,.38-1.85c0-1.62-.47-2.43-1.42-2.43a1.57,1.57,0,0,0-.6.11,1.69,1.69,0,0,0-.5.35,1.73,1.73,0,0,0-.35.47,1.13,1.13,0,0,0-.1.49Zm0,2V141c0,.27,0,.47,0,.6a.94.94,0,0,0,.1.31.55.55,0,0,0,.21.19,1.53,1.53,0,0,0,.43.14v.3H125v-.3a1.63,1.63,0,0,0,.36-.13.57.57,0,0,0,.22-.19,1.23,1.23,0,0,0,.1-.35c0-.14,0-.33,0-.57v-5.33c0-.3,0-.51,0-.64a2,2,0,0,0-.05-.31.6.6,0,0,0-.11-.21.53.53,0,0,0-.19-.13,2,2,0,0,0-.4-.12v-.33l1.45,0h.38l-.08,1,.1,0c.25-.26.46-.45.6-.57a2.66,2.66,0,0,1,.47-.3,1.8,1.8,0,0,1,.46-.16,1.73,1.73,0,0,1,.47-.06,1.83,1.83,0,0,1,1.57.77,3.81,3.81,0,0,1,.55,2.25,4.2,4.2,0,0,1-.31,1.72,2.19,2.19,0,0,1-.91,1,2.64,2.64,0,0,1-1.41.35,3.6,3.6,0,0,1-.83-.08A3.91,3.91,0,0,1,126.73,139.64Zm-5.22-.12a2.05,2.05,0,0,0,.35-.13.64.64,0,0,0,.17-.16.73.73,0,0,0,.11-.3,3.39,3.39,0,0,0,0-.64v-2.71c0-.26,0-.48,0-.64a1,1,0,0,0-.09-.39.45.45,0,0,0-.22-.21,2.15,2.15,0,0,0-.44-.13v-.33l1.45,0h.38v4.44a3.91,3.91,0,0,0,0,.74.5.5,0,0,0,.19.32,1.37,1.37,0,0,0,.46.19v.3h-2.44Zm1.78-8.07v1.21h-1.15v-1.21Zm-5.3,5c.15.25.27.47.37.66s.21.39.32.62h.08q0-.37-.06-1.5c0-.75,0-1.43,0-2v-1.3a4.64,4.64,0,0,0,0-.63.59.59,0,0,0-.09-.3.52.52,0,0,0-.18-.18,1.9,1.9,0,0,0-.4-.14v-.31h2.24v.31a1.6,1.6,0,0,0-.4.14.46.46,0,0,0-.18.16.61.61,0,0,0-.11.3,3.38,3.38,0,0,0,0,.65v7h-.77l-3.46-5.8c-.22-.36-.37-.62-.46-.79l-.26-.49h-.1c0,.32,0,.89.06,1.73s0,1.66,0,2.49v1.27a4.4,4.4,0,0,0,0,.61.71.71,0,0,0,.09.3.5.5,0,0,0,.19.19,1.81,1.81,0,0,0,.41.15v.3H113v-.3a1.3,1.3,0,0,0,.51-.22.56.56,0,0,0,.17-.35,3.82,3.82,0,0,0,0-.68V132.9a4.64,4.64,0,0,0,0-.63.7.7,0,0,0-.1-.3.66.66,0,0,0-.19-.18,2.15,2.15,0,0,0-.4-.14v-.31h1.94Zm72.8-15.13a4.8,4.8,0,0,0-.17-1.09,1.38,1.38,0,0,0-.39-.65,1,1,0,0,0-.68-.23,1.23,1.23,0,0,0-1,.51,2.75,2.75,0,0,0-.44,1.46Zm1,2.53a5.71,5.71,0,0,1-.73.65,2.66,2.66,0,0,1-1.6.5,2.42,2.42,0,0,1-1.94-.77,3.42,3.42,0,0,1-.65-2.26,3.8,3.8,0,0,1,.33-1.63,2.57,2.57,0,0,1,.95-1.1,2.89,2.89,0,0,1,2.49-.18,1.74,1.74,0,0,1,.7.54,2.51,2.51,0,0,1,.41.87,6,6,0,0,1,.17,1.37H188V122a3.92,3.92,0,0,0,.17,1.23,1.56,1.56,0,0,0,.54.79,1.63,1.63,0,0,0,1,.28,2.06,2.06,0,0,0,.91-.19,2.74,2.74,0,0,0,.81-.62Zm-6,1h-2.45v-.3l.35-.13a.55.55,0,0,0,.18-.16A1.08,1.08,0,0,0,184,124a3.34,3.34,0,0,0,0-.63v-1.62c0-.29,0-.56,0-.79a2.7,2.7,0,0,0-.08-.58,1.42,1.42,0,0,0-.14-.36,1,1,0,0,0-.2-.21,1.35,1.35,0,0,0-.26-.15,1.45,1.45,0,0,0-.4,0,1.06,1.06,0,0,0-.46.1,2.19,2.19,0,0,0-.85.79,1.15,1.15,0,0,0-.12.53v2.32a3.91,3.91,0,0,0,.05.74.5.5,0,0,0,.19.32,1.37,1.37,0,0,0,.46.19v.3h-2.44v-.3l.35-.13a.64.64,0,0,0,.17-.16.86.86,0,0,0,.11-.3,3.39,3.39,0,0,0,0-.64v-2.71c0-.27,0-.48,0-.64a1,1,0,0,0-.09-.39.47.47,0,0,0-.22-.22,3.24,3.24,0,0,0-.44-.12V119l1.46,0h.37l-.06,1,.08,0a6.73,6.73,0,0,1,.75-.66,2.89,2.89,0,0,1,.57-.31,1.74,1.74,0,0,1,.61-.11,2.23,2.23,0,0,1,.6.08,1.26,1.26,0,0,1,.46.24,1.32,1.32,0,0,1,.34.4,2.08,2.08,0,0,1,.19.58,4.75,4.75,0,0,1,.07.85v2.34c0,.28,0,.49,0,.62a.89.89,0,0,0,.09.3.52.52,0,0,0,.18.18,2.72,2.72,0,0,0,.41.15Zm-11.58-3a3.87,3.87,0,0,0,.41,2,1.28,1.28,0,0,0,1.16.69,1.24,1.24,0,0,0,.71-.2,1.61,1.61,0,0,0,.48-.55,2.53,2.53,0,0,0,.26-.79,4.77,4.77,0,0,0,.08-.94,4.93,4.93,0,0,0-.2-1.51,1.84,1.84,0,0,0-.55-.89,1.21,1.21,0,0,0-.79-.28,1.29,1.29,0,0,0-1.16.65A3.67,3.67,0,0,0,174.24,121.87Zm1.48,3.14a2.49,2.49,0,0,1-2-.76,3.31,3.31,0,0,1-.68-2.25,3.78,3.78,0,0,1,.36-1.73,2.3,2.3,0,0,1,1-1.06,2.83,2.83,0,0,1,1.41-.34,2.54,2.54,0,0,1,2,.77,3.24,3.24,0,0,1,.69,2.22,3.94,3.94,0,0,1-.35,1.74,2.31,2.31,0,0,1-1,1.06A3.07,3.07,0,0,1,175.72,125ZM172,119.12v1.3h-.79a2.17,2.17,0,0,0-.26-.64.92.92,0,0,0-.36-.33,1.29,1.29,0,0,0-.51-.09,1.14,1.14,0,0,0-.77.28,1.83,1.83,0,0,0-.53.85,4.32,4.32,0,0,0-.2,1.4,5.64,5.64,0,0,0,.08,1,2.21,2.21,0,0,0,.25.75,1.23,1.23,0,0,0,.48.48,1.4,1.4,0,0,0,.74.18,2,2,0,0,0,.8-.17,2.53,2.53,0,0,0,.76-.59l.36.41a5.36,5.36,0,0,1-.56.54,3.46,3.46,0,0,1-.52.32,2.94,2.94,0,0,1-.55.18,2.65,2.65,0,0,1-.58.06,2.17,2.17,0,0,1-1.8-.78,3.57,3.57,0,0,1-.62-2.25,3.69,3.69,0,0,1,.35-1.63,2.6,2.6,0,0,1,1-1.1,2.77,2.77,0,0,1,1.45-.38,6.86,6.86,0,0,1,.94.06A5.42,5.42,0,0,1,172,119.12Zm-8.16,5.49a3.17,3.17,0,0,0,.34-.13.55.55,0,0,0,.18-.16,1.12,1.12,0,0,0,.11-.3,4.54,4.54,0,0,0,0-.64v-2.71c0-.27,0-.48,0-.64a1,1,0,0,0-.09-.39.49.49,0,0,0-.23-.22,2.69,2.69,0,0,0-.43-.12V119l1.45,0h.37v4.44a3,3,0,0,0,.06.74.53.53,0,0,0,.18.32,1.59,1.59,0,0,0,.46.19v.3h-2.43Zm1.77-8.07v1.2h-1.14v-1.2Zm-3.57,6.82a3.91,3.91,0,0,0,0,.74.54.54,0,0,0,.19.32,1.47,1.47,0,0,0,.46.19v.3h-2.47v-.3a1.44,1.44,0,0,0,.43-.17.6.6,0,0,0,.18-.21,1.17,1.17,0,0,0,.07-.33,4.19,4.19,0,0,0,0-.54v-5.2c0-.4,0-.67,0-.83a1.5,1.5,0,0,0-.05-.4.57.57,0,0,0-.11-.26.58.58,0,0,0-.19-.15,2.09,2.09,0,0,0-.44-.11v-.32l1.5-.06h.37Zm-5.19,1.25a2.49,2.49,0,0,0,.34-.13.55.55,0,0,0,.18-.16.86.86,0,0,0,.11-.3,3.39,3.39,0,0,0,0-.64v-2.71c0-.27,0-.48,0-.64a1,1,0,0,0-.09-.39.45.45,0,0,0-.23-.22,2.69,2.69,0,0,0-.43-.12V119l1.45,0h.38v4.44a3.2,3.2,0,0,0,.05.74.5.5,0,0,0,.19.32,1.37,1.37,0,0,0,.46.19v.3h-2.44Zm1.78-8.07v1.2h-1.15v-1.2ZM151.29,123a2.8,2.8,0,0,0,.34.86,1.25,1.25,0,0,0,.55.47,2.11,2.11,0,0,0,.86.15,1.5,1.5,0,0,0,1.11-.38,1.46,1.46,0,0,0,.39-1.1,1.67,1.67,0,0,0-.16-.78,1.82,1.82,0,0,0-.53-.6,7.29,7.29,0,0,0-1.12-.65,6.14,6.14,0,0,1-1.14-.71,2.33,2.33,0,0,1-.64-.75,2,2,0,0,1-.2-.88,2.3,2.3,0,0,1,.32-1.21,2.16,2.16,0,0,1,1-.79,3.62,3.62,0,0,1,1.44-.28,6.77,6.77,0,0,1,.92.06,7.11,7.11,0,0,1,1.13.22v1.67h-.61a3,3,0,0,0-.36-.85A1.25,1.25,0,0,0,154,117a2.05,2.05,0,0,0-.76-.12,1.66,1.66,0,0,0-.72.15,1.17,1.17,0,0,0-.51.45,1.36,1.36,0,0,0-.18.71,1.67,1.67,0,0,0,.15.75,1.73,1.73,0,0,0,.5.56,5.57,5.57,0,0,0,1,.59,6.93,6.93,0,0,1,1.23.74,2.68,2.68,0,0,1,.69.78,2.08,2.08,0,0,1,.24,1,2.77,2.77,0,0,1-.2,1.1,1.9,1.9,0,0,1-.57.73,2.19,2.19,0,0,1-.87.41,4.33,4.33,0,0,1-1.11.13,9.12,9.12,0,0,1-2.25-.33V123Zm-6.37-1.75a5.35,5.35,0,0,0,0-.78,1.58,1.58,0,0,0-.14-.49,1,1,0,0,0-.28-.33,1.16,1.16,0,0,0-.38-.2,1.85,1.85,0,0,0-.5-.06,1.36,1.36,0,0,0-1.21.63,3.35,3.35,0,0,0-.42,1.83,3.78,3.78,0,0,0,.34,1.81,1.11,1.11,0,0,0,1,.62,1.92,1.92,0,0,0,.45,0,1.38,1.38,0,0,0,.36-.15,2,2,0,0,0,.35-.28,1.78,1.78,0,0,0,.27-.33,1.5,1.5,0,0,0,.12-.34,2.27,2.27,0,0,0,0-.5Zm0-3.07c0-.4,0-.67,0-.83a3.34,3.34,0,0,0,0-.4.92.92,0,0,0-.11-.26.62.62,0,0,0-.2-.15,2,2,0,0,0-.43-.11v-.32l1.5-.06H146v7.19c0,.32,0,.55,0,.69a.88.88,0,0,0,.08.33.48.48,0,0,0,.2.2,2,2,0,0,0,.47.15v.32l-1.47.06h-.37l.07-1-.09,0a5.13,5.13,0,0,1-.68.63,3.6,3.6,0,0,1-.61.33,2,2,0,0,1-.7.12,1.81,1.81,0,0,1-1.57-.77,3.82,3.82,0,0,1-.56-2.24,3.77,3.77,0,0,1,.36-1.72,2.41,2.41,0,0,1,1-1.06,2.61,2.61,0,0,1,1.37-.35,4.38,4.38,0,0,1,.75.06,4.21,4.21,0,0,1,.69.22Zm-7.73,6.45.35-.13a.64.64,0,0,0,.17-.16.86.86,0,0,0,.11-.3,3.39,3.39,0,0,0,0-.64v-2.71c0-.27,0-.48,0-.64a1,1,0,0,0-.09-.39.47.47,0,0,0-.22-.22,3.24,3.24,0,0,0-.44-.12V119l1.45,0h.38v4.44a3.2,3.2,0,0,0,0,.74.5.5,0,0,0,.19.32,1.37,1.37,0,0,0,.46.19v.3h-2.44Zm1.78-8.07v1.2h-1.15v-1.2ZM130,119h1.77v3.16a9.84,9.84,0,0,0,.05,1.11,1.85,1.85,0,0,0,.17.57,1,1,0,0,0,.32.33,1.11,1.11,0,0,0,.56.12,1.22,1.22,0,0,0,.46-.09,2.09,2.09,0,0,0,.48-.32,1.43,1.43,0,0,0,.38-.47,1.12,1.12,0,0,0,.12-.53v-2.33c0-.24,0-.41,0-.53a1,1,0,0,0-.06-.29,1,1,0,0,0-.1-.18.57.57,0,0,0-.17-.12,1.72,1.72,0,0,0-.35-.12V119h1.77v4.25a5.87,5.87,0,0,0,0,.68.74.74,0,0,0,.08.34.46.46,0,0,0,.19.2,1.87,1.87,0,0,0,.46.15v.32l-1.42.06h-.38l0-1-.09,0a4.08,4.08,0,0,1-1,.82,1.93,1.93,0,0,1-.94.26,1.76,1.76,0,0,1-.93-.22,1.42,1.42,0,0,1-.55-.67,3.45,3.45,0,0,1-.18-1.25v-2.35a3.91,3.91,0,0,0,0-.72.54.54,0,0,0-.15-.31,1.2,1.2,0,0,0-.5-.21Zm-2.62,2.24a4,4,0,0,0-.08-.89,1.29,1.29,0,0,0-.25-.54,1,1,0,0,0-.42-.32,1.7,1.7,0,0,0-.57-.09,1.37,1.37,0,0,0-1.23.64,3.24,3.24,0,0,0-.43,1.82,3.76,3.76,0,0,0,.35,1.81,1.1,1.1,0,0,0,1,.62,2,2,0,0,0,.45,0,1.38,1.38,0,0,0,.36-.15,2.18,2.18,0,0,0,.36-.29,1.37,1.37,0,0,0,.26-.33,1,1,0,0,0,.12-.33,2.27,2.27,0,0,0,.05-.5Zm1.77,6.37h-2.54v-.3a1.62,1.62,0,0,0,.44-.14.61.61,0,0,0,.2-.19.81.81,0,0,0,.1-.31,4.4,4.4,0,0,0,0-.61v-2.14a4.39,4.39,0,0,1-.63.61,2.68,2.68,0,0,1-.64.37,2,2,0,0,1-.75.14,1.81,1.81,0,0,1-1.57-.76,3.76,3.76,0,0,1-.55-2.23,4,4,0,0,1,.35-1.74,2.39,2.39,0,0,1,1-1.06,3.08,3.08,0,0,1,1.48-.35,3.18,3.18,0,0,1,.79.09,3.36,3.36,0,0,1,.73.29l.44-.38.42.1V126c0,.25,0,.44,0,.59a1.08,1.08,0,0,0,.1.33.51.51,0,0,0,.21.2,3.07,3.07,0,0,0,.37.13Zm-9.49-3a2.49,2.49,0,0,0,.34-.13.55.55,0,0,0,.18-.16,1.12,1.12,0,0,0,.11-.3,3.39,3.39,0,0,0,0-.64v-2.71c0-.27,0-.48,0-.64a1,1,0,0,0-.09-.39.45.45,0,0,0-.23-.22,2.69,2.69,0,0,0-.43-.12V119l1.45,0h.38v4.44a3.2,3.2,0,0,0,0,.74.5.5,0,0,0,.19.32,1.4,1.4,0,0,0,.45.19v.3h-2.43Zm1.77-8.07v1.2h-1.14v-1.2Zm-6.56,7.8h1.63a2.9,2.9,0,0,0,.45,0,.88.88,0,0,0,.3-.1.66.66,0,0,0,.23-.18,1.56,1.56,0,0,0,.2-.3,2.49,2.49,0,0,0,.17-.47c.06-.19.13-.47.21-.85h.63l-.13,2.5H113v-.3a1.37,1.37,0,0,0,.52-.22.72.72,0,0,0,.17-.35,3.89,3.89,0,0,0,0-.68V118a4.64,4.64,0,0,0,0-.63.7.7,0,0,0-.11-.3.52.52,0,0,0-.18-.18,2.32,2.32,0,0,0-.41-.14v-.31h2.62v.31a2.15,2.15,0,0,0-.39.13.49.49,0,0,0-.19.16.7.7,0,0,0-.11.3,3.57,3.57,0,0,0,0,.66Z"/><path class="cls-7" d="M163.75,168.87a4.28,4.28,0,0,0,.07.91,1.11,1.11,0,0,0,.27.53,1.23,1.23,0,0,0,.44.3,1.9,1.9,0,0,0,.69.1,1.23,1.23,0,0,0,1.12-.62,3.55,3.55,0,0,0,.38-1.85c0-1.62-.47-2.43-1.42-2.43a1.57,1.57,0,0,0-.6.11,1.69,1.69,0,0,0-.5.35,1.73,1.73,0,0,0-.35.47,1.13,1.13,0,0,0-.1.49Zm0,2v1.31a4.5,4.5,0,0,0,0,.61.81.81,0,0,0,.09.31.55.55,0,0,0,.21.19,1.53,1.53,0,0,0,.43.14v.3H162v-.3a2.37,2.37,0,0,0,.36-.13.46.46,0,0,0,.22-.19,1,1,0,0,0,.1-.35c0-.14,0-.33,0-.58V166.9c0-.3,0-.51,0-.64a1.82,1.82,0,0,0,0-.31.6.6,0,0,0-.11-.21.72.72,0,0,0-.19-.14l-.4-.11v-.33l1.46,0h.37l-.08,1,.1,0a5.49,5.49,0,0,1,.61-.57,2.27,2.27,0,0,1,.46-.3,2.36,2.36,0,0,1,.46-.17,2.26,2.26,0,0,1,.47-.05,1.83,1.83,0,0,1,1.57.77,3.81,3.81,0,0,1,.55,2.25,4.2,4.2,0,0,1-.31,1.72,2.23,2.23,0,0,1-.9,1,2.79,2.79,0,0,1-1.42.35,3.6,3.6,0,0,1-.83-.08A3.38,3.38,0,0,1,163.75,170.91Zm-4.41-2.64a4.51,4.51,0,0,0-1.89.33,1,1,0,0,0-.63,1,.93.93,0,0,0,.15.56.71.71,0,0,0,.36.28,1.52,1.52,0,0,0,.51.08,1.46,1.46,0,0,0,.77-.21,1.5,1.5,0,0,0,.54-.52,1.18,1.18,0,0,0,.19-.63Zm.11,1.94-.1,0a3.77,3.77,0,0,1-1,.78,2.37,2.37,0,0,1-1,.23,1.86,1.86,0,0,1-.84-.18,1.32,1.32,0,0,1-.55-.52,1.49,1.49,0,0,1-.19-.77,1.54,1.54,0,0,1,.9-1.4,6.39,6.39,0,0,1,2.69-.57v-.4a3.12,3.12,0,0,0-.13-1,1,1,0,0,0-.39-.55,1.22,1.22,0,0,0-.71-.17,1.14,1.14,0,0,0-.78.25,1.48,1.48,0,0,0-.44.77h-.82v-.81a9.61,9.61,0,0,1,1-.46,6,6,0,0,1,.8-.23,4.28,4.28,0,0,1,.81-.08,2.08,2.08,0,0,1,1,.19,1.21,1.21,0,0,1,.56.6,3,3,0,0,1,.19,1.22v2.16c0,.31,0,.52,0,.65a1.9,1.9,0,0,0,0,.35.78.78,0,0,0,.1.26.47.47,0,0,0,.18.16,1.53,1.53,0,0,0,.4.15v.3h-1.71Zm-4.88-7.41v1.72H154a2.65,2.65,0,0,0-.38-.86,1.32,1.32,0,0,0-.53-.45,1.79,1.79,0,0,0-.73-.14,1.67,1.67,0,0,0-1.14.43,2.81,2.81,0,0,0-.79,1.28,6.53,6.53,0,0,0-.28,2.06,8.3,8.3,0,0,0,.23,2.08,2.82,2.82,0,0,0,.7,1.3,1.56,1.56,0,0,0,1.13.43,2,2,0,0,0,.83-.14,1.26,1.26,0,0,0,.54-.46,3.65,3.65,0,0,0,.42-.94h.62v1.78a9.42,9.42,0,0,1-1.2.23,9.28,9.28,0,0,1-1.34.08,2.82,2.82,0,0,1-2.39-1.07,5.28,5.28,0,0,1-.8-3.18,6.14,6.14,0,0,1,.41-2.33,3.28,3.28,0,0,1,3.18-2.1,8.5,8.5,0,0,1,1,.06A10,10,0,0,1,154.57,162.8Zm-14.16,3.66-1.63,4.67h-.87l-1.49-4.61a3.85,3.85,0,0,0-.24-.63.86.86,0,0,0-.2-.27.89.89,0,0,0-.35-.15v-.31h2.45v.31a1.1,1.1,0,0,0-.49.19.53.53,0,0,0-.12.37,1.45,1.45,0,0,0,0,.35,3.31,3.31,0,0,0,.11.42l1,3.17,1.6-4.81h.87l1.36,4.81,1.09-3a2.59,2.59,0,0,0,.14-.45,1.44,1.44,0,0,0,.06-.4.56.56,0,0,0-.14-.4.83.83,0,0,0-.48-.21v-.31h2.17v.31a1.26,1.26,0,0,0-.26.09.53.53,0,0,0-.17.14,1.21,1.21,0,0,0-.19.28,4.64,4.64,0,0,0-.25.58l-1.8,4.57h-.84Zm-6.64,1.06a4.8,4.8,0,0,0-.17-1.09,1.43,1.43,0,0,0-.39-.65,1,1,0,0,0-.69-.23,1.22,1.22,0,0,0-1,.51,2.83,2.83,0,0,0-.45,1.46Zm1,2.53a6.47,6.47,0,0,1-.73.65,2.64,2.64,0,0,1-.73.37,2.71,2.71,0,0,1-.88.13,2.41,2.41,0,0,1-1.93-.77,3.42,3.42,0,0,1-.65-2.26,3.8,3.8,0,0,1,.33-1.63,2.5,2.5,0,0,1,.95-1.1,2.66,2.66,0,0,1,1.41-.38,2.62,2.62,0,0,1,1.07.2,1.77,1.77,0,0,1,.71.54,2.51,2.51,0,0,1,.41.87,5.53,5.53,0,0,1,.16,1.37H131v.11a3.92,3.92,0,0,0,.17,1.23,1.49,1.49,0,0,0,.53.79,1.6,1.6,0,0,0,1,.28,2.1,2.1,0,0,0,.92-.19,2.74,2.74,0,0,0,.81-.62Zm-8.36-3.86.09,0a4.38,4.38,0,0,1,.63-.65,2.22,2.22,0,0,1,.63-.37,2.07,2.07,0,0,1,.77-.13,4.36,4.36,0,0,1,.65,0v1.42h-.7a1.47,1.47,0,0,0-.32-.48.67.67,0,0,0-.46-.16.82.82,0,0,0-.44.14,1.73,1.73,0,0,0-.71.84,1.58,1.58,0,0,0-.08.52v2.17a2.79,2.79,0,0,0,.07.78.5.5,0,0,0,.23.31,1.27,1.27,0,0,0,.47.16v.3h-2.5v-.3a3.17,3.17,0,0,0,.34-.13.52.52,0,0,0,.17-.16.85.85,0,0,0,.12-.3,4.92,4.92,0,0,0,0-.64v-2.71c0-.27,0-.48,0-.64a1,1,0,0,0-.09-.39.41.41,0,0,0-.22-.21,2,2,0,0,0-.43-.13v-.32l1.45-.06h.38Zm-2.66-.88v1.3H123a1.93,1.93,0,0,0-.26-.64.81.81,0,0,0-.36-.33,1.29,1.29,0,0,0-.51-.09,1.14,1.14,0,0,0-.77.28,1.91,1.91,0,0,0-.53.85,4.37,4.37,0,0,0-.2,1.4,5.64,5.64,0,0,0,.08,1,2.21,2.21,0,0,0,.25.75,1.23,1.23,0,0,0,.48.48,1.42,1.42,0,0,0,.74.18,1.94,1.94,0,0,0,.8-.17,2.41,2.41,0,0,0,.76-.59l.36.41a5.36,5.36,0,0,1-.56.54,3,3,0,0,1-.52.32,2.85,2.85,0,0,1-.54.18,2.74,2.74,0,0,1-.59.06,2.15,2.15,0,0,1-1.79-.78,3.51,3.51,0,0,1-.63-2.25,3.69,3.69,0,0,1,.35-1.63,2.62,2.62,0,0,1,1-1.1,2.74,2.74,0,0,1,1.44-.38,6.76,6.76,0,0,1,.94.06A5.42,5.42,0,0,1,123.79,165.31Zm-10.22,3.86a2.49,2.49,0,0,0,.33.86,1.31,1.31,0,0,0,.55.47,2.11,2.11,0,0,0,.86.15,1.51,1.51,0,0,0,1.12-.38,1.46,1.46,0,0,0,.38-1.1,1.67,1.67,0,0,0-.16-.78,1.78,1.78,0,0,0-.52-.6,8.44,8.44,0,0,0-1.12-.65,5.94,5.94,0,0,1-1.15-.71,2.51,2.51,0,0,1-.63-.74,1.91,1.91,0,0,1-.21-.89,2.16,2.16,0,0,1,.33-1.2,2,2,0,0,1,1-.8,3.68,3.68,0,0,1,1.45-.28,7,7,0,0,1,.92.06,7.56,7.56,0,0,1,1.13.22v1.67h-.62a2.35,2.35,0,0,0-.36-.84,1.1,1.1,0,0,0-.51-.43,2,2,0,0,0-.75-.12,1.7,1.7,0,0,0-.73.15,1.15,1.15,0,0,0-.5.45,1.28,1.28,0,0,0-.19.71,1.54,1.54,0,0,0,.16.75,1.69,1.69,0,0,0,.49.56,6,6,0,0,0,1,.59A7.07,7.07,0,0,1,117,167a2.5,2.5,0,0,1,.68.78,2.08,2.08,0,0,1,.25,1,2.6,2.6,0,0,1-.21,1.1,1.9,1.9,0,0,1-.57.73,2.19,2.19,0,0,1-.87.41,4.28,4.28,0,0,1-1.11.13,9,9,0,0,1-2.24-.33v-1.7Z"/><path class="cls-7" d="M173.82,197.08h.2a1.09,1.09,0,0,0,.34,0,1.73,1.73,0,0,0,.34-.19c.12-.09.3-.24.53-.45a5.38,5.38,0,0,0,.43-.45,1.41,1.41,0,0,0,.2-.34.86.86,0,0,0,0-.27.4.4,0,0,0-.11-.29.7.7,0,0,0-.38-.14v-.31h2.68v.31a1.83,1.83,0,0,0-.61.25,4.3,4.3,0,0,0-.67.53L175.39,197l1.79,2.33a3.14,3.14,0,0,0,.57.61,1.29,1.29,0,0,0,.54.26v.3h-2.38v-.3a.57.57,0,0,0,.24-.07.22.22,0,0,0,.08-.18.58.58,0,0,0,0-.18,1.11,1.11,0,0,0-.14-.25l-.38-.54-.74-1a3.62,3.62,0,0,0-.3-.37.5.5,0,0,0-.19-.12.7.7,0,0,0-.27,0h-.35V199a3.91,3.91,0,0,0,.05.74.54.54,0,0,0,.19.32,1.47,1.47,0,0,0,.46.19v.3h-2.47v-.3a1.44,1.44,0,0,0,.43-.17.6.6,0,0,0,.18-.21,1.17,1.17,0,0,0,.07-.33,4,4,0,0,0,0-.54v-5.2c0-.4,0-.67,0-.83a2.15,2.15,0,0,0,0-.4.7.7,0,0,0-.12-.26.58.58,0,0,0-.19-.15A2.09,2.09,0,0,0,172,192v-.32l1.5-.06h.37Zm-3-1.11h-.59a1.91,1.91,0,0,0-.33-.59.94.94,0,0,0-.42-.3,1.64,1.64,0,0,0-.58-.09,1.28,1.28,0,0,0-.79.23.77.77,0,0,0-.29.64.93.93,0,0,0,.11.47,1.25,1.25,0,0,0,.37.35,6.57,6.57,0,0,0,.88.43,6.48,6.48,0,0,1,1,.5,1.82,1.82,0,0,1,.54.53,1.35,1.35,0,0,1,.2.73,1.89,1.89,0,0,1-.17.83,1.44,1.44,0,0,1-.47.54,1.81,1.81,0,0,1-.72.31,4.42,4.42,0,0,1-.92.09,5.58,5.58,0,0,1-1-.08,9.59,9.59,0,0,1-1-.2v-1.3h.61a1.57,1.57,0,0,0,.5.83,1.38,1.38,0,0,0,.9.26,1.61,1.61,0,0,0,.44-.05,1.08,1.08,0,0,0,.38-.15.79.79,0,0,0,.27-.3.92.92,0,0,0,.1-.46,1,1,0,0,0-.12-.52,1.37,1.37,0,0,0-.39-.36,7.18,7.18,0,0,0-.92-.45,5,5,0,0,1-.9-.45,1.82,1.82,0,0,1-.54-.53,1.32,1.32,0,0,1-.2-.72,1.43,1.43,0,0,1,.28-.89,1.67,1.67,0,0,1,.8-.57,3.43,3.43,0,0,1,1.22-.2,6.74,6.74,0,0,1,.79,0c.26,0,.57.08,1,.16Zm-7.69,4.27a1.88,1.88,0,0,0,.34-.13.55.55,0,0,0,.18-.16,1,1,0,0,0,.11-.3,4.54,4.54,0,0,0,0-.64V196.3c0-.26,0-.48,0-.64a1,1,0,0,0-.09-.39.43.43,0,0,0-.23-.21,1.86,1.86,0,0,0-.43-.13v-.33l1.45,0h.37V199a3.91,3.91,0,0,0,0,.74.6.6,0,0,0,.19.32,1.59,1.59,0,0,0,.46.19v.3h-2.43Zm1.77-8.07v1.21H163.8v-1.21Zm-8.15,7.8.73,0a4.31,4.31,0,0,0,.93-.09,3,3,0,0,0,.75-.27,2.08,2.08,0,0,0,.6-.52,2.83,2.83,0,0,0,.43-.76,4,4,0,0,0,.25-1,8.23,8.23,0,0,0,.08-1.16,5,5,0,0,0-.37-2.07,2.44,2.44,0,0,0-1-1.18,3.16,3.16,0,0,0-1.58-.37c-.28,0-.55,0-.8,0Zm-1.9.57v-.3a1.64,1.64,0,0,0,.41-.15.48.48,0,0,0,.2-.17.87.87,0,0,0,.1-.3,4.85,4.85,0,0,0,0-.63v-5.37a4.64,4.64,0,0,0,0-.63.7.7,0,0,0-.11-.3.55.55,0,0,0-.19-.18,1.84,1.84,0,0,0-.41-.14v-.31h2.72a6.08,6.08,0,0,1,1.93.26,3.46,3.46,0,0,1,1.26.76,3.26,3.26,0,0,1,.77,1.25,5.6,5.6,0,0,1,.25,1.79,6.11,6.11,0,0,1-.24,1.85,3.62,3.62,0,0,1-.69,1.34,3.25,3.25,0,0,1-1,.77,3.56,3.56,0,0,1-1.1.36,10.71,10.71,0,0,1-1.67.1Zm-7.81.1a1.81,1.81,0,0,0-.47.5,1.12,1.12,0,0,0-.16.6.89.89,0,0,0,.44.82,2.69,2.69,0,0,0,1.36.27,2.76,2.76,0,0,0,1-.15,1.27,1.27,0,0,0,.61-.43,1.05,1.05,0,0,0,.21-.65,1.27,1.27,0,0,0,0-.34.75.75,0,0,0-.17-.3.85.85,0,0,0-.34-.2,1.84,1.84,0,0,0-.58-.08H148A7.85,7.85,0,0,1,147.08,200.64Zm-.15-4.15a2,2,0,0,0,.31,1.2,1.08,1.08,0,0,0,.92.42,1.13,1.13,0,0,0,.54-.12,1,1,0,0,0,.36-.33,1.44,1.44,0,0,0,.2-.49,2.57,2.57,0,0,0-.09-1.49,1.16,1.16,0,0,0-.42-.54,1.14,1.14,0,0,0-.61-.17,1.06,1.06,0,0,0-.9.39A1.77,1.77,0,0,0,146.93,196.49Zm4.31-1.26-1.15,0-.06.07a1.19,1.19,0,0,1,.3.52,2.09,2.09,0,0,1,.12.72,2,2,0,0,1-.63,1.56,2.55,2.55,0,0,1-1.77.55,2.65,2.65,0,0,1-.89-.13,1,1,0,0,0-.47.71.58.58,0,0,0,.09.35.54.54,0,0,0,.3.16,2.55,2.55,0,0,0,.63.05h1.49a2.34,2.34,0,0,1,1.07.21,1.25,1.25,0,0,1,.6.55,1.85,1.85,0,0,1,.17.8,1.72,1.72,0,0,1-.33,1,2.12,2.12,0,0,1-1,.71,4,4,0,0,1-1.48.26,8.09,8.09,0,0,1-1.15-.08,3,3,0,0,1-.88-.25,1.4,1.4,0,0,1-.57-.46,1.23,1.23,0,0,1-.21-.73,1.09,1.09,0,0,1,.27-.71,2.27,2.27,0,0,1,.73-.56,1.15,1.15,0,0,1-.46-.35.89.89,0,0,1-.16-.54,1.11,1.11,0,0,1,.2-.65,3,3,0,0,1,.7-.67,1.72,1.72,0,0,1-.68-.71,2.13,2.13,0,0,1-.24-1,2.27,2.27,0,0,1,.18-.93,1.78,1.78,0,0,1,.49-.65,2.08,2.08,0,0,1,.74-.38,3.12,3.12,0,0,1,.93-.13,3.86,3.86,0,0,1,.89.1h2.2Zm-6.62,5.31h-2.45v-.3a1.88,1.88,0,0,0,.34-.13.4.4,0,0,0,.18-.16.85.85,0,0,0,.12-.3,4.54,4.54,0,0,0,0-.64v-1.62c0-.29,0-.56,0-.79a3.52,3.52,0,0,0-.08-.58,1.22,1.22,0,0,0-.15-.36.8.8,0,0,0-.2-.21.93.93,0,0,0-.26-.15,1.37,1.37,0,0,0-.39-.05,1.06,1.06,0,0,0-.46.1,1.72,1.72,0,0,0-.48.33,1.74,1.74,0,0,0-.38.47,1.08,1.08,0,0,0-.12.52V199a3.91,3.91,0,0,0,0,.74.6.6,0,0,0,.19.32,1.59,1.59,0,0,0,.46.19v.3h-2.43v-.3a1.88,1.88,0,0,0,.34-.13.44.44,0,0,0,.17-.16.78.78,0,0,0,.12-.3,4.54,4.54,0,0,0,0-.64V196.3c0-.26,0-.48,0-.64a.87.87,0,0,0-.08-.39.43.43,0,0,0-.23-.21,2,2,0,0,0-.43-.13v-.33l1.45,0h.38l-.07,1,.09,0a6.13,6.13,0,0,1,.74-.67,3.2,3.2,0,0,1,.57-.31,1.83,1.83,0,0,1,.61-.11,2.13,2.13,0,0,1,.6.08,1.31,1.31,0,0,1,.47.24,1.29,1.29,0,0,1,.33.4,2.07,2.07,0,0,1,.2.58,4.88,4.88,0,0,1,.06.85V199a4.57,4.57,0,0,0,0,.62.72.72,0,0,0,.08.3.77.77,0,0,0,.18.18,3,3,0,0,0,.42.15Zm-9.59-.3a2.05,2.05,0,0,0,.35-.13.52.52,0,0,0,.17-.16.65.65,0,0,0,.11-.3,3.39,3.39,0,0,0,0-.64V196.3c0-.26,0-.48,0-.64a1,1,0,0,0-.09-.39.41.41,0,0,0-.22-.21,2,2,0,0,0-.44-.13v-.33l1.45,0h.38V199a3.91,3.91,0,0,0,0,.74.54.54,0,0,0,.19.32,1.47,1.47,0,0,0,.46.19v.3H135Zm1.78-8.07v1.21h-1.14v-1.21ZM133.24,199a3.2,3.2,0,0,0,0,.74.5.5,0,0,0,.19.32,1.4,1.4,0,0,0,.45.19v.3h-2.46v-.3a1.57,1.57,0,0,0,.43-.17.48.48,0,0,0,.17-.21,1.14,1.14,0,0,0,.08-.33c0-.14,0-.32,0-.54v-5.2c0-.4,0-.67,0-.83a2.07,2.07,0,0,0,0-.4.92.92,0,0,0-.11-.26.58.58,0,0,0-.19-.15,2.27,2.27,0,0,0-.44-.11v-.32l1.5-.06h.37Zm-4.39-1.28a4.33,4.33,0,0,0-1.89.34,1,1,0,0,0-.62,1,1,1,0,0,0,.14.56.7.7,0,0,0,.36.28,1.62,1.62,0,0,0,.52.08,1.43,1.43,0,0,0,.76-.21,1.5,1.5,0,0,0,.54-.52,1.17,1.17,0,0,0,.19-.62Zm.11,1.94-.09,0a3.65,3.65,0,0,1-1,.78,2.2,2.2,0,0,1-1,.23,1.84,1.84,0,0,1-.83-.18,1.28,1.28,0,0,1-.56-.52,1.57,1.57,0,0,1-.19-.77,1.51,1.51,0,0,1,.9-1.39,6.29,6.29,0,0,1,2.69-.58v-.4a3.46,3.46,0,0,0-.12-1,1,1,0,0,0-.39-.55,1.37,1.37,0,0,0-.72-.17,1.16,1.16,0,0,0-.78.25,1.63,1.63,0,0,0-.44.77h-.81v-.81a8,8,0,0,1,1-.46,5.88,5.88,0,0,1,.79-.23,4.45,4.45,0,0,1,.81-.08,2,2,0,0,1,1,.2,1.19,1.19,0,0,1,.56.59,3.16,3.16,0,0,1,.18,1.22v2.16c0,.31,0,.53,0,.65a3.39,3.39,0,0,0,0,.35.71.71,0,0,0,.09.26.4.4,0,0,0,.18.16,1.89,1.89,0,0,0,.4.15v.3h-1.7ZM123.08,197a4.86,4.86,0,0,0-.16-1.09,1.36,1.36,0,0,0-.4-.65,1,1,0,0,0-.68-.23,1.2,1.2,0,0,0-1,.51,2.66,2.66,0,0,0-.45,1.46Zm1,2.53a6.47,6.47,0,0,1-.73.65,3,3,0,0,1-.73.37,2.75,2.75,0,0,1-.88.13,2.36,2.36,0,0,1-1.93-.77,3.37,3.37,0,0,1-.65-2.26,3.8,3.8,0,0,1,.33-1.63,2.56,2.56,0,0,1,.95-1.1,2.66,2.66,0,0,1,1.41-.38,2.62,2.62,0,0,1,1.07.2,1.77,1.77,0,0,1,.71.54,2.7,2.7,0,0,1,.41.87,6.06,6.06,0,0,1,.16,1.37h-3.91v.11a4,4,0,0,0,.16,1.23,1.56,1.56,0,0,0,.54.79,1.58,1.58,0,0,0,1,.28,2.1,2.1,0,0,0,.92-.19,2.74,2.74,0,0,0,.81-.62Zm-10.56-.88a2.49,2.49,0,0,0,.33.86,1.24,1.24,0,0,0,.55.47,2.11,2.11,0,0,0,.86.15,1.55,1.55,0,0,0,1.12-.37,1.5,1.5,0,0,0,.38-1.11,1.67,1.67,0,0,0-.16-.78,1.78,1.78,0,0,0-.52-.6,8.44,8.44,0,0,0-1.12-.65,5.49,5.49,0,0,1-1.15-.71,2.29,2.29,0,0,1-.63-.74,1.91,1.91,0,0,1-.21-.89,2.16,2.16,0,0,1,.33-1.2,2,2,0,0,1,1-.8,3.68,3.68,0,0,1,1.45-.27,7,7,0,0,1,.92.05,7.56,7.56,0,0,1,1.13.22v1.68h-.62a2.33,2.33,0,0,0-.36-.85,1.1,1.1,0,0,0-.51-.43,2,2,0,0,0-.75-.12,1.7,1.7,0,0,0-.73.15,1.15,1.15,0,0,0-.5.45,1.29,1.29,0,0,0-.19.72,1.53,1.53,0,0,0,.16.74,1.82,1.82,0,0,0,.49.57,7.46,7.46,0,0,0,1,.58,7.07,7.07,0,0,1,1.24.74,2.62,2.62,0,0,1,.68.78,2.08,2.08,0,0,1,.25,1,2.6,2.6,0,0,1-.21,1.1,1.9,1.9,0,0,1-.57.73,2.19,2.19,0,0,1-.87.41,4.25,4.25,0,0,1-1.1.13,9.06,9.06,0,0,1-2.25-.33v-1.7Z"/><path class="cls-7" d="M177.87,265.92a4.8,4.8,0,0,0-.17-1.09,1.43,1.43,0,0,0-.39-.65,1,1,0,0,0-.69-.23,1.22,1.22,0,0,0-1,.51,2.83,2.83,0,0,0-.45,1.46Zm1,2.53a6.47,6.47,0,0,1-.73.65,2.64,2.64,0,0,1-.73.37,2.71,2.71,0,0,1-.88.13,2.41,2.41,0,0,1-1.93-.77,3.42,3.42,0,0,1-.65-2.26,3.8,3.8,0,0,1,.33-1.63,2.57,2.57,0,0,1,1-1.1,2.89,2.89,0,0,1,2.49-.18,1.81,1.81,0,0,1,.7.54,2.51,2.51,0,0,1,.41.87,6,6,0,0,1,.17,1.37h-3.92v.11a3.92,3.92,0,0,0,.17,1.23,1.45,1.45,0,0,0,1.51,1.07,2.1,2.1,0,0,0,.92-.19,2.74,2.74,0,0,0,.81-.62Zm-6.76-.5a3.91,3.91,0,0,0,0,.74.54.54,0,0,0,.19.32,1.47,1.47,0,0,0,.46.19v.3h-2.47v-.3a1.44,1.44,0,0,0,.43-.17.51.51,0,0,0,.18-.21,1.17,1.17,0,0,0,.07-.33,4,4,0,0,0,0-.54v-5.2c0-.4,0-.67,0-.83a3.34,3.34,0,0,0-.05-.4.7.7,0,0,0-.12-.26.49.49,0,0,0-.19-.15,2.09,2.09,0,0,0-.44-.11v-.32l1.5-.06h.37Zm-6.33-4.07a1.46,1.46,0,0,0,.5-.18.84.84,0,0,0,.3-.32,1.48,1.48,0,0,0,.17-.49,6.42,6.42,0,0,0,.13-.86h.89v1.53h2v.63h-2V267a6.07,6.07,0,0,0,.05,1,1.27,1.27,0,0,0,.18.56.84.84,0,0,0,.31.29,1,1,0,0,0,.45.09,1.15,1.15,0,0,0,.46-.1,1.68,1.68,0,0,0,.43-.3l.28.34a3.5,3.5,0,0,1-.83.62,1.83,1.83,0,0,1-.82.19,1.47,1.47,0,0,1-1.19-.47,2.35,2.35,0,0,1-.39-1.49v-3.45h-.92Zm-4.31,0a1.52,1.52,0,0,0,.51-.18.84.84,0,0,0,.3-.32,1.75,1.75,0,0,0,.17-.49c0-.19.08-.48.13-.86h.88v1.53h2v.63h-2V267a7.63,7.63,0,0,0,.05,1,1.41,1.41,0,0,0,.19.56.77.77,0,0,0,.31.29,1,1,0,0,0,.45.09,1.19,1.19,0,0,0,.46-.1,1.68,1.68,0,0,0,.43-.3l.28.34a3.34,3.34,0,0,1-.84.62,1.78,1.78,0,0,1-.81.19,1.46,1.46,0,0,1-1.19-.47,2.35,2.35,0,0,1-.4-1.49v-3.45h-.92Zm-5.15,2.58a3.76,3.76,0,0,0,.41,2,1.28,1.28,0,0,0,1.16.69,1.24,1.24,0,0,0,.71-.2,1.79,1.79,0,0,0,.48-.54,2.69,2.69,0,0,0,.26-.8,5.67,5.67,0,0,0,.08-.94,4.93,4.93,0,0,0-.2-1.51,1.92,1.92,0,0,0-.55-.89,1.24,1.24,0,0,0-.8-.28,1.28,1.28,0,0,0-1.15.65A3.57,3.57,0,0,0,156.36,266.46Zm1.48,3.14a2.49,2.49,0,0,1-2-.76,3.26,3.26,0,0,1-.68-2.25,3.92,3.92,0,0,1,.35-1.73,2.41,2.41,0,0,1,1-1.06,2.9,2.9,0,0,1,1.42-.34,2.57,2.57,0,0,1,2,.77,3.24,3.24,0,0,1,.68,2.22,3.94,3.94,0,0,1-.34,1.74,2.33,2.33,0,0,1-1,1.06A3,3,0,0,1,157.84,269.6Zm-8.44-.69c.3,0,.64,0,1,0a3.07,3.07,0,0,0,1.26-.2,1.36,1.36,0,0,0,.66-.61,2.25,2.25,0,0,0,.2-1,2.07,2.07,0,0,0-.22-1,1.41,1.41,0,0,0-.68-.59,3.57,3.57,0,0,0-1.27-.19h-1Zm1.09-4.08a2.09,2.09,0,0,0,1.44-.46,1.73,1.73,0,0,0,.5-1.33,1.66,1.66,0,0,0-.14-.71,1.07,1.07,0,0,0-.39-.45,1.61,1.61,0,0,0-.58-.24,3.26,3.26,0,0,0-.72-.07H150l-.58,0v3.22Zm-3,4.67v-.3A1.37,1.37,0,0,0,148,269a.68.68,0,0,0,.17-.35,5.24,5.24,0,0,0,0-.68v-5.37a4.64,4.64,0,0,0,0-.63.7.7,0,0,0-.11-.3.55.55,0,0,0-.19-.18,1.9,1.9,0,0,0-.4-.14V261h3.4a4.58,4.58,0,0,1,1.58.22,1.71,1.71,0,0,1,.89.62,1.77,1.77,0,0,1,.3,1.06,2,2,0,0,1-.75,1.6,4.35,4.35,0,0,1-.87.49v.05a2.49,2.49,0,0,1,1.28.79,1.92,1.92,0,0,1,.44,1.26,2.37,2.37,0,0,1-.38,1.38,2.13,2.13,0,0,1-1.05.77,4.94,4.94,0,0,1-1.64.24Zm-5.24-3.58a4.86,4.86,0,0,0-.16-1.09,1.43,1.43,0,0,0-.39-.65A1,1,0,0,0,141,264a1.22,1.22,0,0,0-1,.51,2.83,2.83,0,0,0-.45,1.46Zm1,2.53a6.47,6.47,0,0,1-.73.65,2.79,2.79,0,0,1-.73.37,2.75,2.75,0,0,1-.88.13,2.41,2.41,0,0,1-1.93-.77,3.42,3.42,0,0,1-.65-2.26,3.8,3.8,0,0,1,.33-1.63,2.5,2.5,0,0,1,1-1.1,2.66,2.66,0,0,1,1.41-.38,2.62,2.62,0,0,1,1.07.2,1.77,1.77,0,0,1,.71.54,2.7,2.7,0,0,1,.41.87,5.53,5.53,0,0,1,.16,1.37h-3.91v.11a4,4,0,0,0,.16,1.23,1.56,1.56,0,0,0,.54.79,1.6,1.6,0,0,0,1,.28,2.1,2.1,0,0,0,.92-.19,2.74,2.74,0,0,0,.81-.62Zm-9.07-4.89v.31a1.64,1.64,0,0,0-.41.13.4.4,0,0,0-.18.16.67.67,0,0,0-.06.27,2.21,2.21,0,0,0,0,.35c0,.12.08.26.13.42l1.08,3.15,1.27-3c.08-.2.14-.36.18-.49a1.53,1.53,0,0,0,0-.36.49.49,0,0,0-.14-.39.93.93,0,0,0-.51-.22v-.31H138v.31a.84.84,0,0,0-.37.15,1.28,1.28,0,0,0-.26.32c-.09.15-.19.36-.31.62l-2.09,4.6h-.73l-1.69-4.64a5.16,5.16,0,0,0-.27-.65.9.9,0,0,0-.23-.27,1.07,1.07,0,0,0-.35-.13v-.31Zm-5.64,1,.09,0a5.67,5.67,0,0,1,.63-.65,2.54,2.54,0,0,1,.63-.37,2.07,2.07,0,0,1,.77-.13,4.28,4.28,0,0,1,.65,0v1.42h-.7a1.33,1.33,0,0,0-.32-.48.65.65,0,0,0-.45-.16.88.88,0,0,0-.45.14,1.77,1.77,0,0,0-.43.37,2.22,2.22,0,0,0-.28.47,1.56,1.56,0,0,0-.08.51V268a3.24,3.24,0,0,0,.07.78.58.58,0,0,0,.23.31,1.33,1.33,0,0,0,.48.16v.3h-2.51v-.3a1.88,1.88,0,0,0,.34-.13.55.55,0,0,0,.18-.16.7.7,0,0,0,.11-.3,3.39,3.39,0,0,0,0-.64v-2.71c0-.27,0-.48,0-.64a1,1,0,0,0-.09-.39.43.43,0,0,0-.23-.21,1.86,1.86,0,0,0-.43-.13v-.32l1.45-.06h.38Zm-8.84-1h1.77v3.16a7.91,7.91,0,0,0,0,1.11,1.61,1.61,0,0,0,.17.57.92.92,0,0,0,.32.33,1.08,1.08,0,0,0,.56.12,1,1,0,0,0,.45-.09,1.93,1.93,0,0,0,.49-.32A1.57,1.57,0,0,0,124,268a1.12,1.12,0,0,0,.11-.53v-2.33c0-.24,0-.41,0-.53a1.37,1.37,0,0,0-.07-.29.61.61,0,0,0-.1-.18.52.52,0,0,0-.16-.12,1.86,1.86,0,0,0-.36-.12v-.31h1.77v4.25c0,.32,0,.54,0,.68a1.13,1.13,0,0,0,.08.34.48.48,0,0,0,.2.2,1.73,1.73,0,0,0,.46.15v.32l-1.42.06h-.38l0-1-.1,0a4.05,4.05,0,0,1-1,.82,2,2,0,0,1-.94.26,1.73,1.73,0,0,1-.93-.22,1.32,1.32,0,0,1-.55-.67,3.45,3.45,0,0,1-.18-1.25v-2.35a3.91,3.91,0,0,0,0-.72.69.69,0,0,0-.15-.31,1.26,1.26,0,0,0-.5-.21Zm-1-2.36v1.72h-.61a2.7,2.7,0,0,0-.38-.85,1.24,1.24,0,0,0-.54-.46,1.76,1.76,0,0,0-.73-.14,1.67,1.67,0,0,0-1.14.43,2.8,2.8,0,0,0-.78,1.28,6.51,6.51,0,0,0-.29,2.06,7.82,7.82,0,0,0,.24,2.08,2.82,2.82,0,0,0,.69,1.3,1.58,1.58,0,0,0,1.13.43,2,2,0,0,0,.84-.14,1.39,1.39,0,0,0,.54-.46,4.5,4.5,0,0,0,.42-.94h.61v1.78a9.61,9.61,0,0,1-1.19.23,9.43,9.43,0,0,1-1.35.08,2.77,2.77,0,0,1-2.38-1.07,5.21,5.21,0,0,1-.81-3.18,6,6,0,0,1,.42-2.33,3.26,3.26,0,0,1,3.18-2.1,8.45,8.45,0,0,1,1,.06A10,10,0,0,1,118.72,261.2Zm27.5-8.16a4,4,0,0,0,.05.74.52.52,0,0,0,.19.32,1.21,1.21,0,0,0,.46.18v.31h-2.47v-.31a1.25,1.25,0,0,0,.43-.16.48.48,0,0,0,.17-.21,1.14,1.14,0,0,0,.08-.33c0-.14,0-.32,0-.54v-5.2c0-.4,0-.68,0-.83a1.5,1.5,0,0,0,0-.4.57.57,0,0,0-.11-.26.58.58,0,0,0-.19-.15,2.09,2.09,0,0,0-.44-.11v-.32l1.5-.07h.37Zm-10.56-3.43.08,0c.25-.24.46-.43.61-.56a3.66,3.66,0,0,1,.47-.3,2.31,2.31,0,0,1,.42-.17,1.75,1.75,0,0,1,.4,0,1.68,1.68,0,0,1,1,.29,1.49,1.49,0,0,1,.54.87,9.29,9.29,0,0,1,.75-.69,3,3,0,0,1,.59-.35,1.75,1.75,0,0,1,.65-.12,1.94,1.94,0,0,1,.72.12,1.37,1.37,0,0,1,.51.38,1.43,1.43,0,0,1,.3.63,4,4,0,0,1,.1,1V253a4.68,4.68,0,0,0,0,.65.84.84,0,0,0,.09.28.59.59,0,0,0,.18.17,1.3,1.3,0,0,0,.39.14v.31h-2.44v-.31a1.91,1.91,0,0,0,.35-.12.55.55,0,0,0,.18-.16.7.7,0,0,0,.11-.31,3.34,3.34,0,0,0,0-.63v-1.62c0-.36,0-.65,0-.88a3.11,3.11,0,0,0-.08-.55,1.06,1.06,0,0,0-.15-.32.61.61,0,0,0-.19-.2.72.72,0,0,0-.24-.14,1.35,1.35,0,0,0-.38,0,1.07,1.07,0,0,0-.47.1,1.91,1.91,0,0,0-.46.33,1.51,1.51,0,0,0-.36.48,1.25,1.25,0,0,0-.12.56V253a4.68,4.68,0,0,0,0,.65,1.86,1.86,0,0,0,.09.28.59.59,0,0,0,.18.17,1.28,1.28,0,0,0,.4.14v.31h-2.44v-.31a2.24,2.24,0,0,0,.35-.12A.44.44,0,0,0,138,254a.7.7,0,0,0,.11-.31,3.34,3.34,0,0,0,0-.63v-1.62c0-.37,0-.67,0-.9a3.87,3.87,0,0,0-.1-.56,1,1,0,0,0-.17-.35,1.29,1.29,0,0,0-.21-.2,1.18,1.18,0,0,0-.25-.1,1.51,1.51,0,0,0-.32,0,1.13,1.13,0,0,0-.48.11,1.9,1.9,0,0,0-.45.34,1.31,1.31,0,0,0-.35.45,1.13,1.13,0,0,0-.12.51V253a4,4,0,0,0,0,.54,1,1,0,0,0,.06.29.4.4,0,0,0,.1.17.57.57,0,0,0,.17.12,2,2,0,0,0,.35.12v.31H134v-.31a1.75,1.75,0,0,0,.34-.12.55.55,0,0,0,.18-.16.7.7,0,0,0,.11-.3,3.39,3.39,0,0,0,0-.64v-2.71c0-.27,0-.48,0-.64a1,1,0,0,0-.09-.39.45.45,0,0,0-.23-.22,2.69,2.69,0,0,0-.43-.12v-.33l1.46-.05h.37Zm-8.39,4.64v-1.32H128a1.78,1.78,0,0,0,.56.93,1.5,1.5,0,0,0,1,.3,1.52,1.52,0,0,0,1.25-.5,2.23,2.23,0,0,0,.42-1.48,2.35,2.35,0,0,0-.22-1.09,1.34,1.34,0,0,0-.6-.62,2,2,0,0,0-.89-.2,3.73,3.73,0,0,0-.72.06,4.71,4.71,0,0,0-.65.16l-.5-.29v-4.09h3.42a1.05,1.05,0,0,0,.3,0,.25.25,0,0,0,.15-.11.83.83,0,0,0,.13-.27h.49l-.09,1.44h-3.58v2.73a3.08,3.08,0,0,1,.71-.2,3.81,3.81,0,0,1,.75-.07,2.82,2.82,0,0,1,1.32.3,2.14,2.14,0,0,1,.88.86,2.63,2.63,0,0,1,.31,1.28,2.81,2.81,0,0,1-.35,1.43,2.24,2.24,0,0,1-1,.91,3.59,3.59,0,0,1-1.56.31A6.45,6.45,0,0,1,127.27,254.25Zm-3.62-.65a3,3,0,0,0,.49,0,.7.7,0,0,0,.3-.13.56.56,0,0,0,.18-.22,4.24,4.24,0,0,0,.16-.43h.53l-.11,1.81h-5.11v-.3a8,8,0,0,1,.72-1.33,16.11,16.11,0,0,1,1.29-1.61c.48-.53.83-.93,1-1.21a5.49,5.49,0,0,0,.52-.77,3.19,3.19,0,0,0,.24-.61,2.36,2.36,0,0,0,.07-.58,2.12,2.12,0,0,0-.14-.83,1.27,1.27,0,0,0-.46-.56,1.32,1.32,0,0,0-.77-.2,1.57,1.57,0,0,0-1.57,1.29h-.75v-1.19a7.44,7.44,0,0,1,1.41-.52,5.34,5.34,0,0,1,1.17-.16,2.63,2.63,0,0,1,1.75.51,1.85,1.85,0,0,1,.59,1.47,2.25,2.25,0,0,1-.07.6,2.27,2.27,0,0,1-.2.55,3.8,3.8,0,0,1-.38.58c-.16.21-.33.42-.52.63l-1,1.07a13.41,13.41,0,0,0-1.73,2.18Zm-7.08-.63a2.46,2.46,0,0,0,0,.54.6.6,0,0,0,.14.3.64.64,0,0,0,.3.18,2.21,2.21,0,0,0,.48.1c.19,0,.45,0,.77,0v.45h-4.59v-.45a7,7,0,0,0,1-.09,1.06,1.06,0,0,0,.45-.16.56.56,0,0,0,.23-.29,1.94,1.94,0,0,0,.07-.63v-5a.69.69,0,0,0-.08-.36.31.31,0,0,0-.26-.12,1.26,1.26,0,0,0-.56.21c-.25.14-.55.32-.91.56l-.27-.47,2.9-1.74h.34q0,.6,0,1.65Z"/><path class="cls-8" d="M93.82,18.24,104.28,24,93.82,29.75Zm.91,6.37H56.8V23.37H94.73Z"/><path class="cls-8" d="M93.82,67.14l10.46,5.76L93.82,78.65Zm.91,5.46v.59H56.8V72.6Z"/><path class="cls-8" d="M93.82,116.2,104.28,122l-10.46,5.75Zm.91,5.46v.59H56.8v-.59Z"/><path class="cls-8" d="M93.82,162.24,104.28,168l-10.46,5.76Zm.91,5.46v.59H56.8v-.59Z"/><path class="cls-8" d="M93.82,191.73l10.46,5.76-10.46,5.75Zm.91,5.46v.59H56.8v-.59Z"/><path class="cls-8" d="M93.82,251.9l10.46,5.75-10.46,5.76Zm.91,5.46V258H56.8v-.59Z"/><line class="cls-2" x1="18.16" y1="216.37" x2="43.64" y2="216.37"/><line class="cls-2" x1="18.16" y1="218.4" x2="43.64" y2="218.4"/><line class="cls-2" x1="18.16" y1="220.42" x2="43.64" y2="220.42"/><path class="cls-9" d="M18.26,224.08H43.54M30.9,301.18c-31.71-.52-21.32-14-18.72-31.67,3.18-21.57-11.2-39,5.87-45.37.75-.71.11-6.69.11-10H43.64c0,3.32-.64,9.3.11,10,17.07,6.41,2.69,23.8,5.87,45.37C52.22,287.18,62.61,300.66,30.9,301.18Z"/><path class="cls-4" d="M19.47,80.6A13.31,13.31,0,0,1,24,72.5c2.75-2.64,2.82-8.42,3.6-13.36-.22-1.76.7-2,2.63-2.11,3.51-.11,4.15,1.26,4.78,3.2q3.15,9.59,6.31,19.16a2.92,2.92,0,0,1,0,2.23h0C39.1,86.7,20,84.94,19.47,80.6m8.14-22.44a5.18,5.18,0,0,0,7,1.56m-6.88-1.88s2.23,3.8,6.76,1.43M41.19,78.6c4.43,1,7.31,2.68,7.31,4.56,0,3.1-7.88,5.61-17.6,5.61s-17.61-2.51-17.61-5.61c0-1.77,2.56-3.35,6.56-4.37m21.48,2.83h0"/><path class="cls-4" d="M37.54,76.6A17,17,0,0,1,40.31,78a13.36,13.36,0,0,1,1.22,2.81,9.79,9.79,0,0,1-.35,3.32,3.59,3.59,0,0,1-2,1.06c-1.32.33-12.3.87-13.19.56s-4.66-.63-5.09-1.07-2.26-1.39-2.49-2.41S16.91,81,18.09,80A18.15,18.15,0,0,1,22,77.64a5.84,5.84,0,0,1,3.08-1.1c1.88-.07,12.48.06,12.48.06"/><path class="cls-2" d="M19.47,80.6A13.31,13.31,0,0,1,24,72.5c2.75-2.64,2.82-8.42,3.6-13.36-.22-1.76.7-2,2.63-2.11,3.51-.11,4.15,1.26,4.78,3.2q3.15,9.59,6.31,19.16C44.18,87.1,20,85.49,19.47,80.6Z"/><path class="cls-2" d="M21.27,81.46c-1.16-5,18.29-5.88,20.06.16"/><path class="cls-2" d="M30.33,61.08l-.76,9.68s-.19,6.18-5.1,6.15"/><path class="cls-10" d="M27.61,58.16a5.18,5.18,0,0,0,7,1.56"/><path class="cls-2" d="M27.74,57.84s2.23,3.8,6.76,1.43"/><path class="cls-2" d="M41.19,78.6c4.43,1,7.31,2.68,7.31,4.56,0,3.1-7.88,5.61-17.6,5.61s-17.61-2.51-17.61-5.61c0-1.77,2.56-3.35,6.56-4.37"/><path class="cls-4" d="M42.55,133.45c-.16-11-7.23-11.24-6-19.69,2.08-14.2-13.35-14.2-11.26,0,1.24,8.45-5.83,8.67-6,19.69a15,15,0,0,0-3.34.4c-1.77.47-2.6,1.27-2.64,2.09-.35,6.44,34.58,6.44,35.19.3.1-.92-.64-1.87-2.63-2.39A14.9,14.9,0,0,0,42.55,133.45Z"/><path class="cls-2" d="M42.55,133.45c-.16-11-7.23-11.24-6-19.69,2.08-14.2-13.35-14.2-11.26,0,1.24,8.45-5.83,8.67-6,19.69a15,15,0,0,0-3.34.4c-1.77.47-2.6,1.27-2.64,2.09-.35,6.44,34.58,6.44,35.19.3.1-.92-.64-1.87-2.63-2.39A14.9,14.9,0,0,0,42.55,133.45Z"/><path class="cls-2" d="M19.28,133.45a15,15,0,0,0-3.34.4c-1.77.47-2.6,1.27-2.64,2.09-.35,6.44,34.58,6.44,35.19.3.1-.92-.64-1.87-2.63-2.39a15,15,0,0,0-3.34-.4m-23.24,0c-4.09,3.65,26.47,4.48,23.3,0"/><path class="cls-2" d="M19.28,133.45c.19-11,7.26-11.24,6-19.69-2.09-14.2,13.34-14.2,11.26,0-1.24,8.45,5.83,8.67,6,19.69"/><path class="cls-2" d="M25.29,114.51s7.22,2.48,11.24-.16"/><path class="cls-2" d="M19.16,133.56c-1.44.37-2.49.61-2.52,1.27-.28,5.13,28.07,5.13,28.58.23.07-.73-.83-1.19-2.44-1.61"/><path class="cls-2" d="M25.29,117.23s7.22,2.49,11.24-.16"/><path class="cls-2" d="M24.39,119.89s8.38,2.88,13-.19"/><path class="cls-11" d="M30.9,156.77c6.05,0,11,1.7,11,3.79s-4.9,3.78-11,3.78-11-1.69-11-3.78S24.85,156.77,30.9,156.77Z"/><path class="cls-2" d="M30.9,156.77c6.05,0,11,1.7,11,3.79s-4.9,3.78-11,3.78-11-1.69-11-3.78S24.85,156.77,30.9,156.77Z"/><path class="cls-12" d="M30.93,195.37c4.21,0,7.63,1,7.63,2.15s-3.42,2.16-7.63,2.16-7.64-1-7.64-2.16S26.71,195.37,30.93,195.37Z"/><path class="cls-4" d="M30.9,195.34c4.21,0,7.63,1,7.63,2.15s-3.42,2.15-7.63,2.15-7.63-1-7.63-2.15,3.41-2.15,7.63-2.15"/></g></g></svg>