<svg xmlns="http://www.w3.org/2000/svg" viewBox="0 0 203.96 164.84"><defs><style>.cls-1{fill:#ea008a;}.cls-2,.cls-4{fill:#eb3592;}.cls-3{fill:none;stroke:#fff;stroke-miterlimit:22.93;stroke-width:1.24px;}.cls-4{fill-rule:evenodd;}.cls-5{fill:#fff;}</style></defs><g id="Layer_2" data-name="Layer 2"><g id="Layer_1-2" data-name="Layer 1"><rect class="cls-1" x="0.62" y="0.62" width="202.72" height="163.6"/><rect class="cls-2" x="0.62" y="21.61" width="54.68" height="20.99"/><rect class="cls-3" x="0.62" y="21.61" width="54.68" height="20.99"/><rect class="cls-2" x="137.3" y="21.61" width="66.04" height="20.99"/><rect class="cls-3" x="137.3" y="21.61" width="66.04" height="20.99"/><polygon class="cls-4" points="145.39 21.61 203.34 21.61 203.34 0.62 145.39 0.62 73.43 0.62 0.62 0.62 0.62 21.61 73.43 21.61 145.39 21.61"/><polygon class="cls-3" points="145.39 21.61 203.34 21.61 203.34 0.62 145.39 0.62 73.43 0.62 0.62 0.62 0.62 21.61 73.43 21.61 145.39 21.61"/><rect class="cls-2" x="0.62" y="42.61" width="54.68" height="20.99"/><rect class="cls-3" x="0.62" y="42.61" width="54.68" height="20.99"/><rect class="cls-2" x="55.3" y="42.61" width="82" height="20.99"/><rect class="cls-3" x="55.3" y="42.61" width="82" height="20.99"/><rect class="cls-2" x="137.3" y="42.61" width="66.04" height="20.99"/><rect class="cls-3" x="137.3" y="42.61" width="66.04" height="20.99"/><rect class="cls-2" x="0.62" y="63.6" width="54.68" height="20.99"/><rect class="cls-3" x="0.62" y="63.6" width="54.68" height="20.99"/><rect class="cls-2" x="55.3" y="63.6" width="82" height="20.99"/><rect class="cls-3" x="55.3" y="63.6" width="82" height="20.99"/><rect class="cls-2" x="137.3" y="63.6" width="66.04" height="20.99"/><rect class="cls-3" x="137.3" y="63.6" width="66.04" height="20.99"/><rect class="cls-2" x="0.62" y="84.59" width="54.68" height="79.62"/><rect class="cls-3" x="0.62" y="84.59" width="54.68" height="79.62"/><rect class="cls-2" x="55.3" y="84.59" width="82" height="79.62"/><rect class="cls-3" x="55.3" y="84.59" width="82" height="79.62"/><rect class="cls-2" x="137.3" y="84.59" width="66.04" height="79.62"/><rect class="cls-3" x="137.3" y="84.59" width="66.04" height="79.62"/><path class="cls-5" d="M176.93,38.45a3.57,3.57,0,0,0-1.58.28.86.86,0,0,0-.52.81A.8.8,0,0,0,175,40a.58.58,0,0,0,.3.24,1.35,1.35,0,0,0,.43.06,1.18,1.18,0,0,0,.64-.17,1.27,1.27,0,0,0,.45-.44,1,1,0,0,0,.16-.52Zm.09,1.62-.08,0a3.12,3.12,0,0,1-.85.66,1.85,1.85,0,0,1-.84.19,1.54,1.54,0,0,1-.7-.15,1.15,1.15,0,0,1-.46-.44,1.19,1.19,0,0,1-.16-.64,1.29,1.29,0,0,1,.75-1.17,5.31,5.31,0,0,1,2.25-.48v-.34a2.78,2.78,0,0,0-.1-.85.85.85,0,0,0-.33-.46,1.16,1.16,0,0,0-.6-.14,1,1,0,0,0-.65.21,1.28,1.28,0,0,0-.37.64h-.68V36.4A7.62,7.62,0,0,1,175,36a5.46,5.46,0,0,1,.66-.19,3.14,3.14,0,0,1,.68-.07,1.81,1.81,0,0,1,.83.16,1.09,1.09,0,0,1,.47.5,2.67,2.67,0,0,1,.15,1v1.81c0,.26,0,.44,0,.55a1.36,1.36,0,0,0,0,.29.51.51,0,0,0,.08.21.29.29,0,0,0,.15.14,1.47,1.47,0,0,0,.33.12v.26H177Zm-6.92-4a1,1,0,0,0,.42-.15.75.75,0,0,0,.26-.27,1.63,1.63,0,0,0,.14-.41c0-.16.07-.4.11-.72h.74v1.29h1.67v.52h-1.67v2.32a5.79,5.79,0,0,0,0,.8A1.3,1.3,0,0,0,172,40a.83.83,0,0,0,.26.24.86.86,0,0,0,.38.07,1,1,0,0,0,.39-.08,1.56,1.56,0,0,0,.36-.25l.23.28a2.93,2.93,0,0,1-.7.52,1.51,1.51,0,0,1-.68.16,1.21,1.21,0,0,1-1-.4,1.92,1.92,0,0,1-.33-1.24V36.37h-.77Zm-.78.88h-.5a1.39,1.39,0,0,0-.27-.5.94.94,0,0,0-.35-.25,1.35,1.35,0,0,0-.48-.07,1,1,0,0,0-.67.2.63.63,0,0,0-.24.53.67.67,0,0,0,.1.39.84.84,0,0,0,.3.29,5.73,5.73,0,0,0,.74.36,7.16,7.16,0,0,1,.81.42,1.52,1.52,0,0,1,.46.45,1.09,1.09,0,0,1,.16.61,1.6,1.6,0,0,1-.14.69,1.25,1.25,0,0,1-.39.46,1.67,1.67,0,0,1-.61.25,3.71,3.71,0,0,1-.77.08,5.73,5.73,0,0,1-.84-.06c-.28-.05-.54-.1-.81-.17V39.58h.52a1.29,1.29,0,0,0,.41.69,1.17,1.17,0,0,0,.76.22,1.55,1.55,0,0,0,.37,0,1,1,0,0,0,.31-.13.62.62,0,0,0,.23-.25.75.75,0,0,0,.08-.39.81.81,0,0,0-.1-.43,1,1,0,0,0-.32-.3,6.37,6.37,0,0,0-.77-.37,4.78,4.78,0,0,1-.76-.39,1.46,1.46,0,0,1-.45-.44,1.08,1.08,0,0,1-.17-.6,1.23,1.23,0,0,1,.23-.74,1.47,1.47,0,0,1,.67-.48,2.92,2.92,0,0,1,1-.17q.34,0,.66,0c.21,0,.48.07.8.14Zm-6.44,3.57a1,1,0,0,0,.29-.11.37.37,0,0,0,.15-.13.6.6,0,0,0,.09-.25,3.11,3.11,0,0,0,0-.54V37.27c0-.22,0-.4,0-.54a.72.72,0,0,0-.07-.32.31.31,0,0,0-.19-.18,1.1,1.1,0,0,0-.36-.11v-.27L164,35.8h.32v3.72a3,3,0,0,0,0,.62.46.46,0,0,0,.16.26,1,1,0,0,0,.38.16v.26h-2Zm1.49-6.75v1h-1v-1ZM161.79,37h-.5a1.39,1.39,0,0,0-.27-.5.94.94,0,0,0-.35-.25,1.35,1.35,0,0,0-.48-.07,1,1,0,0,0-.67.2.63.63,0,0,0-.24.53.67.67,0,0,0,.1.39.84.84,0,0,0,.3.29,5.44,5.44,0,0,0,.73.36,6.63,6.63,0,0,1,.82.42,1.52,1.52,0,0,1,.46.45,1.18,1.18,0,0,1,.16.61,1.6,1.6,0,0,1-.14.69,1.27,1.27,0,0,1-.4.46,1.62,1.62,0,0,1-.6.25,3.71,3.71,0,0,1-.77.08,6,6,0,0,1-.85-.06c-.27-.05-.54-.1-.8-.17V39.58h.51a1.3,1.3,0,0,0,.42.69,1.17,1.17,0,0,0,.76.22,1.47,1.47,0,0,0,.36,0,1,1,0,0,0,.32-.13.62.62,0,0,0,.23-.25.87.87,0,0,0,.08-.39.81.81,0,0,0-.1-.43,1,1,0,0,0-.33-.3,5.13,5.13,0,0,0-.77-.37,5.08,5.08,0,0,1-.75-.39,1.36,1.36,0,0,1-.45-.44,1.08,1.08,0,0,1-.17-.6,1.23,1.23,0,0,1,.23-.74,1.47,1.47,0,0,1,.67-.48,2.88,2.88,0,0,1,1-.17l.66,0c.21,0,.48.07.8.14Zm-5.39.83a4.6,4.6,0,0,0-.14-.91,1.28,1.28,0,0,0-.33-.55.84.84,0,0,0-.57-.19,1,1,0,0,0-.86.43,2.35,2.35,0,0,0-.38,1.22Zm.87,2.11a4.07,4.07,0,0,1-.61.55,2.69,2.69,0,0,1-.61.31,2.45,2.45,0,0,1-.74.11,2,2,0,0,1-1.61-.64,2.83,2.83,0,0,1-.55-1.9,3.09,3.09,0,0,1,.28-1.36,2.16,2.16,0,0,1,.79-.92,2.25,2.25,0,0,1,1.19-.32,2.14,2.14,0,0,1,.89.17,1.43,1.43,0,0,1,.59.45,2.06,2.06,0,0,1,.34.73,4.31,4.31,0,0,1,.14,1.14H154.1v.1a3.09,3.09,0,0,0,.14,1,1.24,1.24,0,0,0,.45.65,1.31,1.31,0,0,0,.82.24,1.7,1.7,0,0,0,.76-.16,2.1,2.1,0,0,0,.68-.52Zm-8.86-5.73v3.09H149a3,3,0,0,0,.74-.07,1.36,1.36,0,0,0,.52-.24,1.42,1.42,0,0,0,.38-.51,2.08,2.08,0,0,0,.14-.8,1.81,1.81,0,0,0-.17-.82,1.08,1.08,0,0,0-.51-.5,2.16,2.16,0,0,0-.92-.17Zm0,3.53V39.5c0,.25,0,.43,0,.55a.66.66,0,0,0,.09.25.44.44,0,0,0,.16.14,1.16,1.16,0,0,0,.33.12v.26h-2.19v-.26a.92.92,0,0,0,.43-.18.47.47,0,0,0,.14-.29,2.72,2.72,0,0,0,0-.57V35a3.19,3.19,0,0,0,0-.52.61.61,0,0,0-.08-.26.43.43,0,0,0-.16-.14,1.41,1.41,0,0,0-.34-.12v-.26h2.57a3.09,3.09,0,0,1,1.82.44,1.59,1.59,0,0,1,.61,1.38,1.91,1.91,0,0,1-.4,1.21,2.56,2.56,0,0,1-1.17.78v0a1.58,1.58,0,0,1,.54.37,3.56,3.56,0,0,1,.5.75l.47.85a4.84,4.84,0,0,0,.35.58,1.19,1.19,0,0,0,.29.3,1,1,0,0,0,.4.14v.26h-1.44a6.83,6.83,0,0,1-.37-.6l-.35-.64-.46-.87a4.06,4.06,0,0,0-.34-.58,1,1,0,0,0-.24-.26.74.74,0,0,0-.24-.11,1.74,1.74,0,0,0-.38,0Zm50-10.31a3.64,3.64,0,0,0-.14-.92A1.15,1.15,0,0,0,198,26a.85.85,0,0,0-.58-.19,1,1,0,0,0-.85.43,2.32,2.32,0,0,0-.38,1.22Zm.88,2.11a6.69,6.69,0,0,1-.61.55,2.69,2.69,0,0,1-.61.31,2.5,2.5,0,0,1-.74.11,2,2,0,0,1-1.62-.65,2.84,2.84,0,0,1-.54-1.89,3.13,3.13,0,0,1,.28-1.37,2.07,2.07,0,0,1,.79-.91,2.14,2.14,0,0,1,1.19-.32,2.18,2.18,0,0,1,.89.16,1.43,1.43,0,0,1,.59.46,2,2,0,0,1,.34.73,4.77,4.77,0,0,1,.14,1.14h-3.27v.09a3.47,3.47,0,0,0,.13,1,1.25,1.25,0,0,0,1.27.89,1.74,1.74,0,0,0,.77-.16,2.37,2.37,0,0,0,.68-.52Zm-7-3.22h.07a4.73,4.73,0,0,1,.53-.55,2,2,0,0,1,.53-.3,1.62,1.62,0,0,1,.64-.11,4.68,4.68,0,0,1,.55,0v1.19H194a1.07,1.07,0,0,0-.27-.4.52.52,0,0,0-.38-.13.64.64,0,0,0-.37.11,1.42,1.42,0,0,0-.36.31,1.36,1.36,0,0,0-.23.39,1.14,1.14,0,0,0-.07.43v1.83a2.38,2.38,0,0,0,.06.65.47.47,0,0,0,.19.26,1.24,1.24,0,0,0,.4.13v.25h-2.1v-.25a1.46,1.46,0,0,0,.28-.11.37.37,0,0,0,.15-.13.83.83,0,0,0,.1-.26,3.33,3.33,0,0,0,0-.53V26.86c0-.22,0-.4,0-.53a.73.73,0,0,0-.08-.33.37.37,0,0,0-.19-.18,1.47,1.47,0,0,0-.36-.1v-.27l1.22-.05h.32Zm-7.41-.87h1.48v2.65a7,7,0,0,0,.05.93,1.32,1.32,0,0,0,.14.47.7.7,0,0,0,.27.27.8.8,0,0,0,.47.11.84.84,0,0,0,.38-.08,1.41,1.41,0,0,0,.4-.27,1.22,1.22,0,0,0,.32-.39.87.87,0,0,0,.1-.44v-2c0-.2,0-.35,0-.45a.72.72,0,0,0-.05-.24.53.53,0,0,0-.08-.15.5.5,0,0,0-.14-.1,1.28,1.28,0,0,0-.3-.1v-.26h1.48V29c0,.27,0,.46,0,.58a.67.67,0,0,0,.07.28.37.37,0,0,0,.16.17,1.51,1.51,0,0,0,.39.12v.27l-1.19.05h-.32l0-.85-.08,0a3.49,3.49,0,0,1-.82.69,1.65,1.65,0,0,1-.79.22,1.55,1.55,0,0,1-.78-.19,1.15,1.15,0,0,1-.45-.56,2.69,2.69,0,0,1-.16-1.05v-2a4,4,0,0,0,0-.6.43.43,0,0,0-.13-.26.83.83,0,0,0-.42-.18Zm-3.79.26a.9.9,0,0,0,.42-.14.75.75,0,0,0,.26-.27,1.31,1.31,0,0,0,.14-.41c0-.16.07-.4.11-.72h.74v1.28h1.68V26h-1.68v2.31a5.61,5.61,0,0,0,0,.8,1.18,1.18,0,0,0,.15.47.61.61,0,0,0,.27.24.78.78,0,0,0,.37.08.86.86,0,0,0,.39-.09,1.88,1.88,0,0,0,.36-.24l.23.28a2.74,2.74,0,0,1-.7.52,1.65,1.65,0,0,1-.68.16,1.24,1.24,0,0,1-1-.4,2,2,0,0,1-.33-1.25V26h-.77Zm-2,2.34a3.72,3.72,0,0,0-1.58.28.87.87,0,0,0-.52.82.82.82,0,0,0,.12.47.61.61,0,0,0,.3.23,1.11,1.11,0,0,0,.43.07,1.25,1.25,0,0,0,.64-.17,1.27,1.27,0,0,0,.45-.44,1,1,0,0,0,.16-.52Zm.09,1.63-.08,0a2.87,2.87,0,0,1-.85.65,1.86,1.86,0,0,1-.84.2,1.45,1.45,0,0,1-.7-.16,1.06,1.06,0,0,1-.46-.43,1.22,1.22,0,0,1-.16-.64,1.27,1.27,0,0,1,.75-1.17,5.16,5.16,0,0,1,2.25-.48v-.34a2.74,2.74,0,0,0-.1-.85.85.85,0,0,0-.33-.46,1.07,1.07,0,0,0-.6-.15.93.93,0,0,0-.65.22,1.28,1.28,0,0,0-.37.64h-.68V26a7.62,7.62,0,0,1,.83-.38,3.93,3.93,0,0,1,.67-.19,3,3,0,0,1,.67-.07,1.78,1.78,0,0,1,.83.16,1,1,0,0,1,.47.5,2.67,2.67,0,0,1,.15,1v1.81c0,.26,0,.44,0,.54a1.39,1.39,0,0,0,0,.3.51.51,0,0,0,.08.21.34.34,0,0,0,.15.14,1.47,1.47,0,0,0,.33.12v.25h-1.42Zm-5.82-3.36h.07a4.73,4.73,0,0,1,.53-.55,2,2,0,0,1,.53-.3,1.62,1.62,0,0,1,.64-.11,4.56,4.56,0,0,1,.55,0v1.19h-.59a1.07,1.07,0,0,0-.27-.4.52.52,0,0,0-.38-.13.66.66,0,0,0-.37.11,1.42,1.42,0,0,0-.36.31,1.36,1.36,0,0,0-.23.39,1.14,1.14,0,0,0-.07.43v1.83a2.38,2.38,0,0,0,.06.65.47.47,0,0,0,.19.26,1.24,1.24,0,0,0,.4.13v.25H172v-.25l.29-.11a.43.43,0,0,0,.14-.13.64.64,0,0,0,.1-.26,3.33,3.33,0,0,0,0-.53V26.86c0-.22,0-.4,0-.53a.73.73,0,0,0-.08-.33.39.39,0,0,0-.18-.18,1.73,1.73,0,0,0-.37-.1v-.27l1.22-.05h.32Zm-3.32,1.11a3.64,3.64,0,0,0-.14-.92,1.15,1.15,0,0,0-.32-.54.85.85,0,0,0-.58-.19,1,1,0,0,0-.85.43,2.23,2.23,0,0,0-.38,1.22Zm.88,2.11a6.69,6.69,0,0,1-.61.55,2.69,2.69,0,0,1-.61.31,2.5,2.5,0,0,1-.74.11,2,2,0,0,1-1.62-.65,2.84,2.84,0,0,1-.54-1.89,3.13,3.13,0,0,1,.28-1.37,2.07,2.07,0,0,1,.79-.91,2.13,2.13,0,0,1,1.18-.32,2.23,2.23,0,0,1,.9.16,1.43,1.43,0,0,1,.59.46,2,2,0,0,1,.34.73,4.77,4.77,0,0,1,.14,1.14H167.8v.09a3.47,3.47,0,0,0,.13,1,1.23,1.23,0,0,0,1.27.89,1.74,1.74,0,0,0,.77-.16,2.37,2.37,0,0,0,.68-.52Zm-8.67-1a3.72,3.72,0,0,0,.06.77,1.07,1.07,0,0,0,.22.44A1,1,0,0,0,163,30a1.48,1.48,0,0,0,.57.09,1,1,0,0,0,.94-.53,3,3,0,0,0,.32-1.54c0-1.36-.4-2-1.19-2a1.28,1.28,0,0,0-.5.09,1.51,1.51,0,0,0-.42.29,1.19,1.19,0,0,0-.29.39,1,1,0,0,0-.09.41Zm0,1.72v1.09c0,.23,0,.4,0,.51a.71.71,0,0,0,.09.26.38.38,0,0,0,.17.16,1.18,1.18,0,0,0,.36.11v.26h-2.12v-.26a1.73,1.73,0,0,0,.3-.1.4.4,0,0,0,.18-.16,1,1,0,0,0,.09-.29c0-.12,0-.28,0-.49V26.9c0-.25,0-.43,0-.54a.92.92,0,0,0-.05-.26.39.39,0,0,0-.09-.17.52.52,0,0,0-.16-.12,1.59,1.59,0,0,0-.33-.09v-.28l1.22,0h.32l-.07.84.08,0a4.91,4.91,0,0,1,.51-.48,2.26,2.26,0,0,1,.38-.25,2.3,2.3,0,0,1,.39-.14,1.61,1.61,0,0,1,.39,0,1.55,1.55,0,0,1,1.32.64,3.28,3.28,0,0,1,.46,1.88,3.6,3.6,0,0,1-.26,1.44,1.89,1.89,0,0,1-.76.88,2.23,2.23,0,0,1-1.18.3,3,3,0,0,1-.7-.07A2.94,2.94,0,0,1,162.3,30.26Zm-8.86-4,.07,0q.31-.32.51-.48c.14-.1.27-.18.39-.25a2,2,0,0,1,.35-.14,1.27,1.27,0,0,1,.34,0,1.37,1.37,0,0,1,.84.24,1.27,1.27,0,0,1,.46.73,6.79,6.79,0,0,1,.63-.58,2.25,2.25,0,0,1,.49-.29,1.42,1.42,0,0,1,.55-.1,1.49,1.49,0,0,1,.59.1,1,1,0,0,1,.43.31,1.38,1.38,0,0,1,.26.53,3.82,3.82,0,0,1,.08.85v2c0,.26,0,.44,0,.54a.76.76,0,0,0,.08.23.36.36,0,0,0,.15.15,1.16,1.16,0,0,0,.33.12v.25h-2v-.25l.29-.11a.37.37,0,0,0,.15-.13.65.65,0,0,0,.09-.26,3.33,3.33,0,0,0,0-.53V27.77c0-.29,0-.53,0-.73a3.5,3.5,0,0,0-.07-.46,1.78,1.78,0,0,0-.12-.27,1.29,1.29,0,0,0-.16-.17A.53.53,0,0,0,158,26a.92.92,0,0,0-.32,0,.81.81,0,0,0-.38.08,1.44,1.44,0,0,0-.39.28,1.24,1.24,0,0,0-.31.4,1.13,1.13,0,0,0-.09.47v1.9c0,.26,0,.44,0,.54a.76.76,0,0,0,.08.23.36.36,0,0,0,.15.15,1.3,1.3,0,0,0,.33.12v.25h-2v-.25l.29-.11a.37.37,0,0,0,.15-.13.65.65,0,0,0,.09-.26,3.33,3.33,0,0,0,0-.53V27.77c0-.31,0-.56,0-.75a3.47,3.47,0,0,0-.08-.47,1,1,0,0,0-.14-.28.7.7,0,0,0-.18-.17.61.61,0,0,0-.2-.09,1.14,1.14,0,0,0-.27,0,1,1,0,0,0-.41.09,1.75,1.75,0,0,0-.38.28,1.24,1.24,0,0,0-.29.38.87.87,0,0,0-.1.42v2c0,.19,0,.34,0,.45a.72.72,0,0,0,.05.24.37.37,0,0,0,.08.14.58.58,0,0,0,.15.11l.29.1v.25h-2v-.25a1.46,1.46,0,0,0,.28-.11.37.37,0,0,0,.15-.13.65.65,0,0,0,.09-.26,2.3,2.3,0,0,0,0-.53V26.86c0-.22,0-.4,0-.53a.88.88,0,0,0-.08-.33.37.37,0,0,0-.19-.18,1.47,1.47,0,0,0-.36-.1v-.28l1.22,0h.32Zm-3.32,1.18a4.16,4.16,0,0,0-.14-.92,1.08,1.08,0,0,0-.33-.54.8.8,0,0,0-.57-.19,1,1,0,0,0-.85.43,2.23,2.23,0,0,0-.38,1.22Zm.87,2.11a4.79,4.79,0,0,1-.61.55,2.33,2.33,0,0,1-.61.31,2.38,2.38,0,0,1-.73.11,2,2,0,0,1-1.62-.65,2.84,2.84,0,0,1-.54-1.89,3.13,3.13,0,0,1,.28-1.37,2.07,2.07,0,0,1,.79-.91,2.13,2.13,0,0,1,1.18-.32,2.23,2.23,0,0,1,.9.16,1.5,1.5,0,0,1,.59.46,2,2,0,0,1,.34.73,4.77,4.77,0,0,1,.14,1.14h-3.28v.09a3.44,3.44,0,0,0,.14,1,1.28,1.28,0,0,0,.45.65,1.33,1.33,0,0,0,.82.24,1.74,1.74,0,0,0,.77-.16,2.37,2.37,0,0,0,.68-.52Zm-9.76-6.21h5.63v1.81h-.51a4.57,4.57,0,0,0-.23-.71,1.24,1.24,0,0,0-.24-.4.91.91,0,0,0-.26-.19,1.53,1.53,0,0,0-.43,0h-.66V29.1a3.19,3.19,0,0,0,0,.49,1,1,0,0,0,.11.29.43.43,0,0,0,.19.16,1.77,1.77,0,0,0,.37.12v.25h-2.38v-.25a1.58,1.58,0,0,0,.28-.08.93.93,0,0,0,.2-.1.44.44,0,0,0,.12-.15,1.15,1.15,0,0,0,.08-.26,2.74,2.74,0,0,0,0-.47V23.78h-.66a1.49,1.49,0,0,0-.4,0,.69.69,0,0,0-.3.2,1.37,1.37,0,0,0-.24.42,3.57,3.57,0,0,0-.21.69h-.52Z"/><path class="cls-5" d="M193.13,37.82a4,4,0,0,0-.14-.91,1.11,1.11,0,0,0-.33-.55.8.8,0,0,0-.57-.19,1,1,0,0,0-.85.43,2.26,2.26,0,0,0-.38,1.22Zm.87,2.11a3.63,3.63,0,0,1-.61.55,2.33,2.33,0,0,1-.61.31,2.38,2.38,0,0,1-.73.11,2,2,0,0,1-1.62-.64,2.89,2.89,0,0,1-.54-1.9,3.09,3.09,0,0,1,.28-1.36,2.1,2.1,0,0,1,.79-.92,2.39,2.39,0,0,1,2.08-.15,1.57,1.57,0,0,1,.59.45,2.06,2.06,0,0,1,.34.73,4.77,4.77,0,0,1,.14,1.14h-3.28v.1a3.37,3.37,0,0,0,.14,1,1.24,1.24,0,0,0,.45.65,1.33,1.33,0,0,0,.82.24,1.74,1.74,0,0,0,.77-.16,2.21,2.21,0,0,0,.68-.52Zm-5-4v1.08h-.66a1.76,1.76,0,0,0-.22-.53.76.76,0,0,0-.3-.27,1.1,1.1,0,0,0-.43-.08,1,1,0,0,0-.64.23,1.59,1.59,0,0,0-.45.72,3.55,3.55,0,0,0-.16,1.17,4.92,4.92,0,0,0,.06.8,1.8,1.8,0,0,0,.22.63,1.12,1.12,0,0,0,.4.41,1.25,1.25,0,0,0,.61.14,1.64,1.64,0,0,0,.67-.14,2.07,2.07,0,0,0,.64-.49l.3.34a4.65,4.65,0,0,1-.47.45,2.34,2.34,0,0,1-.43.26,1.8,1.8,0,0,1-.46.16,2.46,2.46,0,0,1-.49,0,1.81,1.81,0,0,1-1.5-.65,3.54,3.54,0,0,1-.23-3.25,2.1,2.1,0,0,1,.82-.92,2.3,2.3,0,0,1,1.21-.32,6.26,6.26,0,0,1,.78.05A4.52,4.52,0,0,1,189,36Zm-4.75,4.85h-2.05v-.26a1.1,1.1,0,0,0,.29-.11.37.37,0,0,0,.15-.13.6.6,0,0,0,.09-.25,3.26,3.26,0,0,0,0-.53V38.18c0-.25,0-.47,0-.66a4.08,4.08,0,0,0-.07-.49,1.86,1.86,0,0,0-.12-.3,1,1,0,0,0-.17-.18.94.94,0,0,0-.22-.12,1.1,1.1,0,0,0-.71,0,1.33,1.33,0,0,0-.4.28,1.22,1.22,0,0,0-.32.39.87.87,0,0,0-.1.44v1.94a3,3,0,0,0,0,.62.46.46,0,0,0,.16.26,1.05,1.05,0,0,0,.38.16v.26h-2v-.26a1,1,0,0,0,.29-.11.37.37,0,0,0,.15-.13.6.6,0,0,0,.09-.25,3.11,3.11,0,0,0,0-.54V37.27c0-.22,0-.4,0-.54a.88.88,0,0,0-.08-.32.31.31,0,0,0-.19-.18,1.1,1.1,0,0,0-.36-.11v-.27l1.22-.05h.31l0,.85.07,0a5.13,5.13,0,0,1,.62-.56,2.21,2.21,0,0,1,.48-.25,1.25,1.25,0,0,1,.51-.1,1.83,1.83,0,0,1,.5.07,1,1,0,0,1,.39.2.93.93,0,0,1,.28.34,1.5,1.5,0,0,1,.17.48,4.43,4.43,0,0,1,.05.71v2c0,.24,0,.41,0,.52a.75.75,0,0,0,.07.25.71.71,0,0,0,.15.15,2.24,2.24,0,0,0,.35.12Z"/><path class="cls-5" d="M28.14,55.27h.94a2.87,2.87,0,0,1-.56,1.85,1.92,1.92,0,0,1-1.54.64,1.78,1.78,0,0,1-1.63-.86,5.24,5.24,0,0,1-.52-2.66,5.67,5.67,0,0,1,.52-2.79A1.78,1.78,0,0,1,27,50.56a1.77,1.77,0,0,1,1.58.76,4,4,0,0,1,.52,2.29V54c0,.08,0,.16,0,.22H25.81v.3a4.3,4.3,0,0,0,.3,1.86,1,1,0,0,0,.94.59.92.92,0,0,0,.8-.44,2.22,2.22,0,0,0,.29-1.2Zm-2.33-1.83h2.32v-.19a2.83,2.83,0,0,0-.28-1.42.88.88,0,0,0-.82-.48,1,1,0,0,0-.92.51A3.25,3.25,0,0,0,25.81,53.44Zm-3.17,4.13V48.45h.94v9.12Zm-1.89-1.4a.72.72,0,0,0,.16.56,1.36,1.36,0,0,0,.73.13h.22v.83h-.24l-.46,0a1.58,1.58,0,0,1-1-.27,1,1,0,0,1-.33-.81V51.55h-.95v-.79h.95V48.94h.93v1.82h1.11v.79H20.75Zm-3,0a.77.77,0,0,0,.15.56,1.38,1.38,0,0,0,.74.13h.21v.83h-.24l-.47,0a1.58,1.58,0,0,1-1-.27,1,1,0,0,1-.33-.81V51.55h-.94v-.79h.94V48.94h.94v1.82h1.11v.79H17.77Zm-6.13-2A5.18,5.18,0,0,0,12,56.32a1.08,1.08,0,0,0,1.06.62,1.09,1.09,0,0,0,1.05-.63,5.22,5.22,0,0,0,.32-2.14A5.21,5.21,0,0,0,14.07,52,1.09,1.09,0,0,0,13,51.4,1.1,1.1,0,0,0,12,52,5.15,5.15,0,0,0,11.64,54.17Zm-1,0a5,5,0,0,1,.59-2.72A2,2,0,0,1,13,50.56a2,2,0,0,1,1.81.88,5,5,0,0,1,.59,2.73,5.07,5.07,0,0,1-.58,2.72,2,2,0,0,1-1.82.87,2,2,0,0,1-1.82-.86A5.08,5.08,0,0,1,10.62,54.17Zm-6.28,3.4V48.45H6.72A2.67,2.67,0,0,1,8.58,49a2.32,2.32,0,0,1,.58,1.74,2.53,2.53,0,0,1-.31,1.32,1.63,1.63,0,0,1-1,.67,1.85,1.85,0,0,1,1.18.71A2.7,2.7,0,0,1,9.45,55a2.6,2.6,0,0,1-.69,1.93,2.62,2.62,0,0,1-1.94.68Zm1-.89h1.3A1.85,1.85,0,0,0,8,56.28,1.71,1.71,0,0,0,8.37,55a1.89,1.89,0,0,0-.44-1.41,2.12,2.12,0,0,0-1.49-.42H5.32Zm0-4.35H6.39A2,2,0,0,0,7.74,52a1.59,1.59,0,0,0,.39-1.22,1.46,1.46,0,0,0-.4-1.16,2.23,2.23,0,0,0-1.4-.33h-1Z"/><path class="cls-5" d="M30.75,75.2h.93a2.8,2.8,0,0,1-.55,1.85,1.9,1.9,0,0,1-1.54.64A1.78,1.78,0,0,1,28,76.83a5.24,5.24,0,0,1-.52-2.66A5.67,5.67,0,0,1,28,71.38a2,2,0,0,1,3.23-.13,4,4,0,0,1,.52,2.29v.37a1.77,1.77,0,0,0,0,.22H28.42v.3a4.3,4.3,0,0,0,.3,1.86,1,1,0,0,0,.94.59.92.92,0,0,0,.8-.44,2.22,2.22,0,0,0,.29-1.2Zm-2.33-1.83h2.32v-.18a2.87,2.87,0,0,0-.28-1.43.89.89,0,0,0-.82-.48,1,1,0,0,0-.92.52A3.21,3.21,0,0,0,28.42,73.37Zm-3.18,4.14V68.38h1v9.13Zm-5.76,2.3V70.69h.93v.86a1.21,1.21,0,0,1,.51-.73,1.58,1.58,0,0,1,.93-.29,1.77,1.77,0,0,1,1.61.89A5.12,5.12,0,0,1,24,74.08a5.53,5.53,0,0,1-.51,2.71,1.67,1.67,0,0,1-1.57.86,1.71,1.71,0,0,1-.87-.22,1.64,1.64,0,0,1-.6-.65v3Zm.93-5.74a4.94,4.94,0,0,0,.33,2.07,1.08,1.08,0,0,0,1,.68,1,1,0,0,0,.92-.65,5.44,5.44,0,0,0,.3-2.11,5.13,5.13,0,0,0-.3-2,1,1,0,0,0-.95-.63,1.05,1.05,0,0,0-1,.62A5.11,5.11,0,0,0,20.41,74.07Zm-6.7,5.74V70.69h.92v.86a1.21,1.21,0,0,1,.51-.73,1.58,1.58,0,0,1,.93-.29,1.78,1.78,0,0,1,1.62.89,5.24,5.24,0,0,1,.54,2.66,5.67,5.67,0,0,1-.5,2.71,1.85,1.85,0,0,1-2.44.64,1.64,1.64,0,0,1-.6-.65v3Zm.92-5.74A4.94,4.94,0,0,0,15,76.14a1.09,1.09,0,0,0,1,.68,1,1,0,0,0,.92-.65,5.68,5.68,0,0,0,.29-2.11,5.36,5.36,0,0,0-.29-2,1,1,0,0,0-1-.63,1,1,0,0,0-1,.62A4.91,4.91,0,0,0,14.63,74.07Zm-3.35,3.44V70.69h1v6.82Zm0-7.89V68.38h1v1.24ZM4.34,77.51V68.38H5.7l3.16,7.83-.09-7.83h1v9.13H8.45L5.24,69.45l.08,8.06Z"/><path class="cls-5" d="M37.05,155.32l-1.84-6.82h1l1.34,5.35L39,148.5h1l-1.9,6.82Zm-6.34-3.41a5.36,5.36,0,0,0,.31,2.15,1.1,1.1,0,0,0,1.07.63,1.08,1.08,0,0,0,1-.64,5.06,5.06,0,0,0,.32-2.14,5,5,0,0,0-.32-2.14,1.07,1.07,0,0,0-1-.63,1.1,1.1,0,0,0-1.06.62A5.15,5.15,0,0,0,30.71,151.91Zm-1,0a5,5,0,0,1,.59-2.72,2.31,2.31,0,0,1,3.62,0,5,5,0,0,1,.58,2.73,5,5,0,0,1-.58,2.72,2.34,2.34,0,0,1-3.63,0A5,5,0,0,1,29.69,151.91Zm-2.08,1h.93a2.88,2.88,0,0,1-.57,1.91,2,2,0,0,1-1.6.68,1.86,1.86,0,0,1-1.69-.89,5.49,5.49,0,0,1-.54-2.75,5,5,0,0,1,.56-2.66,1.92,1.92,0,0,1,1.73-.88,2,2,0,0,1,1.51.58,2.21,2.21,0,0,1,.55,1.59v.14h-.93a2,2,0,0,0-.31-1.09.93.93,0,0,0-.79-.37,1,1,0,0,0-1,.62,5.21,5.21,0,0,0-.3,2.1,5.41,5.41,0,0,0,.3,2.14,1,1,0,0,0,1,.62,1,1,0,0,0,.82-.44A2.6,2.6,0,0,0,27.61,152.92Zm-12.1,4.7V148.5h.92v.86a1.22,1.22,0,0,1,.52-.73,1.57,1.57,0,0,1,.92-.29,1.78,1.78,0,0,1,1.62.89,5.23,5.23,0,0,1,.55,2.66,5.53,5.53,0,0,1-.51,2.71,1.67,1.67,0,0,1-1.57.86,1.71,1.71,0,0,1-.87-.22,1.64,1.64,0,0,1-.6-.65v3Zm.92-5.74a4.76,4.76,0,0,0,.34,2.07,1.08,1.08,0,0,0,1,.68,1,1,0,0,0,.92-.65,5.48,5.48,0,0,0,.29-2.11,5.36,5.36,0,0,0-.29-2.05,1,1,0,0,0-1-.63,1,1,0,0,0-1,.62A5.07,5.07,0,0,0,16.43,151.88Zm-1.9,3.45-.31,0-.25,0a.83.83,0,0,1-.63-.25,1.14,1.14,0,0,1-.25-.73,1.82,1.82,0,0,1-.63.8,1.8,1.8,0,0,1-1,.28,1.43,1.43,0,0,1-1.15-.5,2.16,2.16,0,0,1-.41-1.4,2.1,2.1,0,0,1,.38-1.34,3.77,3.77,0,0,1,1.65-.89h0c.69-.24,1-.51,1-.82v-.63a.74.74,0,0,0-.24-.61,1.21,1.21,0,0,0-.77-.19,1,1,0,0,0-.75.26,1.15,1.15,0,0,0-.25.82v.12h-.9a2.14,2.14,0,0,1,.5-1.53,2.11,2.11,0,0,1,1.52-.47,2,2,0,0,1,1.42.44,1.91,1.91,0,0,1,.44,1.39v4a.56.56,0,0,0,.1.38.36.36,0,0,0,.31.12l.13,0h0ZM13,151.64a2.6,2.6,0,0,1-1,.52l-.1,0a1.71,1.71,0,0,0-.86.52,1.48,1.48,0,0,0-.2.86,1.22,1.22,0,0,0,.22.79.76.76,0,0,0,.64.28,1.13,1.13,0,0,0,.94-.45A1.88,1.88,0,0,0,13,153Zm-5.21,1.28h.94a2.88,2.88,0,0,1-.57,1.91,2,2,0,0,1-1.61.68,1.84,1.84,0,0,1-1.68-.89,5.37,5.37,0,0,1-.55-2.75,4.94,4.94,0,0,1,.57-2.66,1.9,1.9,0,0,1,1.72-.88,2,2,0,0,1,1.51.58,2.22,2.22,0,0,1,.56,1.59v.14H7.77a2,2,0,0,0-.3-1.09.93.93,0,0,0-.79-.37,1,1,0,0,0-1,.62,5.21,5.21,0,0,0-.3,2.1,5.41,5.41,0,0,0,.3,2.14,1.06,1.06,0,0,0,1,.62.92.92,0,0,0,.82-.44A2.4,2.4,0,0,0,7.82,152.92Zm24-10.4V142a.54.54,0,0,0,.38-.33,1.94,1.94,0,0,0,.13-.79v-.05h-.51v-1.25h1.08v1.25a2.18,2.18,0,0,1-.29,1.15A1.26,1.26,0,0,1,31.84,142.52Zm-2.63-1.74V134h.88v1.11a2,2,0,0,1,.63-.93,1.42,1.42,0,0,1,1-.34h.25l.16,0v1a.43.43,0,0,0-.17-.06l-.2,0a1.44,1.44,0,0,0-1.15.48,2.08,2.08,0,0,0-.41,1.36v4.18ZM27,138.47h.93a2.85,2.85,0,0,1-.55,1.85,1.91,1.91,0,0,1-1.55.64,1.77,1.77,0,0,1-1.62-.86,5.24,5.24,0,0,1-.52-2.66,5.67,5.67,0,0,1,.52-2.79,2,2,0,0,1,3.23-.13,4.1,4.1,0,0,1,.52,2.29,3.66,3.66,0,0,1,0,.37,1.48,1.48,0,0,1,0,.22H24.66v.3a4.3,4.3,0,0,0,.3,1.86,1,1,0,0,0,.94.59.91.91,0,0,0,.79-.44,2.13,2.13,0,0,0,.3-1.2Zm-2.33-1.83H27v-.18A3,3,0,0,0,26.7,135a.89.89,0,0,0-.83-.48,1,1,0,0,0-.91.52A3.18,3.18,0,0,0,24.66,136.64Zm-6.56,6.44V134H19v.86a1.21,1.21,0,0,1,.51-.73,1.58,1.58,0,0,1,.93-.29,1.78,1.78,0,0,1,1.62.89,5.21,5.21,0,0,1,.54,2.66,5.67,5.67,0,0,1-.5,2.71,1.7,1.7,0,0,1-1.57.86,1.57,1.57,0,0,1-.87-.23,1.49,1.49,0,0,1-.6-.64v3Zm.92-5.74a4.94,4.94,0,0,0,.33,2.07,1.08,1.08,0,0,0,1,.67,1,1,0,0,0,.92-.64,5.68,5.68,0,0,0,.29-2.11,5.1,5.1,0,0,0-.3-2.05,1,1,0,0,0-.95-.63,1.07,1.07,0,0,0-1,.62A5.11,5.11,0,0,0,19,137.34Zm-6.7,5.74V134h.93v.86a1.21,1.21,0,0,1,.51-.73,1.58,1.58,0,0,1,.93-.29,1.77,1.77,0,0,1,1.61.89,5.1,5.1,0,0,1,.55,2.66,5.53,5.53,0,0,1-.51,2.71,1.69,1.69,0,0,1-1.57.86,1.61,1.61,0,0,1-1.47-.87v3Zm.93-5.74a4.78,4.78,0,0,0,.33,2.07,1.07,1.07,0,0,0,1,.67,1,1,0,0,0,.92-.64,5.44,5.44,0,0,0,.3-2.11,5.1,5.1,0,0,0-.3-2.05,1,1,0,0,0-.95-.63,1.05,1.05,0,0,0-1,.62A5.11,5.11,0,0,0,13.25,137.34Zm-3.36,3.44V134h1v6.82Zm0-7.89v-1.24h1v1.24Zm-5.55,5.84h1v0c0,.09,0,.15,0,.2a1.12,1.12,0,0,0,.32.85,1.33,1.33,0,0,0,.92.29,1.21,1.21,0,0,0,.87-.3,1.07,1.07,0,0,0,.32-.81c0-.53-.41-1-1.24-1.23h0a4,4,0,0,1-1.61-.86A2.2,2.2,0,0,1,5,134.26a2.06,2.06,0,0,1,1.47-.5,2.11,2.11,0,0,1,1.5.48,1.9,1.9,0,0,1,.5,1.42v.09H7.53a1.4,1.4,0,0,0-.28-.89,1,1,0,0,0-.77-.28,1.18,1.18,0,0,0-.84.26,1,1,0,0,0-.28.78,1.09,1.09,0,0,0,.07.42.64.64,0,0,0,.22.29,3.27,3.27,0,0,0,1,.48c.27.08.48.16.64.22a2.16,2.16,0,0,1,1,.69,1.82,1.82,0,0,1,.3,1.1A2,2,0,0,1,8,140.4a2.34,2.34,0,0,1-1.67.56,2,2,0,0,1-1.52-.53,2.19,2.19,0,0,1-.51-1.56ZM23.46,128v-.57a.52.52,0,0,0,.37-.33,1.93,1.93,0,0,0,.14-.79v-.06h-.51V125h1.07v1.25a2.1,2.1,0,0,1-.29,1.16A1.24,1.24,0,0,1,23.46,128Zm-5.36-1.75v-9.12H19v5.4l2.33-3.09h1.11l-2,2.58,2.2,4.23H21.45l-1.68-3.35-.75.93v2.42Zm-5.57-2h1s0,0,0,0,0,.15,0,.2a1.08,1.08,0,0,0,.32.84,1.29,1.29,0,0,0,.92.3,1.21,1.21,0,0,0,.87-.3,1.07,1.07,0,0,0,.32-.81c0-.53-.41-1-1.24-1.23h0a3.87,3.87,0,0,1-1.61-.86,1.79,1.79,0,0,1-.37-1.23,1.85,1.85,0,0,1,.52-1.4,2.06,2.06,0,0,1,1.47-.5,2.11,2.11,0,0,1,1.5.48,1.89,1.89,0,0,1,.5,1.42v.09h-.91a1.38,1.38,0,0,0-.28-.89,1,1,0,0,0-.77-.28,1.18,1.18,0,0,0-.84.26,1,1,0,0,0-.28.78,1.12,1.12,0,0,0,.07.42.72.72,0,0,0,.22.29,3.27,3.27,0,0,0,1,.48c.27.08.48.16.64.22a2.11,2.11,0,0,1,1,.69,1.82,1.82,0,0,1,.3,1.1,2,2,0,0,1-.59,1.58,2.34,2.34,0,0,1-1.67.56,2,2,0,0,1-1.52-.53,2.19,2.19,0,0,1-.51-1.56Zm-2.25,2v-6.81h1v6.81Zm0-7.88v-1.24h1v1.24Zm-1.42,7.88H8v-.85a1.27,1.27,0,0,1-.53.72,1.68,1.68,0,0,1-1,.27,1.76,1.76,0,0,1-1.61-1,5.74,5.74,0,0,1-.55-2.8,4.61,4.61,0,0,1,.55-2.47,1.75,1.75,0,0,1,1.56-.88,1.86,1.86,0,0,1,.95.24,1.07,1.07,0,0,1,.52.62v-3h.95ZM8,122.78a5.31,5.31,0,0,0-.29-2.09,1,1,0,0,0-1-.58,1,1,0,0,0-1,.63,4.64,4.64,0,0,0-.32,2,5.38,5.38,0,0,0,.31,2.15,1,1,0,0,0,1,.67,1.06,1.06,0,0,0,1-.63A5.09,5.09,0,0,0,8,122.78Zm23.2-10.46h.95a.8.8,0,0,0,.31.62,1.33,1.33,0,0,0,.8.21,1.13,1.13,0,0,0,1-.45,2.69,2.69,0,0,0,.32-1.48s0-.07,0-.15,0-.15,0-.21a1.46,1.46,0,0,1-.59.7,1.77,1.77,0,0,1-.92.23,1.67,1.67,0,0,1-1.55-.92,6,6,0,0,1-.52-2.8,4.74,4.74,0,0,1,.54-2.52,1.78,1.78,0,0,1,1.6-.84A1.6,1.6,0,0,1,34,105a1.36,1.36,0,0,1,.54.7v-.79h.92v6.5a2.8,2.8,0,0,1-.61,1.94,2.17,2.17,0,0,1-1.71.68,2.21,2.21,0,0,1-1.43-.46,1.47,1.47,0,0,1-.56-1.18Zm.8-4a5.1,5.1,0,0,0,.3,2,1,1,0,0,0,1,.62,1,1,0,0,0,1-.63,5.35,5.35,0,0,0,.31-2.13,4.84,4.84,0,0,0-.32-2,1.06,1.06,0,0,0-1-.64,1,1,0,0,0-.95.65A5.39,5.39,0,0,0,32,108.3Zm-6.53,3.39v-6.81h.9v.84A1.67,1.67,0,0,1,27,105a2,2,0,0,1,1-.25,1.56,1.56,0,0,1,1.28.46,2.41,2.41,0,0,1,.38,1.56v4.94h-1v-5a1.23,1.23,0,0,0-.23-.83.92.92,0,0,0-.73-.27,1.31,1.31,0,0,0-1,.4,1.54,1.54,0,0,0-.38,1.09v4.62Zm-2.42,0v-6.81h1v6.81Zm0-7.88v-1.24h1v1.24Zm-2.38,7.88v-9.12h.95v9.12Zm-1,0-.31,0-.25,0a.81.81,0,0,1-.63-.26,1.11,1.11,0,0,1-.25-.72,1.75,1.75,0,0,1-.63.8,1.79,1.79,0,0,1-1,.27,1.42,1.42,0,0,1-1.15-.49,2.18,2.18,0,0,1-.41-1.4,2.06,2.06,0,0,1,.38-1.34,3.79,3.79,0,0,1,1.65-.89h0c.7-.23,1-.5,1-.82v-.62a.76.76,0,0,0-.24-.62,1.26,1.26,0,0,0-.76-.19,1,1,0,0,0-.76.27,1.12,1.12,0,0,0-.25.81v.12h-.9a2.13,2.13,0,0,1,.5-1.52,2.08,2.08,0,0,1,1.52-.48,2,2,0,0,1,1.42.44,1.94,1.94,0,0,1,.44,1.4v4a.65.65,0,0,0,.1.39.39.39,0,0,0,.31.11.4.4,0,0,0,.13,0h0ZM18.17,108a2.75,2.75,0,0,1-1,.52l-.09,0a1.64,1.64,0,0,0-.87.52,1.46,1.46,0,0,0-.2.86,1.24,1.24,0,0,0,.22.79.8.8,0,0,0,.64.28,1.13,1.13,0,0,0,.94-.45,1.92,1.92,0,0,0,.36-1.22ZM13,109.39H14a2.82,2.82,0,0,1-.56,1.85,1.92,1.92,0,0,1-1.54.64,1.76,1.76,0,0,1-1.62-.86,5.25,5.25,0,0,1-.53-2.66,5.66,5.66,0,0,1,.53-2.79,1.76,1.76,0,0,1,1.65-.89,1.77,1.77,0,0,1,1.57.75,4.08,4.08,0,0,1,.52,2.3v.37c0,.08,0,.15,0,.22H10.69v.3a4.3,4.3,0,0,0,.3,1.86,1,1,0,0,0,.94.58.9.9,0,0,0,.8-.44,2.17,2.17,0,0,0,.29-1.2Zm-2.33-1.83H13v-.19a3,3,0,0,0-.27-1.42.9.9,0,0,0-.83-.48A1,1,0,0,0,11,106,3.25,3.25,0,0,0,10.69,107.56Zm-6.35,2.08h1s0,0,0,0,0,.15,0,.19a1.09,1.09,0,0,0,.32.85,1.29,1.29,0,0,0,.92.29,1.25,1.25,0,0,0,.87-.29,1.07,1.07,0,0,0,.32-.81c0-.54-.41-1-1.24-1.23h0a3.87,3.87,0,0,1-1.61-.86,1.79,1.79,0,0,1-.37-1.23,1.83,1.83,0,0,1,.52-1.4,2.06,2.06,0,0,1,1.47-.5,2.11,2.11,0,0,1,1.5.48,1.89,1.89,0,0,1,.5,1.42v.09H7.53a1.38,1.38,0,0,0-.28-.89,1,1,0,0,0-.77-.29,1.18,1.18,0,0,0-.84.27,1,1,0,0,0-.28.78,1.16,1.16,0,0,0,.07.42.64.64,0,0,0,.22.29,3.1,3.1,0,0,0,1,.47l.64.22a2.24,2.24,0,0,1,1,.69,1.87,1.87,0,0,1,.3,1.11A2,2,0,0,1,8,111.32a2.34,2.34,0,0,1-1.67.56,2,2,0,0,1-1.52-.53,2.2,2.2,0,0,1-.51-1.57ZM53.56,98.9v-.57a.52.52,0,0,0,.37-.34,1.84,1.84,0,0,0,.14-.78v-.06h-.51V95.9h1.07v1.25a2.13,2.13,0,0,1-.29,1.16A1.24,1.24,0,0,1,53.56,98.9Zm-6,.56V90.33h.93v.86a1.24,1.24,0,0,1,.51-.73,1.57,1.57,0,0,1,.93-.28,1.78,1.78,0,0,1,1.62.89,5.21,5.21,0,0,1,.54,2.66,5.46,5.46,0,0,1-.51,2.7,1.81,1.81,0,0,1-2.43.64,1.51,1.51,0,0,1-.6-.65v3Zm.93-5.74a4.94,4.94,0,0,0,.33,2.07,1.07,1.07,0,0,0,1,.67,1,1,0,0,0,.93-.65,5.61,5.61,0,0,0,.29-2.11,5.07,5.07,0,0,0-.3-2,1,1,0,0,0-.95-.63,1,1,0,0,0-1,.61A5.2,5.2,0,0,0,48.49,93.72Zm-1.91,3.44-.31,0H46a.81.81,0,0,1-.64-.25,1.11,1.11,0,0,1-.25-.72,1.73,1.73,0,0,1-.63.79,1.69,1.69,0,0,1-1,.28,1.4,1.4,0,0,1-1.16-.5A2.13,2.13,0,0,1,42,95.43a2.11,2.11,0,0,1,.38-1.35A3.91,3.91,0,0,1,44,93.2h0c.7-.23,1-.5,1-.82v-.62a.74.74,0,0,0-.23-.62,1.32,1.32,0,0,0-.77-.19,1,1,0,0,0-.76.27A1.12,1.12,0,0,0,43,92v.12h-.9a2.13,2.13,0,0,1,.5-1.52,2.08,2.08,0,0,1,1.52-.48,2,2,0,0,1,1.42.44A1.94,1.94,0,0,1,46,92v4a.6.6,0,0,0,.1.38.36.36,0,0,0,.31.12l.13,0h0Zm-1.5-3.69a2.73,2.73,0,0,1-1,.53L44,94a1.7,1.7,0,0,0-.87.53,1.54,1.54,0,0,0-.2.86,1.18,1.18,0,0,0,.23.79.76.76,0,0,0,.63.27,1.13,1.13,0,0,0,.94-.45,1.88,1.88,0,0,0,.36-1.21Zm-5.21,1.28h.94a2.89,2.89,0,0,1-.57,1.92,2,2,0,0,1-1.6.67A1.84,1.84,0,0,1,37,96.44a5.45,5.45,0,0,1-.55-2.75A5,5,0,0,1,37,91a1.94,1.94,0,0,1,1.73-.88,2,2,0,0,1,1.51.59,2.18,2.18,0,0,1,.55,1.59v.14h-.93a2.05,2.05,0,0,0-.31-1.1,1,1,0,0,0-.79-.37,1,1,0,0,0-1,.62,5.31,5.31,0,0,0-.29,2.11,5.38,5.38,0,0,0,.3,2.13,1,1,0,0,0,1,.62.93.93,0,0,0,.83-.44A2.51,2.51,0,0,0,39.87,94.75Zm-13.12,2.4L25,90.33h1l1.26,5.45,1.06-5.45h1l1.18,5.46,1.17-5.46h.95l-1.65,6.82H30l-1.18-5.29-1.05,5.29Zm-3.5-2.3h.94a2.77,2.77,0,0,1-.56,1.84,1.89,1.89,0,0,1-1.54.64,1.75,1.75,0,0,1-1.62-.86,5.19,5.19,0,0,1-.53-2.65A5.66,5.66,0,0,1,20.47,91a1.77,1.77,0,0,1,1.65-.89,1.77,1.77,0,0,1,1.57.75,4.08,4.08,0,0,1,.52,2.3v.36c0,.09,0,.16,0,.23H20.93v.3A4.33,4.33,0,0,0,21.22,96a1,1,0,0,0,.94.58.9.9,0,0,0,.8-.44,2.09,2.09,0,0,0,.29-1.2ZM20.93,93h2.31v-.18A2.93,2.93,0,0,0,23,91.41a.9.9,0,0,0-.83-.48,1,1,0,0,0-.92.51A3.25,3.25,0,0,0,20.93,93Zm-4.32,4.14V90.33h.88v1.12a2.12,2.12,0,0,1,.62-.94,1.51,1.51,0,0,1,1-.33h.25l.16,0v1a.49.49,0,0,0-.17-.06.64.64,0,0,0-.2,0,1.45,1.45,0,0,0-1.15.49A2.06,2.06,0,0,0,17.55,93v4.17Zm-2.28-2.4h.93a2.89,2.89,0,0,1-.57,1.92,2,2,0,0,1-1.6.67,1.84,1.84,0,0,1-1.69-.89,5.46,5.46,0,0,1-.54-2.75A5.09,5.09,0,0,1,11.42,91a1.94,1.94,0,0,1,1.73-.88,2,2,0,0,1,1.51.59,2.18,2.18,0,0,1,.55,1.59v.14h-.93a2,2,0,0,0-.31-1.1,1,1,0,0,0-.79-.37,1,1,0,0,0-1,.62,5.27,5.27,0,0,0-.3,2.11,5.38,5.38,0,0,0,.3,2.13,1,1,0,0,0,1,.62A.92.92,0,0,0,14,96,2.6,2.6,0,0,0,14.33,94.75Zm-9.92-.5h1v.33A2,2,0,0,0,5.81,96a1.62,1.62,0,0,0,1.27.48A1.52,1.52,0,0,0,8.27,96a1.73,1.73,0,0,0,.44-1.25,1.58,1.58,0,0,0-.27-1,2.81,2.81,0,0,0-1.19-.7l-.61-.23a5.78,5.78,0,0,1-1.34-.6,2.26,2.26,0,0,1-.57-.8,3,3,0,0,1-.18-1.09,2.54,2.54,0,0,1,.65-1.86A2.49,2.49,0,0,1,7,87.81a2.39,2.39,0,0,1,1.74.62,2.32,2.32,0,0,1,.63,1.72.68.68,0,0,1,0,.12v.11H8.46v-.09a1.71,1.71,0,0,0-.37-1.19A1.36,1.36,0,0,0,7,88.68a1.56,1.56,0,0,0-1.12.4,1.46,1.46,0,0,0-.41,1.08,1.61,1.61,0,0,0,.28,1,2.83,2.83,0,0,0,1.22.7l.33.13A7.07,7.07,0,0,1,9,92.77a2,2,0,0,1,.5.77,3.42,3.42,0,0,1,.16,1.08,2.76,2.76,0,0,1-.72,2,2.68,2.68,0,0,1-2,.72,2.51,2.51,0,0,1-1.93-.71,3,3,0,0,1-.65-2.09,1,1,0,0,1,0-.16Z"/><path class="cls-5" d="M46.25,155.32V148.5h.88v1.11a2,2,0,0,1,.63-.93,1.47,1.47,0,0,1,1-.34H49l.16,0v1a.49.49,0,0,0-.17-.06l-.2,0a1.42,1.42,0,0,0-1.15.49,2,2,0,0,0-.41,1.35v4.18ZM44,153H45a2.85,2.85,0,0,1-.55,1.85,1.91,1.91,0,0,1-1.55.64,1.77,1.77,0,0,1-1.62-.86,5.24,5.24,0,0,1-.52-2.66,5.67,5.67,0,0,1,.52-2.79,2,2,0,0,1,3.23-.13,4.13,4.13,0,0,1,.51,2.29v.37a1.48,1.48,0,0,1,0,.22H41.7v.3a4.3,4.3,0,0,0,.3,1.86,1,1,0,0,0,.94.59.91.91,0,0,0,.79-.44,2.13,2.13,0,0,0,.3-1.2Zm-2.33-1.83H44V151a3,3,0,0,0-.27-1.43.89.89,0,0,0-.83-.48,1,1,0,0,0-.91.52A3.21,3.21,0,0,0,41.7,151.18Z"/><path class="cls-5" d="M127,55.27H128a2.87,2.87,0,0,1-.55,1.85,1.93,1.93,0,0,1-1.54.64,1.78,1.78,0,0,1-1.63-.86,5.24,5.24,0,0,1-.52-2.66,5.67,5.67,0,0,1,.52-2.79,2,2,0,0,1,3.23-.13,4,4,0,0,1,.52,2.29V54a1.77,1.77,0,0,0,0,.22h-3.28v.3a4.3,4.3,0,0,0,.3,1.86A1,1,0,0,0,126,57a.94.94,0,0,0,.8-.44,2.22,2.22,0,0,0,.29-1.2Zm-2.33-1.83H127v-.19a2.83,2.83,0,0,0-.28-1.42.89.89,0,0,0-.82-.48,1,1,0,0,0-.92.51A3.25,3.25,0,0,0,124.71,53.44Zm-6.49,4.13V50.76h.89v.84a1.69,1.69,0,0,1,.68-.74,2,2,0,0,1,1-.25,1.6,1.6,0,0,1,1.29.46,2.47,2.47,0,0,1,.38,1.56v4.94h-1v-5a1.25,1.25,0,0,0-.24-.83.91.91,0,0,0-.72-.27,1.32,1.32,0,0,0-1,.4,1.55,1.55,0,0,0-.37,1.09v4.62ZM116,55.27h.93a2.87,2.87,0,0,1-.55,1.85,1.94,1.94,0,0,1-1.55.64,1.77,1.77,0,0,1-1.62-.86,5.24,5.24,0,0,1-.52-2.66,5.67,5.67,0,0,1,.52-2.79,2,2,0,0,1,3.23-.13,4.1,4.1,0,0,1,.52,2.29,3.66,3.66,0,0,1,0,.37,1.48,1.48,0,0,1,0,.22h-3.27v.3a4.3,4.3,0,0,0,.3,1.86,1,1,0,0,0,.94.59.91.91,0,0,0,.79-.44,2.13,2.13,0,0,0,.3-1.2Zm-2.33-1.83H116v-.19a2.94,2.94,0,0,0-.28-1.42.89.89,0,0,0-.83-.48,1,1,0,0,0-.91.51A3.25,3.25,0,0,0,113.67,53.44Zm-3.18,4.13V48.45h1v9.12Zm-5.64,2.19V58.9l.3.09.3,0a.84.84,0,0,0,.66-.28,3.1,3.1,0,0,0,.49-1.1l-2-6.88h1l1.46,5.49,1.5-5.49h1l-2.1,7.12a3.55,3.55,0,0,1-.76,1.57,1.7,1.7,0,0,1-1.23.42l-.28,0A2.85,2.85,0,0,1,104.85,59.76Zm-5.5.12V50.76h.92v.85a1.21,1.21,0,0,1,.51-.72,1.51,1.51,0,0,1,.93-.29,1.78,1.78,0,0,1,1.62.89,5.21,5.21,0,0,1,.54,2.66,5.67,5.67,0,0,1-.5,2.71,1.7,1.7,0,0,1-1.57.86,1.57,1.57,0,0,1-.87-.23,1.49,1.49,0,0,1-.6-.64v3Zm.92-5.74a4.94,4.94,0,0,0,.33,2.07,1.08,1.08,0,0,0,1,.67,1,1,0,0,0,.92-.65,5.58,5.58,0,0,0,.29-2.1,5.1,5.1,0,0,0-.3-2.05,1,1,0,0,0-1-.63,1,1,0,0,0-1,.62A4.91,4.91,0,0,0,100.27,54.14Zm-6,0a5.18,5.18,0,0,0,.32,2.15,1.2,1.2,0,0,0,2.11,0,5.22,5.22,0,0,0,.32-2.14A5.21,5.21,0,0,0,96.74,52a1.21,1.21,0,0,0-2.11,0A5.15,5.15,0,0,0,94.31,54.17Zm-1,0a5,5,0,0,1,.59-2.72,2,2,0,0,1,1.81-.89,2,2,0,0,1,1.81.88,5,5,0,0,1,.59,2.73,5.07,5.07,0,0,1-.58,2.72,2.35,2.35,0,0,1-3.64,0A5.08,5.08,0,0,1,93.29,54.17ZM90,57.57V50.76h.88v1.11a2,2,0,0,1,.63-.93,1.43,1.43,0,0,1,1-.34h.4v1a.43.43,0,0,0-.17-.06.65.65,0,0,0-.2,0,1.41,1.41,0,0,0-1.14.48,2,2,0,0,0-.42,1.36v4.17Zm-5.78,2.31V50.76h.93v.85a1.21,1.21,0,0,1,.51-.72,1.51,1.51,0,0,1,.93-.29,1.78,1.78,0,0,1,1.62.89,5.21,5.21,0,0,1,.54,2.66,5.67,5.67,0,0,1-.5,2.71,1.7,1.7,0,0,1-1.57.86,1.57,1.57,0,0,1-.87-.23,1.49,1.49,0,0,1-.6-.64v3Zm.93-5.74a4.94,4.94,0,0,0,.33,2.07,1.08,1.08,0,0,0,1,.67,1,1,0,0,0,.92-.65,5.58,5.58,0,0,0,.29-2.1,5.1,5.1,0,0,0-.3-2.05,1,1,0,0,0-.95-.63,1.07,1.07,0,0,0-1,.62A5.11,5.11,0,0,0,85.11,54.14Zm-6.58,5.62V58.9l.3.09.3,0a.84.84,0,0,0,.66-.28,3.1,3.1,0,0,0,.49-1.1l-2-6.88h1l1.46,5.49,1.5-5.49h1l-2.1,7.12a3.55,3.55,0,0,1-.76,1.57,1.7,1.7,0,0,1-1.23.42l-.28,0A2.85,2.85,0,0,1,78.53,59.76Zm-2.12-2.19V48.45h1v9.12Zm-5-3.4a5.18,5.18,0,0,0,.32,2.15,1.2,1.2,0,0,0,2.11,0,5.26,5.26,0,0,0,.31-2.14A5.25,5.25,0,0,0,73.82,52a1.21,1.21,0,0,0-2.11,0A5.15,5.15,0,0,0,71.39,54.17Zm-1,0A5,5,0,0,1,71,51.45a2,2,0,0,1,1.81-.89,2,2,0,0,1,1.81.88,5,5,0,0,1,.59,2.73,5.07,5.07,0,0,1-.58,2.72,2.35,2.35,0,0,1-3.64,0A5.08,5.08,0,0,1,70.37,54.17Zm-5.77,3.4V48.45h2.34a3.28,3.28,0,0,1,2.18.61A2.48,2.48,0,0,1,69.8,51a2.72,2.72,0,0,1-.71,2,2.93,2.93,0,0,1-2.11.69H65.62v3.83Zm1-4.75H67a1.85,1.85,0,0,0,1.36-.44A1.93,1.93,0,0,0,68.75,51a1.62,1.62,0,0,0-.44-1.26,2.1,2.1,0,0,0-1.42-.39H65.62Z"/><path class="cls-5" d="M125.75,125.51h.93a2.87,2.87,0,0,1-.55,1.85,1.94,1.94,0,0,1-1.55.64,1.77,1.77,0,0,1-1.62-.86,5.25,5.25,0,0,1-.53-2.66,5.66,5.66,0,0,1,.53-2.79,2,2,0,0,1,3.23-.14,4.17,4.17,0,0,1,.51,2.3v.37a1.48,1.48,0,0,1,0,.22h-3.27v.3a4.49,4.49,0,0,0,.29,1.86,1,1,0,0,0,1,.59.9.9,0,0,0,.79-.45,2.08,2.08,0,0,0,.3-1.19Zm-2.33-1.83h2.31v-.19a3,3,0,0,0-.27-1.42.89.89,0,0,0-.83-.48,1,1,0,0,0-.91.51A3.25,3.25,0,0,0,123.42,123.68Zm-6.5,4.13V121h.9v.84a1.67,1.67,0,0,1,.67-.74,2,2,0,0,1,1-.25,1.56,1.56,0,0,1,1.28.46,2.4,2.4,0,0,1,.39,1.56v4.94h-1v-5A1.25,1.25,0,0,0,120,122a.91.91,0,0,0-.72-.27,1.32,1.32,0,0,0-1,.4,1.55,1.55,0,0,0-.38,1.09v4.62Zm-2.21-2.3h.93a2.87,2.87,0,0,1-.55,1.85,1.94,1.94,0,0,1-1.55.64,1.77,1.77,0,0,1-1.62-.86,5.25,5.25,0,0,1-.53-2.66,5.66,5.66,0,0,1,.53-2.79,1.78,1.78,0,0,1,1.65-.89,1.8,1.8,0,0,1,1.58.75,4.17,4.17,0,0,1,.51,2.3v.37a1.48,1.48,0,0,1,0,.22h-3.27v.3a4.49,4.49,0,0,0,.29,1.86,1,1,0,0,0,1,.59.9.9,0,0,0,.79-.45,2.08,2.08,0,0,0,.3-1.19Zm-2.33-1.83h2.31v-.19a3,3,0,0,0-.27-1.42.9.9,0,0,0-.83-.48,1,1,0,0,0-.91.51A3.25,3.25,0,0,0,112.38,123.68Zm-3.18,4.13v-9.12h1v9.12ZM103.56,130v-.86a1.71,1.71,0,0,0,.3.09,1.43,1.43,0,0,0,.29,0,.84.84,0,0,0,.67-.29,3.19,3.19,0,0,0,.49-1.1l-2-6.87h1l1.46,5.49,1.5-5.49h1l-2.1,7.12a3.55,3.55,0,0,1-.76,1.57,1.7,1.7,0,0,1-1.23.42l-.28,0A2.49,2.49,0,0,1,103.56,130Zm-5.51.12V121H99v.85a1.21,1.21,0,0,1,.51-.72,1.51,1.51,0,0,1,.93-.29,1.78,1.78,0,0,1,1.62.89,5.21,5.21,0,0,1,.54,2.66,5.67,5.67,0,0,1-.5,2.71,1.7,1.7,0,0,1-1.57.86,1.66,1.66,0,0,1-.87-.23,1.49,1.49,0,0,1-.6-.64v3Zm.93-5.74a4.94,4.94,0,0,0,.33,2.07,1.07,1.07,0,0,0,1,.67,1,1,0,0,0,.93-.65,5.58,5.58,0,0,0,.29-2.1,5.1,5.1,0,0,0-.3-2.05,1,1,0,0,0-1-.63,1,1,0,0,0-1,.62A5.11,5.11,0,0,0,99,124.38Zm-6,0a5.43,5.43,0,0,0,.31,2.15,1.1,1.1,0,0,0,1.07.62,1.09,1.09,0,0,0,1-.63,7.58,7.58,0,0,0,0-4.29,1.21,1.21,0,0,0-2.11,0A5.15,5.15,0,0,0,93,124.41Zm-1,0a5,5,0,0,1,.59-2.72,2,2,0,0,1,1.81-.89,2,2,0,0,1,1.81.88,6.69,6.69,0,0,1,0,5.45,2.33,2.33,0,0,1-3.63,0A4.93,4.93,0,0,1,92,124.41Zm-3.33,3.4V121h.88v1.11a2,2,0,0,1,.62-.93,1.47,1.47,0,0,1,1-.34h.25l.16,0v1a.49.49,0,0,0-.17-.06.65.65,0,0,0-.2,0,1.44,1.44,0,0,0-1.15.48,2.08,2.08,0,0,0-.41,1.36v4.17Zm-5.78,2.31V121h.93v.85a1.21,1.21,0,0,1,.51-.72,1.51,1.51,0,0,1,.93-.29,1.8,1.8,0,0,1,1.62.89,5.21,5.21,0,0,1,.54,2.66,5.53,5.53,0,0,1-.51,2.71,1.69,1.69,0,0,1-1.56.86,1.66,1.66,0,0,1-.87-.23,1.57,1.57,0,0,1-.61-.64v3Zm.93-5.74a4.94,4.94,0,0,0,.33,2.07,1.07,1.07,0,0,0,1,.67,1,1,0,0,0,.93-.65,5.58,5.58,0,0,0,.29-2.1,5.1,5.1,0,0,0-.3-2.05,1,1,0,0,0-1-.63,1,1,0,0,0-1,.62A5.11,5.11,0,0,0,83.82,124.38ZM77.24,130v-.86a1.71,1.71,0,0,0,.3.09,1.43,1.43,0,0,0,.29,0,.84.84,0,0,0,.67-.29,3.19,3.19,0,0,0,.49-1.1L77,121h1l1.46,5.49L81,121h1l-2.1,7.12a3.55,3.55,0,0,1-.76,1.57,1.7,1.7,0,0,1-1.23.42l-.28,0A2.85,2.85,0,0,1,77.24,130Zm-2.12-2.19v-9.12h.95v9.12Zm-5-3.4a5.43,5.43,0,0,0,.31,2.15,1.2,1.2,0,0,0,2.11,0,7.35,7.35,0,0,0,0-4.29,1.2,1.2,0,0,0-2.1,0A5.15,5.15,0,0,0,70.1,124.41Zm-1,0a5,5,0,0,1,.59-2.72,2.29,2.29,0,0,1,3.62,0,6.69,6.69,0,0,1,0,5.45,2.33,2.33,0,0,1-3.63,0A4.93,4.93,0,0,1,69.08,124.41Zm-5.77,3.4v-9.12h2.34a3.23,3.23,0,0,1,2.17.61,2.48,2.48,0,0,1,.69,1.94,2.76,2.76,0,0,1-.71,2.05,3,3,0,0,1-2.11.69H64.33v3.83Zm1-4.75h1.33a1.85,1.85,0,0,0,1.36-.44,1.93,1.93,0,0,0,.44-1.39A1.62,1.62,0,0,0,67,120a2.11,2.11,0,0,0-1.42-.39H64.33Z"/><path class="cls-5" d="M170.67,55.48h.73a2.47,2.47,0,0,1-.8,1.7,2.62,2.62,0,0,1-1.82.63,2.52,2.52,0,0,1-2-.88,3.61,3.61,0,0,1-.73-2.39,3.73,3.73,0,0,1,.74-2.45,2.83,2.83,0,0,1,3.81-.3,2.12,2.12,0,0,1,.73,1.56h-.7a1.66,1.66,0,0,0-.58-1.1,1.77,1.77,0,0,0-1.2-.41,1.79,1.79,0,0,0-1.5.71,3,3,0,0,0-.55,1.93,3.15,3.15,0,0,0,.56,2,1.8,1.8,0,0,0,1.5.73,1.77,1.77,0,0,0,1.23-.46,2,2,0,0,0,.6-1.25m-7.13-6.42a1.62,1.62,0,0,1,1.61,1.62,1.6,1.6,0,0,1-1.62,1.62,1.56,1.56,0,0,1-1.15-.47,1.63,1.63,0,0,1,0-2.3A1.59,1.59,0,0,1,163.54,49.06Zm1.25,1.62a1.28,1.28,0,0,0-1.26-1.26,1.19,1.19,0,0,0-.89.37,1.26,1.26,0,1,0,2.15.89Zm-8.74,2.45a8.15,8.15,0,0,1,.57-3.61,2,2,0,0,1,1.89-1,2.11,2.11,0,0,1,1.15.29,2.49,2.49,0,0,1,.82.9,4,4,0,0,1,.38,1.27,15.55,15.55,0,0,1,.12,2.2,8.48,8.48,0,0,1-.56,3.62,2,2,0,0,1-1.87,1.07,2,2,0,0,1-1.93-1A8.27,8.27,0,0,1,156.05,53.13Zm1.06,0a9.58,9.58,0,0,0,.31,3,1.11,1.11,0,0,0,1.11.81,1.1,1.1,0,0,0,1.09-.73,9.92,9.92,0,0,0,.3-3.09,9.37,9.37,0,0,0-.31-3,1.17,1.17,0,0,0-2.2,0A9.62,9.62,0,0,0,157.11,53.11Zm-7.06,4.54s0-.09,0-.14a1.22,1.22,0,0,1,0-.21,3.7,3.7,0,0,1,.39-1.68,5.31,5.31,0,0,1,1.2-1.52l.45-.39a15.79,15.79,0,0,0,1.23-1.17,1.92,1.92,0,0,0,.36-.66,3.33,3.33,0,0,0,.11-.89,1.88,1.88,0,0,0-.35-1.21,1.22,1.22,0,0,0-1-.42,1.14,1.14,0,0,0-1,.47,2.45,2.45,0,0,0-.33,1.41v.31h-1v-.17a1.1,1.1,0,0,1,0-.16,3.11,3.11,0,0,1,.61-2,2.16,2.16,0,0,1,1.74-.72,2.25,2.25,0,0,1,1.73.66,2.5,2.5,0,0,1,.63,1.82,4.24,4.24,0,0,1-.12,1.06,3.21,3.21,0,0,1-.39.84,6,6,0,0,1-1.2,1.16l-.35.29a6.93,6.93,0,0,0-1.31,1.33,2,2,0,0,0-.39,1.1h3.83v.94Zm-3.79,0V50.94h-1.94v-.78h.12a2.28,2.28,0,0,0,1.47-.41,1.8,1.8,0,0,0,.54-1.29h.79v9.19Z"/><path class="cls-5" d="M128.33,75.42h.93a2.8,2.8,0,0,1-.55,1.85,1.9,1.9,0,0,1-1.54.64,1.78,1.78,0,0,1-1.63-.86,5.24,5.24,0,0,1-.52-2.66,5.67,5.67,0,0,1,.52-2.79,2,2,0,0,1,3.23-.13,4,4,0,0,1,.52,2.29v.37a1.77,1.77,0,0,0,0,.22H126v.3a4.3,4.3,0,0,0,.3,1.86,1,1,0,0,0,.94.59.92.92,0,0,0,.8-.44,2.22,2.22,0,0,0,.29-1.2ZM126,73.59h2.32v-.18A2.84,2.84,0,0,0,128,72a.89.89,0,0,0-.82-.48,1,1,0,0,0-.92.52A3.18,3.18,0,0,0,126,73.59Zm-6.49,4.14V70.91h.89v.84a1.75,1.75,0,0,1,.68-.74,2.07,2.07,0,0,1,1-.25,1.6,1.6,0,0,1,1.29.46,2.47,2.47,0,0,1,.38,1.56v5h-1v-5a1.25,1.25,0,0,0-.24-.83.9.9,0,0,0-.72-.27,1.35,1.35,0,0,0-1,.4,1.55,1.55,0,0,0-.37,1.09v4.63Zm-5-3.41a5.22,5.22,0,0,0,.31,2.15,1.2,1.2,0,0,0,2.11,0,5.22,5.22,0,0,0,.32-2.14,5.12,5.12,0,0,0-.32-2.14,1.09,1.09,0,0,0-1.05-.63,1.11,1.11,0,0,0-1.06.62A5.18,5.18,0,0,0,114.48,74.32Zm-1,0a4.93,4.93,0,0,1,.59-2.72,2.28,2.28,0,0,1,3.61,0,5,5,0,0,1,.59,2.73,5.07,5.07,0,0,1-.58,2.72,2.35,2.35,0,0,1-3.64,0A5.09,5.09,0,0,1,113.46,74.32Zm-2.09,1h.93a2.94,2.94,0,0,1-.56,1.91,2,2,0,0,1-1.61.68,1.82,1.82,0,0,1-1.68-.9,5.3,5.3,0,0,1-.55-2.74,4.94,4.94,0,0,1,.57-2.66,1.9,1.9,0,0,1,1.72-.88,2,2,0,0,1,1.51.58,2.22,2.22,0,0,1,.56,1.59V73h-.94A1.91,1.91,0,0,0,111,72a.9.9,0,0,0-.78-.37,1,1,0,0,0-1,.61,7.64,7.64,0,0,0,0,4.24,1,1,0,0,0,1,.63.91.91,0,0,0,.82-.45A2.45,2.45,0,0,0,111.37,75.32Zm-5.73,2.41V70.91h1v6.82Zm0-7.89V68.6h1v1.24Zm-2.37,7.89V68.6h.94v9.13Zm-2.42,0V70.91h1v6.82Zm0-7.89V68.6h1v1.24Zm-6.6,5h1v.32a2,2,0,0,0,.43,1.41,1.62,1.62,0,0,0,1.27.47,1.57,1.57,0,0,0,1.19-.45,1.77,1.77,0,0,0,.43-1.26,1.6,1.6,0,0,0-.26-1,2.71,2.71,0,0,0-1.19-.69l-.61-.23a5.24,5.24,0,0,1-1.34-.61,2,2,0,0,1-.57-.8,3,3,0,0,1-.19-1.08A2.53,2.53,0,0,1,95,69.06a2.44,2.44,0,0,1,1.83-.68,2.38,2.38,0,0,1,1.75.63,2.29,2.29,0,0,1,.63,1.72.54.54,0,0,1,0,.11V71H98.3v-.1a1.73,1.73,0,0,0-.37-1.19,1.41,1.41,0,0,0-1.07-.41,1.52,1.52,0,0,0-1.12.4,1.4,1.4,0,0,0-.41,1.08,1.57,1.57,0,0,0,.28,1,2.88,2.88,0,0,0,1.21.7l.34.12a6.26,6.26,0,0,1,1.7.79,1.77,1.77,0,0,1,.5.76,3.14,3.14,0,0,1,.17,1.08,2.74,2.74,0,0,1-.72,2,2.69,2.69,0,0,1-2,.72,2.44,2.44,0,0,1-1.92-.71,3,3,0,0,1-.65-2.09V75A1,1,0,0,0,94.25,74.83Zm-4.34,2.9H89v-.86a1.23,1.23,0,0,1-.53.72,1.66,1.66,0,0,1-1,.27,1.76,1.76,0,0,1-1.61-1,5.71,5.71,0,0,1-.55-2.8,4.63,4.63,0,0,1,.56-2.47,1.74,1.74,0,0,1,1.55-.88,1.84,1.84,0,0,1,1,.24,1.07,1.07,0,0,1,.52.62v-3h1ZM89,74.27a5,5,0,0,0-.29-2.08,1,1,0,0,0-1-.59,1.06,1.06,0,0,0-1,.63,4.66,4.66,0,0,0-.32,2,5.35,5.35,0,0,0,.31,2.14,1,1,0,0,0,1,.67,1,1,0,0,0,1-.63A5.09,5.09,0,0,0,89,74.27Zm-5.87,3.46V70.91h1v6.82Zm0-7.89V68.6h1v1.24Zm-2.39,7.89v-.89a1.56,1.56,0,0,1-.64.79,1.87,1.87,0,0,1-1,.28,1.64,1.64,0,0,1-1.25-.42,1.93,1.93,0,0,1-.39-1.34V70.91h1v5.27a.94.94,0,0,0,.22.65.74.74,0,0,0,.58.23,1.37,1.37,0,0,0,1.08-.43,1.73,1.73,0,0,0,.38-1.19V70.91h1v6.82ZM76,80H75V77a1.61,1.61,0,0,1-1.47.87A1.69,1.69,0,0,1,72,77a5.53,5.53,0,0,1-.51-2.71A5.1,5.1,0,0,1,72,71.64a1.78,1.78,0,0,1,1.62-.89,1.57,1.57,0,0,1,.92.29,1.21,1.21,0,0,1,.51.73v-.86H76Zm-.93-5.74a5.11,5.11,0,0,0-.3-2.07,1.07,1.07,0,0,0-1-.62,1,1,0,0,0-.95.63,5.1,5.1,0,0,0-.3,2,5.58,5.58,0,0,0,.29,2.1,1,1,0,0,0,.93.65,1.07,1.07,0,0,0,1-.67A4.94,4.94,0,0,0,75.06,74.29Zm-6,3.44V68.6h1v9.13Zm-5.77,0V68.6h1v8.14H68v1Z"/><path class="cls-5" d="M170.67,75.29h.73a2.47,2.47,0,0,1-.8,1.7,2.62,2.62,0,0,1-1.82.63,2.49,2.49,0,0,1-2-.88,3.59,3.59,0,0,1-.73-2.39,3.73,3.73,0,0,1,.74-2.45,2.83,2.83,0,0,1,3.81-.3,2.14,2.14,0,0,1,.73,1.56h-.7a1.66,1.66,0,0,0-.58-1.1,1.82,1.82,0,0,0-1.2-.41,1.79,1.79,0,0,0-1.5.71,3,3,0,0,0-.55,1.93,3.15,3.15,0,0,0,.56,2,1.8,1.8,0,0,0,1.5.73,1.72,1.72,0,0,0,1.23-.46,2,2,0,0,0,.6-1.25m-7.13-6.42a1.62,1.62,0,0,1,1.61,1.62,1.6,1.6,0,0,1-1.62,1.62,1.62,1.62,0,0,1-1.14-2.77A1.59,1.59,0,0,1,163.54,68.87Zm1.25,1.62a1.3,1.3,0,0,0-1.26-1.26,1.26,1.26,0,1,0,1.26,1.26Zm-8.74,2.45a8.15,8.15,0,0,1,.57-3.61,2,2,0,0,1,1.89-1,2.11,2.11,0,0,1,1.15.29,2.49,2.49,0,0,1,.82.9,4,4,0,0,1,.38,1.27A15.71,15.71,0,0,1,161,73a8.46,8.46,0,0,1-.56,3.61,2,2,0,0,1-1.87,1.07,2,2,0,0,1-1.93-1A8.27,8.27,0,0,1,156.05,72.94Zm1.06,0a9.7,9.7,0,0,0,.31,3,1.11,1.11,0,0,0,1.11.8,1.1,1.1,0,0,0,1.09-.73,9.88,9.88,0,0,0,.3-3.09,9.37,9.37,0,0,0-.31-3,1.17,1.17,0,0,0-2.2,0A9.62,9.62,0,0,0,157.11,72.92Zm-4.81,4.54V70.75h-1.94V70h.12a2.28,2.28,0,0,0,1.47-.41,1.76,1.76,0,0,0,.54-1.29h.8v9.19Zm-6,0V70.75h-1.94V70h.12a2.28,2.28,0,0,0,1.47-.41,1.8,1.8,0,0,0,.54-1.29h.79v9.19Z"/><path class="cls-5" d="M170.67,126.73h.73a2.49,2.49,0,0,1-.8,1.71,2.61,2.61,0,0,1-1.82.62,2.51,2.51,0,0,1-2-.87,3.61,3.61,0,0,1-.73-2.39,3.73,3.73,0,0,1,.74-2.45,2.83,2.83,0,0,1,3.81-.3,2.11,2.11,0,0,1,.73,1.56h-.7a1.66,1.66,0,0,0-.58-1.1,1.77,1.77,0,0,0-1.2-.41,1.79,1.79,0,0,0-1.5.71,3,3,0,0,0-.55,1.93,3.15,3.15,0,0,0,.56,2,1.8,1.8,0,0,0,1.5.73,1.77,1.77,0,0,0,1.23-.46,2.06,2.06,0,0,0,.6-1.26m-7.13-6.41a1.62,1.62,0,1,1,0,3.24,1.56,1.56,0,0,1-1.15-.47,1.63,1.63,0,0,1,0-2.3A1.59,1.59,0,0,1,163.54,120.32Zm1.25,1.62a1.21,1.21,0,0,0-.38-.89,1.24,1.24,0,0,0-1.77,0,1.22,1.22,0,0,0-.37.89,1.26,1.26,0,0,0,2.52,0Zm-8.74,2.45a8.15,8.15,0,0,1,.57-3.61,2,2,0,0,1,1.89-1,2.11,2.11,0,0,1,1.15.29,2.41,2.41,0,0,1,.82.9,4,4,0,0,1,.38,1.27,15.55,15.55,0,0,1,.12,2.2,8.48,8.48,0,0,1-.56,3.62,2,2,0,0,1-1.87,1.07,2,2,0,0,1-1.93-1.05A8.3,8.3,0,0,1,156.05,124.39Zm1.06,0a9.58,9.58,0,0,0,.31,3,1.12,1.12,0,0,0,1.11.81,1.1,1.1,0,0,0,1.09-.73,10,10,0,0,0,.3-3.09,9.33,9.33,0,0,0-.31-3,1.17,1.17,0,0,0-2.2,0A9.62,9.62,0,0,0,157.11,124.37Zm-4.81,4.54V122.2h-1.94v-.78h.12A2.22,2.22,0,0,0,152,121a1.72,1.72,0,0,0,.54-1.28h.8v9.19Zm-6,0V122.2h-1.94v-.78h.12a2.22,2.22,0,0,0,1.47-.42,1.76,1.76,0,0,0,.54-1.28h.79v9.19Z"/><rect class="cls-2" x="55.3" y="21.61" width="82" height="20.99"/><rect class="cls-3" x="55.3" y="21.61" width="82" height="20.99"/><path class="cls-5" d="M152.33,13.16a2.06,2.06,0,0,0,.49,1.05,1.35,1.35,0,0,0,1,.35,1.61,1.61,0,0,0,.63-.12,1.1,1.1,0,0,0,.45-.38,1.24,1.24,0,0,0,.16-.66,1.44,1.44,0,0,0-.13-.64,1.58,1.58,0,0,0-.44-.51,4.83,4.83,0,0,0-.84-.51,8.11,8.11,0,0,1-.84-.49,2.8,2.8,0,0,1-.63-.54,2.08,2.08,0,0,1-.41-.66,2,2,0,0,1-.15-.8A2.08,2.08,0,0,1,152,8a2.24,2.24,0,0,1,1.05-.78A4.51,4.51,0,0,1,154.63,7c.36,0,.69,0,1,0s.69.11,1.1.2V9h-.81a2.78,2.78,0,0,0-.29-.74,1.08,1.08,0,0,0-.44-.41,1.39,1.39,0,0,0-.65-.13,1.48,1.48,0,0,0-.61.12,1,1,0,0,0-.42.35,1.05,1.05,0,0,0-.15.57,1.2,1.2,0,0,0,.13.59,1.56,1.56,0,0,0,.45.49,5.8,5.8,0,0,0,.91.55,5.48,5.48,0,0,1,1.14.75,2.28,2.28,0,0,1,.62.79,2.41,2.41,0,0,1,.2,1,2.26,2.26,0,0,1-.34,1.26,2.18,2.18,0,0,1-1,.83,3.67,3.67,0,0,1-1.49.28,10.88,10.88,0,0,1-1.26-.07,10.6,10.6,0,0,1-1.23-.19V13.16Zm-6.18-5.38v3.29h.59a2,2,0,0,0,.78-.13,1.12,1.12,0,0,0,.49-.35,1.35,1.35,0,0,0,.25-.54,3.45,3.45,0,0,0,.07-.67A1.72,1.72,0,0,0,148,8.17a1.48,1.48,0,0,0-1.13-.4Zm.64,7.38h-3.11v-.39a1.52,1.52,0,0,0,.35-.13.5.5,0,0,0,.19-.19.82.82,0,0,0,.08-.31c0-.12,0-.28,0-.47V8.57c0-.19,0-.35,0-.47a.67.67,0,0,0-.08-.31A.47.47,0,0,0,144,7.6a1.59,1.59,0,0,0-.36-.14V7.07h3.46a6.49,6.49,0,0,1,1.18.1,3.34,3.34,0,0,1,.86.3,1.66,1.66,0,0,1,.52.42,1.94,1.94,0,0,1,.33.58,2.37,2.37,0,0,1,.12.78,2.2,2.2,0,0,1-.21,1,2.18,2.18,0,0,1-.55.69,4,4,0,0,1-.93.52v.06a2,2,0,0,1,.73.5,3.43,3.43,0,0,1,.52.81l.37.8a3.18,3.18,0,0,0,.49.81,1,1,0,0,0,.59.33v.39h-2.28a9.18,9.18,0,0,1-.78-1.41l-.46-1a3.27,3.27,0,0,0-.36-.64.71.71,0,0,0-.3-.26,1.19,1.19,0,0,0-.48-.08h-.35v1.91a3.8,3.8,0,0,0,0,.62.63.63,0,0,0,.16.29,1.23,1.23,0,0,0,.44.19ZM137.19,11a6.28,6.28,0,0,0,.43,2.67,1.39,1.39,0,0,0,1.31.87,1.27,1.27,0,0,0,.78-.24,2,2,0,0,0,.52-.69,4.1,4.1,0,0,0,.28-1.05,9,9,0,0,0,.09-1.33,9.06,9.06,0,0,0-.19-2,2.69,2.69,0,0,0-.56-1.2,1.28,1.28,0,0,0-1-.41,1.34,1.34,0,0,0-1.27.82A5.81,5.81,0,0,0,137.19,11Zm1.6,4.23a3.24,3.24,0,0,1-2.61-1,4.57,4.57,0,0,1-.87-3.05,5.58,5.58,0,0,1,.42-2.27A3.1,3.1,0,0,1,137,7.47a3.7,3.7,0,0,1,2-.49,3.35,3.35,0,0,1,2.66,1,4.45,4.45,0,0,1,.88,3,6,6,0,0,1-.26,1.92,3.39,3.39,0,0,1-.75,1.32,2.83,2.83,0,0,1-1.16.76A4.53,4.53,0,0,1,138.79,15.25Zm-9.28-.09v-.39a2,2,0,0,0,.4-.11.49.49,0,0,0,.21-.19.75.75,0,0,0,.09-.32c0-.13,0-.29,0-.48V7.77h-.48a1.28,1.28,0,0,0-.54.08.75.75,0,0,0-.33.26,1.35,1.35,0,0,0-.24.48,5,5,0,0,0-.17.56h-.81V7.07h7V9.15h-.81c-.08-.27-.13-.46-.18-.59a1.61,1.61,0,0,0-.14-.32,1.05,1.05,0,0,0-.17-.22.9.9,0,0,0-.19-.15,1.23,1.23,0,0,0-.25-.08l-.4,0h-.42v5.9c0,.21,0,.37,0,.48a1.05,1.05,0,0,0,.07.26.5.5,0,0,0,.11.16.69.69,0,0,0,.19.12,1.77,1.77,0,0,0,.33.08v.39Zm-2.75-7.9V9H126a1.91,1.91,0,0,0-.45-1,1.07,1.07,0,0,0-.81-.32,1.52,1.52,0,0,0-1.41.9,5.82,5.82,0,0,0-.48,2.66,5.6,5.6,0,0,0,.44,2.49,1.38,1.38,0,0,0,1.28.84,1.47,1.47,0,0,0,.71-.15,1,1,0,0,0,.43-.43,3,3,0,0,0,.28-.82h.81V15c-.43.1-.83.17-1.18.22a8.22,8.22,0,0,1-1.12.07,4,4,0,0,1-2-.44,2.65,2.65,0,0,1-1.14-1.34,6,6,0,0,1-.37-2.27A5.33,5.33,0,0,1,121.36,9a3.34,3.34,0,0,1,1.28-1.47,3.87,3.87,0,0,1,2-.51,8.77,8.77,0,0,1,1.08.06A8,8,0,0,1,126.76,7.26ZM115.14,12h2.13l-1-3.33Zm2.3.69h-2.53l-.19.57a4,4,0,0,0-.14.46,2.26,2.26,0,0,0,0,.47c0,.38.2.59.62.62v.39h-2.53v-.39a.76.76,0,0,0,.38-.16,1.17,1.17,0,0,0,.3-.35,3.8,3.8,0,0,0,.29-.65L116.06,7h1.58l2,6.64a5.88,5.88,0,0,0,.22.63.86.86,0,0,0,.23.3.93.93,0,0,0,.4.17v.39h-3.27v-.39a.85.85,0,0,0,.45-.17.5.5,0,0,0,.15-.39,2.1,2.1,0,0,0,0-.41,5.74,5.74,0,0,0-.14-.57Zm-7.4,1c0,.21,0,.37,0,.48a.58.58,0,0,0,.07.26.5.5,0,0,0,.11.16.69.69,0,0,0,.19.12,1.59,1.59,0,0,0,.33.08v.39h-3.19v-.39a1.36,1.36,0,0,0,.35-.13.39.39,0,0,0,.19-.19.82.82,0,0,0,.08-.31c0-.13,0-.29,0-.47V8.57c0-.19,0-.35,0-.47a.67.67,0,0,0-.08-.31.47.47,0,0,0-.18-.19,1.59,1.59,0,0,0-.36-.14V7.07h5.73V9h-.81a3.47,3.47,0,0,0-.33-.76,1,1,0,0,0-.33-.32,1.38,1.38,0,0,0-.64-.11H110v3h.76a.83.83,0,0,0,.43-.09.58.58,0,0,0,.25-.28,2.07,2.07,0,0,0,.16-.57h.67v2.58h-.67a2,2,0,0,0-.17-.58.63.63,0,0,0-.25-.28.82.82,0,0,0-.42-.09H110ZM96.15,15.16v-.39a2,2,0,0,0,.4-.11.49.49,0,0,0,.21-.19.75.75,0,0,0,.09-.32,3.4,3.4,0,0,0,0-.48V7.77h-.48a1.28,1.28,0,0,0-.54.08.75.75,0,0,0-.33.26,1.54,1.54,0,0,0-.24.48,5,5,0,0,0-.17.56H94.3V7.07h7V9.15h-.81a5.67,5.67,0,0,0-.18-.59,1.61,1.61,0,0,0-.14-.32A1.05,1.05,0,0,0,100,8a.9.9,0,0,0-.19-.15,1.23,1.23,0,0,0-.25-.08l-.4,0h-.42v5.9a3.11,3.11,0,0,0,0,.48.77.77,0,0,0,.06.26.5.5,0,0,0,.11.16.62.62,0,0,0,.2.12,1.65,1.65,0,0,0,.32.08v.39Zm-2.74-7.9V9H92.6a1.91,1.91,0,0,0-.45-1,1.06,1.06,0,0,0-.8-.32,1.53,1.53,0,0,0-1.42.9,5.82,5.82,0,0,0-.48,2.66,5.6,5.6,0,0,0,.44,2.49,1.38,1.38,0,0,0,1.28.84,1.47,1.47,0,0,0,.71-.15,1,1,0,0,0,.43-.43,2.93,2.93,0,0,0,.29-.82h.81V15c-.44.1-.84.17-1.19.22a8.22,8.22,0,0,1-1.12.07,4,4,0,0,1-2-.44,2.69,2.69,0,0,1-1.14-1.34,6,6,0,0,1-.37-2.27A5.33,5.33,0,0,1,88,9a3.34,3.34,0,0,1,1.28-1.47,3.87,3.87,0,0,1,2-.51A8.77,8.77,0,0,1,92.39,7,8.13,8.13,0,0,1,93.41,7.26Zm-8.87,1.3a3,3,0,0,0,0-.62.63.63,0,0,0-.15-.28,1.13,1.13,0,0,0-.44-.2V7.07h2.61v.39a2,2,0,0,0-.34.13.5.5,0,0,0-.19.19.88.88,0,0,0-.08.31,3.18,3.18,0,0,0,0,.47v3.7a5.32,5.32,0,0,1-.12,1.23,2.19,2.19,0,0,1-.37.83,1.83,1.83,0,0,1-.62.55,2.4,2.4,0,0,1-.83.29,5.41,5.41,0,0,1-1,.09,4.91,4.91,0,0,1-1.43-.17,2.27,2.27,0,0,1-.94-.53,2.18,2.18,0,0,1-.54-.86,3.85,3.85,0,0,1-.18-1.29V8.57c0-.19,0-.35,0-.47a.82.82,0,0,0-.08-.31.44.44,0,0,0-.19-.19,1.33,1.33,0,0,0-.35-.14V7.07h3.11v.39A1.68,1.68,0,0,0,82,7.6a.48.48,0,0,0-.17.18.77.77,0,0,0-.08.28,3.3,3.3,0,0,0,0,.51v3.91a5.57,5.57,0,0,0,.06.85A1.77,1.77,0,0,0,82,14a1.09,1.09,0,0,0,.43.42,1.54,1.54,0,0,0,.72.15,1.42,1.42,0,0,0,.9-.24,1.28,1.28,0,0,0,.42-.68,5.23,5.23,0,0,0,.12-1.3Zm-11.3,5.88a4.87,4.87,0,0,0,.54,0,2.78,2.78,0,0,0,1.1-.19,1.61,1.61,0,0,0,.56-.39A2.58,2.58,0,0,0,76,12.82a6.23,6.23,0,0,0,.21-1.74,5.05,5.05,0,0,0-.3-1.87,2.22,2.22,0,0,0-.85-1.09,2.31,2.31,0,0,0-1.31-.35h-.53Zm.61-7.37a7,7,0,0,1,1.65.16,3.57,3.57,0,0,1,1.18.48,3,3,0,0,1,.84.79A3.59,3.59,0,0,1,78,9.57a5.69,5.69,0,0,1,.15,1.37,5.66,5.66,0,0,1-.22,1.66,3.31,3.31,0,0,1-.65,1.25,3,3,0,0,1-.94.77,3.85,3.85,0,0,1-1.29.43,9.74,9.74,0,0,1-1.58.11H70.77v-.39a1.52,1.52,0,0,0,.35-.13.5.5,0,0,0,.19-.19.82.82,0,0,0,.08-.31c0-.12,0-.28,0-.47V8.57c0-.19,0-.35,0-.47a.82.82,0,0,0-.08-.31.44.44,0,0,0-.19-.19,1.33,1.33,0,0,0-.35-.14V7.07ZM64.28,11a6.28,6.28,0,0,0,.43,2.67,1.38,1.38,0,0,0,1.31.87,1.29,1.29,0,0,0,.78-.24,2,2,0,0,0,.52-.69,4.1,4.1,0,0,0,.28-1.05,9.05,9.05,0,0,0,.08-1.33,9.12,9.12,0,0,0-.18-2,2.69,2.69,0,0,0-.56-1.2,1.29,1.29,0,0,0-1-.41,1.34,1.34,0,0,0-1.27.82A5.81,5.81,0,0,0,64.28,11Zm1.6,4.23a3.24,3.24,0,0,1-2.61-1,4.57,4.57,0,0,1-.87-3.05,5.58,5.58,0,0,1,.42-2.27,3.1,3.1,0,0,1,1.25-1.44A3.7,3.7,0,0,1,66,7a3.35,3.35,0,0,1,2.66,1,4.45,4.45,0,0,1,.88,3,6,6,0,0,1-.26,1.92,3.52,3.52,0,0,1-.75,1.32A2.83,2.83,0,0,1,67.4,15,4.57,4.57,0,0,1,65.88,15.25ZM57.05,7.78v3.29h.59a2,2,0,0,0,.78-.13,1.19,1.19,0,0,0,.49-.35,1.35,1.35,0,0,0,.25-.54,3.45,3.45,0,0,0,.07-.67,1.72,1.72,0,0,0-.38-1.21,1.48,1.48,0,0,0-1.13-.4Zm.64,7.38H54.58v-.39a1.52,1.52,0,0,0,.35-.13.5.5,0,0,0,.19-.19.82.82,0,0,0,.08-.31c0-.12,0-.28,0-.47V8.57c0-.19,0-.35,0-.47a.67.67,0,0,0-.08-.31.47.47,0,0,0-.18-.19,1.59,1.59,0,0,0-.36-.14V7.07H58a6.53,6.53,0,0,1,1.19.1,3.34,3.34,0,0,1,.86.3,1.78,1.78,0,0,1,.52.42,1.94,1.94,0,0,1,.33.58,2.37,2.37,0,0,1,.11.78,2.2,2.2,0,0,1-.2,1,2.18,2.18,0,0,1-.55.69,4,4,0,0,1-.93.52v.06a2,2,0,0,1,.73.5,3.43,3.43,0,0,1,.52.81l.37.8a3.18,3.18,0,0,0,.49.81,1,1,0,0,0,.59.33v.39H59.78A9.18,9.18,0,0,1,59,13.75l-.46-1a3.27,3.27,0,0,0-.36-.64.78.78,0,0,0-.3-.26,1.19,1.19,0,0,0-.48-.08h-.35v1.91a3.8,3.8,0,0,0,0,.62.63.63,0,0,0,.16.29,1.23,1.23,0,0,0,.44.19Zm-8.08-4.05h.51a2.11,2.11,0,0,0,.94-.17,1.05,1.05,0,0,0,.51-.53,2.32,2.32,0,0,0,.17-1,2.24,2.24,0,0,0-.17-1,1,1,0,0,0-.49-.52,2,2,0,0,0-.84-.15h-.63Zm0,2.57a3.45,3.45,0,0,0,0,.55.51.51,0,0,0,.29.43,1.58,1.58,0,0,0,.39.11v.39H47.13v-.39a1.36,1.36,0,0,0,.35-.13.44.44,0,0,0,.19-.19.82.82,0,0,0,.08-.31c0-.12,0-.28,0-.47V8.57c0-.19,0-.35,0-.47a.68.68,0,0,0-.07-.31.5.5,0,0,0-.19-.19,1.42,1.42,0,0,0-.36-.14V7.07h3.45a3.81,3.81,0,0,1,2.24.54,1.9,1.9,0,0,1,.75,1.65,2.66,2.66,0,0,1-.35,1.37,2.24,2.24,0,0,1-1,.88,4.07,4.07,0,0,1-1.66.3c-.39,0-.7,0-.94,0Z"/><path class="cls-5" d="M41.35,32.69a4.47,4.47,0,0,0-.16-1,1.3,1.3,0,0,0-.37-.62,1,1,0,0,0-.65-.22,1.15,1.15,0,0,0-1,.49,2.63,2.63,0,0,0-.43,1.39Zm1,2.41a5.18,5.18,0,0,1-.69.62,2.42,2.42,0,0,1-.7.35,2.45,2.45,0,0,1-.83.13,2.29,2.29,0,0,1-1.85-.73,3.29,3.29,0,0,1-.62-2.16A3.65,3.65,0,0,1,38,31.75a2.36,2.36,0,0,1,.9-1,2.47,2.47,0,0,1,1.35-.37,2.58,2.58,0,0,1,1,.19,1.79,1.79,0,0,1,.68.52,2.78,2.78,0,0,1,.39.83,5.55,5.55,0,0,1,.15,1.31H38.73v.1a3.66,3.66,0,0,0,.16,1.18,1.42,1.42,0,0,0,.51.74,1.52,1.52,0,0,0,.94.27,2.05,2.05,0,0,0,.87-.18,2.37,2.37,0,0,0,.77-.59ZM29.12,31.35l.08,0a6.08,6.08,0,0,1,.59-.54,2.78,2.78,0,0,1,.44-.29,1.8,1.8,0,0,1,.4-.15,1.2,1.2,0,0,1,.38,0,1.6,1.6,0,0,1,1,.27,1.43,1.43,0,0,1,.52.84,7.49,7.49,0,0,1,.72-.67,2.49,2.49,0,0,1,.56-.33,1.8,1.8,0,0,1,.62-.11,2,2,0,0,1,.68.11,1.18,1.18,0,0,1,.49.36,1.53,1.53,0,0,1,.29.6,4.14,4.14,0,0,1,.09,1v2.24a4.37,4.37,0,0,0,0,.62.71.71,0,0,0,.09.26.46.46,0,0,0,.17.17,1.5,1.5,0,0,0,.37.13v.3H34.28v-.3a1.47,1.47,0,0,0,.33-.12.49.49,0,0,0,.17-.15.74.74,0,0,0,.1-.29,3,3,0,0,0,0-.6V33.1c0-.34,0-.62,0-.84a2.76,2.76,0,0,0-.09-.52,1,1,0,0,0-.13-.31,1.66,1.66,0,0,0-.18-.19.7.7,0,0,0-.24-.13,1.15,1.15,0,0,0-.36-.05,1,1,0,0,0-.44.09,1.89,1.89,0,0,0-.45.32,1.4,1.4,0,0,0-.34.46,1.25,1.25,0,0,0-.11.53v2.17a4.37,4.37,0,0,0,0,.62,1,1,0,0,0,.08.26.55.55,0,0,0,.17.17,1.8,1.8,0,0,0,.38.13v.3H30.9v-.3a1.47,1.47,0,0,0,.33-.12.59.59,0,0,0,.17-.15.74.74,0,0,0,.1-.29,3,3,0,0,0,0-.6V33.1c0-.35,0-.64,0-.86a3,3,0,0,0-.09-.54,1.06,1.06,0,0,0-.16-.32.88.88,0,0,0-.2-.19.75.75,0,0,0-.24-.1,1.39,1.39,0,0,0-.3,0,1,1,0,0,0-.46.11,1.71,1.71,0,0,0-.43.32,1.34,1.34,0,0,0-.34.43,1,1,0,0,0-.11.48v2.23c0,.22,0,.39,0,.51a2.57,2.57,0,0,0,.06.28.62.62,0,0,0,.1.16.83.83,0,0,0,.17.12,1.14,1.14,0,0,0,.33.11v.3H27.52v-.3a1.47,1.47,0,0,0,.33-.12.59.59,0,0,0,.17-.15.74.74,0,0,0,.1-.29,3,3,0,0,0,0-.61V32.06c0-.25,0-.46,0-.61a.91.91,0,0,0-.09-.37.43.43,0,0,0-.21-.21,2.14,2.14,0,0,0-.41-.11v-.32l1.38-.05h.36Zm-4.2,2a4.29,4.29,0,0,0-1.8.32,1,1,0,0,0-.6.93.87.87,0,0,0,.14.54.69.69,0,0,0,.34.27,1.45,1.45,0,0,0,.49.07,1.4,1.4,0,0,0,.73-.19,1.44,1.44,0,0,0,.51-.5,1.09,1.09,0,0,0,.19-.6Zm.1,1.86-.09,0A3.53,3.53,0,0,1,24,36a2.11,2.11,0,0,1-1,.22,1.65,1.65,0,0,1-.79-.18,1.15,1.15,0,0,1-.53-.49,1.44,1.44,0,0,1-.19-.73,1.46,1.46,0,0,1,.86-1.33,6,6,0,0,1,2.57-.55v-.39a3.15,3.15,0,0,0-.12-1,1,1,0,0,0-.37-.52,1.25,1.25,0,0,0-.68-.16,1.13,1.13,0,0,0-.75.24,1.4,1.4,0,0,0-.42.73H21.8v-.77a8,8,0,0,1,.95-.44,5.44,5.44,0,0,1,.76-.22,3.94,3.94,0,0,1,.77-.08,2,2,0,0,1,.94.19,1.14,1.14,0,0,1,.53.57,2.86,2.86,0,0,1,.18,1.16v2.06c0,.3,0,.5,0,.62a1.87,1.87,0,0,0,0,.34.67.67,0,0,0,.09.24.47.47,0,0,0,.18.16,1.5,1.5,0,0,0,.37.13v.3H25ZM18.24,32.9c.14.24.26.45.35.62s.2.38.3.6H19c0-.24,0-.72,0-1.44s0-1.36,0-1.93V29.5a4.73,4.73,0,0,0,0-.6.71.71,0,0,0-.09-.29.44.44,0,0,0-.17-.16,1.84,1.84,0,0,0-.38-.14V28h2.13v.29a2.09,2.09,0,0,0-.37.13.45.45,0,0,0-.18.15.66.66,0,0,0-.1.29,3,3,0,0,0,0,.62v6.64h-.74l-3.3-5.53-.44-.75c-.09-.16-.17-.32-.24-.47h-.1q0,.45.06,1.65c0,.79,0,1.59,0,2.38v1.21a4.1,4.1,0,0,0,0,.58.84.84,0,0,0,.09.28.39.39,0,0,0,.18.18,1.38,1.38,0,0,0,.4.14v.3H13.46v-.3A1.2,1.2,0,0,0,14,35.6a.52.52,0,0,0,.16-.32,3.51,3.51,0,0,0,0-.65V29.5a4.07,4.07,0,0,0,0-.59.76.76,0,0,0-.1-.3.47.47,0,0,0-.18-.16,1.84,1.84,0,0,0-.38-.14V28h1.85Z"/><path class="cls-5" d="M116.72,34.82a3.68,3.68,0,0,0,0,.71.51.51,0,0,0,.18.3,1.16,1.16,0,0,0,.44.18v.29H115V36a1.11,1.11,0,0,0,.41-.16.41.41,0,0,0,.17-.2,1.1,1.1,0,0,0,.07-.31,4,4,0,0,0,0-.52v-5c0-.38,0-.64,0-.79a1.92,1.92,0,0,0,0-.38.84.84,0,0,0-.11-.25.49.49,0,0,0-.18-.14,2,2,0,0,0-.42-.11v-.31l1.43-.06h.35Zm-4.18-1.22a4.14,4.14,0,0,0-1.8.32,1,1,0,0,0-.6.93.9.9,0,0,0,.14.53.69.69,0,0,0,.34.27,1.44,1.44,0,0,0,.49.08,1.4,1.4,0,0,0,.73-.2,1.44,1.44,0,0,0,.51-.5,1.09,1.09,0,0,0,.19-.6Zm.1,1.85-.09,0a3.74,3.74,0,0,1-1,.75,2.25,2.25,0,0,1-1,.22,1.65,1.65,0,0,1-.79-.18,1.26,1.26,0,0,1-.53-.49,1.48,1.48,0,0,1,.67-2.07,6.11,6.11,0,0,1,2.57-.55v-.38a3.1,3.1,0,0,0-.12-1,.94.94,0,0,0-.37-.52,1.16,1.16,0,0,0-.68-.17,1.13,1.13,0,0,0-.75.24,1.44,1.44,0,0,0-.42.73h-.78v-.77a7.68,7.68,0,0,1,1-.43,4.35,4.35,0,0,1,.76-.22,3.3,3.3,0,0,1,.77-.08,2.1,2.1,0,0,1,.94.18,1.22,1.22,0,0,1,.53.57,2.92,2.92,0,0,1,.18,1.17v2.06c0,.29,0,.5,0,.62a1.69,1.69,0,0,0,0,.33.73.73,0,0,0,.09.25.45.45,0,0,0,.18.15,1.43,1.43,0,0,0,.37.14v.29h-1.62Zm-6.8.56.33-.12a.61.61,0,0,0,.17-.15,1,1,0,0,0,.11-.29,4.16,4.16,0,0,0,0-.61V32.25c0-.25,0-.45,0-.61a.81.81,0,0,0-.08-.37.43.43,0,0,0-.22-.2,1.35,1.35,0,0,0-.41-.12v-.31l1.38-.06h.36v4.24a3.68,3.68,0,0,0,0,.71.51.51,0,0,0,.18.3,1.24,1.24,0,0,0,.44.18v.29h-2.33Zm1.7-7.69v1.14h-1.09V28.32Zm-5.11,3.3.08,0a4.12,4.12,0,0,1,.61-.63,2,2,0,0,1,.6-.35,2.07,2.07,0,0,1,.73-.12,5.85,5.85,0,0,1,.62,0v1.37h-.67a1.41,1.41,0,0,0-.3-.47.63.63,0,0,0-.44-.15.86.86,0,0,0-.42.13,1.49,1.49,0,0,0-.41.36,1.69,1.69,0,0,0-.27.44,1.51,1.51,0,0,0-.07.5v2.07a3,3,0,0,0,.06.74.54.54,0,0,0,.22.3,1.46,1.46,0,0,0,.45.15v.29h-2.39V36l.33-.12a.8.8,0,0,0,.17-.15.81.81,0,0,0,.1-.29,3.1,3.1,0,0,0,0-.61V32.25c0-.25,0-.45,0-.61a1,1,0,0,0-.09-.37.38.38,0,0,0-.21-.2,1.55,1.55,0,0,0-.41-.12v-.31l1.38-.06h.36Zm-3.78,1.27a4.47,4.47,0,0,0-.16-1.05,1.35,1.35,0,0,0-.37-.62,1,1,0,0,0-.66-.22,1.17,1.17,0,0,0-1,.49,2.67,2.67,0,0,0-.43,1.4Zm1,2.4a5.34,5.34,0,0,1-.69.63,2.64,2.64,0,0,1-1.53.48,2.3,2.3,0,0,1-1.85-.74A3.26,3.26,0,0,1,95,33.5,3.64,3.64,0,0,1,95.27,32a2.44,2.44,0,0,1,.9-1.05,2.52,2.52,0,0,1,1.35-.36,2.41,2.41,0,0,1,1,.19,1.77,1.77,0,0,1,.68.51,2.78,2.78,0,0,1,.39.83,5.62,5.62,0,0,1,.15,1.31H96v.11a3.59,3.59,0,0,0,.16,1.17,1.45,1.45,0,0,0,.51.75,1.52,1.52,0,0,0,.94.27,2.05,2.05,0,0,0,.87-.18,2.52,2.52,0,0,0,.77-.59Zm-9.08-4.36a1.29,1.29,0,0,0,.48-.16.84.84,0,0,0,.28-.31,1.6,1.6,0,0,0,.17-.47c0-.18.08-.46.12-.81h.84v1.46h1.92v.6H92.45v2.63a7.33,7.33,0,0,0,0,.92,1.18,1.18,0,0,0,.18.53.77.77,0,0,0,.29.28,1.06,1.06,0,0,0,.43.08.92.92,0,0,0,.44-.1,1.5,1.5,0,0,0,.41-.28l.27.32a3.2,3.2,0,0,1-.8.59,1.66,1.66,0,0,1-.78.19,1.38,1.38,0,0,1-1.13-.46,2.19,2.19,0,0,1-.38-1.42V31.24h-.87ZM88.31,33.6a4.14,4.14,0,0,0-1.8.32,1,1,0,0,0-.6.93.9.9,0,0,0,.14.53.69.69,0,0,0,.34.27,1.44,1.44,0,0,0,.49.08,1.38,1.38,0,0,0,.73-.2,1.56,1.56,0,0,0,.52-.5,1.16,1.16,0,0,0,.18-.6Zm.1,1.85-.09,0a3.58,3.58,0,0,1-1,.75,2.25,2.25,0,0,1-1,.22,1.67,1.67,0,0,1-.79-.18,1.26,1.26,0,0,1-.53-.49,1.51,1.51,0,0,1,.67-2.07,6.11,6.11,0,0,1,2.57-.55v-.38a3.1,3.1,0,0,0-.12-1,.94.94,0,0,0-.37-.52,1.16,1.16,0,0,0-.68-.17,1.13,1.13,0,0,0-.75.24A1.52,1.52,0,0,0,86,32H85.2v-.77a7,7,0,0,1,.94-.43,4.35,4.35,0,0,1,.76-.22,3.3,3.3,0,0,1,.77-.08,2.07,2.07,0,0,1,.94.18,1.24,1.24,0,0,1,.54.57,3.14,3.14,0,0,1,.17,1.17v2.06c0,.29,0,.5,0,.62a1.69,1.69,0,0,0,0,.33.73.73,0,0,0,.09.25.45.45,0,0,0,.18.15A1.54,1.54,0,0,0,90,36v.29H88.38ZM83.7,28.51a1.26,1.26,0,0,0-.38.13.49.49,0,0,0-.19.16,1,1,0,0,0-.1.29,4.4,4.4,0,0,0,0,.61v5.12a4,4,0,0,0,0,.58.9.9,0,0,0,.09.29.52.52,0,0,0,.18.18,1.6,1.6,0,0,0,.4.14v.29H81.22V36a1.12,1.12,0,0,0,.47-.19.51.51,0,0,0,.18-.31,3.59,3.59,0,0,0,0-.69V32.55c0-.59,0-1.2,0-1.81s0-1,.07-1.25h-.1l-2.35,5.87h-.68l-2.18-6h-.1c0,.24,0,.68.06,1.31s0,1.28,0,1.95v2.17a4,4,0,0,0,0,.58.9.9,0,0,0,.09.29.52.52,0,0,0,.18.18,1.65,1.65,0,0,0,.39.14v.29H75.21V36a1.08,1.08,0,0,0,.49-.21.58.58,0,0,0,.17-.33,4.71,4.71,0,0,0,0-.65V29.7a4.14,4.14,0,0,0,0-.6.89.89,0,0,0-.1-.29.73.73,0,0,0-.18-.17,2.15,2.15,0,0,0-.39-.13v-.29h2.12L79.41,34l2.28-5.76h2Z"/></g></g></svg>