<svg xmlns="http://www.w3.org/2000/svg" viewBox="0 0 203.93 164.81"><defs><style>.cls-1{fill:#ea008a;}.cls-2,.cls-4{fill:#eb3592;}.cls-3{fill:none;stroke:#fff;stroke-miterlimit:22.93;stroke-width:1.24px;}.cls-4{fill-rule:evenodd;}.cls-5{fill:#fff;}</style></defs><g id="Layer_2" data-name="Layer 2"><g id="Layer_1-2" data-name="Layer 1"><rect class="cls-1" x="0.62" y="0.62" width="202.69" height="163.57"/><rect class="cls-2" x="0.62" y="21.61" width="54.67" height="20.99"/><rect class="cls-3" x="0.62" y="21.61" width="54.67" height="20.99"/><rect class="cls-2" x="137.28" y="21.61" width="66.03" height="20.99"/><rect class="cls-3" x="137.28" y="21.61" width="66.03" height="20.99"/><polygon class="cls-4" points="145.37 21.61 203.31 21.61 203.31 0.62 145.37 0.62 73.42 0.62 0.62 0.62 0.62 21.61 73.42 21.61 145.37 21.61"/><polygon class="cls-3" points="145.37 21.61 203.31 21.61 203.31 0.62 145.37 0.62 73.42 0.62 0.62 0.62 0.62 21.61 73.42 21.61 145.37 21.61"/><rect class="cls-2" x="0.62" y="42.6" width="54.67" height="20.99"/><rect class="cls-3" x="0.62" y="42.6" width="54.67" height="20.99"/><rect class="cls-2" x="55.29" y="42.6" width="81.99" height="20.99"/><rect class="cls-3" x="55.29" y="42.6" width="81.99" height="20.99"/><rect class="cls-2" x="137.28" y="42.6" width="66.03" height="20.99"/><rect class="cls-3" x="137.28" y="42.6" width="66.03" height="20.99"/><rect class="cls-2" x="0.62" y="63.59" width="54.67" height="20.99"/><rect class="cls-3" x="0.62" y="63.59" width="54.67" height="20.99"/><rect class="cls-2" x="55.29" y="63.59" width="81.99" height="20.99"/><rect class="cls-3" x="55.29" y="63.59" width="81.99" height="20.99"/><rect class="cls-2" x="137.28" y="63.59" width="66.03" height="20.99"/><rect class="cls-3" x="137.28" y="63.59" width="66.03" height="20.99"/><rect class="cls-2" x="0.62" y="84.58" width="54.67" height="79.61"/><rect class="cls-3" x="0.62" y="84.58" width="54.67" height="79.61"/><rect class="cls-2" x="55.29" y="84.58" width="81.99" height="79.61"/><rect class="cls-3" x="55.29" y="84.58" width="81.99" height="79.61"/><rect class="cls-2" x="137.28" y="84.58" width="66.03" height="79.61"/><rect class="cls-3" x="137.28" y="84.58" width="66.03" height="79.61"/><path class="cls-5" d="M176.91,38.44a3.69,3.69,0,0,0-1.58.28.87.87,0,0,0-.53.82.82.82,0,0,0,.12.47.61.61,0,0,0,.3.23,1.14,1.14,0,0,0,.43.07,1.25,1.25,0,0,0,.64-.17,1.3,1.3,0,0,0,.46-.44,1.08,1.08,0,0,0,.16-.53Zm.09,1.63-.08,0a3.21,3.21,0,0,1-.85.65,1.92,1.92,0,0,1-.85.19,1.52,1.52,0,0,1-.69-.15,1.09,1.09,0,0,1-.47-.43,1.35,1.35,0,0,1-.16-.64,1.27,1.27,0,0,1,.75-1.17,5.18,5.18,0,0,1,2.26-.48v-.34a2.69,2.69,0,0,0-.11-.85.85.85,0,0,0-.32-.46,1.07,1.07,0,0,0-.6-.15,1,1,0,0,0-.66.22,1.36,1.36,0,0,0-.37.64h-.68V36.4A7.62,7.62,0,0,1,175,36a4.26,4.26,0,0,1,.67-.2,3.81,3.81,0,0,1,.67-.07,1.77,1.77,0,0,1,.83.17,1,1,0,0,1,.47.5,2.57,2.57,0,0,1,.16,1v2.35a1.29,1.29,0,0,0,0,.29.63.63,0,0,0,.08.22.41.41,0,0,0,.15.14,2.23,2.23,0,0,0,.33.12v.25H177Zm-6.92-4a1.15,1.15,0,0,0,.42-.14.72.72,0,0,0,.25-.27,1.41,1.41,0,0,0,.14-.41c0-.16.07-.41.11-.72h.74v1.28h1.68v.53h-1.68v2.31a7.8,7.8,0,0,0,0,.8,1.08,1.08,0,0,0,.16.47.66.66,0,0,0,.26.24.79.79,0,0,0,.37.07.85.85,0,0,0,.39-.08,1.56,1.56,0,0,0,.36-.25l.23.28a2.74,2.74,0,0,1-.7.52,1.45,1.45,0,0,1-.68.16,1.23,1.23,0,0,1-1-.39,2,2,0,0,1-.32-1.25V36.37h-.77Zm-.78.88h-.5a1.71,1.71,0,0,0-.27-.49.84.84,0,0,0-.35-.25,1.45,1.45,0,0,0-.49-.07,1,1,0,0,0-.66.19.66.66,0,0,0-.25.53.82.82,0,0,0,.1.4,1.09,1.09,0,0,0,.31.29,5.44,5.44,0,0,0,.73.36,5.06,5.06,0,0,1,.82.42,1.58,1.58,0,0,1,.45.44,1.12,1.12,0,0,1,.17.61,1.54,1.54,0,0,1-.14.69,1.27,1.27,0,0,1-.4.46,1.61,1.61,0,0,1-.61.26,3.64,3.64,0,0,1-.76.07,6,6,0,0,1-.85-.06,7.1,7.1,0,0,1-.8-.17V39.57h.51a1.31,1.31,0,0,0,.42.7,1.21,1.21,0,0,0,.76.21,1.47,1.47,0,0,0,.36,0,.83.83,0,0,0,.32-.13.64.64,0,0,0,.22-.24.8.8,0,0,0,.09-.39.78.78,0,0,0-.11-.43,1,1,0,0,0-.32-.31,6.38,6.38,0,0,0-.77-.37,5.34,5.34,0,0,1-.76-.38,1.61,1.61,0,0,1-.45-.45,1.14,1.14,0,0,1-.16-.6,1.25,1.25,0,0,1,.23-.74,1.47,1.47,0,0,1,.67-.48,2.87,2.87,0,0,1,1-.17c.23,0,.45,0,.67,0a6.83,6.83,0,0,1,.8.13Zm-6.44,3.58.29-.11a.44.44,0,0,0,.14-.13.64.64,0,0,0,.1-.26,3.33,3.33,0,0,0,0-.53V37.26c0-.22,0-.4,0-.53a.9.9,0,0,0-.07-.33.41.41,0,0,0-.19-.18,1.79,1.79,0,0,0-.36-.1v-.28l1.21,0h.31v3.71a2.72,2.72,0,0,0,.05.62.51.51,0,0,0,.15.27,1.23,1.23,0,0,0,.39.16v.25h-2Zm1.49-6.75v1h-1v-1ZM161.77,37h-.5a1.71,1.71,0,0,0-.27-.49.84.84,0,0,0-.35-.25,1.45,1.45,0,0,0-.49-.07,1,1,0,0,0-.66.19.66.66,0,0,0-.25.53.82.82,0,0,0,.1.4,1.09,1.09,0,0,0,.31.29,5.44,5.44,0,0,0,.73.36,5.06,5.06,0,0,1,.82.42,1.58,1.58,0,0,1,.45.44,1.12,1.12,0,0,1,.17.61,1.54,1.54,0,0,1-.14.69,1.27,1.27,0,0,1-.4.46,1.61,1.61,0,0,1-.61.26,3.57,3.57,0,0,1-.76.07,6,6,0,0,1-.85-.06,7.1,7.1,0,0,1-.8-.17V39.57h.51a1.31,1.31,0,0,0,.42.7,1.21,1.21,0,0,0,.76.21,1.47,1.47,0,0,0,.36,0,.83.83,0,0,0,.32-.13.64.64,0,0,0,.22-.24.8.8,0,0,0,.09-.39.78.78,0,0,0-.11-.43,1,1,0,0,0-.32-.31,6.38,6.38,0,0,0-.77-.37,5.34,5.34,0,0,1-.76-.38,1.61,1.61,0,0,1-.45-.45,1.14,1.14,0,0,1-.16-.6,1.25,1.25,0,0,1,.23-.74,1.47,1.47,0,0,1,.67-.48,2.87,2.87,0,0,1,1-.17c.23,0,.45,0,.67,0a6.83,6.83,0,0,1,.8.13Zm-5.4.84a3.57,3.57,0,0,0-.14-.92,1.1,1.1,0,0,0-.32-.54.85.85,0,0,0-.58-.19,1,1,0,0,0-.85.42,2.39,2.39,0,0,0-.38,1.23Zm.88,2.11a4.55,4.55,0,0,1-.61.54,2.07,2.07,0,0,1-.61.31,2.21,2.21,0,0,1-.74.11,2,2,0,0,1-1.61-.64,2.82,2.82,0,0,1-.55-1.89,3.13,3.13,0,0,1,.28-1.37,2.07,2.07,0,0,1,.79-.91,2.35,2.35,0,0,1,2.08-.16,1.5,1.5,0,0,1,.59.45,2.14,2.14,0,0,1,.34.73,4.93,4.93,0,0,1,.14,1.15h-3.27v.09a3.05,3.05,0,0,0,.14,1,1.21,1.21,0,0,0,1.27.89,1.87,1.87,0,0,0,.76-.15,2.37,2.37,0,0,0,.68-.52Zm-8.86-5.73v3.08H149a3.67,3.67,0,0,0,.74-.06,1.56,1.56,0,0,0,.52-.25,1.27,1.27,0,0,0,.38-.51,2,2,0,0,0,.14-.79,1.78,1.78,0,0,0-.17-.82,1.08,1.08,0,0,0-.51-.5,2,2,0,0,0-.92-.17C148.83,34.18,148.58,34.18,148.39,34.2Zm0,3.53V39.5a3.39,3.39,0,0,0,0,.54.49.49,0,0,0,.08.25.46.46,0,0,0,.16.15l.34.12v.25h-2.2v-.25a1,1,0,0,0,.43-.19.5.5,0,0,0,.15-.29,3.85,3.85,0,0,0,0-.57V35a3.33,3.33,0,0,0,0-.53.53.53,0,0,0-.08-.25.46.46,0,0,0-.16-.15L146.8,34v-.25h2.57a3,3,0,0,1,1.82.44,1.56,1.56,0,0,1,.61,1.37,1.89,1.89,0,0,1-.4,1.21,2.49,2.49,0,0,1-1.17.78v0a1.58,1.58,0,0,1,.54.37,4,4,0,0,1,.5.76l.47.85a3.94,3.94,0,0,0,.35.57,1.19,1.19,0,0,0,.29.3,1,1,0,0,0,.4.15v.25h-1.44a6.62,6.62,0,0,1-.37-.59c-.12-.21-.23-.43-.35-.65l-.46-.86a4.29,4.29,0,0,0-.34-.59,1,1,0,0,0-.24-.26.72.72,0,0,0-.24-.1,1.74,1.74,0,0,0-.38,0Zm50-10.31a4.06,4.06,0,0,0-.14-.92,1.11,1.11,0,0,0-.33-.55.85.85,0,0,0-.57-.19,1,1,0,0,0-.85.43,2.39,2.39,0,0,0-.38,1.23Zm.88,2.11a5.26,5.26,0,0,1-.61.54,2.25,2.25,0,0,1-.62.31,2.11,2.11,0,0,1-.73.11,2,2,0,0,1-1.62-.64,2.88,2.88,0,0,1-.54-1.89,3.1,3.1,0,0,1,.28-1.37,2.1,2.1,0,0,1,.79-.92,2.39,2.39,0,0,1,2.08-.15,1.57,1.57,0,0,1,.59.45,2.14,2.14,0,0,1,.34.73,4.86,4.86,0,0,1,.14,1.15H196.1v.09a3.37,3.37,0,0,0,.14,1,1.31,1.31,0,0,0,.45.66,1.35,1.35,0,0,0,.82.23,1.89,1.89,0,0,0,.77-.15,2.37,2.37,0,0,0,.68-.52Zm-7-3.23.07,0a4,4,0,0,1,.53-.55,2,2,0,0,1,.53-.31,1.83,1.83,0,0,1,.64-.11,4.68,4.68,0,0,1,.55,0v1.2H194a1.12,1.12,0,0,0-.27-.41.56.56,0,0,0-.38-.13.75.75,0,0,0-.37.11,1.73,1.73,0,0,0-.36.32,1.36,1.36,0,0,0-.23.39,1.11,1.11,0,0,0-.07.43v1.82a2.38,2.38,0,0,0,.06.65.44.44,0,0,0,.19.26,1,1,0,0,0,.4.13v.26h-2.1v-.26a1.62,1.62,0,0,0,.28-.1.64.64,0,0,0,.15-.13.52.52,0,0,0,.1-.26,3.33,3.33,0,0,0,0-.53V26.86c0-.22,0-.4,0-.54a.89.89,0,0,0-.07-.32.44.44,0,0,0-.2-.18,1.13,1.13,0,0,0-.36-.1v-.27L192,25.4h.32Zm-7.41-.86h1.49v2.65a7.23,7.23,0,0,0,0,.92,1.45,1.45,0,0,0,.14.48.7.7,0,0,0,.27.27.88.88,0,0,0,.47.11,1,1,0,0,0,.38-.08,1.59,1.59,0,0,0,.41-.27,1.18,1.18,0,0,0,.31-.39.93.93,0,0,0,.1-.45V26.74a2.7,2.7,0,0,0,0-.45.72.72,0,0,0-.05-.24.53.53,0,0,0-.08-.15l-.14-.11a1.38,1.38,0,0,0-.3-.09v-.26h1.49V29c0,.27,0,.46,0,.58a.67.67,0,0,0,.07.28.43.43,0,0,0,.16.17,1.51,1.51,0,0,0,.39.12v.27l-1.19.05h-.32l0-.85-.08,0a3.2,3.2,0,0,1-.82.68,1.55,1.55,0,0,1-.79.22,1.4,1.4,0,0,1-.77-.19,1.09,1.09,0,0,1-.46-.55,2.92,2.92,0,0,1-.15-1.05v-2a2.79,2.79,0,0,0,0-.61.43.43,0,0,0-.13-.25.83.83,0,0,0-.42-.18Zm-3.78.26a1.15,1.15,0,0,0,.42-.14.81.81,0,0,0,.25-.27,1.41,1.41,0,0,0,.14-.41c0-.17.07-.41.11-.72h.74v1.28h1.68V26h-1.68v2.31a5.79,5.79,0,0,0,0,.8,1.08,1.08,0,0,0,.16.47.66.66,0,0,0,.26.24.79.79,0,0,0,.37.07,1,1,0,0,0,.39-.08,1.56,1.56,0,0,0,.36-.25l.23.28a2.74,2.74,0,0,1-.7.52,1.48,1.48,0,0,1-.68.16,1.23,1.23,0,0,1-1-.39,2,2,0,0,1-.32-1.25V26h-.77Zm-2,2.34a3.69,3.69,0,0,0-1.58.28.87.87,0,0,0-.53.82.78.78,0,0,0,.12.46.58.58,0,0,0,.3.24,1.38,1.38,0,0,0,.43.07,1.17,1.17,0,0,0,.64-.18,1.27,1.27,0,0,0,.46-.43,1.08,1.08,0,0,0,.16-.53Zm.09,1.63-.08,0a3.27,3.27,0,0,1-.85.66,1.92,1.92,0,0,1-.85.19,1.52,1.52,0,0,1-.69-.15,1.15,1.15,0,0,1-.47-.43,1.35,1.35,0,0,1-.16-.64,1.3,1.3,0,0,1,.75-1.18,5.48,5.48,0,0,1,2.26-.48v-.33a2.76,2.76,0,0,0-.11-.86.86.86,0,0,0-.32-.45,1.07,1.07,0,0,0-.6-.15,1,1,0,0,0-.65.21,1.38,1.38,0,0,0-.38.64h-.68V26a9.09,9.09,0,0,1,.83-.39,6.19,6.19,0,0,1,.67-.19,3.81,3.81,0,0,1,.67-.07,1.77,1.77,0,0,1,.83.17,1,1,0,0,1,.47.5,2.57,2.57,0,0,1,.16,1v2.35a1.36,1.36,0,0,0,0,.29.93.93,0,0,0,.08.22.41.41,0,0,0,.15.14,2.48,2.48,0,0,0,.33.11v.26h-1.42Zm-5.83-3.37.08,0a3.52,3.52,0,0,1,.53-.55,2,2,0,0,1,.52-.31,1.88,1.88,0,0,1,.65-.11,4.39,4.39,0,0,1,.54,0v1.2h-.58a1.45,1.45,0,0,0-.27-.41.56.56,0,0,0-.38-.13.79.79,0,0,0-.38.11,1.47,1.47,0,0,0-.35.32,1.42,1.42,0,0,0-.24.39,1.35,1.35,0,0,0-.06.43v1.82a3,3,0,0,0,.05.65.48.48,0,0,0,.19.26,1,1,0,0,0,.4.13v.26H172v-.26l.28-.1a.64.64,0,0,0,.15-.13.65.65,0,0,0,.09-.26,3.33,3.33,0,0,0,0-.53V26.86c0-.22,0-.4,0-.54a.72.72,0,0,0-.07-.32.37.37,0,0,0-.19-.18,1.31,1.31,0,0,0-.36-.1v-.27l1.21-.05h.32Zm-3.31,1.12a4.06,4.06,0,0,0-.14-.92,1.11,1.11,0,0,0-.33-.55.85.85,0,0,0-.57-.19,1,1,0,0,0-.86.43,2.39,2.39,0,0,0-.37,1.23Zm.87,2.11a4,4,0,0,1-.61.54,2.34,2.34,0,0,1-.61.31,2.15,2.15,0,0,1-.73.11,2,2,0,0,1-1.62-.64,2.88,2.88,0,0,1-.54-1.89,3.25,3.25,0,0,1,.27-1.37,2.12,2.12,0,0,1,.8-.92,2.19,2.19,0,0,1,1.18-.32,2.14,2.14,0,0,1,.89.17,1.53,1.53,0,0,1,.6.45,2.35,2.35,0,0,1,.34.73,4.86,4.86,0,0,1,.14,1.15h-3.28v.09a3.37,3.37,0,0,0,.14,1,1.21,1.21,0,0,0,1.27.89,1.92,1.92,0,0,0,.77-.15,2.34,2.34,0,0,0,.67-.52Zm-8.66-1a3.79,3.79,0,0,0,.06.77,1,1,0,0,0,.22.44,1.09,1.09,0,0,0,.38.25,1.73,1.73,0,0,0,.57.08,1,1,0,0,0,.94-.52,3,3,0,0,0,.32-1.54c0-1.36-.4-2-1.19-2a1.24,1.24,0,0,0-.5.09,1.37,1.37,0,0,0-.42.3,1.28,1.28,0,0,0-.3.39,1.11,1.11,0,0,0-.08.41Zm0,1.71v1.1c0,.22,0,.39,0,.5a1.25,1.25,0,0,0,.08.27.57.57,0,0,0,.18.16,1.18,1.18,0,0,0,.36.11v.25H160.8v-.25a1.46,1.46,0,0,0,.3-.11.35.35,0,0,0,.18-.16.72.72,0,0,0,.08-.29,3.25,3.25,0,0,0,0-.48V26.89c0-.25,0-.43,0-.53a.83.83,0,0,0,0-.26.39.39,0,0,0-.09-.17.4.4,0,0,0-.16-.12,1.8,1.8,0,0,0-.33-.09v-.28l1.22,0h.31l-.06.84.07,0c.22-.22.39-.37.51-.47a2.84,2.84,0,0,1,.39-.25,1.53,1.53,0,0,1,.39-.14,1.61,1.61,0,0,1,.39,0,1.53,1.53,0,0,1,1.32.64,3.26,3.26,0,0,1,.45,1.88,3.43,3.43,0,0,1-.26,1.44,1.86,1.86,0,0,1-.75.88,2.25,2.25,0,0,1-1.18.29,3.73,3.73,0,0,1-.7-.06A2.93,2.93,0,0,1,162.28,30.25Zm-8.86-4,.07,0c.21-.21.38-.36.51-.47a3.12,3.12,0,0,1,.39-.25,1.42,1.42,0,0,1,.35-.14,1.27,1.27,0,0,1,.34,0,1.39,1.39,0,0,1,.84.24,1.21,1.21,0,0,1,.45.73,6.66,6.66,0,0,1,.64-.58,1.91,1.91,0,0,1,.49-.29,1.4,1.4,0,0,1,.54-.1,1.57,1.57,0,0,1,.6.1,1.1,1.1,0,0,1,.43.31,1.24,1.24,0,0,1,.25.53,3.25,3.25,0,0,1,.08.85v2a3.37,3.37,0,0,0,0,.55.62.62,0,0,0,.08.23.47.47,0,0,0,.14.14,1.41,1.41,0,0,0,.34.12v.26h-2.05v-.26l.3-.1a.86.86,0,0,0,.14-.13.71.71,0,0,0,.1-.26,3.42,3.42,0,0,0,0-.53V27.77c0-.29,0-.54,0-.73a2.15,2.15,0,0,0-.08-.46,1,1,0,0,0-.11-.27.87.87,0,0,0-.16-.17.72.72,0,0,0-.21-.12,1.32,1.32,0,0,0-.32,0,.89.89,0,0,0-.39.09,1.53,1.53,0,0,0-.39.28,1.28,1.28,0,0,0-.3.39,1.16,1.16,0,0,0-.09.47v1.9c0,.26,0,.45,0,.55a.87.87,0,0,0,.08.23.41.41,0,0,0,.15.14,1.16,1.16,0,0,0,.33.12v.26h-2v-.26l.29-.1a.64.64,0,0,0,.15-.13.71.71,0,0,0,.09-.26,3.42,3.42,0,0,0,0-.53V27.77c0-.31,0-.56,0-.75a3.21,3.21,0,0,0-.08-.47,1.31,1.31,0,0,0-.14-.29.65.65,0,0,0-.18-.16.67.67,0,0,0-.21-.09,1.06,1.06,0,0,0-.27,0,.82.82,0,0,0-.4.1,1.47,1.47,0,0,0-.38.28,1.13,1.13,0,0,0-.29.38.87.87,0,0,0-.1.42v1.95c0,.2,0,.35,0,.45a2.17,2.17,0,0,0,.05.25l.09.14a.44.44,0,0,0,.15.1,1,1,0,0,0,.29.1v.26h-2v-.26a1.62,1.62,0,0,0,.28-.1.64.64,0,0,0,.15-.13.65.65,0,0,0,.09-.26,2.3,2.3,0,0,0,0-.53V26.86c0-.22,0-.4,0-.54a.88.88,0,0,0-.08-.32.37.37,0,0,0-.19-.18,1.13,1.13,0,0,0-.36-.1v-.28l1.22,0h.31Zm-3.32,1.18a4.06,4.06,0,0,0-.14-.92,1.11,1.11,0,0,0-.33-.55.85.85,0,0,0-.57-.19,1,1,0,0,0-.85.43,2.39,2.39,0,0,0-.38,1.23Zm.87,2.11a4,4,0,0,1-.61.54,2.06,2.06,0,0,1-.61.31,2.11,2.11,0,0,1-.73.11,2,2,0,0,1-1.62-.64,2.88,2.88,0,0,1-.54-1.89,3.1,3.1,0,0,1,.28-1.37,2.1,2.1,0,0,1,.79-.92,2.39,2.39,0,0,1,2.08-.15,1.57,1.57,0,0,1,.59.45,2.14,2.14,0,0,1,.34.73,4.86,4.86,0,0,1,.14,1.15H147.8v.09a3.37,3.37,0,0,0,.14,1,1.31,1.31,0,0,0,.45.66,1.33,1.33,0,0,0,.82.23,1.89,1.89,0,0,0,.77-.15,2.37,2.37,0,0,0,.68-.52Zm-9.75-6.21h5.62v1.81h-.51a4.57,4.57,0,0,0-.23-.71,1.32,1.32,0,0,0-.23-.4.89.89,0,0,0-.27-.19,1.19,1.19,0,0,0-.43-.06h-.66V29.1a3,3,0,0,0,0,.48.8.8,0,0,0,.11.29.52.52,0,0,0,.19.17,1.38,1.38,0,0,0,.37.11v.26h-2.37v-.26l.27-.07a.55.55,0,0,0,.2-.11.36.36,0,0,0,.12-.15,1.05,1.05,0,0,0,.08-.25,2.83,2.83,0,0,0,0-.47V23.77h-.66a1.5,1.5,0,0,0-.4.05.73.73,0,0,0-.29.19,1.52,1.52,0,0,0-.25.43,5.9,5.9,0,0,0-.21.69h-.51Z"/><path class="cls-5" d="M193.1,37.82a4.06,4.06,0,0,0-.14-.92,1,1,0,0,0-.33-.54.8.8,0,0,0-.57-.19,1,1,0,0,0-.85.42,2.3,2.3,0,0,0-.38,1.23Zm.87,2.11a4,4,0,0,1-.61.54,1.85,1.85,0,0,1-.61.31,2.11,2.11,0,0,1-.73.11,2,2,0,0,1-1.62-.64,2.88,2.88,0,0,1-.54-1.89,3.13,3.13,0,0,1,.28-1.37,2.07,2.07,0,0,1,.79-.91,2.14,2.14,0,0,1,1.18-.33,2.22,2.22,0,0,1,.9.17,1.57,1.57,0,0,1,.59.45,2.14,2.14,0,0,1,.34.73,4.93,4.93,0,0,1,.14,1.15H190.8v.09a3.33,3.33,0,0,0,.14,1,1.31,1.31,0,0,0,.45.66,1.33,1.33,0,0,0,.82.23,1.89,1.89,0,0,0,.77-.15,2.37,2.37,0,0,0,.68-.52Zm-5-4v1.09h-.66a1.66,1.66,0,0,0-.22-.53.66.66,0,0,0-.3-.28,1.06,1.06,0,0,0-.42-.07,1,1,0,0,0-.65.23,1.47,1.47,0,0,0-.44.71,3.61,3.61,0,0,0-.17,1.17,4.14,4.14,0,0,0,.07.81,1.81,1.81,0,0,0,.21.62,1.05,1.05,0,0,0,.4.41,1.16,1.16,0,0,0,.62.14,1.45,1.45,0,0,0,.66-.14,2.05,2.05,0,0,0,.65-.49L189,40a2.72,2.72,0,0,1-.47.45,1.94,1.94,0,0,1-.43.27,2.06,2.06,0,0,1-.46.15,1.89,1.89,0,0,1-.49,0,1.8,1.8,0,0,1-1.5-.65,2.92,2.92,0,0,1-.52-1.88,3.17,3.17,0,0,1,.29-1.37,2.2,2.2,0,0,1,2-1.24,6.56,6.56,0,0,1,.79,0A6.2,6.2,0,0,1,189,36Zm-4.75,4.85H182.2v-.25l.29-.11a.47.47,0,0,0,.15-.13.83.83,0,0,0,.1-.26,3.42,3.42,0,0,0,0-.53V38.17c0-.24,0-.46,0-.66a3.61,3.61,0,0,0-.07-.48,1.54,1.54,0,0,0-.12-.3.73.73,0,0,0-.17-.18.78.78,0,0,0-.22-.12,1,1,0,0,0-.33,0,1,1,0,0,0-.38.08,1.73,1.73,0,0,0-.4.28,1.38,1.38,0,0,0-.32.39,1.05,1.05,0,0,0-.1.44v1.94a3.8,3.8,0,0,0,0,.62.46.46,0,0,0,.16.27,1.23,1.23,0,0,0,.39.16v.25h-2v-.25l.29-.11a.57.57,0,0,0,.14-.13.83.83,0,0,0,.1-.26,3.33,3.33,0,0,0,0-.53V37.26c0-.22,0-.4,0-.53a.9.9,0,0,0-.07-.33.47.47,0,0,0-.19-.18,1.73,1.73,0,0,0-.37-.1v-.28l1.22,0h.32l-.06.84.07,0a5.69,5.69,0,0,1,.62-.55,2.27,2.27,0,0,1,.48-.26,1.44,1.44,0,0,1,.51-.09,2,2,0,0,1,.51.06,1.44,1.44,0,0,1,.39.2,1.27,1.27,0,0,1,.27.34,1.5,1.5,0,0,1,.17.48,4.53,4.53,0,0,1,0,.71v2c0,.24,0,.41,0,.52a.67.67,0,0,0,.08.25.36.36,0,0,0,.15.15,1.61,1.61,0,0,0,.34.13Z"/><path class="cls-5" d="M28.14,55.26h.93a2.85,2.85,0,0,1-.55,1.85,1.91,1.91,0,0,1-1.55.64,1.77,1.77,0,0,1-1.62-.86,5.23,5.23,0,0,1-.53-2.66,5.66,5.66,0,0,1,.53-2.79A1.78,1.78,0,0,1,27,50.56a1.8,1.8,0,0,1,1.58.75,4.13,4.13,0,0,1,.51,2.29V54a1.48,1.48,0,0,1,0,.22H25.81v.3a4.49,4.49,0,0,0,.29,1.86,1,1,0,0,0,.95.59.91.91,0,0,0,.79-.44,2.13,2.13,0,0,0,.3-1.2Zm-2.33-1.83h2.31v-.18a3,3,0,0,0-.27-1.43.9.9,0,0,0-.83-.48,1,1,0,0,0-.91.52A3.18,3.18,0,0,0,25.81,53.43Zm-3.18,4.14V48.45h.95v9.12Zm-1.88-1.41a.77.77,0,0,0,.15.56,1.31,1.31,0,0,0,.74.13h.21v.83h-.24l-.47,0a1.55,1.55,0,0,1-1-.27,1,1,0,0,1-.33-.81V51.54h-.95v-.79h.95V48.93h.93v1.82h1.11v.79H20.75Zm-3,0a.72.72,0,0,0,.16.56,1.27,1.27,0,0,0,.73.13h.22v.83h-.23l-.47,0a1.58,1.58,0,0,1-1-.27,1,1,0,0,1-.33-.81V51.54h-.95v-.79h.95V48.93h.93v1.82h1.11v.79H17.76Zm-6.12-2A5.39,5.39,0,0,0,12,56.31a1.1,1.1,0,0,0,1.07.63,1.09,1.09,0,0,0,1-.64,5.06,5.06,0,0,0,.32-2.14A5,5,0,0,0,14.06,52a1.08,1.08,0,0,0-1-.63A1.1,1.1,0,0,0,12,52,5.15,5.15,0,0,0,11.64,54.16Zm-1,0a5,5,0,0,1,.59-2.72A2,2,0,0,1,13,50.56a2,2,0,0,1,1.81.87,5,5,0,0,1,.58,2.73,5,5,0,0,1-.58,2.72,2,2,0,0,1-1.81.87,2,2,0,0,1-1.82-.86A5,5,0,0,1,10.62,54.16ZM4.34,57.57V48.45H6.72A2.68,2.68,0,0,1,8.58,49a2.31,2.31,0,0,1,.57,1.74A2.42,2.42,0,0,1,8.84,52a1.54,1.54,0,0,1-1,.67,1.85,1.85,0,0,1,1.18.71A2.7,2.7,0,0,1,9.45,55a2.59,2.59,0,0,1-.69,1.93,2.64,2.64,0,0,1-1.95.69Zm1-.9h1.3A1.9,1.9,0,0,0,8,56.28,1.72,1.72,0,0,0,8.37,55a1.91,1.91,0,0,0-.44-1.42,2.12,2.12,0,0,0-1.49-.42H5.32Zm0-4.34H6.39A2,2,0,0,0,7.74,52a1.63,1.63,0,0,0,.38-1.22,1.47,1.47,0,0,0-.39-1.16,2.23,2.23,0,0,0-1.4-.33h-1Z"/><path class="cls-5" d="M30.74,75.19h.94A2.85,2.85,0,0,1,31.12,77a1.89,1.89,0,0,1-1.54.64A1.77,1.77,0,0,1,28,76.82a5.23,5.23,0,0,1-.53-2.66A5.66,5.66,0,0,1,28,71.37a2,2,0,0,1,3.22-.13,4,4,0,0,1,.52,2.29v.37c0,.08,0,.16,0,.22H28.41v.3a4.3,4.3,0,0,0,.3,1.86,1,1,0,0,0,.94.59.92.92,0,0,0,.8-.44,2.22,2.22,0,0,0,.29-1.2Zm-2.33-1.83h2.32v-.18a3,3,0,0,0-.27-1.43.9.9,0,0,0-.83-.48,1,1,0,0,0-.92.52A3.18,3.18,0,0,0,28.41,73.36ZM25.24,77.5V68.38h1V77.5Zm-5.76,2.3V70.68h.92v.86a1.21,1.21,0,0,1,.51-.73,1.58,1.58,0,0,1,.93-.29,1.78,1.78,0,0,1,1.62.89A5.24,5.24,0,0,1,24,74.07a5.67,5.67,0,0,1-.5,2.71,1.7,1.7,0,0,1-1.57.86,1.68,1.68,0,0,1-.87-.22,1.71,1.71,0,0,1-.6-.65v3Zm.92-5.74a4.94,4.94,0,0,0,.33,2.07,1.09,1.09,0,0,0,1,.68,1,1,0,0,0,.92-.65A5.68,5.68,0,0,0,23,74.05a5.36,5.36,0,0,0-.29-2,1,1,0,0,0-1-.63,1,1,0,0,0-1,.62A4.91,4.91,0,0,0,20.4,74.06ZM13.71,79.8V70.68h.92v.86a1.21,1.21,0,0,1,.51-.73,1.58,1.58,0,0,1,.93-.29,1.78,1.78,0,0,1,1.62.89,5.24,5.24,0,0,1,.54,2.66,5.67,5.67,0,0,1-.5,2.71,1.7,1.7,0,0,1-1.57.86,1.66,1.66,0,0,1-.87-.22,1.57,1.57,0,0,1-.6-.65v3Zm.92-5.74A4.94,4.94,0,0,0,15,76.13a1.09,1.09,0,0,0,1,.68,1,1,0,0,0,.92-.65,5.68,5.68,0,0,0,.29-2.11,5.13,5.13,0,0,0-.3-2,1,1,0,0,0-.95-.63,1.07,1.07,0,0,0-1,.62A5.11,5.11,0,0,0,14.63,74.06ZM11.28,77.5V70.68h1V77.5Zm0-7.89V68.38h1v1.23ZM4.34,77.5V68.38H5.7L8.86,76.2l-.09-7.82h1V77.5H8.45L5.24,69.44l.08,8.06Z"/><path class="cls-5" d="M37.05,155.29l-1.85-6.82h1l1.33,5.35,1.4-5.35h1l-1.89,6.82Zm-6.34-3.41A5.27,5.27,0,0,0,31,154a1.1,1.1,0,0,0,1.06.62,1.08,1.08,0,0,0,1.05-.64,7.32,7.32,0,0,0,0-4.28,1.21,1.21,0,0,0-2.11,0A5.13,5.13,0,0,0,30.71,151.88Zm-1,0a5,5,0,0,1,.58-2.72,2,2,0,0,1,1.81-.89,2,2,0,0,1,1.81.88,5,5,0,0,1,.59,2.73,5.07,5.07,0,0,1-.58,2.72,2.06,2.06,0,0,1-1.82.86,2,2,0,0,1-1.82-.86A5,5,0,0,1,29.69,151.89Zm-2.09,1h.93A3,3,0,0,1,28,154.8a2,2,0,0,1-1.61.67,1.81,1.81,0,0,1-1.68-.89,5.35,5.35,0,0,1-.55-2.75,5,5,0,0,1,.57-2.66,1.92,1.92,0,0,1,1.72-.88,2,2,0,0,1,1.51.59,2.22,2.22,0,0,1,.56,1.59v.14h-.94a1.91,1.91,0,0,0-.31-1.09.91.91,0,0,0-.78-.38,1,1,0,0,0-1,.62,5.27,5.27,0,0,0-.3,2.11,5.38,5.38,0,0,0,.3,2.13,1,1,0,0,0,1,.62.9.9,0,0,0,.82-.44A2.5,2.5,0,0,0,27.6,152.89ZM15.51,157.6v-9.13h.92v.86a1.24,1.24,0,0,1,.51-.73,1.57,1.57,0,0,1,.93-.28,1.76,1.76,0,0,1,1.62.89,5.21,5.21,0,0,1,.54,2.66,5.59,5.59,0,0,1-.5,2.7,1.82,1.82,0,0,1-2.44.64,1.64,1.64,0,0,1-.6-.65v3Zm.92-5.74a4.94,4.94,0,0,0,.33,2.07,1.09,1.09,0,0,0,1,.67,1,1,0,0,0,.92-.65,5.58,5.58,0,0,0,.29-2.1,5.32,5.32,0,0,0-.29-2,1,1,0,0,0-1-.63,1,1,0,0,0-1,.61A5,5,0,0,0,16.43,151.86Zm-1.9,3.44-.31,0H14a.79.79,0,0,1-.63-.25,1.06,1.06,0,0,1-.25-.72,1.79,1.79,0,0,1-.63.79,1.72,1.72,0,0,1-1,.28,1.39,1.39,0,0,1-1.15-.5,2.08,2.08,0,0,1-.41-1.39,2.05,2.05,0,0,1,.38-1.35,3.78,3.78,0,0,1,1.65-.88h0c.69-.23,1-.5,1-.82v-.62a.76.76,0,0,0-.24-.62,1.3,1.3,0,0,0-.77-.19,1,1,0,0,0-.76.27,1.17,1.17,0,0,0-.24.81v.12h-.9a2.13,2.13,0,0,1,.5-1.52,2.06,2.06,0,0,1,1.51-.48,2,2,0,0,1,1.42.44,1.9,1.9,0,0,1,.45,1.4v4a.66.66,0,0,0,.09.39.42.42,0,0,0,.31.11l.13,0h0ZM13,151.61a2.66,2.66,0,0,1-1,.53l-.1,0a1.71,1.71,0,0,0-.86.53,1.45,1.45,0,0,0-.21.86,1.24,1.24,0,0,0,.23.79.77.77,0,0,0,.63.27,1.14,1.14,0,0,0,.95-.45A1.87,1.87,0,0,0,13,153Zm-5.2,1.28h.93a3,3,0,0,1-.56,1.92,2,2,0,0,1-1.61.67,1.81,1.81,0,0,1-1.68-.89,5.35,5.35,0,0,1-.55-2.75,5,5,0,0,1,.57-2.66,1.92,1.92,0,0,1,1.72-.88,2,2,0,0,1,1.51.59,2.22,2.22,0,0,1,.56,1.59v.14H7.77a1.91,1.91,0,0,0-.31-1.09.91.91,0,0,0-.78-.38,1,1,0,0,0-1,.62,5.27,5.27,0,0,0-.3,2.11,5.38,5.38,0,0,0,.3,2.13,1,1,0,0,0,1,.62.9.9,0,0,0,.82-.44A2.4,2.4,0,0,0,7.82,152.89Zm24-10.39v-.57a.52.52,0,0,0,.37-.34,1.84,1.84,0,0,0,.14-.78v-.06h-.51V139.5h1.08v1.25a2.11,2.11,0,0,1-.3,1.16A1.24,1.24,0,0,1,31.84,142.5Zm-2.64-1.75v-6.81h.88v1.11a2,2,0,0,1,.63-.93,1.47,1.47,0,0,1,1-.34h.24l.17,0v1a.49.49,0,0,0-.17-.06.68.68,0,0,0-.21,0,1.41,1.41,0,0,0-1.14.48,2.08,2.08,0,0,0-.41,1.36v4.17ZM27,138.45h.94a2.87,2.87,0,0,1-.56,1.85,1.92,1.92,0,0,1-1.54.64,1.77,1.77,0,0,1-1.62-.86,5.25,5.25,0,0,1-.53-2.66,5.66,5.66,0,0,1,.53-2.79,2,2,0,0,1,3.22-.14,4.08,4.08,0,0,1,.52,2.3v.37c0,.08,0,.15,0,.22H24.65v.3a4.3,4.3,0,0,0,.3,1.86,1,1,0,0,0,.94.58.9.9,0,0,0,.8-.44A2.16,2.16,0,0,0,27,138.5Zm-2.33-1.83H27v-.19A3,3,0,0,0,26.7,135a.9.9,0,0,0-.83-.48A1,1,0,0,0,25,135,3.25,3.25,0,0,0,24.65,136.62Zm-6.56,6.44v-9.12H19v.85a1.21,1.21,0,0,1,.51-.72,1.51,1.51,0,0,1,.93-.29,1.8,1.8,0,0,1,1.62.89,5.21,5.21,0,0,1,.54,2.66,5.53,5.53,0,0,1-.51,2.71,1.69,1.69,0,0,1-1.56.86,1.66,1.66,0,0,1-.87-.23,1.54,1.54,0,0,1-.6-.64v3Zm.93-5.74a4.94,4.94,0,0,0,.33,2.07,1.07,1.07,0,0,0,1,.67,1,1,0,0,0,.93-.65,5.58,5.58,0,0,0,.29-2.1,5.1,5.1,0,0,0-.3-2.05,1,1,0,0,0-.95-.63,1,1,0,0,0-1,.62A5.11,5.11,0,0,0,19,137.32Zm-6.7,5.74v-9.12h.92v.85a1.19,1.19,0,0,1,.52-.72,1.5,1.5,0,0,1,.92-.29,1.78,1.78,0,0,1,1.62.89,5.21,5.21,0,0,1,.54,2.66,5.55,5.55,0,0,1-.5,2.71,1.69,1.69,0,0,1-1.57.86,1.71,1.71,0,0,1-.87-.23,1.68,1.68,0,0,1-.6-.64v3Zm.92-5.74a4.76,4.76,0,0,0,.34,2.07,1.07,1.07,0,0,0,1,.67,1,1,0,0,0,.92-.65,5.38,5.38,0,0,0,.29-2.1,5.32,5.32,0,0,0-.29-2.05,1,1,0,0,0-1-.63,1,1,0,0,0-1,.62A4.91,4.91,0,0,0,13.24,137.32Zm-3.35,3.43v-6.81h1v6.81Zm0-7.88v-1.24h1v1.24ZM4.34,138.7h1s0,0,0,0,0,.15,0,.19a1.09,1.09,0,0,0,.32.85,1.29,1.29,0,0,0,.92.29,1.25,1.25,0,0,0,.87-.29,1.07,1.07,0,0,0,.32-.81c0-.54-.42-.95-1.24-1.23h0a3.87,3.87,0,0,1-1.61-.86,1.79,1.79,0,0,1-.37-1.23,1.85,1.85,0,0,1,.52-1.4,2.06,2.06,0,0,1,1.47-.5,2.11,2.11,0,0,1,1.5.48,1.89,1.89,0,0,1,.5,1.42v.09H7.53a1.38,1.38,0,0,0-.28-.89,1,1,0,0,0-.77-.28,1.18,1.18,0,0,0-.84.26,1,1,0,0,0-.28.78,1.12,1.12,0,0,0,.07.42.64.64,0,0,0,.22.29,3.12,3.12,0,0,0,1,.47,6,6,0,0,1,.64.23,2.21,2.21,0,0,1,1,.68,1.87,1.87,0,0,1,.3,1.11A2,2,0,0,1,8,140.38a2.35,2.35,0,0,1-1.68.56,2,2,0,0,1-1.51-.53,2.19,2.19,0,0,1-.51-1.56ZM23.45,128v-.57a.54.54,0,0,0,.38-.33,1.94,1.94,0,0,0,.13-.79v-.06h-.51V125h1.08v1.24a2.19,2.19,0,0,1-.29,1.16A1.26,1.26,0,0,1,23.45,128Zm-5.36-1.75v-9.12H19v5.4l2.33-3.09h1.11l-2,2.58,2.2,4.23H21.45l-1.68-3.35-.75.93v2.42Zm-5.56-2h.94v0c0,.09,0,.15,0,.2a1.08,1.08,0,0,0,.32.84,1.29,1.29,0,0,0,.92.3,1.21,1.21,0,0,0,.87-.3,1.07,1.07,0,0,0,.32-.81c0-.53-.42-1-1.24-1.23h0a3.88,3.88,0,0,1-1.61-.85,2.2,2.2,0,0,1,.15-2.64,2.05,2.05,0,0,1,1.46-.5,2.08,2.08,0,0,1,1.5.48,1.87,1.87,0,0,1,.51,1.42v.09h-.91a1.47,1.47,0,0,0-.28-.89,1,1,0,0,0-.77-.28,1.16,1.16,0,0,0-.84.26,1,1,0,0,0-.28.78,1.09,1.09,0,0,0,.07.42.64.64,0,0,0,.22.29,3.31,3.31,0,0,0,1,.48,6.41,6.41,0,0,1,.64.22,2.15,2.15,0,0,1,1,.69,1.82,1.82,0,0,1,.3,1.1,2,2,0,0,1-.59,1.58,2.35,2.35,0,0,1-1.68.56,2,2,0,0,1-1.51-.53,2.19,2.19,0,0,1-.51-1.56Zm-2.25,2V119.4h1v6.81Zm0-7.88v-1.24h1v1.24Zm-1.42,7.88H8v-.85a1.27,1.27,0,0,1-.53.72,1.68,1.68,0,0,1-1,.27,1.76,1.76,0,0,1-1.61-1,5.71,5.71,0,0,1-.55-2.8,4.64,4.64,0,0,1,.55-2.47,1.75,1.75,0,0,1,1.56-.88,1.86,1.86,0,0,1,.95.24,1.11,1.11,0,0,1,.52.62v-3h.95ZM8,122.76a5.22,5.22,0,0,0-.29-2.08,1,1,0,0,0-1-.59,1,1,0,0,0-1,.63,4.66,4.66,0,0,0-.32,2,5.35,5.35,0,0,0,.31,2.14,1,1,0,0,0,1,.67,1.06,1.06,0,0,0,1-.63A5.09,5.09,0,0,0,8,122.76Zm23.2-10.45h.94a.81.81,0,0,0,.31.62,1.35,1.35,0,0,0,.81.21,1.15,1.15,0,0,0,1-.45,2.68,2.68,0,0,0,.31-1.47,1.14,1.14,0,0,0,0-.15v-.22a1.52,1.52,0,0,1-.59.7,1.72,1.72,0,0,1-.93.24,1.66,1.66,0,0,1-1.55-.93,5.92,5.92,0,0,1-.51-2.79,4.83,4.83,0,0,1,.53-2.52,1.78,1.78,0,0,1,1.61-.85A1.71,1.71,0,0,1,34,105a1.36,1.36,0,0,1,.53.71v-.8h.92v6.5a2.83,2.83,0,0,1-.6,1.94,2.21,2.21,0,0,1-1.72.68,2.15,2.15,0,0,1-1.43-.46,1.44,1.44,0,0,1-.55-1.17Zm.8-4a5.06,5.06,0,0,0,.3,2,1,1,0,0,0,1,.62,1,1,0,0,0,1-.63,5.38,5.38,0,0,0,.3-2.13,4.84,4.84,0,0,0-.32-2,1.06,1.06,0,0,0-1-.63,1,1,0,0,0-1,.64A5.67,5.67,0,0,0,32,108.28Zm-6.53,3.4v-6.82h.89v.85A1.78,1.78,0,0,1,27,105a2.07,2.07,0,0,1,1-.25,1.63,1.63,0,0,1,1.29.46,2.51,2.51,0,0,1,.38,1.57v4.94h-1v-5a1.21,1.21,0,0,0-.24-.83.87.87,0,0,0-.72-.28,1.33,1.33,0,0,0-1,.41,1.52,1.52,0,0,0-.37,1.09v4.62Zm-2.43,0v-6.82h1v6.82Zm0-7.89v-1.23h1v1.23Zm-2.37,7.89v-9.12h.94v9.12Zm-1,0-.31,0-.25,0a.8.8,0,0,1-.63-.26,1.06,1.06,0,0,1-.25-.72,1.82,1.82,0,0,1-.63.8,1.8,1.8,0,0,1-1,.28,1.41,1.41,0,0,1-1.15-.5,2.11,2.11,0,0,1-.41-1.4,2,2,0,0,1,.38-1.34,3.77,3.77,0,0,1,1.65-.89h0c.69-.24,1-.51,1-.82v-.63a.74.74,0,0,0-.24-.61,1.23,1.23,0,0,0-.77-.19,1,1,0,0,0-.76.26,1.2,1.2,0,0,0-.24.82v.12h-.9a2.14,2.14,0,0,1,.5-1.53,2.1,2.1,0,0,1,1.51-.47,1.93,1.93,0,0,1,1.42.44,1.87,1.87,0,0,1,.45,1.39v4a.62.62,0,0,0,.09.38.39.39,0,0,0,.31.12l.13,0h0ZM18.16,108a2.68,2.68,0,0,1-1,.52l-.1,0a1.71,1.71,0,0,0-.86.52,1.45,1.45,0,0,0-.21.86,1.24,1.24,0,0,0,.23.79.75.75,0,0,0,.63.28,1.14,1.14,0,0,0,.95-.45,1.87,1.87,0,0,0,.35-1.21ZM13,109.37H14a2.8,2.8,0,0,1-.55,1.85,1.89,1.89,0,0,1-1.54.64,1.79,1.79,0,0,1-1.63-.86,5.24,5.24,0,0,1-.52-2.66,5.67,5.67,0,0,1,.52-2.79,1.78,1.78,0,0,1,1.65-.88,1.78,1.78,0,0,1,1.58.75,4,4,0,0,1,.52,2.29v.37c0,.08,0,.16,0,.22H10.69v.3a4.3,4.3,0,0,0,.3,1.86,1,1,0,0,0,.94.59.92.92,0,0,0,.8-.44,2.22,2.22,0,0,0,.29-1.2Zm-2.33-1.83H13v-.18a2.87,2.87,0,0,0-.28-1.43.88.88,0,0,0-.82-.48A1,1,0,0,0,11,106,3.18,3.18,0,0,0,10.69,107.54Zm-6.35,2.09h1v0c0,.09,0,.15,0,.2a1.12,1.12,0,0,0,.32.85,1.33,1.33,0,0,0,.92.29,1.21,1.21,0,0,0,.87-.3,1,1,0,0,0,.32-.8c0-.54-.42-1-1.24-1.24h0a4,4,0,0,1-1.61-.86,1.84,1.84,0,0,1-.37-1.24A1.81,1.81,0,0,1,5,105.17a2,2,0,0,1,1.47-.5,2.16,2.16,0,0,1,1.5.47,1.9,1.9,0,0,1,.5,1.42v.1H7.53a1.41,1.41,0,0,0-.28-.9,1,1,0,0,0-.77-.28,1.22,1.22,0,0,0-.84.26,1,1,0,0,0-.28.79,1.07,1.07,0,0,0,.07.41.73.73,0,0,0,.22.3,3.61,3.61,0,0,0,1,.47l.64.22a2.15,2.15,0,0,1,1,.69,1.84,1.84,0,0,1,.3,1.1A2,2,0,0,1,8,111.3a2.35,2.35,0,0,1-1.68.56,2,2,0,0,1-1.51-.53,2.17,2.17,0,0,1-.51-1.56ZM53.55,98.88v-.56a.56.56,0,0,0,.37-.34,1.89,1.89,0,0,0,.13-.78v-.06h-.5V95.89h1.08v1.25a2.07,2.07,0,0,1-.3,1.15A1.24,1.24,0,0,1,53.55,98.88Zm-6,.56V90.32h.93v.86a1.21,1.21,0,0,1,.51-.73,1.58,1.58,0,0,1,.93-.29,1.78,1.78,0,0,1,1.62.9,5.19,5.19,0,0,1,.54,2.66,5.65,5.65,0,0,1-.5,2.7,1.68,1.68,0,0,1-1.57.86,1.66,1.66,0,0,1-.87-.22,1.51,1.51,0,0,1-.6-.65v3Zm.93-5.74a4.9,4.9,0,0,0,.33,2.07,1.08,1.08,0,0,0,1,.68,1,1,0,0,0,.93-.65,5.64,5.64,0,0,0,.29-2.11,5.13,5.13,0,0,0-.3-2,1,1,0,0,0-1-.63,1.07,1.07,0,0,0-1,.62A5.18,5.18,0,0,0,48.48,93.7Zm-1.91,3.45-.31,0-.24,0a.83.83,0,0,1-.64-.25,1.18,1.18,0,0,1-.25-.73,1.64,1.64,0,0,1-.63.8,1.74,1.74,0,0,1-1,.28,1.4,1.4,0,0,1-1.15-.5,2.55,2.55,0,0,1,0-2.74A3.89,3.89,0,0,1,44,93.18h0c.7-.23,1-.51,1-.82v-.63a.74.74,0,0,0-.24-.61,1.23,1.23,0,0,0-.77-.19,1,1,0,0,0-.76.26A1.2,1.2,0,0,0,43,92v.12h-.89a2.11,2.11,0,0,1,.49-1.52,2.08,2.08,0,0,1,1.52-.48,2,2,0,0,1,1.42.44A1.87,1.87,0,0,1,46,92v4a.6.6,0,0,0,.09.38.37.37,0,0,0,.31.12l.13,0s0,0,0,0Zm-1.5-3.69a2.52,2.52,0,0,1-1,.52L44,94a1.8,1.8,0,0,0-.87.52,1.56,1.56,0,0,0-.2.86,1.22,1.22,0,0,0,.23.79.75.75,0,0,0,.63.28,1.15,1.15,0,0,0,.95-.45,1.93,1.93,0,0,0,.35-1.21Zm-5.2,1.28h.93a2.91,2.91,0,0,1-.57,1.92,2,2,0,0,1-1.6.67A1.83,1.83,0,0,1,37,96.43a5.37,5.37,0,0,1-.55-2.75A5,5,0,0,1,37,91a1.9,1.9,0,0,1,1.72-.88,2,2,0,0,1,1.51.58,2.21,2.21,0,0,1,.55,1.59v.15h-.93a1.94,1.94,0,0,0-.31-1.1.93.93,0,0,0-.79-.37,1,1,0,0,0-1,.62,5.24,5.24,0,0,0-.3,2.11,5.38,5.38,0,0,0,.3,2.13,1,1,0,0,0,1,.62.93.93,0,0,0,.82-.44A2.6,2.6,0,0,0,39.87,94.74Zm-13.13,2.4L25,90.32h1l1.26,5.45,1.06-5.45h1l1.18,5.46,1.17-5.46h.94l-1.64,6.82H30l-1.19-5.29-1,5.29Zm-3.49-2.31h.93a2.78,2.78,0,0,1-.55,1.85,1.9,1.9,0,0,1-1.54.64,1.78,1.78,0,0,1-1.63-.86,5.24,5.24,0,0,1-.52-2.66A5.67,5.67,0,0,1,20.46,91a1.78,1.78,0,0,1,1.65-.88,1.78,1.78,0,0,1,1.58.75,4,4,0,0,1,.52,2.29v.37a1.85,1.85,0,0,0,0,.23H20.92v.3a4.35,4.35,0,0,0,.3,1.87,1,1,0,0,0,.94.58.92.92,0,0,0,.8-.44,2.17,2.17,0,0,0,.29-1.2ZM20.92,93h2.32v-.18A2.8,2.8,0,0,0,23,91.4a.89.89,0,0,0-.82-.48,1,1,0,0,0-.92.51A3.21,3.21,0,0,0,20.92,93ZM16.6,97.14V90.32h.88v1.12a2.06,2.06,0,0,1,.63-.94,1.52,1.52,0,0,1,1-.34h.24l.17,0v1l-.17-.07-.21,0a1.39,1.39,0,0,0-1.14.49A2,2,0,0,0,17.55,93v4.18Zm-2.28-2.4h.94a2.91,2.91,0,0,1-.57,1.92,2,2,0,0,1-1.6.67,1.86,1.86,0,0,1-1.69-.89,5.48,5.48,0,0,1-.55-2.75A5,5,0,0,1,11.42,91a1.92,1.92,0,0,1,1.73-.88,2,2,0,0,1,1.51.58,2.21,2.21,0,0,1,.55,1.59v.15h-.94a2,2,0,0,0-.3-1.1.93.93,0,0,0-.79-.37,1,1,0,0,0-1,.62,5.28,5.28,0,0,0-.29,2.11,5.38,5.38,0,0,0,.3,2.13,1,1,0,0,0,1,.62A1,1,0,0,0,14,96,2.51,2.51,0,0,0,14.32,94.74Zm-9.91-.5h1v.32A2,2,0,0,0,5.81,96a1.62,1.62,0,0,0,1.27.48A1.54,1.54,0,0,0,8.27,96a1.74,1.74,0,0,0,.44-1.26,1.57,1.57,0,0,0-.27-1,2.71,2.71,0,0,0-1.19-.7l-.61-.23a5.78,5.78,0,0,1-1.34-.6,2.3,2.3,0,0,1-.57-.81,3,3,0,0,1-.18-1.08,2.54,2.54,0,0,1,.65-1.86A2.44,2.44,0,0,1,7,87.8a2.4,2.4,0,0,1,1.75.62,2.32,2.32,0,0,1,.63,1.72.68.68,0,0,1,0,.12v.11H8.46v-.09a1.71,1.71,0,0,0-.37-1.19A1.38,1.38,0,0,0,7,88.67a1.56,1.56,0,0,0-1.12.4,1.46,1.46,0,0,0-.41,1.08,1.57,1.57,0,0,0,.28,1,2.83,2.83,0,0,0,1.22.7l.33.12A7.36,7.36,0,0,1,9,92.76a1.82,1.82,0,0,1,.49.77,3,3,0,0,1,.17,1.07,2.73,2.73,0,0,1-.72,2,2.68,2.68,0,0,1-2,.72,2.48,2.48,0,0,1-1.93-.71,3,3,0,0,1-.65-2.09,1,1,0,0,1,0-.15Z"/><path class="cls-5" d="M46.24,155.29v-6.82h.88v1.12a2,2,0,0,1,.63-.93,1.42,1.42,0,0,1,1-.34H49l.16,0v1a.43.43,0,0,0-.17-.06.65.65,0,0,0-.2,0,1.44,1.44,0,0,0-1.15.48,2.06,2.06,0,0,0-.41,1.36v4.17ZM44,153H45a2.82,2.82,0,0,1-.55,1.84,1.9,1.9,0,0,1-1.54.64,1.76,1.76,0,0,1-1.63-.86,5.2,5.2,0,0,1-.52-2.65,5.67,5.67,0,0,1,.52-2.79,2,2,0,0,1,3.23-.14,4.16,4.16,0,0,1,.52,2.3c0,.16,0,.28,0,.37a1.55,1.55,0,0,1,0,.22H41.69v.3a4.3,4.3,0,0,0,.3,1.86,1,1,0,0,0,.94.58.91.91,0,0,0,.8-.44A2.17,2.17,0,0,0,44,153Zm-2.33-1.83H44V151a2.83,2.83,0,0,0-.28-1.42.89.89,0,0,0-.83-.48,1,1,0,0,0-.91.51A3.25,3.25,0,0,0,41.69,151.16Z"/><path class="cls-5" d="M127,55.26H128a2.85,2.85,0,0,1-.55,1.85,1.91,1.91,0,0,1-1.55.64,1.77,1.77,0,0,1-1.62-.86,5.24,5.24,0,0,1-.52-2.66,5.67,5.67,0,0,1,.52-2.79,2,2,0,0,1,3.23-.13A4.13,4.13,0,0,1,128,53.6V54a1.48,1.48,0,0,1,0,.22h-3.27v.3a4.49,4.49,0,0,0,.29,1.86,1,1,0,0,0,1,.59.91.91,0,0,0,.79-.44,2.13,2.13,0,0,0,.3-1.2Zm-2.33-1.83H127v-.18a3,3,0,0,0-.27-1.43.89.89,0,0,0-.83-.48,1,1,0,0,0-.91.52A3.18,3.18,0,0,0,124.69,53.43Zm-6.49,4.14V50.75h.89v.85a1.78,1.78,0,0,1,.68-.75,2,2,0,0,1,1-.25,1.59,1.59,0,0,1,1.28.46,2.44,2.44,0,0,1,.39,1.57v4.94h-1v-5a1.21,1.21,0,0,0-.24-.83.89.89,0,0,0-.72-.28,1.33,1.33,0,0,0-1,.41,1.52,1.52,0,0,0-.38,1.09v4.62ZM116,55.26h.93a2.85,2.85,0,0,1-.55,1.85,1.9,1.9,0,0,1-1.54.64,1.78,1.78,0,0,1-1.63-.86,5.24,5.24,0,0,1-.52-2.66,5.67,5.67,0,0,1,.52-2.79,2,2,0,0,1,3.23-.13,4.12,4.12,0,0,1,.52,2.29,3.66,3.66,0,0,1,0,.37,1.48,1.48,0,0,1,0,.22h-3.27v.3a4.3,4.3,0,0,0,.3,1.86,1,1,0,0,0,.94.59.91.91,0,0,0,.79-.44,2.13,2.13,0,0,0,.3-1.2Zm-2.33-1.83H116v-.18a3,3,0,0,0-.28-1.43.89.89,0,0,0-.83-.48,1,1,0,0,0-.91.52A3.18,3.18,0,0,0,113.65,53.43Zm-3.18,4.14V48.45h1v9.12Zm-5.63,2.18v-.86a1.4,1.4,0,0,0,.29.09,1.53,1.53,0,0,0,.3,0,.88.88,0,0,0,.67-.28,3.32,3.32,0,0,0,.48-1.1l-2-6.88h1l1.46,5.5,1.51-5.5h1l-2.09,7.12a3.54,3.54,0,0,1-.77,1.57,1.7,1.7,0,0,1-1.23.42l-.28,0A2.37,2.37,0,0,1,104.84,59.75Zm-5.51.12V50.75h.92v.86a1.18,1.18,0,0,1,.52-.73,1.55,1.55,0,0,1,.92-.29,1.78,1.78,0,0,1,1.62.89,5.24,5.24,0,0,1,.54,2.66,5.55,5.55,0,0,1-.5,2.71,1.68,1.68,0,0,1-1.57.86,1.56,1.56,0,0,1-1.47-.87v3Zm.92-5.74a4.94,4.94,0,0,0,.33,2.07,1.1,1.1,0,0,0,1,.68,1,1,0,0,0,.92-.65,5.48,5.48,0,0,0,.29-2.11,5.36,5.36,0,0,0-.29-2,1,1,0,0,0-1-.63,1,1,0,0,0-1,.62A4.91,4.91,0,0,0,100.25,54.13Zm-6,0a5.22,5.22,0,0,0,.31,2.15,1.19,1.19,0,0,0,2.11,0A5.06,5.06,0,0,0,97,54.16,5,5,0,0,0,96.72,52a1.19,1.19,0,0,0-2.1,0A5,5,0,0,0,94.3,54.16Zm-1,0a5,5,0,0,1,.59-2.72,2,2,0,0,1,1.8-.88,2,2,0,0,1,1.82.87,5,5,0,0,1,.58,2.73,5,5,0,0,1-.58,2.72,2.35,2.35,0,0,1-3.64,0A5.09,5.09,0,0,1,93.28,54.16ZM90,57.57V50.75h.88v1.11a1.94,1.94,0,0,1,.62-.93,1.52,1.52,0,0,1,1-.34h.25l.16,0v1a.49.49,0,0,0-.17-.06l-.2,0A1.39,1.39,0,0,0,91.3,52a2,2,0,0,0-.41,1.35v4.18Zm-5.78,2.3V50.75h.93v.86a1.21,1.21,0,0,1,.51-.73,1.58,1.58,0,0,1,.93-.29,1.77,1.77,0,0,1,1.61.89,5.12,5.12,0,0,1,.55,2.66,5.53,5.53,0,0,1-.51,2.71,1.67,1.67,0,0,1-1.57.86,1.56,1.56,0,0,1-1.47-.87v3Zm.93-5.74a4.94,4.94,0,0,0,.33,2.07,1.08,1.08,0,0,0,1,.68,1,1,0,0,0,.92-.65,5.44,5.44,0,0,0,.3-2.11,5.13,5.13,0,0,0-.3-2,1,1,0,0,0-1-.63,1.05,1.05,0,0,0-1,.62A5.11,5.11,0,0,0,85.1,54.13Zm-6.58,5.62v-.86l.3.09.29,0a.85.85,0,0,0,.67-.28,3.1,3.1,0,0,0,.49-1.1l-2-6.88h1l1.46,5.5,1.5-5.5h1l-2.1,7.12a3.55,3.55,0,0,1-.76,1.57,1.7,1.7,0,0,1-1.23.42l-.28,0A2.85,2.85,0,0,1,78.52,59.75ZM76.4,57.57V48.45h.95v9.12Zm-5-3.41a5.18,5.18,0,0,0,.32,2.15,1.19,1.19,0,0,0,2.11,0,5.26,5.26,0,0,0,.31-2.14A5.16,5.16,0,0,0,73.81,52a1.09,1.09,0,0,0-1-.63A1.1,1.1,0,0,0,71.7,52,5.15,5.15,0,0,0,71.38,54.16Zm-1,0A5,5,0,0,1,71,51.44a2.31,2.31,0,0,1,3.62,0,5,5,0,0,1,.59,2.73,5.07,5.07,0,0,1-.58,2.72,2.35,2.35,0,0,1-3.64,0A5.08,5.08,0,0,1,70.36,54.16Zm-5.77,3.41V48.45h2.34a3.23,3.23,0,0,1,2.18.61A2.45,2.45,0,0,1,69.79,51a2.7,2.7,0,0,1-.71,2,2.93,2.93,0,0,1-2.11.69H65.61v3.84Zm1-4.76H67a1.84,1.84,0,0,0,1.35-.44A1.91,1.91,0,0,0,68.74,51a1.62,1.62,0,0,0-.44-1.26,2.1,2.1,0,0,0-1.42-.39H65.61Z"/><path class="cls-5" d="M125.72,125.49h.94a2.8,2.8,0,0,1-.56,1.85,1.89,1.89,0,0,1-1.54.64,1.77,1.77,0,0,1-1.62-.86,5.23,5.23,0,0,1-.53-2.66,5.66,5.66,0,0,1,.53-2.79,1.78,1.78,0,0,1,1.65-.88,1.8,1.8,0,0,1,1.58.75,4.11,4.11,0,0,1,.51,2.29v.37c0,.08,0,.16,0,.22H123.4v.3a4.33,4.33,0,0,0,.29,1.86,1,1,0,0,0,.94.59.91.91,0,0,0,.8-.44,2.13,2.13,0,0,0,.29-1.2Zm-2.32-1.83h2.31v-.18a3,3,0,0,0-.27-1.43.9.9,0,0,0-.83-.48,1,1,0,0,0-.92.52A3.2,3.2,0,0,0,123.4,123.66Zm-6.5,4.14V121h.9v.84a1.79,1.79,0,0,1,.67-.74,2.11,2.11,0,0,1,1-.25,1.59,1.59,0,0,1,1.28.46,2.44,2.44,0,0,1,.38,1.57v4.94h-1v-5A1.2,1.2,0,0,0,120,122a.89.89,0,0,0-.72-.28,1.33,1.33,0,0,0-1,.41,1.51,1.51,0,0,0-.38,1.08v4.63Zm-2.21-2.31h.93a2.85,2.85,0,0,1-.55,1.85,1.91,1.91,0,0,1-1.55.64,1.77,1.77,0,0,1-1.62-.86,5.23,5.23,0,0,1-.53-2.66,5.66,5.66,0,0,1,.53-2.79,2,2,0,0,1,3.23-.13,4.11,4.11,0,0,1,.51,2.29v.37a1.48,1.48,0,0,1,0,.22h-3.27v.3a4.49,4.49,0,0,0,.29,1.86,1,1,0,0,0,.95.59.91.91,0,0,0,.79-.44,2.13,2.13,0,0,0,.3-1.2Zm-2.33-1.83h2.31v-.18a3,3,0,0,0-.27-1.43.9.9,0,0,0-.83-.48,1,1,0,0,0-.91.52A3.18,3.18,0,0,0,112.36,123.66Zm-3.18,4.14v-9.13h.95v9.13ZM103.54,130v-.86l.3.09.3,0a.84.84,0,0,0,.66-.28,3.1,3.1,0,0,0,.49-1.1l-2-6.88h1l1.46,5.5,1.5-5.5h1l-2.1,7.12a3.55,3.55,0,0,1-.76,1.57,1.7,1.7,0,0,1-1.23.42l-.28,0A2.85,2.85,0,0,1,103.54,130Zm-5.5.12V121H99v.86a1.21,1.21,0,0,1,.51-.73,1.58,1.58,0,0,1,.93-.29,1.78,1.78,0,0,1,1.62.89,5.24,5.24,0,0,1,.54,2.66,5.67,5.67,0,0,1-.5,2.71,1.7,1.7,0,0,1-1.57.86,1.6,1.6,0,0,1-.87-.23,1.61,1.61,0,0,1-.6-.64v3Zm.92-5.74a4.94,4.94,0,0,0,.33,2.07,1.09,1.09,0,0,0,1,.67,1,1,0,0,0,.92-.64,5.68,5.68,0,0,0,.29-2.11,5.36,5.36,0,0,0-.29-2,1,1,0,0,0-1-.63,1,1,0,0,0-1,.62A4.91,4.91,0,0,0,99,124.36Zm-5.95,0a5.22,5.22,0,0,0,.31,2.15,1.19,1.19,0,0,0,2.11,0,5.22,5.22,0,0,0,.32-2.14,5.12,5.12,0,0,0-.32-2.14,1.09,1.09,0,0,0-1.05-.63,1.11,1.11,0,0,0-1.06.62A5.18,5.18,0,0,0,93,124.39Zm-1,0a4.93,4.93,0,0,1,.59-2.72,2.3,2.3,0,0,1,3.61,0,5,5,0,0,1,.59,2.73,5.07,5.07,0,0,1-.58,2.72,2.35,2.35,0,0,1-3.64,0A5.09,5.09,0,0,1,92,124.39Zm-3.34,3.41V121h.88v1.11a2,2,0,0,1,.63-.93,1.47,1.47,0,0,1,1-.34h.24l.17,0v1a.49.49,0,0,0-.17-.06l-.21,0a1.39,1.39,0,0,0-1.14.49,2,2,0,0,0-.41,1.35v4.18Zm-5.77,2.3V121h.92v.86a1.18,1.18,0,0,1,.52-.73,1.55,1.55,0,0,1,.92-.29,1.78,1.78,0,0,1,1.62.89,5.24,5.24,0,0,1,.54,2.66,5.55,5.55,0,0,1-.5,2.71,1.7,1.7,0,0,1-1.57.86,1.61,1.61,0,0,1-1.47-.87v3Zm.92-5.74a4.94,4.94,0,0,0,.33,2.07,1.09,1.09,0,0,0,1,.67,1,1,0,0,0,.92-.64,5.48,5.48,0,0,0,.29-2.11,5.36,5.36,0,0,0-.29-2,1,1,0,0,0-1-.63,1,1,0,0,0-1,.62A4.91,4.91,0,0,0,83.8,124.36ZM77.23,130v-.86l.3.09a1.43,1.43,0,0,0,.29,0,.87.87,0,0,0,.67-.28,3.29,3.29,0,0,0,.49-1.1L77,121h1l1.46,5.5L81,121h1l-2.1,7.12a3.66,3.66,0,0,1-.76,1.57,1.7,1.7,0,0,1-1.23.42l-.28,0A2.49,2.49,0,0,1,77.23,130Zm-2.12-2.18v-9.13h1v9.13Zm-5-3.41a5.39,5.39,0,0,0,.31,2.15,1.1,1.1,0,0,0,1.07.63,1.09,1.09,0,0,0,1-.64,5.06,5.06,0,0,0,.32-2.14,5,5,0,0,0-.32-2.14,1.08,1.08,0,0,0-1-.63,1.1,1.1,0,0,0-1.06.62A5.15,5.15,0,0,0,70.09,124.39Zm-1,0a5,5,0,0,1,.59-2.72,2.31,2.31,0,0,1,3.62,0,6.69,6.69,0,0,1,0,5.45,2.34,2.34,0,0,1-3.63,0A5,5,0,0,1,69.07,124.39ZM63.3,127.8v-9.13h2.34a3.18,3.18,0,0,1,2.17.62,2.45,2.45,0,0,1,.69,1.93,2.74,2.74,0,0,1-.71,2,2.93,2.93,0,0,1-2.11.69H64.32v3.84Zm1-4.76h1.33A1.85,1.85,0,0,0,67,122.6a1.91,1.91,0,0,0,.44-1.39A1.62,1.62,0,0,0,67,120a2.11,2.11,0,0,0-1.42-.39H64.32Z"/><path class="cls-5" d="M170.65,55.47h.72a2.43,2.43,0,0,1-.8,1.7,2.59,2.59,0,0,1-1.81.63,2.48,2.48,0,0,1-2-.88,3.59,3.59,0,0,1-.74-2.38,3.71,3.71,0,0,1,.75-2.46,2.53,2.53,0,0,1,2.05-.89,2.56,2.56,0,0,1,1.75.59,2.15,2.15,0,0,1,.74,1.57h-.7a1.72,1.72,0,0,0-.58-1.11,1.85,1.85,0,0,0-1.21-.41,1.79,1.79,0,0,0-1.49.71,3.06,3.06,0,0,0-.56,1.93,3.21,3.21,0,0,0,.56,2,1.8,1.8,0,0,0,1.5.73,1.71,1.71,0,0,0,1.23-.46,2,2,0,0,0,.61-1.25m-7.14-6.42a1.53,1.53,0,0,1,1.14.48,1.61,1.61,0,0,1,0,2.29,1.58,1.58,0,0,1-1.15.47,1.59,1.59,0,0,1-1.15-.47,1.55,1.55,0,0,1-.46-1.15,1.59,1.59,0,0,1,.47-1.15A1.61,1.61,0,0,1,163.51,49.05Zm1.25,1.62a1.18,1.18,0,0,0-.37-.88,1.19,1.19,0,0,0-.88-.37,1.21,1.21,0,0,0-.89.36,1.26,1.26,0,0,0,0,1.78,1.2,1.2,0,0,0,.89.37,1.26,1.26,0,0,0,1.25-1.26ZM156,53.12a8.15,8.15,0,0,1,.57-3.61,2,2,0,0,1,1.89-1,2.21,2.21,0,0,1,1.15.29,2.53,2.53,0,0,1,.82.91,3.63,3.63,0,0,1,.37,1.26,15.71,15.71,0,0,1,.12,2.21,8.3,8.3,0,0,1-.56,3.61,2,2,0,0,1-1.86,1.07,2,2,0,0,1-1.93-1A8.27,8.27,0,0,1,156,53.12Zm1.05,0a9.62,9.62,0,0,0,.32,3,1.12,1.12,0,0,0,1.1.81,1.09,1.09,0,0,0,1.09-.74,9.48,9.48,0,0,0,.31-3.09,9.17,9.17,0,0,0-.32-3,1.11,1.11,0,0,0-1.09-.79,1.12,1.12,0,0,0-1.1.75A9.52,9.52,0,0,0,157.08,53.1ZM150,57.64a.66.66,0,0,1,0-.14,1.22,1.22,0,0,1,0-.21,3.7,3.7,0,0,1,.39-1.68,5,5,0,0,1,1.2-1.51l.45-.4a13.47,13.47,0,0,0,1.22-1.17,1.79,1.79,0,0,0,.37-.66,3.28,3.28,0,0,0,.11-.89,1.85,1.85,0,0,0-.35-1.2,1.21,1.21,0,0,0-1-.43,1.14,1.14,0,0,0-1,.47,2.48,2.48,0,0,0-.33,1.42v.3h-1a1.23,1.23,0,0,0,0-.17v-.16a3,3,0,0,1,.61-2,2.16,2.16,0,0,1,1.74-.72,2.25,2.25,0,0,1,1.73.65,2.54,2.54,0,0,1,.62,1.83,4.1,4.1,0,0,1-.12,1,2.9,2.9,0,0,1-.38.84A6,6,0,0,1,153.1,54l-.35.28a7.23,7.23,0,0,0-1.31,1.33,2,2,0,0,0-.39,1.1h3.83v.94Zm-3.79,0V50.93H144.3v-.77h.12a2.22,2.22,0,0,0,1.47-.42,1.77,1.77,0,0,0,.54-1.28h.79v9.18Z"/><path class="cls-5" d="M128.31,75.41h.93a2.87,2.87,0,0,1-.55,1.85,1.93,1.93,0,0,1-1.54.64,1.78,1.78,0,0,1-1.63-.86,5.24,5.24,0,0,1-.52-2.66,5.67,5.67,0,0,1,.52-2.79,2,2,0,0,1,3.23-.13,4.1,4.1,0,0,1,.52,2.29c0,.16,0,.28,0,.37a1.48,1.48,0,0,1,0,.22H126v.3a4.3,4.3,0,0,0,.3,1.86,1,1,0,0,0,.94.59.94.94,0,0,0,.8-.44,2.22,2.22,0,0,0,.29-1.2ZM126,73.58h2.32v-.19A2.83,2.83,0,0,0,128,72a.89.89,0,0,0-.83-.48,1,1,0,0,0-.91.52A3.18,3.18,0,0,0,126,73.58Zm-6.49,4.13V70.9h.89v.84a1.69,1.69,0,0,1,.68-.74,2.07,2.07,0,0,1,1-.25,1.6,1.6,0,0,1,1.29.46,2.47,2.47,0,0,1,.38,1.56v4.94h-1v-5a1.25,1.25,0,0,0-.24-.83.9.9,0,0,0-.72-.27,1.35,1.35,0,0,0-1,.4,1.55,1.55,0,0,0-.37,1.09v4.62Zm-5-3.4a5.25,5.25,0,0,0,.31,2.15,1.1,1.1,0,0,0,1.06.62,1.09,1.09,0,0,0,1-.63,5.22,5.22,0,0,0,.32-2.14,5.12,5.12,0,0,0-.32-2.14,1.09,1.09,0,0,0-1-.63,1.12,1.12,0,0,0-1.06.62A5.18,5.18,0,0,0,114.46,74.31Zm-1,0a4.9,4.9,0,0,1,.59-2.72,2.29,2.29,0,0,1,3.62,0,6.69,6.69,0,0,1,0,5.45A2.34,2.34,0,0,1,114,77,5,5,0,0,1,113.44,74.31Zm-2.09,1h.94a2.88,2.88,0,0,1-.57,1.91,2,2,0,0,1-1.6.68,1.85,1.85,0,0,1-1.69-.9,5.41,5.41,0,0,1-.55-2.74,5,5,0,0,1,.57-2.67,1.93,1.93,0,0,1,1.73-.87,2,2,0,0,1,1.5.58,2.22,2.22,0,0,1,.56,1.59V73h-.94a2,2,0,0,0-.3-1.09.94.94,0,0,0-.79-.38,1,1,0,0,0-1,.62,7.77,7.77,0,0,0,0,4.24,1,1,0,0,0,1,.63.94.94,0,0,0,.83-.45A2.48,2.48,0,0,0,111.35,75.31Zm-5.72,2.4V70.9h1v6.81Zm0-7.88V68.59h1v1.24Zm-2.38,7.88V68.59h1v9.12Zm-2.41,0V70.9h1v6.81Zm0-7.88V68.59h1v1.24Zm-6.61,5h1v.32a2.08,2.08,0,0,0,.42,1.41,1.64,1.64,0,0,0,1.28.47,1.58,1.58,0,0,0,1.19-.45,1.81,1.81,0,0,0,.43-1.26,1.64,1.64,0,0,0-.26-1,2.83,2.83,0,0,0-1.2-.69c-.14-.06-.34-.14-.61-.23a5.24,5.24,0,0,1-1.34-.61,2.17,2.17,0,0,1-.57-.8,3,3,0,0,1-.18-1.08A2.58,2.58,0,0,1,95,69.05a2.45,2.45,0,0,1,1.84-.67A2.35,2.35,0,0,1,98.6,69a2.29,2.29,0,0,1,.63,1.72v.11a.57.57,0,0,0,0,.12h-.93v-.1a1.73,1.73,0,0,0-.38-1.19,1.39,1.39,0,0,0-1.07-.41,1.54,1.54,0,0,0-1.12.4,1.43,1.43,0,0,0-.41,1.08,1.63,1.63,0,0,0,.28,1,2.93,2.93,0,0,0,1.22.7l.33.12a6.57,6.57,0,0,1,1.71.79,2,2,0,0,1,.5.76,3.15,3.15,0,0,1,.16,1.08,2.78,2.78,0,0,1-.71,2,2.71,2.71,0,0,1-2,.72,2.51,2.51,0,0,1-1.93-.71,3,3,0,0,1-.65-2.09,1,1,0,0,1,0-.15Zm-4.34,2.89H89v-.85a1.36,1.36,0,0,1-.53.72,1.68,1.68,0,0,1-1,.27,1.76,1.76,0,0,1-1.61-1,5.74,5.74,0,0,1-.55-2.8,4.64,4.64,0,0,1,.55-2.47,1.74,1.74,0,0,1,1.55-.88,1.9,1.9,0,0,1,1,.24,1.05,1.05,0,0,1,.51.62v-3h1ZM89,74.26a5.22,5.22,0,0,0-.29-2.08,1.12,1.12,0,0,0-2,0,4.64,4.64,0,0,0-.32,2,5.6,5.6,0,0,0,.3,2.15,1,1,0,0,0,1,.67,1.06,1.06,0,0,0,1-.63A5.09,5.09,0,0,0,89,74.26Zm-5.88,3.45V70.9h1v6.81Zm0-7.88V68.59h1v1.24Zm-2.38,7.88v-.88a1.62,1.62,0,0,1-.64.79A2,2,0,0,1,79,77.9a1.62,1.62,0,0,1-1.24-.42,1.93,1.93,0,0,1-.39-1.34V70.9h1v5.26a1,1,0,0,0,.21.66.78.78,0,0,0,.59.23,1.34,1.34,0,0,0,1.07-.43,1.7,1.7,0,0,0,.39-1.2V70.9h1v6.81ZM76,80H75V77a1.49,1.49,0,0,1-.6.64,1.65,1.65,0,0,1-.86.23A1.69,1.69,0,0,1,72,77a5.53,5.53,0,0,1-.51-2.71A5.1,5.1,0,0,1,72,71.63a1.77,1.77,0,0,1,1.61-.89,1.58,1.58,0,0,1,.93.29,1.21,1.21,0,0,1,.51.72V70.9H76Zm-.93-5.74a5.11,5.11,0,0,0-.3-2.07,1.07,1.07,0,0,0-1-.62,1,1,0,0,0-1,.63,5.1,5.1,0,0,0-.3,2,5.58,5.58,0,0,0,.29,2.1,1,1,0,0,0,.93.65,1.07,1.07,0,0,0,1-.67A4.94,4.94,0,0,0,75.05,74.28Zm-6,3.43V68.59h1.05v9.12Zm-5.77,0V68.59h1v8.14H68v1Z"/><path class="cls-5" d="M170.65,75.28h.72a2.43,2.43,0,0,1-.8,1.7,2.59,2.59,0,0,1-1.81.62,2.5,2.5,0,0,1-2-.87,3.61,3.61,0,0,1-.74-2.39,3.68,3.68,0,0,1,.75-2.45,2.54,2.54,0,0,1,2.05-.9,2.56,2.56,0,0,1,1.75.6,2.13,2.13,0,0,1,.74,1.56h-.7a1.7,1.7,0,0,0-.58-1.1,1.79,1.79,0,0,0-1.21-.41,1.77,1.77,0,0,0-1.49.71,3,3,0,0,0-.56,1.93,3.21,3.21,0,0,0,.56,2,1.83,1.83,0,0,0,1.5.73,1.75,1.75,0,0,0,1.23-.46,2,2,0,0,0,.61-1.25m-7.14-6.42a1.53,1.53,0,0,1,1.14.48,1.54,1.54,0,0,1,.48,1.14,1.62,1.62,0,0,1-1.63,1.62,1.59,1.59,0,0,1-1.15-.47,1.55,1.55,0,0,1-.46-1.15,1.59,1.59,0,0,1,.47-1.15A1.61,1.61,0,0,1,163.51,68.86Zm1.25,1.62a1.18,1.18,0,0,0-.37-.88,1.2,1.2,0,0,0-.88-.38,1.26,1.26,0,0,0-.89,2.15,1.23,1.23,0,0,0,.89.36,1.21,1.21,0,0,0,.88-.36A1.19,1.19,0,0,0,164.76,70.48ZM156,72.93a8.15,8.15,0,0,1,.57-3.61,2,2,0,0,1,1.89-1,2.11,2.11,0,0,1,1.15.29,2.58,2.58,0,0,1,.82.9,3.76,3.76,0,0,1,.37,1.27A15.71,15.71,0,0,1,161,73a8.3,8.3,0,0,1-.56,3.61,2,2,0,0,1-1.86,1.07,2,2,0,0,1-1.93-1A8.27,8.27,0,0,1,156,72.93Zm1.05,0a9.5,9.5,0,0,0,.32,3,1.12,1.12,0,0,0,1.1.81,1.08,1.08,0,0,0,1.09-.73,9.52,9.52,0,0,0,.31-3.09,9.17,9.17,0,0,0-.32-3,1.09,1.09,0,0,0-1.09-.79,1.11,1.11,0,0,0-1.1.75A9.52,9.52,0,0,0,157.08,72.91Zm-4.8,4.54V70.74h-1.94V70h.12a2.28,2.28,0,0,0,1.47-.41,1.79,1.79,0,0,0,.54-1.28h.79v9.18Zm-6,0V70.74H144.3V70h.12a2.28,2.28,0,0,0,1.47-.41,1.79,1.79,0,0,0,.54-1.28h.79v9.18Z"/><path class="cls-5" d="M170.65,126.72h.72a2.43,2.43,0,0,1-.8,1.7,2.59,2.59,0,0,1-1.81.63,2.51,2.51,0,0,1-2-.88,3.59,3.59,0,0,1-.74-2.38,3.69,3.69,0,0,1,.75-2.46,2.53,2.53,0,0,1,2.05-.89,2.56,2.56,0,0,1,1.75.59,2.15,2.15,0,0,1,.74,1.56h-.7a1.72,1.72,0,0,0-.58-1.1,1.85,1.85,0,0,0-1.21-.41,1.77,1.77,0,0,0-1.49.71,3.06,3.06,0,0,0-.56,1.93,3.21,3.21,0,0,0,.56,2,1.83,1.83,0,0,0,1.5.73A1.71,1.71,0,0,0,170,128a2,2,0,0,0,.61-1.25m-7.14-6.42a1.53,1.53,0,0,1,1.14.48,1.61,1.61,0,0,1,0,2.29,1.58,1.58,0,0,1-1.15.47,1.59,1.59,0,0,1-1.15-.47,1.55,1.55,0,0,1-.46-1.15,1.59,1.59,0,0,1,.47-1.15A1.61,1.61,0,0,1,163.51,120.3Zm1.25,1.62a1.18,1.18,0,0,0-.37-.88,1.2,1.2,0,0,0-.88-.38,1.22,1.22,0,0,0-.89.37,1.26,1.26,0,0,0,0,1.78,1.23,1.23,0,0,0,.89.36,1.21,1.21,0,0,0,.88-.36A1.19,1.19,0,0,0,164.76,121.92ZM156,124.37a8.15,8.15,0,0,1,.57-3.61,2,2,0,0,1,1.89-1,2.21,2.21,0,0,1,1.15.29,2.58,2.58,0,0,1,.82.9,3.76,3.76,0,0,1,.37,1.27,15.71,15.71,0,0,1,.12,2.21,8.3,8.3,0,0,1-.56,3.61,2,2,0,0,1-1.86,1.07,2,2,0,0,1-1.93-1A8.27,8.27,0,0,1,156,124.37Zm1.05,0a9.62,9.62,0,0,0,.32,3,1.11,1.11,0,0,0,1.1.8,1.08,1.08,0,0,0,1.09-.73,9.48,9.48,0,0,0,.31-3.09,9.17,9.17,0,0,0-.32-3,1.09,1.09,0,0,0-1.09-.79,1.11,1.11,0,0,0-1.1.75A9.52,9.52,0,0,0,157.08,124.35Zm-4.8,4.54v-6.71h-1.94v-.78h.12a2.28,2.28,0,0,0,1.47-.41,1.79,1.79,0,0,0,.54-1.28h.79v9.18Zm-6,0v-6.71H144.3v-.78h.12a2.28,2.28,0,0,0,1.47-.41,1.79,1.79,0,0,0,.54-1.28h.79v9.18Z"/><rect class="cls-2" x="55.29" y="21.61" width="81.99" height="20.99"/><rect class="cls-3" x="55.29" y="21.61" width="81.99" height="20.99"/><path class="cls-5" d="M152.3,13.16a2.06,2.06,0,0,0,.49,1.05,1.4,1.4,0,0,0,1,.35,1.61,1.61,0,0,0,.63-.12,1.1,1.1,0,0,0,.45-.38,1.24,1.24,0,0,0,.16-.66,1.41,1.41,0,0,0-.13-.64,1.58,1.58,0,0,0-.44-.51,4.79,4.79,0,0,0-.84-.52,6.62,6.62,0,0,1-.84-.48,2.8,2.8,0,0,1-.63-.54,2.08,2.08,0,0,1-.41-.66,2,2,0,0,1-.15-.8A2.06,2.06,0,0,1,152,8,2.24,2.24,0,0,1,153,7.24,4.51,4.51,0,0,1,154.6,7a8.07,8.07,0,0,1,1,.06,9.45,9.45,0,0,1,1.1.19V9h-.81a2.78,2.78,0,0,0-.29-.74,1.08,1.08,0,0,0-.44-.41,1.41,1.41,0,0,0-.66-.13,1.46,1.46,0,0,0-.6.12,1,1,0,0,0-.42.35,1.05,1.05,0,0,0-.15.57,1.22,1.22,0,0,0,.13.59,1.56,1.56,0,0,0,.45.49,5.8,5.8,0,0,0,.91.55,5.1,5.1,0,0,1,1.14.75,2.28,2.28,0,0,1,.62.79,2.41,2.41,0,0,1,.2,1,2.29,2.29,0,0,1-.34,1.26,2.18,2.18,0,0,1-1,.83,3.67,3.67,0,0,1-1.49.28,10.88,10.88,0,0,1-1.26-.07,10.6,10.6,0,0,1-1.23-.19V13.16Zm-6.18-5.38v3.29h.59a1.92,1.92,0,0,0,.78-.13,1.12,1.12,0,0,0,.49-.35,1.35,1.35,0,0,0,.25-.54,3.45,3.45,0,0,0,.07-.67,1.72,1.72,0,0,0-.38-1.21,1.47,1.47,0,0,0-1.13-.4Zm.64,7.38h-3.11v-.39a1.88,1.88,0,0,0,.35-.13.44.44,0,0,0,.19-.19.82.82,0,0,0,.08-.31c0-.12,0-.28,0-.47V8.57c0-.19,0-.35,0-.47a.84.84,0,0,0-.07-.31A.5.5,0,0,0,144,7.6a1.42,1.42,0,0,0-.36-.14V7.07h3.46a6.7,6.7,0,0,1,1.19.1,3.26,3.26,0,0,1,.85.3,1.66,1.66,0,0,1,.52.42,1.94,1.94,0,0,1,.33.58,2.37,2.37,0,0,1,.12.78,2.2,2.2,0,0,1-.21,1,2.18,2.18,0,0,1-.55.69,4.34,4.34,0,0,1-.93.52v0a2.08,2.08,0,0,1,.73.51,3.57,3.57,0,0,1,.52.8l.37.81a3.17,3.17,0,0,0,.5.81,1,1,0,0,0,.58.33v.39h-2.28a9.18,9.18,0,0,1-.78-1.41l-.46-1a4.25,4.25,0,0,0-.35-.65,1,1,0,0,0-.31-.26,1.39,1.39,0,0,0-.48-.07h-.35v1.91a3.9,3.9,0,0,0,0,.62.56.56,0,0,0,.17.29,1.17,1.17,0,0,0,.43.19ZM137.16,11a6.45,6.45,0,0,0,.43,2.67,1.4,1.4,0,0,0,1.32.87,1.19,1.19,0,0,0,.77-.25,1.74,1.74,0,0,0,.52-.68,3.83,3.83,0,0,0,.28-1.05,9,9,0,0,0,.09-1.33,8.47,8.47,0,0,0-.19-2,2.58,2.58,0,0,0-.56-1.2,1.25,1.25,0,0,0-1-.41,1.36,1.36,0,0,0-1.28.82A5.81,5.81,0,0,0,137.16,11Zm1.61,4.23a3.28,3.28,0,0,1-2.62-1,4.59,4.59,0,0,1-.87-3.05,5.58,5.58,0,0,1,.42-2.27A3.16,3.16,0,0,1,137,7.47a3.73,3.73,0,0,1,2-.49,3.34,3.34,0,0,1,2.66,1,4.45,4.45,0,0,1,.89,3,6,6,0,0,1-.27,1.92,3.27,3.27,0,0,1-.75,1.32,2.83,2.83,0,0,1-1.16.76A4.47,4.47,0,0,1,138.77,15.25Zm-9.28-.09v-.39a2.1,2.1,0,0,0,.39-.11.48.48,0,0,0,.22-.2.67.67,0,0,0,.09-.31c0-.13,0-.29,0-.48V7.77h-.48a1.36,1.36,0,0,0-.55.08.81.81,0,0,0-.33.26,1.79,1.79,0,0,0-.24.48c-.06.2-.12.38-.16.56h-.82V7.07h7V9.15h-.82c-.07-.27-.13-.46-.17-.59a2.44,2.44,0,0,0-.15-.32A.8.8,0,0,0,133.3,8a.9.9,0,0,0-.19-.15,1.05,1.05,0,0,0-.25-.08,2.18,2.18,0,0,0-.39,0H132v5.9c0,.21,0,.37,0,.48a.83.83,0,0,0,.06.26.52.52,0,0,0,.12.16.69.69,0,0,0,.19.12,1.59,1.59,0,0,0,.33.08v.39Zm-2.75-7.9V9h-.8a2.08,2.08,0,0,0-.45-1,1.1,1.1,0,0,0-.81-.32,1.52,1.52,0,0,0-1.41.9,5.66,5.66,0,0,0-.48,2.66,5.62,5.62,0,0,0,.43,2.49,1.41,1.41,0,0,0,1.29.84,1.43,1.43,0,0,0,.7-.15,1.07,1.07,0,0,0,.44-.43,3.23,3.23,0,0,0,.28-.82h.81V15c-.43.1-.83.17-1.19.22a8.11,8.11,0,0,1-1.12.07,4.1,4.1,0,0,1-2-.44,2.71,2.71,0,0,1-1.15-1.34,6.18,6.18,0,0,1-.37-2.28A5.31,5.31,0,0,1,121.34,9a3.28,3.28,0,0,1,1.28-1.47,3.86,3.86,0,0,1,2-.51,9.06,9.06,0,0,1,1.09.06A8.39,8.39,0,0,1,126.74,7.26ZM115.12,12h2.13l-1-3.33Zm2.3.69h-2.53l-.19.56c-.06.16-.1.32-.14.46a2.42,2.42,0,0,0,0,.47.57.57,0,0,0,.61.63v.39h-2.53v-.39a.76.76,0,0,0,.39-.16,1.31,1.31,0,0,0,.3-.35,3.8,3.8,0,0,0,.29-.65L116,7h1.58l2,6.64a4.25,4.25,0,0,0,.22.63.76.76,0,0,0,.23.3,1,1,0,0,0,.39.17v.39h-3.27v-.39a.85.85,0,0,0,.46-.17.53.53,0,0,0,.15-.39,3.32,3.32,0,0,0,0-.41c0-.15-.08-.34-.14-.57Zm-7.4,1c0,.21,0,.37,0,.48a.62.62,0,0,0,.07.26.5.5,0,0,0,.11.16.69.69,0,0,0,.19.12,1.59,1.59,0,0,0,.33.08v.39h-3.19v-.39a1.36,1.36,0,0,0,.35-.13.39.39,0,0,0,.19-.19.82.82,0,0,0,.08-.31c0-.13,0-.29,0-.47V8.57c0-.19,0-.35,0-.47a.84.84,0,0,0-.07-.31.58.58,0,0,0-.19-.19,1.59,1.59,0,0,0-.36-.14V7.07h5.73V9h-.81a3.88,3.88,0,0,0-.33-.77,1.08,1.08,0,0,0-.33-.31,1.29,1.29,0,0,0-.64-.11H110v3h.76a.83.83,0,0,0,.43-.09.63.63,0,0,0,.25-.28,2.07,2.07,0,0,0,.16-.57h.67v2.58h-.67a2,2,0,0,0-.17-.58.63.63,0,0,0-.25-.28.82.82,0,0,0-.42-.09H110ZM96.14,15.16v-.39a2.1,2.1,0,0,0,.39-.11.48.48,0,0,0,.22-.2,1,1,0,0,0,.09-.31c0-.13,0-.29,0-.48V7.77h-.48a1.34,1.34,0,0,0-.54.08.75.75,0,0,0-.33.26,1.79,1.79,0,0,0-.24.48,4.84,4.84,0,0,0-.16.56h-.82V7.07h7V9.15h-.81a5.67,5.67,0,0,0-.18-.59,1.61,1.61,0,0,0-.14-.32A.8.8,0,0,0,100,8a.9.9,0,0,0-.19-.15,1.23,1.23,0,0,0-.25-.08,2.18,2.18,0,0,0-.39,0h-.43v5.9c0,.21,0,.37,0,.48a.83.83,0,0,0,.06.26.4.4,0,0,0,.12.16.57.57,0,0,0,.19.12,1.59,1.59,0,0,0,.33.08v.39Zm-2.75-7.9V9h-.8a2,2,0,0,0-.46-1,1.06,1.06,0,0,0-.8-.32,1.53,1.53,0,0,0-1.42.9,5.79,5.79,0,0,0-.48,2.66,5.6,5.6,0,0,0,.44,2.49,1.39,1.39,0,0,0,1.29.84,1.43,1.43,0,0,0,.7-.15A1.07,1.07,0,0,0,92.3,14a3.23,3.23,0,0,0,.28-.82h.81V15c-.43.1-.83.17-1.19.22a8.11,8.11,0,0,1-1.12.07,4.1,4.1,0,0,1-2-.44,2.71,2.71,0,0,1-1.15-1.34,6,6,0,0,1-.37-2.28A5.31,5.31,0,0,1,88,9a3.28,3.28,0,0,1,1.28-1.47,3.84,3.84,0,0,1,2-.51A9.06,9.06,0,0,1,92.38,7,8.39,8.39,0,0,1,93.39,7.26Zm-8.87,1.3a3,3,0,0,0,0-.62.48.48,0,0,0-.15-.28,1.07,1.07,0,0,0-.43-.2V7.07h2.6v.39a2.45,2.45,0,0,0-.34.13.58.58,0,0,0-.19.19.82.82,0,0,0-.08.31c0,.12,0,.28,0,.47v3.7a6,6,0,0,1-.11,1.23,2.35,2.35,0,0,1-.37.83,1.92,1.92,0,0,1-.62.55,2.72,2.72,0,0,1-.83.29,5.52,5.52,0,0,1-1,.09,5.26,5.26,0,0,1-1.42-.17,2.43,2.43,0,0,1-1-.53,2.12,2.12,0,0,1-.53-.86,3.85,3.85,0,0,1-.18-1.29V8.57c0-.19,0-.35,0-.47a.82.82,0,0,0-.08-.31.44.44,0,0,0-.19-.19,1.33,1.33,0,0,0-.35-.14V7.07H82.3v.39a1.68,1.68,0,0,0-.36.14.47.47,0,0,0-.18.19,1.25,1.25,0,0,0-.08.27c0,.12,0,.28,0,.51v3.9a5.61,5.61,0,0,0,.06.86,2.13,2.13,0,0,0,.21.66,1.11,1.11,0,0,0,.44.42,1.47,1.47,0,0,0,.71.15,1.43,1.43,0,0,0,.91-.24,1.37,1.37,0,0,0,.41-.68,5.23,5.23,0,0,0,.12-1.3ZM73.23,14.44a4.87,4.87,0,0,0,.54,0,2.88,2.88,0,0,0,1.09-.19,1.8,1.8,0,0,0,.57-.39A2.77,2.77,0,0,0,76,12.82a6.23,6.23,0,0,0,.21-1.74,5.05,5.05,0,0,0-.3-1.87,2.27,2.27,0,0,0-.85-1.09,2.33,2.33,0,0,0-1.31-.35h-.53Zm.61-7.37a7,7,0,0,1,1.65.16,3.66,3.66,0,0,1,1.18.48,3,3,0,0,1,.83.79A3.35,3.35,0,0,1,78,9.57a5.66,5.66,0,0,1,.16,1.37,6,6,0,0,1-.22,1.66,3.31,3.31,0,0,1-.65,1.25,3,3,0,0,1-.94.77,3.92,3.92,0,0,1-1.29.43,9.83,9.83,0,0,1-1.58.11H70.76v-.39a2.2,2.2,0,0,0,.35-.13.47.47,0,0,0,.18-.19.81.81,0,0,0,.09-.31c0-.12,0-.28,0-.47V8.57c0-.19,0-.35,0-.47a.82.82,0,0,0-.08-.31.44.44,0,0,0-.19-.19,1.33,1.33,0,0,0-.35-.14V7.07ZM64.27,11a6.28,6.28,0,0,0,.43,2.67,1.38,1.38,0,0,0,1.31.87,1.19,1.19,0,0,0,.77-.25,1.65,1.65,0,0,0,.52-.68,3.82,3.82,0,0,0,.29-1.05,9.05,9.05,0,0,0,.08-1.33,9.12,9.12,0,0,0-.18-2,2.59,2.59,0,0,0-.57-1.2,1.25,1.25,0,0,0-1-.41,1.34,1.34,0,0,0-1.27.82A5.81,5.81,0,0,0,64.27,11Zm1.6,4.23a3.24,3.24,0,0,1-2.61-1,4.59,4.59,0,0,1-.87-3.05,5.58,5.58,0,0,1,.42-2.27,3.1,3.1,0,0,1,1.25-1.44A3.69,3.69,0,0,1,66,7a3.32,3.32,0,0,1,2.66,1,4.4,4.4,0,0,1,.89,3,6,6,0,0,1-.26,1.92,3.52,3.52,0,0,1-.75,1.32,2.83,2.83,0,0,1-1.16.76A4.57,4.57,0,0,1,65.87,15.25ZM57,7.78v3.29h.59a1.92,1.92,0,0,0,.78-.13,1.12,1.12,0,0,0,.49-.35,1.35,1.35,0,0,0,.25-.54,3.45,3.45,0,0,0,.07-.67,1.72,1.72,0,0,0-.38-1.21,1.47,1.47,0,0,0-1.13-.4Zm.64,7.38H54.57v-.39a1.88,1.88,0,0,0,.35-.13.44.44,0,0,0,.19-.19.82.82,0,0,0,.08-.31c0-.12,0-.28,0-.47V8.57c0-.19,0-.35,0-.47a.84.84,0,0,0-.07-.31.58.58,0,0,0-.19-.19,1.59,1.59,0,0,0-.36-.14V7.07H58a6.49,6.49,0,0,1,1.18.1,3.21,3.21,0,0,1,.86.3,1.66,1.66,0,0,1,.52.42,1.94,1.94,0,0,1,.33.58,2.37,2.37,0,0,1,.12.78,2.2,2.2,0,0,1-.21,1,2.18,2.18,0,0,1-.55.69,4.34,4.34,0,0,1-.93.52v0a2.08,2.08,0,0,1,.73.51,3.57,3.57,0,0,1,.52.8l.37.81a3.49,3.49,0,0,0,.49.81,1,1,0,0,0,.59.33v.39H59.77A9.18,9.18,0,0,1,59,13.75l-.46-1a4.25,4.25,0,0,0-.35-.65,1,1,0,0,0-.31-.26,1.39,1.39,0,0,0-.48-.07H57v1.91a3.9,3.9,0,0,0,0,.62.56.56,0,0,0,.17.29,1.09,1.09,0,0,0,.43.19ZM49.6,11.11h.51a2.08,2.08,0,0,0,.94-.17,1.12,1.12,0,0,0,.52-.53,2.48,2.48,0,0,0,.17-1,2.4,2.4,0,0,0-.17-1,1,1,0,0,0-.5-.52,2,2,0,0,0-.83-.15H49.6Zm0,2.57a3.45,3.45,0,0,0,0,.55.62.62,0,0,0,.1.26.43.43,0,0,0,.19.16,1.65,1.65,0,0,0,.39.12v.39H47.13v-.39a2.2,2.2,0,0,0,.35-.13.47.47,0,0,0,.18-.19.81.81,0,0,0,.09-.31c0-.12,0-.28,0-.47V8.57c0-.19,0-.35,0-.47a.82.82,0,0,0-.08-.31.44.44,0,0,0-.19-.19,1.33,1.33,0,0,0-.35-.14V7.07h3.44a3.79,3.79,0,0,1,2.24.54,1.9,1.9,0,0,1,.75,1.65,2.66,2.66,0,0,1-.35,1.37,2.24,2.24,0,0,1-1,.88,4.21,4.21,0,0,1-1.66.3c-.38,0-.7,0-.94,0Z"/><path class="cls-5" d="M41.34,32.69a4,4,0,0,0-.16-1,1.27,1.27,0,0,0-.37-.62,1,1,0,0,0-.65-.21,1.15,1.15,0,0,0-1,.48,2.58,2.58,0,0,0-.43,1.4Zm1,2.4a5.35,5.35,0,0,1-.7.63,2.8,2.8,0,0,1-.69.35,2.75,2.75,0,0,1-.84.12,2.27,2.27,0,0,1-1.84-.73,3.26,3.26,0,0,1-.62-2.16A3.64,3.64,0,0,1,38,31.75a2.37,2.37,0,0,1,2.26-1.41,2.41,2.41,0,0,1,1,.19,1.73,1.73,0,0,1,.67.51,2.34,2.34,0,0,1,.39.84,5.39,5.39,0,0,1,.16,1.3H38.73v.11a3.91,3.91,0,0,0,.15,1.17,1.41,1.41,0,0,0,1.45,1,2,2,0,0,0,.87-.18,2.67,2.67,0,0,0,.78-.59ZM29.11,31.35l.09,0a7.44,7.44,0,0,1,.58-.53,2.55,2.55,0,0,1,.44-.29,1.59,1.59,0,0,1,.4-.16,1.65,1.65,0,0,1,.38-.05,1.55,1.55,0,0,1,1,.28,1.38,1.38,0,0,1,.51.83,8.44,8.44,0,0,1,.72-.66,2.79,2.79,0,0,1,.57-.33,1.56,1.56,0,0,1,.62-.12,1.76,1.76,0,0,1,.68.12,1.2,1.2,0,0,1,.48.35,1.4,1.4,0,0,1,.3.61,4.14,4.14,0,0,1,.09,1v2.23a4.18,4.18,0,0,0,0,.62,1.1,1.1,0,0,0,.08.27.66.66,0,0,0,.17.16,1.54,1.54,0,0,0,.38.14v.29H34.27v-.29l.33-.12a.5.5,0,0,0,.17-.15.65.65,0,0,0,.11-.3,3,3,0,0,0,0-.6V33.09c0-.33,0-.61,0-.83a2.72,2.72,0,0,0-.08-.52.82.82,0,0,0-.14-.31.83.83,0,0,0-.41-.33,1.25,1.25,0,0,0-.36-.05,1.14,1.14,0,0,0-.45.1,1.78,1.78,0,0,0-.44.32,1.53,1.53,0,0,0-.35.45,1.27,1.27,0,0,0-.1.54v2.16a4.18,4.18,0,0,0,0,.62.79.79,0,0,0,.08.27.53.53,0,0,0,.17.16,1.39,1.39,0,0,0,.38.14v.29H30.89v-.29l.33-.12a.5.5,0,0,0,.17-.15.79.79,0,0,0,.11-.3,4,4,0,0,0,0-.6V33.09c0-.35,0-.64,0-.86a2.74,2.74,0,0,0-.09-.53.9.9,0,0,0-.36-.52.85.85,0,0,0-.24-.09,1,1,0,0,0-.31,0,1,1,0,0,0-.45.11,2.31,2.31,0,0,0-.44.32,1.42,1.42,0,0,0-.33.43,1,1,0,0,0-.12.49v2.22c0,.22,0,.4,0,.51a.84.84,0,0,0,.06.28.68.68,0,0,0,.09.17.71.71,0,0,0,.17.11,2,2,0,0,0,.33.12v.29H27.52v-.29l.32-.12a.5.5,0,0,0,.17-.15.65.65,0,0,0,.11-.29,4.16,4.16,0,0,0,0-.61V32.05c0-.25,0-.45,0-.61a.81.81,0,0,0-.08-.37.43.43,0,0,0-.22-.2,1.35,1.35,0,0,0-.41-.12v-.31l1.39-.05h.36Zm-4.19,2a4.15,4.15,0,0,0-1.81.32,1,1,0,0,0-.59.93.93.93,0,0,0,.13.53.76.76,0,0,0,.35.27,1.44,1.44,0,0,0,.49.08,1.4,1.4,0,0,0,.73-.2,1.44,1.44,0,0,0,.51-.5,1.17,1.17,0,0,0,.19-.6Zm.1,1.85-.09,0A3.62,3.62,0,0,1,24,36a2.11,2.11,0,0,1-1,.22,1.71,1.71,0,0,1-.8-.17,1.23,1.23,0,0,1-.52-.49,1.37,1.37,0,0,1-.19-.73,1.48,1.48,0,0,1,.86-1.34,6.07,6.07,0,0,1,2.57-.55v-.38a3.1,3.1,0,0,0-.12-1,1,1,0,0,0-.38-.52,1.22,1.22,0,0,0-.68-.17,1.1,1.1,0,0,0-.74.24,1.44,1.44,0,0,0-.42.73H21.8v-.77a7.07,7.07,0,0,1,.95-.43,4.25,4.25,0,0,1,.75-.22,4,4,0,0,1,.78-.08,2.1,2.1,0,0,1,.94.18,1.27,1.27,0,0,1,.53.57,2.92,2.92,0,0,1,.18,1.17v2.68a3,3,0,0,0,0,.33.73.73,0,0,0,.09.25.42.42,0,0,0,.17.15,1.72,1.72,0,0,0,.38.14v.29H25ZM18.23,32.9a6.37,6.37,0,0,1,.36.62,6.7,6.7,0,0,1,.3.6H19c0-.25,0-.72,0-1.44s0-1.36,0-1.94V29.5c0-.27,0-.48,0-.6a.66.66,0,0,0-.09-.29.55.55,0,0,0-.17-.17,2,2,0,0,0-.38-.13V28h2.13v.29a1.36,1.36,0,0,0-.37.13.45.45,0,0,0-.18.15.73.73,0,0,0-.11.29,4.37,4.37,0,0,0,0,.62v6.64h-.74l-3.3-5.54c-.21-.34-.35-.59-.44-.75a5.21,5.21,0,0,1-.24-.47h-.1q0,.47.06,1.65c0,.8,0,1.59,0,2.38v1.21a4,4,0,0,0,0,.58.9.9,0,0,0,.09.29.52.52,0,0,0,.18.18,1.77,1.77,0,0,0,.4.14v.29H13.46v-.29A1.2,1.2,0,0,0,14,35.6a.64.64,0,0,0,.16-.33,3.51,3.51,0,0,0,0-.65V29.5a4.23,4.23,0,0,0,0-.6.7.7,0,0,0-.1-.29.49.49,0,0,0-.18-.17,2,2,0,0,0-.38-.13V28h1.85Z"/><path class="cls-5" d="M116.7,34.82a3.49,3.49,0,0,0,0,.7.48.48,0,0,0,.18.3,1.16,1.16,0,0,0,.44.18v.3H115V36a1.26,1.26,0,0,0,.42-.16.48.48,0,0,0,.16-.19.89.89,0,0,0,.07-.32,3.71,3.71,0,0,0,0-.51v-5c0-.38,0-.65,0-.8a2.11,2.11,0,0,0,0-.38.9.9,0,0,0-.11-.24.65.65,0,0,0-.18-.15,2.15,2.15,0,0,0-.42-.1v-.31l1.43-.06h.35Zm-4.18-1.23a4.29,4.29,0,0,0-1.8.32,1,1,0,0,0-.6.93.94.94,0,0,0,.14.54.69.69,0,0,0,.34.27,1.45,1.45,0,0,0,.49.07,1.29,1.29,0,0,0,.73-.2,1.44,1.44,0,0,0,.52-.49,1.16,1.16,0,0,0,.18-.6Zm.1,1.86-.09,0a3.39,3.39,0,0,1-1,.75,2.11,2.11,0,0,1-1,.22,1.67,1.67,0,0,1-.79-.18,1.15,1.15,0,0,1-.53-.49,1.49,1.49,0,0,1,.67-2.06,6,6,0,0,1,2.57-.55v-.39a3.15,3.15,0,0,0-.12-1,1,1,0,0,0-.37-.52,1.25,1.25,0,0,0-.68-.16,1.13,1.13,0,0,0-.75.24,1.47,1.47,0,0,0-.42.73h-.77v-.77a5.87,5.87,0,0,1,1.7-.66,3.94,3.94,0,0,1,.77-.08,1.94,1.94,0,0,1,.94.19,1.15,1.15,0,0,1,.54.57,3.08,3.08,0,0,1,.17,1.16v2.06c0,.3,0,.5,0,.62a1.87,1.87,0,0,0,0,.34.67.67,0,0,0,.09.24.47.47,0,0,0,.18.16,1.68,1.68,0,0,0,.37.13v.3h-1.62Zm-6.79.55a1.47,1.47,0,0,0,.33-.12.46.46,0,0,0,.16-.15.73.73,0,0,0,.11-.29,4.05,4.05,0,0,0,0-.61V32.25c0-.25,0-.46,0-.61a.91.91,0,0,0-.09-.37.47.47,0,0,0-.21-.21,2.07,2.07,0,0,0-.42-.11v-.32l1.39-.05h.36v4.24a3.72,3.72,0,0,0,0,.7.53.53,0,0,0,.18.3,1.24,1.24,0,0,0,.44.18v.3h-2.32Zm1.69-7.69v1.15h-1.09V28.31Zm-5.11,3.31h.08a4.5,4.5,0,0,1,.61-.62,2.14,2.14,0,0,1,.6-.35,1.9,1.9,0,0,1,.73-.13,3.87,3.87,0,0,1,.62,0v1.36h-.67a1.22,1.22,0,0,0-.3-.46.6.6,0,0,0-.44-.15.76.76,0,0,0-.42.13,1.65,1.65,0,0,0-.41.36,1.37,1.37,0,0,0-.26.44,1.44,1.44,0,0,0-.08.49v2.08a2.55,2.55,0,0,0,.07.74.52.52,0,0,0,.21.3,1.25,1.25,0,0,0,.46.14v.3h-2.39V36a1.2,1.2,0,0,0,.32-.12.49.49,0,0,0,.17-.15.73.73,0,0,0,.11-.29,4.4,4.4,0,0,0,0-.61V32.25c0-.25,0-.46,0-.61a1.13,1.13,0,0,0-.08-.37.5.5,0,0,0-.22-.21,1.79,1.79,0,0,0-.41-.11v-.31l1.39-.06h.36Zm-3.78,1.26a4,4,0,0,0-.16-1,1.23,1.23,0,0,0-.37-.62.93.93,0,0,0-.65-.22,1.16,1.16,0,0,0-1,.49,2.63,2.63,0,0,0-.42,1.39Zm1,2.41a5.2,5.2,0,0,1-.7.62,2.58,2.58,0,0,1-1.53.48,2.27,2.27,0,0,1-1.84-.73,3.29,3.29,0,0,1-.62-2.16,3.65,3.65,0,0,1,.31-1.56,2.44,2.44,0,0,1,.91-1,2.53,2.53,0,0,1,1.35-.37,2.58,2.58,0,0,1,1,.19,1.76,1.76,0,0,1,.67.52,2.37,2.37,0,0,1,.39.83,5.49,5.49,0,0,1,.16,1.31H96v.1a4,4,0,0,0,.15,1.18,1.54,1.54,0,0,0,.52.74,1.51,1.51,0,0,0,.93.27,2,2,0,0,0,.87-.18,2.51,2.51,0,0,0,.78-.59Zm-9.09-4.36a1.18,1.18,0,0,0,.48-.17.83.83,0,0,0,.29-.3,1.72,1.72,0,0,0,.16-.47c0-.19.08-.46.13-.82h.84v1.46h1.91v.6H92.44v2.64a7.46,7.46,0,0,0,0,.91,1.42,1.42,0,0,0,.18.53.79.79,0,0,0,.3.28.89.89,0,0,0,.43.08,1.12,1.12,0,0,0,.44-.09,1.72,1.72,0,0,0,.41-.29l.26.32a3.23,3.23,0,0,1-.79.6,1.78,1.78,0,0,1-.78.18,1.4,1.4,0,0,1-1.14-.45,2.23,2.23,0,0,1-.37-1.42V31.23h-.88ZM88.3,33.59a4.26,4.26,0,0,0-1.8.32,1,1,0,0,0-.6.93.94.94,0,0,0,.14.54.69.69,0,0,0,.34.27,1.45,1.45,0,0,0,.49.07,1.32,1.32,0,0,0,.73-.2,1.34,1.34,0,0,0,.51-.49,1.09,1.09,0,0,0,.19-.6Zm.1,1.86-.09,0a3.53,3.53,0,0,1-1,.75,2.11,2.11,0,0,1-1,.22,1.65,1.65,0,0,1-.79-.18,1.15,1.15,0,0,1-.53-.49,1.47,1.47,0,0,1,.67-2.06,6,6,0,0,1,2.57-.55v-.39a3.15,3.15,0,0,0-.12-1,1,1,0,0,0-.37-.52,1.25,1.25,0,0,0-.68-.16,1.13,1.13,0,0,0-.75.24A1.4,1.4,0,0,0,86,32h-.78v-.77a8,8,0,0,1,.95-.44,6.61,6.61,0,0,1,.76-.22,3.94,3.94,0,0,1,.77-.08,2,2,0,0,1,.94.19,1.14,1.14,0,0,1,.53.57,2.86,2.86,0,0,1,.18,1.16v2.06c0,.3,0,.5,0,.62a1.87,1.87,0,0,0,0,.34.67.67,0,0,0,.09.24.47.47,0,0,0,.18.16A1.5,1.5,0,0,0,90,36v.3H88.37Zm-4.72-7a1.5,1.5,0,0,0-.37.13.52.52,0,0,0-.19.17.74.74,0,0,0-.1.29,4.33,4.33,0,0,0,0,.6v5.13a4.1,4.1,0,0,0,0,.58.66.66,0,0,0,.08.28.47.47,0,0,0,.19.18,1.3,1.3,0,0,0,.39.14v.3H81.21V36a1.2,1.2,0,0,0,.47-.18.53.53,0,0,0,.18-.32,3.54,3.54,0,0,0,0-.68V32.55c0-.6,0-1.2,0-1.81s0-1,.06-1.26h-.1l-2.34,5.87h-.68l-2.18-6h-.1c0,.24,0,.68,0,1.31s0,1.28,0,1.95v2.17a4.1,4.1,0,0,0,0,.58.55.55,0,0,0,.09.28.39.39,0,0,0,.18.18,1.3,1.3,0,0,0,.39.14v.3H75.2V36a1.08,1.08,0,0,0,.49-.21.52.52,0,0,0,.17-.32,4.83,4.83,0,0,0,0-.65V29.69a4.07,4.07,0,0,0,0-.59.81.81,0,0,0-.1-.29.58.58,0,0,0-.18-.17,2.28,2.28,0,0,0-.39-.14v-.29h2.12L79.39,34l2.29-5.76h2Z"/></g></g></svg>