<svg xmlns="http://www.w3.org/2000/svg" viewBox="0 0 203.86 463.48"><defs><style>.cls-1{fill:#00aced;}.cls-1,.cls-11,.cls-3{fill-rule:evenodd;}.cls-10,.cls-12,.cls-2,.cls-4,.cls-5,.cls-8,.cls-9{fill:none;}.cls-12,.cls-2,.cls-4,.cls-5,.cls-8,.cls-9{stroke:#2f3190;}.cls-10,.cls-12,.cls-2,.cls-4,.cls-5{stroke-miterlimit:22.93;}.cls-10,.cls-2{stroke-width:1.24px;}.cls-3,.cls-6{fill:#fff;}.cls-4{stroke-width:1.7px;}.cls-5{stroke-width:1.02px;}.cls-7{fill:#2f3190;}.cls-8,.cls-9{stroke-linejoin:round;}.cls-8{stroke-width:0.74px;}.cls-9{stroke-width:1.4px;}.cls-10{stroke:#232020;}.cls-11{fill:#a9dff7;}.cls-12{stroke-width:1.02px;}</style></defs><g id="Layer_2" data-name="Layer 2"><g id="Layer_1-2" data-name="Layer 1"><path class="cls-1" d="M7.17.62H196.69c3.6,0,6.55,2.54,6.55,5.64v451c0,3.1-3,5.64-6.55,5.64H7.17c-3.6,0-6.55-2.54-6.55-5.64V6.26C.62,3.16,3.57.62,7.17.62Z"/><path class="cls-2" d="M7.17.62H196.69c3.6,0,6.55,2.54,6.55,5.64v451c0,3.1-3,5.64-6.55,5.64H7.17c-3.6,0-6.55-2.54-6.55-5.64V6.26C.62,3.16,3.57.62,7.17.62Z"/><path class="cls-3" d="M15.77,228.53c-.06.78,0,1.66-.07,2.44a3.43,3.43,0,0,0-.65,2.32c0,2,0,4,0,5.92,2,9.6,33.17,9.6,35.2,0,0-2,0-4,0-5.92a3.43,3.43,0,0,0-.66-2.32c0-.78,0-1.66-.07-2.44C48.36,218.11,16.9,218.11,15.77,228.53Z"/><path class="cls-2" d="M15.77,228.53c-.06.78,0,1.66-.07,2.44a3.43,3.43,0,0,0-.65,2.32c0,2,0,4,0,5.92,2,9.6,33.17,9.6,35.2,0,0-2,0-4,0-5.92a3.43,3.43,0,0,0-.66-2.32c0-.78,0-1.66-.07-2.44C48.36,218.11,16.9,218.11,15.77,228.53Z"/><path class="cls-2" d="M15.65,231.05c-1,10.87,35,10.87,34,0"/><path class="cls-4" d="M32.63,274.4c8.1,0,14.66,1.85,14.66,4.14s-6.56,4.13-14.66,4.13S18,280.82,18,278.54,24.53,274.4,32.63,274.4Zm0-.91c9.88,0,17.9,2.26,17.9,5.05s-8,5-17.9,5-17.9-2.26-17.9-5S22.74,273.49,32.63,273.49Z"/><path class="cls-3" d="M32.63,274.4c8.09,0,14.66,1.85,14.66,4.14s-6.57,4.13-14.66,4.13S18,280.82,18,278.54s6.57-4.14,14.67-4.14m0-.91c9.88,0,17.9,2.26,17.9,5.05s-8,5-17.9,5-17.9-2.26-17.9-5S22.74,273.49,32.63,273.49Z"/><path class="cls-5" d="M32.64,274.41c8.1,0,14.66,1.85,14.66,4.14s-6.56,4.13-14.66,4.13S18,280.83,18,278.55,24.54,274.41,32.64,274.41Z"/><path class="cls-3" d="M32.63,274.4c8.09,0,14.66,1.85,14.66,4.14s-6.57,4.13-14.66,4.13S18,280.82,18,278.54s6.56-4.14,14.66-4.14"/><path class="cls-3" d="M17.46,59.61H47.79V41.84a15.17,15.17,0,1,0-30.33,0Z"/><path class="cls-2" d="M17.46,59.61H47.79V41.84a15.17,15.17,0,1,0-30.33,0Z"/><line class="cls-2" x1="17.46" y1="57.37" x2="47.79" y2="57.37"/><path class="cls-6" d="M165.51,41.49l.09,0a4.8,4.8,0,0,1,.63-.64,2.22,2.22,0,0,1,.63-.36,2.11,2.11,0,0,1,.77-.13,4.28,4.28,0,0,1,.65,0v1.4h-.7a1.25,1.25,0,0,0-.32-.48.64.64,0,0,0-.45-.15.86.86,0,0,0-.45.13,1.42,1.42,0,0,0-.42.37,1.69,1.69,0,0,0-.29.45,1.53,1.53,0,0,0-.07.51v2.13a2.62,2.62,0,0,0,.07.76.52.52,0,0,0,.22.31,1.36,1.36,0,0,0,.48.15v.3h-2.51V46a1.61,1.61,0,0,0,.34-.13.43.43,0,0,0,.18-.15.61.61,0,0,0,.11-.3,3.15,3.15,0,0,0,0-.62V42.14c0-.26,0-.47,0-.62a.92.92,0,0,0-.09-.38.49.49,0,0,0-.23-.22,2.69,2.69,0,0,0-.43-.12v-.31l1.46-.06h.37Zm-4,1.3a4.76,4.76,0,0,0-.16-1.07,1.33,1.33,0,0,0-.4-.64,1,1,0,0,0-.68-.22,1.23,1.23,0,0,0-1,.5,2.58,2.58,0,0,0-.45,1.43Zm1,2.48a6.28,6.28,0,0,1-.73.64,3.3,3.3,0,0,1-.73.36,3.06,3.06,0,0,1-.88.13,2.42,2.42,0,0,1-1.93-.75,3.27,3.27,0,0,1-.65-2.22,3.66,3.66,0,0,1,.33-1.6,2.42,2.42,0,0,1,1-1.07,2.57,2.57,0,0,1,1.41-.38,2.63,2.63,0,0,1,1.07.19,1.84,1.84,0,0,1,.71.54,2.4,2.4,0,0,1,.4.85,5.22,5.22,0,0,1,.17,1.34h-3.91v.11a3.86,3.86,0,0,0,.16,1.21,1.59,1.59,0,0,0,.54.77,1.65,1.65,0,0,0,1,.27,2.25,2.25,0,0,0,.92-.18,2.87,2.87,0,0,0,.81-.61Zm-9.08-4.79v.3a1.68,1.68,0,0,0-.4.13.4.4,0,0,0-.18.16.59.59,0,0,0-.06.26,2.09,2.09,0,0,0,0,.34,3.81,3.81,0,0,0,.13.42l1.08,3.08,1.27-3a4.16,4.16,0,0,0,.17-.48,1.2,1.2,0,0,0,.05-.36.49.49,0,0,0-.14-.39,1,1,0,0,0-.51-.21v-.3h2.32v.3a.84.84,0,0,0-.37.15,1.12,1.12,0,0,0-.26.32,5.26,5.26,0,0,0-.31.6l-2.09,4.51h-.74l-1.68-4.54a5.16,5.16,0,0,0-.27-.65,1,1,0,0,0-.23-.26,1.07,1.07,0,0,0-.35-.13v-.3Zm-7.39,2.84a3.79,3.79,0,0,0,.41,1.93,1.3,1.3,0,0,0,1.17.67,1.23,1.23,0,0,0,.7-.2,1.45,1.45,0,0,0,.48-.53,2.65,2.65,0,0,0,.26-.78A5.52,5.52,0,0,0,149,42a1.78,1.78,0,0,0-.55-.86,1.21,1.21,0,0,0-.79-.28,1.26,1.26,0,0,0-1.15.64A3.41,3.41,0,0,0,146.13,43.32Zm1.48,3.08a2.52,2.52,0,0,1-2-.75,3.17,3.17,0,0,1-.68-2.2,3.65,3.65,0,0,1,.36-1.7,2.33,2.33,0,0,1,1-1,2.83,2.83,0,0,1,1.41-.34,2.57,2.57,0,0,1,2,.76,3.15,3.15,0,0,1,.68,2.17,4,4,0,0,1-.34,1.71,2.31,2.31,0,0,1-1,1A3.07,3.07,0,0,1,147.61,46.4Zm-4-8.23v1.68H143a2.53,2.53,0,0,0-.38-.84,1.32,1.32,0,0,0-.53-.45,1.8,1.8,0,0,0-.73-.13,1.71,1.71,0,0,0-1.14.42,2.62,2.62,0,0,0-.79,1.25,6.31,6.31,0,0,0-.28,2,8,8,0,0,0,.23,2,2.66,2.66,0,0,0,.7,1.27,1.56,1.56,0,0,0,1.13.43,2.17,2.17,0,0,0,.83-.14,1.38,1.38,0,0,0,.54-.45,3.33,3.33,0,0,0,.42-.92h.62v1.74a8,8,0,0,1-1.2.23,11,11,0,0,1-1.34.08,2.84,2.84,0,0,1-2.39-1,5.12,5.12,0,0,1-.8-3.12,5.91,5.91,0,0,1,.41-2.28,3.29,3.29,0,0,1,1.24-1.52,3.42,3.42,0,0,1,1.94-.54,7.75,7.75,0,0,1,2.14.28Zm-14.06,5.94a5,5,0,0,0,.07.9,1,1,0,0,0,.27.51,1.08,1.08,0,0,0,.45.3,1.81,1.81,0,0,0,.68.1,1.27,1.27,0,0,0,1.13-.61,3.52,3.52,0,0,0,.37-1.81c0-1.59-.47-2.39-1.42-2.39a1.57,1.57,0,0,0-.6.11,1.83,1.83,0,0,0-.5.35,1.56,1.56,0,0,0-.35.46,1,1,0,0,0-.1.47Zm0,2V47.4a4.17,4.17,0,0,0,0,.59.75.75,0,0,0,.1.31.52.52,0,0,0,.2.19,2.27,2.27,0,0,0,.43.13v.3H127.8v-.3a1.63,1.63,0,0,0,.36-.13.44.44,0,0,0,.22-.18,1,1,0,0,0,.1-.34c0-.14,0-.33,0-.57V42.18c0-.29,0-.5,0-.62a1.18,1.18,0,0,0-.05-.31.55.55,0,0,0-.11-.2.55.55,0,0,0-.19-.14,2.83,2.83,0,0,0-.4-.11v-.32l1.46,0h.38l-.08,1,.09,0a7.23,7.23,0,0,1,.61-.55,1.87,1.87,0,0,1,.46-.29,1.85,1.85,0,0,1,.46-.17,2.34,2.34,0,0,1,.47,0,1.81,1.81,0,0,1,1.57.76,3.66,3.66,0,0,1,.55,2.2A4.05,4.05,0,0,1,133.4,45a2.2,2.2,0,0,1-.9,1,2.79,2.79,0,0,1-1.42.35,4.25,4.25,0,0,1-.83-.08A4.18,4.18,0,0,1,129.57,46.12Zm-4.41-2.59a4.38,4.38,0,0,0-1.89.32,1,1,0,0,0-.62,1,.92.92,0,0,0,.14.55.69.69,0,0,0,.36.27,1.35,1.35,0,0,0,.52.08,1.54,1.54,0,0,0,.76-.2A1.47,1.47,0,0,0,125,45a1.15,1.15,0,0,0,.19-.62Zm.11,1.9-.1,0a3.86,3.86,0,0,1-1,.76,2.33,2.33,0,0,1-1,.23,1.81,1.81,0,0,1-.83-.18,1.32,1.32,0,0,1-.56-.51,1.52,1.52,0,0,1,.71-2.12,6.45,6.45,0,0,1,2.69-.56v-.4a3.36,3.36,0,0,0-.12-1,1,1,0,0,0-.39-.53,1.28,1.28,0,0,0-.72-.17,1.16,1.16,0,0,0-.78.25,1.51,1.51,0,0,0-.44.75h-.81v-.8a7.48,7.48,0,0,1,1-.44,4.71,4.71,0,0,1,.79-.23,4.45,4.45,0,0,1,.81-.08,2.16,2.16,0,0,1,1,.19,1.24,1.24,0,0,1,.56.59,3,3,0,0,1,.18,1.19v2.12c0,.3,0,.51,0,.63a1.29,1.29,0,0,0,0,.35.66.66,0,0,0,.09.25.47.47,0,0,0,.18.16,1.6,1.6,0,0,0,.4.14v.3h-1.7Zm-4.88-7.26v1.68h-.61a2.74,2.74,0,0,0-.38-.84,1.28,1.28,0,0,0-.54-.45,1.87,1.87,0,0,0-1.87.29,2.69,2.69,0,0,0-.78,1.25,6.3,6.3,0,0,0-.29,2,7.51,7.51,0,0,0,.24,2,2.65,2.65,0,0,0,.69,1.27,1.6,1.6,0,0,0,1.13.43,2.23,2.23,0,0,0,.84-.14,1.45,1.45,0,0,0,.54-.45,4,4,0,0,0,.42-.92h.61v1.74a8.06,8.06,0,0,1-1.19.23,11.15,11.15,0,0,1-1.35.08,2.82,2.82,0,0,1-2.38-1,5.05,5.05,0,0,1-.81-3.12,5.73,5.73,0,0,1,.42-2.28,3.33,3.33,0,0,1,1.23-1.52,3.46,3.46,0,0,1,2-.54,8.45,8.45,0,0,1,1,.06A8.08,8.08,0,0,1,120.39,38.17Z"/><path class="cls-6" d="M146.44,105.72l.08,0a4,4,0,0,1,.64-.65,2.17,2.17,0,0,1,1.39-.51,6.5,6.5,0,0,1,.66,0v1.43h-.71a1.66,1.66,0,0,0-.31-.49.67.67,0,0,0-.46-.15,1,1,0,0,0-.45.13,1.8,1.8,0,0,0-.42.38,1.49,1.49,0,0,0-.28.47,1.3,1.3,0,0,0-.08.51v2.18a2.7,2.7,0,0,0,.07.77.55.55,0,0,0,.22.32,1.43,1.43,0,0,0,.48.15v.31h-2.5v-.31a1.71,1.71,0,0,0,.33-.13.65.65,0,0,0,.18-.15.7.7,0,0,0,.11-.31,3.32,3.32,0,0,0,0-.64v-2.7c0-.27,0-.48,0-.64a1,1,0,0,0-.09-.39.45.45,0,0,0-.23-.22,1.51,1.51,0,0,0-.43-.12v-.32l1.46-.06h.37Zm-4,1.33a5,5,0,0,0-.16-1.1,1.36,1.36,0,0,0-.4-.65,1,1,0,0,0-.68-.22,1.22,1.22,0,0,0-1,.51,2.83,2.83,0,0,0-.45,1.46Zm1.05,2.52a5,5,0,0,1-.73.65,2.79,2.79,0,0,1-.73.37,2.75,2.75,0,0,1-.88.14,2.41,2.41,0,0,1-1.93-.77,3.44,3.44,0,0,1-.65-2.26,3.84,3.84,0,0,1,.33-1.64,2.53,2.53,0,0,1,.95-1.09,2.58,2.58,0,0,1,1.41-.39,2.62,2.62,0,0,1,1.07.2,1.88,1.88,0,0,1,.71.55,2.7,2.7,0,0,1,.41.87,6,6,0,0,1,.16,1.37h-3.91v.11a3.92,3.92,0,0,0,.17,1.23,1.5,1.5,0,0,0,.53.78,1.6,1.6,0,0,0,1,.28,2.25,2.25,0,0,0,.92-.18,2.92,2.92,0,0,0,.81-.62Zm-10.35-1.18a4.33,4.33,0,0,0,.07.92,1,1,0,0,0,.27.52,1.14,1.14,0,0,0,.44.31,2.08,2.08,0,0,0,.68.1,1.23,1.23,0,0,0,1.13-.63,3.51,3.51,0,0,0,.38-1.84c0-1.62-.47-2.43-1.42-2.43a1.4,1.4,0,0,0-.6.11,1.69,1.69,0,0,0-.5.35,1.54,1.54,0,0,0-.35.47,1.12,1.12,0,0,0-.1.48Zm0,2v1.31c0,.27,0,.47,0,.6a1,1,0,0,0,.1.32.65.65,0,0,0,.21.19,1.59,1.59,0,0,0,.43.13v.31H131.4V113a2.5,2.5,0,0,0,.36-.12.6.6,0,0,0,.22-.2,1.15,1.15,0,0,0,.1-.34c0-.15,0-.34,0-.58v-5.33c0-.29,0-.51,0-.63a2.16,2.16,0,0,0-.05-.32.55.55,0,0,0-.11-.2.55.55,0,0,0-.19-.14,3.07,3.07,0,0,0-.41-.11v-.33l1.46,0h.38l-.08,1,.1,0c.25-.26.46-.45.6-.57a3.31,3.31,0,0,1,.47-.29,1.85,1.85,0,0,1,.46-.17,2.24,2.24,0,0,1,.46,0,1.83,1.83,0,0,1,1.58.77,3.8,3.8,0,0,1,.55,2.24,4.39,4.39,0,0,1-.31,1.73,2.29,2.29,0,0,1-.91,1,2.73,2.73,0,0,1-1.41.35,4.17,4.17,0,0,1-.83-.08A3.19,3.19,0,0,1,133.17,110.44Zm-7.08-2a4.21,4.21,0,0,0,.08.92,1.11,1.11,0,0,0,.26.52,1.25,1.25,0,0,0,.45.31,2.08,2.08,0,0,0,.68.1,1.23,1.23,0,0,0,1.13-.63,3.61,3.61,0,0,0,.38-1.84c0-1.62-.47-2.43-1.42-2.43a1.37,1.37,0,0,0-.6.11,1.57,1.57,0,0,0-.5.35,1.54,1.54,0,0,0-.35.47,1.13,1.13,0,0,0-.11.48Zm0,2v1.31a4.33,4.33,0,0,0,0,.6.8.8,0,0,0,.1.32.65.65,0,0,0,.21.19,1.59,1.59,0,0,0,.43.13v.31h-2.54V113a2.3,2.3,0,0,0,.37-.12.51.51,0,0,0,.21-.2.76.76,0,0,0,.1-.34,4.51,4.51,0,0,0,0-.58v-5.33c0-.29,0-.51,0-.63a1.34,1.34,0,0,0-.05-.32.54.54,0,0,0-.1-.2.6.6,0,0,0-.2-.14,2.83,2.83,0,0,0-.4-.11v-.33l1.46,0h.38l-.08,1,.09,0a8.34,8.34,0,0,1,.61-.57,3.21,3.21,0,0,1,.46-.29,2,2,0,0,1,.46-.17,2.42,2.42,0,0,1,.47,0,1.83,1.83,0,0,1,1.58.77,3.87,3.87,0,0,1,.55,2.24,4.39,4.39,0,0,1-.31,1.73,2.29,2.29,0,0,1-.91,1,2.73,2.73,0,0,1-1.41.35,4.17,4.17,0,0,1-.83-.08A3.48,3.48,0,0,1,126.09,110.44Zm-5.21-.12a1.61,1.61,0,0,0,.34-.13.65.65,0,0,0,.18-.15,1.08,1.08,0,0,0,.11-.31,3.32,3.32,0,0,0,0-.64v-2.7c0-.27,0-.48,0-.64a1,1,0,0,0-.09-.39.45.45,0,0,0-.23-.22,1.51,1.51,0,0,0-.43-.12v-.33l1.45,0h.38v4.44a3.25,3.25,0,0,0,0,.74.47.47,0,0,0,.19.31,1.06,1.06,0,0,0,.45.19v.31h-2.43Zm1.77-8.06v1.2h-1.14v-1.2Zm-7.37,6.44a2.8,2.8,0,0,0,.34.86,1.29,1.29,0,0,0,.54.47,2.19,2.19,0,0,0,.87.15,1.54,1.54,0,0,0,1.11-.38,1.46,1.46,0,0,0,.39-1.1,1.68,1.68,0,0,0-.16-.79,1.7,1.7,0,0,0-.53-.59,6.29,6.29,0,0,0-1.12-.65,6.14,6.14,0,0,1-1.14-.71,2.33,2.33,0,0,1-.64-.75,2,2,0,0,1-.2-.88,2.3,2.3,0,0,1,.32-1.21,2.16,2.16,0,0,1,1-.79,3.62,3.62,0,0,1,1.44-.28,9,9,0,0,1,.92,0,9.05,9.05,0,0,1,1.13.23V104h-.61a2.85,2.85,0,0,0-.36-.85,1.25,1.25,0,0,0-.51-.42,2.05,2.05,0,0,0-.76-.12,1.65,1.65,0,0,0-.72.14,1.09,1.09,0,0,0-.51.46,1.31,1.31,0,0,0-.18.71,1.7,1.7,0,0,0,.15.75,1.73,1.73,0,0,0,.5.56,5.63,5.63,0,0,0,1,.58,8.38,8.38,0,0,1,1.23.74,2.81,2.81,0,0,1,.69.78,2.12,2.12,0,0,1,.24,1,2.77,2.77,0,0,1-.2,1.1,2,2,0,0,1-.57.73,2.19,2.19,0,0,1-.87.41,4.83,4.83,0,0,1-1.11.13,9.12,9.12,0,0,1-2.25-.33v-1.7Z"/><path class="cls-6" d="M148.27,186.34a5,5,0,0,0-.16-1.1,1.36,1.36,0,0,0-.4-.65,1,1,0,0,0-.68-.23,1.2,1.2,0,0,0-1,.52,2.83,2.83,0,0,0-.45,1.46Zm1,2.52a5.61,5.61,0,0,1-.73.65,3,3,0,0,1-.73.37,2.75,2.75,0,0,1-.88.13,2.39,2.39,0,0,1-1.93-.76,3.45,3.45,0,0,1-.65-2.27,3.83,3.83,0,0,1,.33-1.63,2.47,2.47,0,0,1,1-1.09,2.58,2.58,0,0,1,1.41-.39,2.62,2.62,0,0,1,1.07.2,2,2,0,0,1,.71.54,2.87,2.87,0,0,1,.41.88,6,6,0,0,1,.16,1.36h-3.91V187a4,4,0,0,0,.16,1.24,1.46,1.46,0,0,0,1.52,1.06,2.1,2.1,0,0,0,.92-.19,2.58,2.58,0,0,0,.81-.62Zm-6.76-.5a4,4,0,0,0,.05.75.55.55,0,0,0,.19.31,1.27,1.27,0,0,0,.46.19v.31h-2.47v-.31a1.21,1.21,0,0,0,.43-.17.46.46,0,0,0,.18-.21,1.18,1.18,0,0,0,.07-.32,4.28,4.28,0,0,0,0-.55v-5.2c0-.39,0-.67,0-.83a1.56,1.56,0,0,0,0-.4.62.62,0,0,0-.11-.26.45.45,0,0,0-.19-.14,2,2,0,0,0-.44-.12v-.32l1.5-.06h.37Zm-7.05-.68a4.27,4.27,0,0,0,.08.92,1.16,1.16,0,0,0,.26.52,1.25,1.25,0,0,0,.45.31,2.11,2.11,0,0,0,.68.09,1.23,1.23,0,0,0,1.13-.62,3.63,3.63,0,0,0,.38-1.84c0-1.62-.48-2.43-1.42-2.43a1.51,1.51,0,0,0-.6.1,1.61,1.61,0,0,0-.5.36,1.57,1.57,0,0,0-.36.46,1.34,1.34,0,0,0-.1.49Zm0,2V191a4.33,4.33,0,0,0,0,.6.75.75,0,0,0,.1.31.55.55,0,0,0,.21.19,1.42,1.42,0,0,0,.43.14v.31h-2.54v-.31a2,2,0,0,0,.37-.13.48.48,0,0,0,.21-.19.91.91,0,0,0,.1-.34,4.8,4.8,0,0,0,0-.58v-5.33c0-.3,0-.51,0-.64a1.25,1.25,0,0,0-.05-.31.54.54,0,0,0-.1-.2.6.6,0,0,0-.2-.14,1.9,1.9,0,0,0-.4-.11V184l1.46-.06h.38l-.08,1,.09,0a8.34,8.34,0,0,1,.61-.57,2.52,2.52,0,0,1,.46-.29,2,2,0,0,1,.46-.17,2.34,2.34,0,0,1,.47-.05,1.83,1.83,0,0,1,1.58.77,3.88,3.88,0,0,1,.54,2.24,4.17,4.17,0,0,1-.31,1.72,2.13,2.13,0,0,1-.9,1A2.66,2.66,0,0,1,137,190a4.21,4.21,0,0,1-.83-.07A3.48,3.48,0,0,1,135.51,189.73Zm-7.07-2a5.2,5.2,0,0,0,.07.92,1.17,1.17,0,0,0,.72.83,2.11,2.11,0,0,0,.68.09,1.24,1.24,0,0,0,1.13-.62,3.64,3.64,0,0,0,.37-1.84c0-1.62-.47-2.43-1.42-2.43a1.57,1.57,0,0,0-.6.1,1.89,1.89,0,0,0-.5.36,1.7,1.7,0,0,0-.35.46,1.16,1.16,0,0,0-.1.49Zm0,2V191a4.33,4.33,0,0,0,0,.6.75.75,0,0,0,.1.31.52.52,0,0,0,.2.19,1.62,1.62,0,0,0,.44.14v.31h-2.54v-.31a2,2,0,0,0,.37-.13.48.48,0,0,0,.21-.19.91.91,0,0,0,.1-.34c0-.15,0-.34,0-.58v-5.33c0-.3,0-.51,0-.64a1.25,1.25,0,0,0,0-.31.43.43,0,0,0-.11-.2.55.55,0,0,0-.19-.14,1.9,1.9,0,0,0-.4-.11V184l1.46-.06h.38l-.08,1,.09,0a8.34,8.34,0,0,1,.61-.57,2.52,2.52,0,0,1,.46-.29,1.85,1.85,0,0,1,.46-.17,2.34,2.34,0,0,1,.47-.05,1.81,1.81,0,0,1,1.57.77,3.8,3.8,0,0,1,.55,2.24,4.17,4.17,0,0,1-.31,1.72,2.23,2.23,0,0,1-.9,1A2.68,2.68,0,0,1,130,190a4.32,4.32,0,0,1-.84-.07A3.59,3.59,0,0,1,128.44,189.73Zm-5.22-.12a1.76,1.76,0,0,0,.35-.13.5.5,0,0,0,.17-.15.83.83,0,0,0,.12-.31,4.43,4.43,0,0,0,0-.64v-2.71c0-.26,0-.48,0-.64a.8.8,0,0,0-.08-.38.49.49,0,0,0-.23-.22,1.61,1.61,0,0,0-.43-.12V184l1.45-.06H125v4.44a4,4,0,0,0,.05.75.61.61,0,0,0,.19.31,1.35,1.35,0,0,0,.46.19v.31h-2.44Zm1.78-8.06v1.2h-1.14v-1.2Zm-5.3,5c.15.24.28.46.38.65s.21.39.31.63h.08c0-.26,0-.76,0-1.51s0-1.43,0-2V183c0-.28,0-.49,0-.63a.89.89,0,0,0-.09-.3.49.49,0,0,0-.18-.17,3,3,0,0,0-.4-.15v-.3h2.23v.3a2.28,2.28,0,0,0-.39.14.6.6,0,0,0-.19.16.86.86,0,0,0-.11.3,4.89,4.89,0,0,0,0,.65v7h-.78l-3.46-5.8c-.21-.36-.37-.62-.46-.79s-.17-.32-.25-.49h-.11c0,.32,0,.9.07,1.73s0,1.67,0,2.5v1.26a4.4,4.4,0,0,0,0,.61.7.7,0,0,0,.1.3.44.44,0,0,0,.19.19,1.64,1.64,0,0,0,.41.15v.31h-2.27v-.31a1.37,1.37,0,0,0,.52-.22.61.61,0,0,0,.17-.34,4,4,0,0,0,0-.69V183a4.57,4.57,0,0,0,0-.62,1,1,0,0,0-.1-.31.52.52,0,0,0-.19-.17,3.23,3.23,0,0,0-.41-.15v-.3h2Zm72.79-15.13a4.9,4.9,0,0,0-.17-1.1,1.35,1.35,0,0,0-.39-.65,1,1,0,0,0-.68-.22,1.2,1.2,0,0,0-1,.51,2.66,2.66,0,0,0-.45,1.46Zm1,2.52a4.5,4.5,0,0,1-.73.65,2.76,2.76,0,0,1-1.6.51,2.38,2.38,0,0,1-1.93-.77,3.39,3.39,0,0,1-.65-2.26,3.84,3.84,0,0,1,.33-1.64,2.58,2.58,0,0,1,.94-1.09,2.61,2.61,0,0,1,1.42-.39,2.65,2.65,0,0,1,1.07.2,1.85,1.85,0,0,1,.7.55,2.51,2.51,0,0,1,.41.87,5.41,5.41,0,0,1,.17,1.37h-3.91v.11a4,4,0,0,0,.16,1.23,1.46,1.46,0,0,0,1.52,1.06,2.21,2.21,0,0,0,.91-.18,2.78,2.78,0,0,0,.81-.62Zm-6,1.06h-2.45v-.31a1.76,1.76,0,0,0,.35-.13.65.65,0,0,0,.18-.15.7.7,0,0,0,.11-.31,3.34,3.34,0,0,0,0-.63v-1.63c0-.29,0-.55,0-.79a5.43,5.43,0,0,0-.08-.58,1.46,1.46,0,0,0-.15-.35.83.83,0,0,0-.2-.22.72.72,0,0,0-.26-.14,1.09,1.09,0,0,0-.39-.05,1.18,1.18,0,0,0-.46.09,1.86,1.86,0,0,0-.48.34,1.71,1.71,0,0,0-.38.46,1.12,1.12,0,0,0-.12.53v2.32a4,4,0,0,0,0,.74.57.57,0,0,0,.19.31,1.18,1.18,0,0,0,.46.19V175h-2.44v-.31a1.76,1.76,0,0,0,.35-.13.61.61,0,0,0,.17-.15.83.83,0,0,0,.12-.31,4.43,4.43,0,0,0,0-.64v-2.7c0-.27,0-.48,0-.64a.84.84,0,0,0-.08-.39.49.49,0,0,0-.23-.22,1.61,1.61,0,0,0-.43-.12v-.33l1.45,0h.38l-.07,1,.09,0a5.88,5.88,0,0,1,.74-.66,2.67,2.67,0,0,1,.57-.31,1.78,1.78,0,0,1,.61-.11,2.13,2.13,0,0,1,.6.08,1.31,1.31,0,0,1,.47.24,1.44,1.44,0,0,1,.33.4,2.12,2.12,0,0,1,.2.57,5,5,0,0,1,.06.85v2.35c0,.28,0,.49,0,.62a.9.9,0,0,0,.09.29.52.52,0,0,0,.18.18,1.64,1.64,0,0,0,.41.15ZM176,172a3.92,3.92,0,0,0,.4,2,1.29,1.29,0,0,0,1.17.68,1.19,1.19,0,0,0,.71-.2,1.46,1.46,0,0,0,.47-.54,2.62,2.62,0,0,0,.26-.79,4.76,4.76,0,0,0,.09-.94,4.68,4.68,0,0,0-.21-1.52,1.84,1.84,0,0,0-.54-.88,1.24,1.24,0,0,0-.8-.28,1.25,1.25,0,0,0-1.15.65A3.51,3.51,0,0,0,176,172Zm1.48,3.15a2.55,2.55,0,0,1-2-.76,3.31,3.31,0,0,1-.68-2.25,3.8,3.8,0,0,1,.36-1.74,2.38,2.38,0,0,1,1-1.05,2.83,2.83,0,0,1,1.41-.35,2.55,2.55,0,0,1,2,.78,3.26,3.26,0,0,1,.68,2.22,4.12,4.12,0,0,1-.34,1.74,2.31,2.31,0,0,1-1,1.05A2.92,2.92,0,0,1,177.43,175.11Zm-3.69-5.9v1.3H173a1.87,1.87,0,0,0-.26-.63.81.81,0,0,0-.36-.33,1.21,1.21,0,0,0-.5-.09,1.17,1.17,0,0,0-.78.28,1.8,1.8,0,0,0-.53.85,4.32,4.32,0,0,0-.19,1.39,5.82,5.82,0,0,0,.07,1,2.29,2.29,0,0,0,.26.75,1.35,1.35,0,0,0,.47.48,1.42,1.42,0,0,0,.74.17,1.94,1.94,0,0,0,.8-.16,2.56,2.56,0,0,0,.77-.59l.35.41a4.53,4.53,0,0,1-.56.54,2.67,2.67,0,0,1-.51.31,2.57,2.57,0,0,1-.55.19,2.74,2.74,0,0,1-.59.06,2.15,2.15,0,0,1-1.79-.78,3.51,3.51,0,0,1-.62-2.25,3.65,3.65,0,0,1,.34-1.63,2.63,2.63,0,0,1,1-1.1,2.69,2.69,0,0,1,1.45-.39,9.1,9.1,0,0,1,.94.06A7,7,0,0,1,173.74,169.21Zm-8.16,5.49a2.05,2.05,0,0,0,.35-.13.61.61,0,0,0,.17-.15.7.7,0,0,0,.11-.31,3.14,3.14,0,0,0,0-.64v-2.7c0-.27,0-.48,0-.64a1.21,1.21,0,0,0-.08-.39.54.54,0,0,0-.23-.22,1.61,1.61,0,0,0-.43-.12v-.33l1.44,0h.38v4.44a4,4,0,0,0,.05.74.57.57,0,0,0,.19.31,1.11,1.11,0,0,0,.46.19V175h-2.44Zm1.78-8.06v1.2h-1.14v-1.2Zm-3.57,6.82a4,4,0,0,0,.05.74.47.47,0,0,0,.19.31,1.05,1.05,0,0,0,.46.19V175H162v-.31a1.21,1.21,0,0,0,.43-.17.41.41,0,0,0,.17-.2,1.14,1.14,0,0,0,.08-.33c0-.14,0-.32,0-.54v-5.2c0-.4,0-.68,0-.83a2.07,2.07,0,0,0-.05-.4.7.7,0,0,0-.11-.26.58.58,0,0,0-.19-.15,1.6,1.6,0,0,0-.44-.11v-.33l1.5-.06h.37Zm-5.19,1.24a1.61,1.61,0,0,0,.34-.13.65.65,0,0,0,.18-.15,1.08,1.08,0,0,0,.11-.31,4.43,4.43,0,0,0,0-.64v-2.7c0-.27,0-.48,0-.64a1,1,0,0,0-.09-.39.45.45,0,0,0-.23-.22,1.51,1.51,0,0,0-.43-.12v-.33l1.45,0h.38v4.44a3.25,3.25,0,0,0,0,.74.47.47,0,0,0,.19.31,1.06,1.06,0,0,0,.45.19V175H158.6Zm1.77-8.06v1.2h-1.14v-1.2ZM153,173.08a2.8,2.8,0,0,0,.34.86,1.29,1.29,0,0,0,.54.47,2.19,2.19,0,0,0,.87.15,1.54,1.54,0,0,0,1.11-.38,1.46,1.46,0,0,0,.39-1.1,1.68,1.68,0,0,0-.16-.79,1.81,1.81,0,0,0-.53-.59,6.29,6.29,0,0,0-1.12-.65,6.14,6.14,0,0,1-1.14-.71,2.33,2.33,0,0,1-.64-.75,2,2,0,0,1-.2-.88,2.3,2.3,0,0,1,.32-1.21,2.16,2.16,0,0,1,1-.79,3.62,3.62,0,0,1,1.44-.28,9.12,9.12,0,0,1,.92,0,7.53,7.53,0,0,1,1.13.23v1.67h-.61a2.85,2.85,0,0,0-.36-.85,1.25,1.25,0,0,0-.51-.42A2,2,0,0,0,155,167a1.66,1.66,0,0,0-.72.15,1.12,1.12,0,0,0-.51.45,1.38,1.38,0,0,0-.19.72,1.7,1.7,0,0,0,.16.75,1.73,1.73,0,0,0,.5.56,5.63,5.63,0,0,0,1,.58,8.38,8.38,0,0,1,1.23.74,2.81,2.81,0,0,1,.69.78,2.11,2.11,0,0,1,.24,1,2.79,2.79,0,0,1-.2,1.11,2,2,0,0,1-.57.73,2.19,2.19,0,0,1-.87.41,4.83,4.83,0,0,1-1.11.13,9.12,9.12,0,0,1-2.25-.33v-1.7Zm-6.37-1.75a5.15,5.15,0,0,0,0-.78,1.35,1.35,0,0,0-.14-.49,1,1,0,0,0-.28-.34,1.38,1.38,0,0,0-.38-.2,1.85,1.85,0,0,0-.5-.06,1.35,1.35,0,0,0-1.21.64,3.3,3.3,0,0,0-.42,1.83,3.79,3.79,0,0,0,.35,1.81,1.1,1.1,0,0,0,1,.62,1.47,1.47,0,0,0,.45-.05,1.78,1.78,0,0,0,.36-.14,2.14,2.14,0,0,0,.35-.29,1.78,1.78,0,0,0,.27-.33,1,1,0,0,0,.12-.34,2.17,2.17,0,0,0,0-.49Zm0-3.07c0-.4,0-.68,0-.83a2.07,2.07,0,0,0-.05-.4.92.92,0,0,0-.11-.26.62.62,0,0,0-.2-.15,1.51,1.51,0,0,0-.43-.11v-.33l1.5-.06h.37v7.19c0,.33,0,.55,0,.69a1,1,0,0,0,.08.34.55.55,0,0,0,.2.2,2,2,0,0,0,.47.15V175l-1.47.06h-.37l.08-1-.1,0a5.71,5.71,0,0,1-.68.62,2.4,2.4,0,0,1-.61.33,2,2,0,0,1-.7.13,1.81,1.81,0,0,1-1.57-.78,3.79,3.79,0,0,1-.55-2.23,3.69,3.69,0,0,1,.36-1.73,2.5,2.5,0,0,1,1-1.06,2.71,2.71,0,0,1,1.37-.35,4.25,4.25,0,0,1,.75.07,4.13,4.13,0,0,1,.69.21Zm-7.73,6.44a2.05,2.05,0,0,0,.35-.13.61.61,0,0,0,.17-.15.7.7,0,0,0,.11-.31,3.32,3.32,0,0,0,0-.64v-2.7c0-.27,0-.48,0-.64a1,1,0,0,0-.09-.39.47.47,0,0,0-.22-.22,1.61,1.61,0,0,0-.43-.12v-.33l1.44,0h.38v4.44a4,4,0,0,0,.05.74.52.52,0,0,0,.19.31,1.11,1.11,0,0,0,.46.19V175H138.9Zm1.78-8.06v1.2h-1.14v-1.2Zm-9,2.43h1.77v3.16a7.69,7.69,0,0,0,.06,1.11,1.88,1.88,0,0,0,.16.57,1,1,0,0,0,.32.32,1,1,0,0,0,.57.13,1.13,1.13,0,0,0,.45-.09,2.24,2.24,0,0,0,.87-.79,1.27,1.27,0,0,0,.11-.54v-2.32c0-.24,0-.42,0-.54a.9.9,0,0,0-.06-.28.5.5,0,0,0-.1-.18.59.59,0,0,0-.17-.13,2.49,2.49,0,0,0-.35-.11v-.31h1.77v4.24c0,.32,0,.55,0,.69a1,1,0,0,0,.08.34.46.46,0,0,0,.19.2,1.84,1.84,0,0,0,.47.15V175l-1.42.06h-.38l0-1-.09,0a4.3,4.3,0,0,1-1,.82,2,2,0,0,1-.95.26,1.78,1.78,0,0,1-.93-.23,1.35,1.35,0,0,1-.54-.67,3.41,3.41,0,0,1-.18-1.25v-2.34a5.12,5.12,0,0,0,0-.72.61.61,0,0,0-.16-.31,1,1,0,0,0-.5-.21Zm-2.62,2.24a4.18,4.18,0,0,0-.07-.9,1.26,1.26,0,0,0-.26-.53,1,1,0,0,0-.42-.32,1.42,1.42,0,0,0-.57-.1,1.4,1.4,0,0,0-1.23.65,3.33,3.33,0,0,0-.42,1.82,3.81,3.81,0,0,0,.34,1.81,1.13,1.13,0,0,0,1,.62,1.44,1.44,0,0,0,.44-.05,1.38,1.38,0,0,0,.36-.15,1.76,1.76,0,0,0,.36-.28,1.37,1.37,0,0,0,.26-.33,1.15,1.15,0,0,0,.13-.34,2.25,2.25,0,0,0,0-.49Zm1.77,6.37h-2.53v-.31a1.59,1.59,0,0,0,.43-.13.65.65,0,0,0,.21-.19,1,1,0,0,0,.1-.31c0-.14,0-.34,0-.61V174a4.84,4.84,0,0,1-.62.6,2.44,2.44,0,0,1-.65.37,1.86,1.86,0,0,1-.75.15,1.83,1.83,0,0,1-1.57-.77,3.75,3.75,0,0,1-.55-2.22,3.8,3.8,0,0,1,.36-1.74,2.32,2.32,0,0,1,1-1.06,3,3,0,0,1,1.48-.36,3.3,3.3,0,0,1,.8.1,3.44,3.44,0,0,1,.72.28l.44-.38.42.1v7.07a4.4,4.4,0,0,0,0,.58.91.91,0,0,0,.1.34.39.39,0,0,0,.21.19,1.63,1.63,0,0,0,.36.13Zm-9.49-3a2.05,2.05,0,0,0,.35-.13.61.61,0,0,0,.17-.15.83.83,0,0,0,.12-.31,4.43,4.43,0,0,0,0-.64v-2.7c0-.27,0-.48,0-.64a1.21,1.21,0,0,0-.08-.39.49.49,0,0,0-.23-.22,1.61,1.61,0,0,0-.43-.12v-.33l1.44,0h.38v4.44a4,4,0,0,0,.05.74.57.57,0,0,0,.19.31,1.11,1.11,0,0,0,.46.19V175h-2.44Zm1.78-8.06v1.2H122v-1.2Zm-6.56,7.79h1.62a3,3,0,0,0,.45,0,1.89,1.89,0,0,0,.31-.1.76.76,0,0,0,.23-.18,2,2,0,0,0,.19-.3,2.73,2.73,0,0,0,.18-.47c0-.19.12-.47.21-.85h.62l-.12,2.5h-5.58v-.31a1.11,1.11,0,0,0,.51-.22.53.53,0,0,0,.17-.34,3.89,3.89,0,0,0,0-.68v-5.38a4.57,4.57,0,0,0,0-.62.81.81,0,0,0-.1-.31.63.63,0,0,0-.19-.17,2.15,2.15,0,0,0-.4-.14v-.31h2.61v.31a2.47,2.47,0,0,0-.39.13.7.7,0,0,0-.19.16.9.9,0,0,0-.11.3,5.1,5.1,0,0,0,0,.65Z"/><path class="cls-6" d="M165.45,234.44a4.34,4.34,0,0,0,.08.92,1.16,1.16,0,0,0,.26.52,1.11,1.11,0,0,0,.45.3,1.84,1.84,0,0,0,.68.1,1.24,1.24,0,0,0,1.13-.62,3.63,3.63,0,0,0,.38-1.84c0-1.63-.47-2.44-1.42-2.44a1.53,1.53,0,0,0-.6.11,1.57,1.57,0,0,0-.5.35,1.54,1.54,0,0,0-.35.47,1.14,1.14,0,0,0-.11.49Zm0,2.05v1.31a4.43,4.43,0,0,0,0,.6.75.75,0,0,0,.1.31.55.55,0,0,0,.21.19,1.53,1.53,0,0,0,.43.14v.3h-2.54V239a1.55,1.55,0,0,0,.37-.13.48.48,0,0,0,.21-.19.81.81,0,0,0,.1-.35,4.24,4.24,0,0,0,0-.57v-5.33c0-.3,0-.51,0-.64a1.25,1.25,0,0,0-.05-.31.68.68,0,0,0-.1-.21.58.58,0,0,0-.2-.13,1.78,1.78,0,0,0-.4-.12v-.32l1.46-.06h.38l-.08,1,.09,0a8.34,8.34,0,0,1,.61-.57,2.59,2.59,0,0,1,.46-.3,2.53,2.53,0,0,1,.46-.16,2.06,2.06,0,0,1,2.05.71,3.89,3.89,0,0,1,.55,2.25,4.37,4.37,0,0,1-.31,1.72,2.19,2.19,0,0,1-.91,1,2.64,2.64,0,0,1-1.41.35,3.54,3.54,0,0,1-.83-.08A4.31,4.31,0,0,1,165.45,236.49Zm-4.4-2.65a4.27,4.27,0,0,0-1.89.34,1,1,0,0,0-.63,1,1,1,0,0,0,.14.56.74.74,0,0,0,.36.28,1.39,1.39,0,0,0,.52.08,1.46,1.46,0,0,0,.77-.21,1.39,1.39,0,0,0,.53-.52,1.19,1.19,0,0,0,.2-.62Zm.1,1.94-.09,0a3.65,3.65,0,0,1-1,.78,2.17,2.17,0,0,1-1,.23,1.84,1.84,0,0,1-.83-.18,1.26,1.26,0,0,1-.55-.52,1.45,1.45,0,0,1-.19-.76,1.51,1.51,0,0,1,.89-1.4,6.46,6.46,0,0,1,2.7-.58v-.4a3.42,3.42,0,0,0-.13-1,1,1,0,0,0-.39-.55,1.36,1.36,0,0,0-.71-.17,1.13,1.13,0,0,0-.78.25,1.56,1.56,0,0,0-.45.77h-.81v-.81a9.61,9.61,0,0,1,1-.46,8,8,0,0,1,.8-.23,4.26,4.26,0,0,1,.8-.08,2.12,2.12,0,0,1,1,.2,1.23,1.23,0,0,1,.56.59,3.13,3.13,0,0,1,.19,1.22v2.81a3.09,3.09,0,0,0,0,.35.71.71,0,0,0,.09.26.63.63,0,0,0,.19.17,2.28,2.28,0,0,0,.39.14v.3h-1.7Zm-4.87-7.4v1.72h-.62a2.55,2.55,0,0,0-.38-.86,1.28,1.28,0,0,0-.53-.46,1.79,1.79,0,0,0-.73-.14,1.72,1.72,0,0,0-1.14.43,2.81,2.81,0,0,0-.79,1.28,6.53,6.53,0,0,0-.28,2.06,8.3,8.3,0,0,0,.23,2.08,2.77,2.77,0,0,0,.7,1.3,1.57,1.57,0,0,0,1.13.44,2,2,0,0,0,.83-.15,1.32,1.32,0,0,0,.54-.46,3.5,3.5,0,0,0,.42-.94h.62v1.78a9.42,9.42,0,0,1-1.2.23,9.28,9.28,0,0,1-1.34.08,2.8,2.8,0,0,1-2.39-1.07,5.28,5.28,0,0,1-.8-3.18,6.18,6.18,0,0,1,.41-2.33,3.25,3.25,0,0,1,3.18-2.09,8.22,8.22,0,0,1,1,.06A6.88,6.88,0,0,1,156.28,228.38ZM142.12,232l-1.63,4.67h-.86l-1.49-4.6a5.45,5.45,0,0,0-.24-.63,1,1,0,0,0-.21-.28.89.89,0,0,0-.35-.15v-.3h2.45v.3a1,1,0,0,0-.48.2.45.45,0,0,0-.13.36,1.45,1.45,0,0,0,0,.35,3.91,3.91,0,0,0,.11.43l1,3.16,1.6-4.8h.87l1.36,4.8,1.09-3a3.26,3.26,0,0,0,.14-.45,1.55,1.55,0,0,0,.06-.4.58.58,0,0,0-.14-.41,1,1,0,0,0-.48-.21v-.3H147v.3a1.26,1.26,0,0,0-.26.09.7.7,0,0,0-.17.14,1.21,1.21,0,0,0-.19.28,4.64,4.64,0,0,0-.25.58l-1.8,4.57h-.84Zm-6.64,1.06a4.8,4.8,0,0,0-.17-1.09,1.43,1.43,0,0,0-.39-.65,1,1,0,0,0-.68-.23,1.18,1.18,0,0,0-1,.52,2.62,2.62,0,0,0-.45,1.45Zm1,2.53a5.71,5.71,0,0,1-.73.65,2.66,2.66,0,0,1-1.6.5,2.38,2.38,0,0,1-1.94-.77,3.42,3.42,0,0,1-.65-2.26,3.65,3.65,0,0,1,.34-1.63,2.45,2.45,0,0,1,.94-1.09,2.59,2.59,0,0,1,1.42-.39,2.65,2.65,0,0,1,1.07.2,1.74,1.74,0,0,1,.7.54,2.51,2.51,0,0,1,.41.87,6,6,0,0,1,.17,1.37h-3.92v.11a4,4,0,0,0,.17,1.24,1.46,1.46,0,0,0,1.52,1.06,2.06,2.06,0,0,0,.91-.19,2.74,2.74,0,0,0,.81-.62Zm-8.36-3.85.09,0a5.11,5.11,0,0,1,.63-.66,2.54,2.54,0,0,1,.63-.37,2.07,2.07,0,0,1,.77-.13,4.28,4.28,0,0,1,.65,0v1.43h-.7a1.3,1.3,0,0,0-.32-.49.65.65,0,0,0-.46-.15.83.83,0,0,0-.44.13,1.86,1.86,0,0,0-.71.84,1.62,1.62,0,0,0-.08.52v2.17a3.18,3.18,0,0,0,.07.78.53.53,0,0,0,.23.31,1.33,1.33,0,0,0,.48.16v.3h-2.51v-.3a1.88,1.88,0,0,0,.34-.13.55.55,0,0,0,.18-.16.73.73,0,0,0,.11-.3,4.54,4.54,0,0,0,0-.64v-2.71c0-.26,0-.48,0-.64a.87.87,0,0,0-.08-.39.47.47,0,0,0-.23-.21,1.86,1.86,0,0,0-.43-.13v-.32l1.45-.06h.38Zm-2.66-.89v1.3h-.78a2.29,2.29,0,0,0-.26-.64.89.89,0,0,0-.36-.32,1.13,1.13,0,0,0-.51-.1,1.2,1.2,0,0,0-.77.28,1.75,1.75,0,0,0-.53.85,4.1,4.1,0,0,0-.2,1.4,5.69,5.69,0,0,0,.07,1,2.13,2.13,0,0,0,.26.75,1.33,1.33,0,0,0,.48.49,1.47,1.47,0,0,0,.74.17,1.9,1.9,0,0,0,.79-.17,2.56,2.56,0,0,0,.77-.59l.35.41a4.51,4.51,0,0,1-.55.54,3.17,3.17,0,0,1-.52.32,3.2,3.2,0,0,1-.55.18,2.74,2.74,0,0,1-.59.06,2.15,2.15,0,0,1-1.79-.78,3.51,3.51,0,0,1-.62-2.25,3.58,3.58,0,0,1,.35-1.63,2.52,2.52,0,0,1,1-1.09,2.69,2.69,0,0,1,1.45-.39,6.86,6.86,0,0,1,.94.06A5.3,5.3,0,0,1,125.5,230.88Zm-10.22,3.86a2.7,2.7,0,0,0,.34.86,1.22,1.22,0,0,0,.54.47,2.18,2.18,0,0,0,.87.16,1.54,1.54,0,0,0,1.11-.38,1.49,1.49,0,0,0,.39-1.11,1.67,1.67,0,0,0-.16-.78,1.94,1.94,0,0,0-.53-.6,7.82,7.82,0,0,0-1.12-.65,6.16,6.16,0,0,1-1.14-.7,2.33,2.33,0,0,1-.64-.75,2,2,0,0,1-.2-.88,2.25,2.25,0,0,1,.32-1.21,2.1,2.1,0,0,1,1-.79,3.46,3.46,0,0,1,1.44-.28,6.9,6.9,0,0,1,.92.05,7.33,7.33,0,0,1,1.13.22v1.68h-.61a2.74,2.74,0,0,0-.36-.85,1.2,1.2,0,0,0-.51-.43,2.05,2.05,0,0,0-.76-.12,1.66,1.66,0,0,0-.72.15,1.12,1.12,0,0,0-.51.45,1.37,1.37,0,0,0-.18.72,1.65,1.65,0,0,0,.15.74,1.87,1.87,0,0,0,.5.57,5.63,5.63,0,0,0,1,.58,6.93,6.93,0,0,1,1.23.74,2.81,2.81,0,0,1,.69.78,2.08,2.08,0,0,1,.24,1,2.77,2.77,0,0,1-.2,1.1,1.9,1.9,0,0,1-.57.73,2.35,2.35,0,0,1-.87.42,4.84,4.84,0,0,1-1.11.12,9.12,9.12,0,0,1-2.25-.33v-1.7Z"/><path class="cls-6" d="M175.53,278.13h.2a1.06,1.06,0,0,0,.33,0,1.49,1.49,0,0,0,.34-.19,5.86,5.86,0,0,0,.53-.45,4.12,4.12,0,0,0,.43-.45,1.06,1.06,0,0,0,.2-.35.58.58,0,0,0,.05-.26.36.36,0,0,0-.11-.29.67.67,0,0,0-.38-.14v-.31h2.68V276a2,2,0,0,0-.61.25,3.83,3.83,0,0,0-.66.53l-1.43,1.35,1.79,2.33a2.86,2.86,0,0,0,.56.61,1.33,1.33,0,0,0,.55.26v.3h-2.39v-.3a.57.57,0,0,0,.24-.07.22.22,0,0,0,.08-.18.52.52,0,0,0,0-.18,1.75,1.75,0,0,0-.14-.25l-.39-.54-.74-1a3.62,3.62,0,0,0-.3-.37.44.44,0,0,0-.19-.12.64.64,0,0,0-.27,0h-.34V280a3.2,3.2,0,0,0,.05.74.5.5,0,0,0,.19.32,1.4,1.4,0,0,0,.45.19v.3h-2.46v-.3a1.57,1.57,0,0,0,.43-.17.48.48,0,0,0,.17-.21,1.14,1.14,0,0,0,.08-.33c0-.14,0-.32,0-.54v-5.2c0-.4,0-.67,0-.83a2.07,2.07,0,0,0,0-.4.7.7,0,0,0-.11-.26.58.58,0,0,0-.19-.15,2.09,2.09,0,0,0-.44-.11v-.32l1.5-.06h.37Zm-3-1.11H172a1.9,1.9,0,0,0-.32-.59,1,1,0,0,0-.43-.3,1.59,1.59,0,0,0-.57-.09,1.26,1.26,0,0,0-.79.23.77.77,0,0,0-.3.64.84.84,0,0,0,.12.47,1.14,1.14,0,0,0,.37.35,5.75,5.75,0,0,0,.87.43,6.67,6.67,0,0,1,1,.5,1.82,1.82,0,0,1,.54.53,1.35,1.35,0,0,1,.19.73,1.89,1.89,0,0,1-.16.83,1.53,1.53,0,0,1-.47.54,2.09,2.09,0,0,1-.73.31,4.32,4.32,0,0,1-.91.09,5.7,5.7,0,0,1-1-.08c-.32-.05-.64-.12-1-.2v-1.3H169a1.56,1.56,0,0,0,.49.83,1.45,1.45,0,0,0,.91.26,2.2,2.2,0,0,0,.44-.05,1.16,1.16,0,0,0,.38-.15.79.79,0,0,0,.27-.3,1,1,0,0,0,.09-.46,1,1,0,0,0-.12-.52,1.2,1.2,0,0,0-.38-.36,8.88,8.88,0,0,0-.92-.45,5.92,5.92,0,0,1-.91-.45,1.82,1.82,0,0,1-.54-.53,1.31,1.31,0,0,1-.19-.72,1.49,1.49,0,0,1,.27-.89,1.72,1.72,0,0,1,.8-.57,3.52,3.52,0,0,1,1.23-.2,6.85,6.85,0,0,1,.79,0c.25,0,.57.08,1,.16Zm-7.7,4.27.35-.13a.52.52,0,0,0,.17-.16.7.7,0,0,0,.11-.3,3.39,3.39,0,0,0,0-.64v-2.71c0-.26,0-.48,0-.64a1,1,0,0,0-.09-.39.45.45,0,0,0-.22-.21,2,2,0,0,0-.43-.13v-.33l1.44,0h.38V280a3.91,3.91,0,0,0,0,.74.54.54,0,0,0,.19.32,1.47,1.47,0,0,0,.46.19v.3h-2.44Zm1.78-8.07v1.21h-1.14v-1.21ZM158.49,281a6.73,6.73,0,0,0,.74,0,4.31,4.31,0,0,0,.93-.09,2.83,2.83,0,0,0,.74-.27,2.14,2.14,0,0,0,.61-.52,3.12,3.12,0,0,0,.43-.76,5.17,5.17,0,0,0,.25-1,8.31,8.31,0,0,0,.07-1.16,5.12,5.12,0,0,0-.36-2.07,2.44,2.44,0,0,0-1-1.18,3.16,3.16,0,0,0-1.58-.37c-.29,0-.55,0-.81,0Zm-1.89.58v-.3a1.64,1.64,0,0,0,.41-.15.45.45,0,0,0,.19-.17.7.7,0,0,0,.1-.31,4.57,4.57,0,0,0,0-.62v-5.37a4.64,4.64,0,0,0,0-.63.7.7,0,0,0-.1-.3.52.52,0,0,0-.19-.17,1.49,1.49,0,0,0-.41-.15v-.3h2.72a6.08,6.08,0,0,1,1.92.25,3.59,3.59,0,0,1,1.27.76,3.22,3.22,0,0,1,.77,1.26,5.5,5.5,0,0,1,.25,1.78,6.44,6.44,0,0,1-.24,1.85,3.63,3.63,0,0,1-.7,1.34,3.21,3.21,0,0,1-1,.77,3.62,3.62,0,0,1-1.11.36,10.48,10.48,0,0,1-1.66.1Zm-7.81.1a1.68,1.68,0,0,0-.47.5,1.12,1.12,0,0,0-.16.6.87.87,0,0,0,.44.82,2.69,2.69,0,0,0,1.36.27,2.76,2.76,0,0,0,1-.15,1.33,1.33,0,0,0,.61-.43,1.07,1.07,0,0,0,.21-.65,1.27,1.27,0,0,0,0-.34.75.75,0,0,0-.17-.3.85.85,0,0,0-.34-.2,1.65,1.65,0,0,0-.59-.08h-.92A7.85,7.85,0,0,1,148.79,281.69Zm-.15-4.15a2,2,0,0,0,.31,1.2,1.08,1.08,0,0,0,.91.42,1.15,1.15,0,0,0,.55-.12,1.13,1.13,0,0,0,.36-.33,1.44,1.44,0,0,0,.2-.49,2.57,2.57,0,0,0-.09-1.49,1.16,1.16,0,0,0-.42-.54,1.14,1.14,0,0,0-.61-.17,1.1,1.1,0,0,0-.91.39A1.83,1.83,0,0,0,148.64,277.54Zm4.3-1.26-1.14,0-.06.07a1.19,1.19,0,0,1,.3.52,2.09,2.09,0,0,1,.12.72,2,2,0,0,1-.63,1.56,2.57,2.57,0,0,1-1.77.55,2.65,2.65,0,0,1-.89-.13,1,1,0,0,0-.47.71.53.53,0,0,0,.09.34.49.49,0,0,0,.3.17,2.55,2.55,0,0,0,.63.05h1.49A2.37,2.37,0,0,1,152,281a1.25,1.25,0,0,1,.6.55,1.81,1.81,0,0,1,.17.8,1.72,1.72,0,0,1-.33,1,2.18,2.18,0,0,1-1,.71,4,4,0,0,1-1.48.26,8.09,8.09,0,0,1-1.15-.08,3,3,0,0,1-.88-.25,1.34,1.34,0,0,1-.57-.47,1.18,1.18,0,0,1-.21-.72,1.07,1.07,0,0,1,.27-.71,2.27,2.27,0,0,1,.73-.56,1.15,1.15,0,0,1-.46-.35.89.89,0,0,1-.16-.54,1.17,1.17,0,0,1,.19-.65,3.11,3.11,0,0,1,.71-.67,1.72,1.72,0,0,1-.68-.71,2.13,2.13,0,0,1-.24-1,2.27,2.27,0,0,1,.18-.93,1.78,1.78,0,0,1,.49-.65,2.08,2.08,0,0,1,.74-.38,3.12,3.12,0,0,1,.93-.13,3.86,3.86,0,0,1,.89.1h2.19Zm-6.61,5.31h-2.45v-.3l.35-.13a.44.44,0,0,0,.17-.16.83.83,0,0,0,.12-.31,4.37,4.37,0,0,0,0-.63v-1.62c0-.29,0-.56,0-.79a3.52,3.52,0,0,0-.08-.58,1.22,1.22,0,0,0-.15-.36.8.8,0,0,0-.2-.21.93.93,0,0,0-.26-.15,1.37,1.37,0,0,0-.39-.05,1.06,1.06,0,0,0-.46.1,1.88,1.88,0,0,0-.48.33,1.74,1.74,0,0,0-.38.47,1.08,1.08,0,0,0-.12.52V280a3,3,0,0,0,.06.74.53.53,0,0,0,.18.32,1.59,1.59,0,0,0,.46.19v.3h-2.43v-.3a3.17,3.17,0,0,0,.34-.13.55.55,0,0,0,.18-.16,1.12,1.12,0,0,0,.11-.3,4.54,4.54,0,0,0,0-.64v-2.71c0-.26,0-.48,0-.64a1,1,0,0,0-.09-.39.47.47,0,0,0-.23-.21,1.86,1.86,0,0,0-.43-.13v-.33l1.45,0H142l-.07,1,.09,0a6.13,6.13,0,0,1,.74-.67,2.61,2.61,0,0,1,.57-.3,1.61,1.61,0,0,1,.61-.11,2.15,2.15,0,0,1,.6.07,1.49,1.49,0,0,1,.47.24,1.29,1.29,0,0,1,.33.4,2.07,2.07,0,0,1,.2.58,4.88,4.88,0,0,1,.06.85V280a4.57,4.57,0,0,0,0,.62.72.72,0,0,0,.08.3.77.77,0,0,0,.18.18,3,3,0,0,0,.42.15Zm-9.59-.3.35-.13a.52.52,0,0,0,.17-.16.85.85,0,0,0,.12-.3,4.54,4.54,0,0,0,0-.64v-2.71c0-.26,0-.48,0-.64a1.27,1.27,0,0,0-.08-.39.47.47,0,0,0-.23-.21,2,2,0,0,0-.43-.13v-.33l1.44,0h.38V280a3.91,3.91,0,0,0,.05.74.6.6,0,0,0,.19.32,1.47,1.47,0,0,0,.46.19v.3h-2.44Zm1.78-8.07v1.21h-1.14v-1.21ZM135,280a3.91,3.91,0,0,0,.05.74.5.5,0,0,0,.19.32,1.37,1.37,0,0,0,.46.19v.3h-2.47v-.3a1.44,1.44,0,0,0,.43-.17.48.48,0,0,0,.17-.21,1.14,1.14,0,0,0,.08-.33c0-.14,0-.32,0-.54v-5.2c0-.4,0-.67,0-.83a1.5,1.5,0,0,0-.05-.4.57.57,0,0,0-.11-.26.58.58,0,0,0-.19-.15,2.09,2.09,0,0,0-.44-.11v-.32l1.5-.06H135Zm-4.38-1.28a4.44,4.44,0,0,0-1.89.33,1,1,0,0,0-.63,1,1,1,0,0,0,.14.56.81.81,0,0,0,.36.28,1.62,1.62,0,0,0,.52.08,1.53,1.53,0,0,0,1.3-.73,1.2,1.2,0,0,0,.2-.63Zm.1,1.94-.09,0a3.65,3.65,0,0,1-1,.78,2.3,2.3,0,0,1-1,.23,1.84,1.84,0,0,1-.83-.18,1.32,1.32,0,0,1-.55-.52,1.57,1.57,0,0,1,.7-2.16,6.31,6.31,0,0,1,2.7-.58v-.4a3.42,3.42,0,0,0-.13-1,1,1,0,0,0-.39-.55,1.36,1.36,0,0,0-.71-.17,1.13,1.13,0,0,0-.78.25,1.56,1.56,0,0,0-.45.77h-.81v-.81a9.61,9.61,0,0,1,1-.46,8,8,0,0,1,.8-.23,4.26,4.26,0,0,1,.8-.08,2,2,0,0,1,1,.2,1.19,1.19,0,0,1,.56.59,3.13,3.13,0,0,1,.19,1.22v2.81a3.39,3.39,0,0,0,0,.35.79.79,0,0,0,.09.26.6.6,0,0,0,.19.16,1.58,1.58,0,0,0,.39.15v.3h-1.7ZM124.8,278a4.8,4.8,0,0,0-.17-1.09,1.43,1.43,0,0,0-.39-.65,1,1,0,0,0-.69-.23,1.22,1.22,0,0,0-1,.51,2.83,2.83,0,0,0-.45,1.46Zm1,2.53a6.47,6.47,0,0,1-.73.65,2.64,2.64,0,0,1-.73.37,2.71,2.71,0,0,1-.88.13,2.41,2.41,0,0,1-1.93-.77,3.42,3.42,0,0,1-.65-2.26,3.8,3.8,0,0,1,.33-1.63,2.62,2.62,0,0,1,1-1.1,2.67,2.67,0,0,1,1.42-.38,2.6,2.6,0,0,1,1.06.2,1.77,1.77,0,0,1,.71.54,2.51,2.51,0,0,1,.41.87,6,6,0,0,1,.17,1.37h-3.92v.11a3.92,3.92,0,0,0,.17,1.23,1.56,1.56,0,0,0,.54.79,1.63,1.63,0,0,0,1,.28,2.09,2.09,0,0,0,.91-.19,2.74,2.74,0,0,0,.81-.62Zm-10.56-.88a2.8,2.8,0,0,0,.34.86,1.29,1.29,0,0,0,.54.47,2.19,2.19,0,0,0,.87.15,1.5,1.5,0,0,0,1.11-.38,1.46,1.46,0,0,0,.39-1.1,1.67,1.67,0,0,0-.16-.78,1.82,1.82,0,0,0-.53-.6,7.82,7.82,0,0,0-1.12-.65,5.66,5.66,0,0,1-1.14-.71,2.21,2.21,0,0,1-.64-.74,2,2,0,0,1-.2-.89,2.24,2.24,0,0,1,.32-1.2,2.1,2.1,0,0,1,1-.79,3.46,3.46,0,0,1,1.44-.28,6.81,6.81,0,0,1,.92.05,7.33,7.33,0,0,1,1.13.22V275h-.61a2.74,2.74,0,0,0-.36-.85,1.2,1.2,0,0,0-.51-.43,2.05,2.05,0,0,0-.76-.12,1.66,1.66,0,0,0-.72.15,1.12,1.12,0,0,0-.51.45,1.37,1.37,0,0,0-.18.72,1.65,1.65,0,0,0,.15.74,1.87,1.87,0,0,0,.5.57,6.33,6.33,0,0,0,1,.58,6.93,6.93,0,0,1,1.23.74,2.68,2.68,0,0,1,.69.78,2.08,2.08,0,0,1,.24,1,2.77,2.77,0,0,1-.2,1.1,1.9,1.9,0,0,1-.57.73,2.19,2.19,0,0,1-.87.41,4.33,4.33,0,0,1-1.11.13,9.12,9.12,0,0,1-2.25-.33v-1.7Z"/><path class="cls-7" d="M95.54,37.38,106,43.14,95.54,48.9Zm.9,6.38H58.52V42.52H96.44Z"/><path class="cls-7" d="M95.54,101.76,106,107.52l-10.46,5.76Zm.9,5.46v.59H58.52v-.59Z"/><path class="cls-7" d="M95.54,166.3,106,172.05l-10.46,5.76Zm.9,5.46v.59H58.52v-.59Z"/><path class="cls-7" d="M95.54,227.81,106,233.57l-10.46,5.75Zm.9,5.46v.59H58.52v-.59Z"/><path class="cls-7" d="M95.54,272.78,106,278.54l-10.46,5.75Zm.9,5.46v.59H58.52v-.59Z"/><path class="cls-6" d="M179.57,383.15a4.31,4.31,0,0,0-.17-1.1,1.35,1.35,0,0,0-.39-.65,1,1,0,0,0-.68-.23,1.18,1.18,0,0,0-1,.52,2.63,2.63,0,0,0-.45,1.46Zm1,2.52a5,5,0,0,1-.73.65,2.6,2.6,0,0,1-1.6.5,2.39,2.39,0,0,1-1.93-.76,3.4,3.4,0,0,1-.65-2.27,3.83,3.83,0,0,1,.33-1.63,2.52,2.52,0,0,1,.94-1.09,2.85,2.85,0,0,1,2.49-.19,1.74,1.74,0,0,1,.7.54,2.34,2.34,0,0,1,.41.87,5.47,5.47,0,0,1,.17,1.37h-3.91v.11A4.06,4.06,0,0,0,177,385a1.46,1.46,0,0,0,1.52,1.06,2.06,2.06,0,0,0,.91-.19,2.62,2.62,0,0,0,.81-.62Zm-6.75-.5a3.2,3.2,0,0,0,0,.74.5.5,0,0,0,.19.32,1.2,1.2,0,0,0,.45.19v.3h-2.46v-.3a1.3,1.3,0,0,0,.43-.17.48.48,0,0,0,.17-.21,1.14,1.14,0,0,0,.08-.33c0-.14,0-.32,0-.54V380c0-.39,0-.67,0-.83a2.18,2.18,0,0,0-.05-.4.78.78,0,0,0-.11-.26.58.58,0,0,0-.19-.15,3,3,0,0,0-.44-.11v-.32l1.5-.06h.37Zm-6.34-4.07a1.33,1.33,0,0,0,.51-.18.84.84,0,0,0,.3-.32,1.75,1.75,0,0,0,.17-.49c0-.19.08-.48.13-.85h.88v1.53h2v.62h-2v2.77a7.93,7.93,0,0,0,.05,1,1.32,1.32,0,0,0,.19.56.74.74,0,0,0,.31.28,1,1,0,0,0,.45.09,1,1,0,0,0,.46-.1,1.68,1.68,0,0,0,.43-.3l.28.34a3.11,3.11,0,0,1-.84.62,1.78,1.78,0,0,1-.81.19,1.46,1.46,0,0,1-1.19-.47,2.35,2.35,0,0,1-.4-1.49v-3.45h-.92Zm-4.3,0a1.33,1.33,0,0,0,.51-.18.92.92,0,0,0,.3-.32,1.75,1.75,0,0,0,.17-.49c0-.19.08-.48.13-.85h.88v1.53h2v.62h-2v2.77a7.93,7.93,0,0,0,0,1,1.19,1.19,0,0,0,.19.56.74.74,0,0,0,.31.28.93.93,0,0,0,.44.09,1.07,1.07,0,0,0,.47-.1,1.87,1.87,0,0,0,.43-.3l.28.34a3.45,3.45,0,0,1-.84.62,1.8,1.8,0,0,1-.82.19,1.47,1.47,0,0,1-1.19-.47,2.35,2.35,0,0,1-.39-1.49v-3.45h-.92Zm-5.15,2.58a3.94,3.94,0,0,0,.4,2,1.3,1.3,0,0,0,1.17.68,1.19,1.19,0,0,0,.71-.2,1.55,1.55,0,0,0,.47-.54,2.94,2.94,0,0,0,.27-.79,5.8,5.8,0,0,0,.08-.95,4.66,4.66,0,0,0-.21-1.51,1.88,1.88,0,0,0-.54-.89,1.3,1.3,0,0,0-.8-.28,1.28,1.28,0,0,0-1.15.65A3.57,3.57,0,0,0,158.07,383.68Zm1.48,3.14a2.51,2.51,0,0,1-2-.76,3.27,3.27,0,0,1-.67-2.25,3.79,3.79,0,0,1,.35-1.73,2.38,2.38,0,0,1,1-1.05,2.83,2.83,0,0,1,1.41-.35,2.58,2.58,0,0,1,2,.77,3.29,3.29,0,0,1,.68,2.22,3.94,3.94,0,0,1-.34,1.74,2.28,2.28,0,0,1-1,1.06A2.92,2.92,0,0,1,159.55,386.82Zm-8.44-.69c.3,0,.64.05,1,.05a3,3,0,0,0,1.26-.21,1.28,1.28,0,0,0,.65-.6,2.16,2.16,0,0,0,.21-1,2.07,2.07,0,0,0-.22-1,1.39,1.39,0,0,0-.68-.58,3.34,3.34,0,0,0-1.27-.2h-1Zm1.08-4.08a2.05,2.05,0,0,0,1.45-.46,1.7,1.7,0,0,0,.5-1.32,1.6,1.6,0,0,0-.14-.71,1.25,1.25,0,0,0-.39-.46,1.61,1.61,0,0,0-.58-.24,4,4,0,0,0-.72-.07l-.62,0-.58,0v3.22Zm-3,4.67v-.3a1.37,1.37,0,0,0,.52-.22.68.68,0,0,0,.17-.35,5,5,0,0,0,0-.68V379.8a4.57,4.57,0,0,0,0-.62.8.8,0,0,0-.11-.31.45.45,0,0,0-.19-.17,1.79,1.79,0,0,0-.4-.15v-.3h3.4a4.87,4.87,0,0,1,1.58.21,1.76,1.76,0,0,1,.89.62,1.78,1.78,0,0,1,.3,1.07,2,2,0,0,1-.21.94,1.93,1.93,0,0,1-.55.65,3.61,3.61,0,0,1-.86.49v0a2.56,2.56,0,0,1,1.28.79,1.93,1.93,0,0,1,.44,1.26,2.32,2.32,0,0,1-.38,1.38,2,2,0,0,1-1.05.77,4.94,4.94,0,0,1-1.64.24ZM144,383.15a4.8,4.8,0,0,0-.17-1.1,1.43,1.43,0,0,0-.39-.65,1,1,0,0,0-.69-.23,1.21,1.21,0,0,0-1,.52,2.8,2.8,0,0,0-.45,1.46Zm1,2.52a5.61,5.61,0,0,1-.73.65,2.64,2.64,0,0,1-.73.37,2.71,2.71,0,0,1-.88.13,2.4,2.4,0,0,1-1.93-.76,3.45,3.45,0,0,1-.65-2.27,3.83,3.83,0,0,1,.33-1.63,2.54,2.54,0,0,1,.95-1.09,2.83,2.83,0,0,1,2.48-.19,1.77,1.77,0,0,1,.71.54,2.51,2.51,0,0,1,.41.87,5.53,5.53,0,0,1,.16,1.37h-3.91v.11a4,4,0,0,0,.17,1.24,1.46,1.46,0,0,0,.54.78,1.55,1.55,0,0,0,1,.28,2.1,2.1,0,0,0,.92-.19,2.74,2.74,0,0,0,.81-.62ZM136,380.79v.3a2.05,2.05,0,0,0-.4.13.41.41,0,0,0-.18.16.54.54,0,0,0-.06.27,1.45,1.45,0,0,0,0,.35c0,.12.07.26.13.43l1.08,3.14,1.26-3a4.62,4.62,0,0,0,.18-.49,1.63,1.63,0,0,0,.05-.36.54.54,0,0,0-.14-.4,1.22,1.22,0,0,0-.51-.22v-.3h2.32v.3a.79.79,0,0,0-.37.15,1.19,1.19,0,0,0-.27.33c-.08.14-.19.35-.31.61l-2.09,4.6H136l-1.68-4.63a5.1,5.1,0,0,0-.28-.66.74.74,0,0,0-.23-.26.83.83,0,0,0-.34-.14v-.3Zm-5.63,1,.08,0a4.52,4.52,0,0,1,.64-.66,2.09,2.09,0,0,1,1.39-.5,4.41,4.41,0,0,1,.66,0v1.43h-.7a1.43,1.43,0,0,0-.32-.49.67.67,0,0,0-.46-.15.86.86,0,0,0-.45.13,1.8,1.8,0,0,0-.42.38,1.46,1.46,0,0,0-.28.46,1.62,1.62,0,0,0-.08.52v2.17a2.74,2.74,0,0,0,.07.78.52.52,0,0,0,.22.31,1.41,1.41,0,0,0,.48.16v.3h-2.5v-.3a2.24,2.24,0,0,0,.34-.13.64.64,0,0,0,.17-.16.61.61,0,0,0,.11-.3,3.39,3.39,0,0,0,0-.64v-2.71c0-.26,0-.48,0-.64a1,1,0,0,0-.09-.39.5.5,0,0,0-.22-.21,1.7,1.7,0,0,0-.44-.12v-.33l1.46-.06h.37Zm-8.85-1h1.77V384a7.54,7.54,0,0,0,.06,1.1,1.51,1.51,0,0,0,.16.57.92.92,0,0,0,.88.46,1.06,1.06,0,0,0,.46-.1,1.9,1.9,0,0,0,.48-.32,1.51,1.51,0,0,0,.38-.46,1.16,1.16,0,0,0,.12-.54v-2.33c0-.23,0-.41,0-.53a1,1,0,0,0-.06-.29,1.45,1.45,0,0,0-.1-.18.83.83,0,0,0-.17-.12,1.52,1.52,0,0,0-.35-.12v-.3h1.77V385a6.07,6.07,0,0,0,0,.69.73.73,0,0,0,.08.33.48.48,0,0,0,.19.21,1.58,1.58,0,0,0,.46.14v.32l-1.42.06h-.38l0-1-.09,0a3.86,3.86,0,0,1-1,.82,1.83,1.83,0,0,1-.94.26,1.78,1.78,0,0,1-.93-.22,1.35,1.35,0,0,1-.54-.67,3.41,3.41,0,0,1-.18-1.25v-2.35a5.05,5.05,0,0,0,0-.71.58.58,0,0,0-.16-.31,1.18,1.18,0,0,0-.5-.22Zm-1-2.36v1.72h-.62a2.55,2.55,0,0,0-.38-.86,1.28,1.28,0,0,0-.53-.46,1.8,1.8,0,0,0-.73-.13,1.71,1.71,0,0,0-1.14.42,2.81,2.81,0,0,0-.79,1.28,6.58,6.58,0,0,0-.28,2.06,8.24,8.24,0,0,0,.23,2.08,2.77,2.77,0,0,0,.7,1.3,1.57,1.57,0,0,0,1.13.44,2,2,0,0,0,.83-.15,1.26,1.26,0,0,0,.54-.46,3.42,3.42,0,0,0,.42-.93h.62v1.77a8,8,0,0,1-1.2.23,9.28,9.28,0,0,1-1.34.08,2.8,2.8,0,0,1-2.39-1.07,5.28,5.28,0,0,1-.8-3.18,6.18,6.18,0,0,1,.41-2.33,3.29,3.29,0,0,1,3.18-2.09,7.75,7.75,0,0,1,2.14.28Zm27.49-8.17a4,4,0,0,0,0,.75.5.5,0,0,0,.19.31,1.19,1.19,0,0,0,.46.19v.31h-2.47v-.31a1.21,1.21,0,0,0,.43-.17.39.39,0,0,0,.17-.21,1.14,1.14,0,0,0,.08-.32c0-.14,0-.32,0-.55v-5.19c0-.4,0-.68,0-.84a2.18,2.18,0,0,0,0-.4.53.53,0,0,0-.11-.25.47.47,0,0,0-.19-.15,2,2,0,0,0-.44-.12V363l1.5-.06h.37Zm-10.56-3.42.08,0a6.32,6.32,0,0,1,.62-.56,2.86,2.86,0,0,1,.46-.31,2.22,2.22,0,0,1,.42-.16,1.75,1.75,0,0,1,.4-.05,1.61,1.61,0,0,1,1,.29,1.49,1.49,0,0,1,.54.87,7.72,7.72,0,0,1,.75-.69,2.61,2.61,0,0,1,.59-.35,1.78,1.78,0,0,1,.65-.12,1.94,1.94,0,0,1,.72.12,1.34,1.34,0,0,1,.51.37,1.54,1.54,0,0,1,.3.63,4.07,4.07,0,0,1,.1,1v2.34a4.76,4.76,0,0,0,0,.66.71.71,0,0,0,.09.27.52.52,0,0,0,.18.18,2.15,2.15,0,0,0,.4.14v.31h-2.44v-.31a1.88,1.88,0,0,0,.34-.13.65.65,0,0,0,.18-.15.7.7,0,0,0,.11-.31,3.34,3.34,0,0,0,0-.63v-1.63q0-.53,0-.87a2.39,2.39,0,0,0-.08-.55,1.22,1.22,0,0,0-.14-.32,1,1,0,0,0-.2-.21,1,1,0,0,0-.24-.14,1.34,1.34,0,0,0-.38,0,1,1,0,0,0-.46.1,1.56,1.56,0,0,0-.47.33,1.6,1.6,0,0,0-.36.47,1.26,1.26,0,0,0-.12.57v2.26a4.32,4.32,0,0,0,0,.66.71.71,0,0,0,.09.27.58.58,0,0,0,.17.18,2.47,2.47,0,0,0,.4.14v.31h-2.44v-.31a2.05,2.05,0,0,0,.35-.13.65.65,0,0,0,.18-.15,1.08,1.08,0,0,0,.11-.31,4.49,4.49,0,0,0,0-.63v-1.63q0-.56,0-.9a3,3,0,0,0-.1-.56,1,1,0,0,0-.17-.34,1,1,0,0,0-.21-.2.87.87,0,0,0-.24-.1,1.69,1.69,0,0,0-.33,0,.93.93,0,0,0-.47.11,2.2,2.2,0,0,0-.46.33,1.61,1.61,0,0,0-.35.46,1.07,1.07,0,0,0-.12.51v2.32c0,.24,0,.42,0,.54a.91.91,0,0,0,.06.29.52.52,0,0,0,.1.18.7.7,0,0,0,.18.12,1.59,1.59,0,0,0,.34.12v.31H135.7v-.31a2.24,2.24,0,0,0,.34-.13.8.8,0,0,0,.17-.15.7.7,0,0,0,.11-.31,3.32,3.32,0,0,0,0-.64v-2.71c0-.26,0-.47,0-.64a.92.92,0,0,0-.09-.38.47.47,0,0,0-.22-.22,1.7,1.7,0,0,0-.44-.12v-.33l1.46-.06h.38Zm-7.31.63a8.38,8.38,0,0,0,.38,3c.25.63.63.95,1.16.95a1.21,1.21,0,0,0,1.12-.89,7.9,7.9,0,0,0,.36-2.76,11.19,11.19,0,0,0-.19-2.32,2.87,2.87,0,0,0-.52-1.27,1,1,0,0,0-.8-.38,1.05,1.05,0,0,0-.72.25,1.74,1.74,0,0,0-.46.74,4.65,4.65,0,0,0-.26,1.16C130.09,366.38,130.06,366.89,130.06,367.47Zm1.44,4.45a2.21,2.21,0,0,1-2-1.06,6.25,6.25,0,0,1-.65-3.2,8.76,8.76,0,0,1,.2-2,4.45,4.45,0,0,1,.57-1.37,2.31,2.31,0,0,1,.87-.81,2.45,2.45,0,0,1,1.11-.26,2.22,2.22,0,0,1,2,1.05,6,6,0,0,1,.67,3.17,6.34,6.34,0,0,1-.71,3.33A2.32,2.32,0,0,1,131.5,371.92Zm-9.56-.45v-1.31h.75a1.84,1.84,0,0,0,.56.93,1.53,1.53,0,0,0,1,.3,1.55,1.55,0,0,0,1.24-.5,2.25,2.25,0,0,0,.43-1.48,2.32,2.32,0,0,0-.23-1.09,1.41,1.41,0,0,0-.6-.63,1.9,1.9,0,0,0-.88-.19,4.91,4.91,0,0,0-.73.05,4.83,4.83,0,0,0-.65.17l-.5-.29v-4.09h3.42a1.14,1.14,0,0,0,.31,0,.42.42,0,0,0,.15-.11,1.72,1.72,0,0,0,.13-.27h.48l-.09,1.44h-3.57v2.73a3,3,0,0,1,.7-.21,4.77,4.77,0,0,1,.76-.07,2.67,2.67,0,0,1,1.31.31,2.06,2.06,0,0,1,.88.85,2.67,2.67,0,0,1,.31,1.29,2.81,2.81,0,0,1-.35,1.43,2.22,2.22,0,0,1-1,.9,3.51,3.51,0,0,1-1.55.32A6.26,6.26,0,0,1,121.94,371.47Zm-3.61-.65a3.28,3.28,0,0,0,.49,0,.83.83,0,0,0,.3-.13.58.58,0,0,0,.17-.23,3.16,3.16,0,0,0,.17-.43H120l-.1,1.82h-5.11v-.3a8,8,0,0,1,.72-1.34,15.53,15.53,0,0,1,1.28-1.61c.48-.52.83-.93,1-1.2a7,7,0,0,0,.52-.77,3.26,3.26,0,0,0,.24-.62,2.32,2.32,0,0,0,.08-.58,2.1,2.1,0,0,0-.15-.82A1.16,1.16,0,0,0,118,364a1.32,1.32,0,0,0-.77-.21,1.58,1.58,0,0,0-1.57,1.29H115v-1.19a8.11,8.11,0,0,1,1.41-.51,4.87,4.87,0,0,1,1.18-.16,2.58,2.58,0,0,1,1.74.51,1.82,1.82,0,0,1,.59,1.47,2.91,2.91,0,0,1-.06.6,2.48,2.48,0,0,1-.21.55,4.57,4.57,0,0,1-.37.58l-.53.63-1,1.06a13,13,0,0,0-1.74,2.18Z"/><path class="cls-7" d="M95.54,369.12,106,374.88l-10.46,5.75Zm.9,5.46v.59H58.52v-.59Z"/><path class="cls-8" d="M20,327.11H45.26M32.63,436.81c-31.71-.74-21.32-19.92-18.72-45.06,3.18-30.69-11.2-55.43,5.87-64.55.74-1,.1-9.53.1-14.25H45.37c0,4.72-.64,13.23.1,14.25,17.07,9.12,2.7,33.86,5.87,64.55C54,416.89,64.33,436.07,32.63,436.81Z"/><path class="cls-3" d="M20,327.1H45.26M32.63,436.81c-31.71-.75-21.32-19.92-18.72-45.06,3.18-30.69-11.2-55.43,5.87-64.55.75-1,.11-9.53.11-14.25H45.37c0,4.72-.64,13.23.1,14.25,17.08,9.12,2.7,33.86,5.87,64.55C54,416.89,64.33,436.06,32.63,436.81Z"/><line class="cls-2" x1="19.89" y1="316.14" x2="45.37" y2="316.14"/><line class="cls-2" x1="19.89" y1="319.02" x2="45.37" y2="319.02"/><line class="cls-2" x1="19.89" y1="321.91" x2="45.37" y2="321.91"/><path class="cls-9" d="M20,327.11H45.26M32.63,436.81c-31.71-.75-21.32-19.92-18.72-45.06,3.18-30.69-11.2-55.43,5.87-64.55.74-1,.1-9.53.1-14.25H45.37c0,4.72-.64,13.23.1,14.25,17.07,9.12,2.7,33.86,5.87,64.55C54,416.89,64.33,436.06,32.63,436.81Z"/><path class="cls-3" d="M21.2,115.22a13.31,13.31,0,0,1,4.51-8.1c2.75-2.64,2.81-8.42,3.6-13.35-.22-1.76.7-2,2.63-2.12,3.51-.11,4.15,1.27,4.78,3.2L43,114a2.87,2.87,0,0,1,0,2.23h0c-2.22,5.08-21.34,3.32-21.85-1m8.13-22.44a5.19,5.19,0,0,0,7,1.56m-6.88-1.88s2.23,3.8,6.76,1.43m6.69,19.33c4.42,1,7.31,2.68,7.31,4.56,0,3.1-7.88,5.61-17.6,5.61S15,120.88,15,117.78c0-1.77,2.55-3.35,6.55-4.37m21.47,2.83h0"/><path class="cls-3" d="M39.27,111.22A17.85,17.85,0,0,1,42,112.59a13.91,13.91,0,0,1,1.22,2.81,10,10,0,0,1-.35,3.32,3.63,3.63,0,0,1-2,1.06c-1.32.33-12.3.87-13.19.56s-4.66-.63-5.09-1.07-2.26-1.39-2.49-2.41-1.46-1.23-.28-2.26a18.15,18.15,0,0,1,3.89-2.34,5.84,5.84,0,0,1,3.08-1.1c1.88-.07,12.48.06,12.48.06"/><path class="cls-2" d="M21.2,115.22a13.31,13.31,0,0,1,4.51-8.1c2.75-2.64,2.81-8.42,3.6-13.35-.22-1.76.7-2,2.63-2.12,3.51-.11,4.15,1.27,4.78,3.21L43,114C45.9,121.72,21.77,120.11,21.2,115.22Z"/><path class="cls-2" d="M23,116.08c-1.16-5,18.29-5.87,20,.16"/><path class="cls-2" d="M32.06,95.7l-.76,9.68s-.19,6.18-5.1,6.15"/><path class="cls-10" d="M29.33,92.78a5.19,5.19,0,0,0,7,1.56"/><path class="cls-2" d="M29.47,92.46s2.23,3.8,6.76,1.43"/><path class="cls-2" d="M42.92,113.22c4.42,1,7.31,2.68,7.31,4.56,0,3.1-7.88,5.61-17.6,5.61S15,120.88,15,117.78c0-1.77,2.55-3.34,6.55-4.37"/><path class="cls-3" d="M44.28,183.54c-.16-11-7.23-11.23-6-19.68,2.08-14.21-13.35-14.21-11.26,0,1.24,8.45-5.83,8.67-6,19.68a14.88,14.88,0,0,0-3.34.41c-1.77.46-2.6,1.27-2.64,2.09-.35,6.44,34.57,6.43,35.19.29.09-.92-.65-1.86-2.63-2.38A14.82,14.82,0,0,0,44.28,183.54Z"/><path class="cls-2" d="M44.28,183.54c-.16-11-7.23-11.23-6-19.68,2.08-14.21-13.35-14.21-11.26,0,1.24,8.45-5.83,8.67-6,19.68a14.88,14.88,0,0,0-3.34.41c-1.77.46-2.6,1.27-2.64,2.09-.35,6.44,34.57,6.43,35.19.29.09-.92-.65-1.86-2.63-2.38A14.82,14.82,0,0,0,44.28,183.54Z"/><path class="cls-2" d="M21,183.54a14.88,14.88,0,0,0-3.34.41c-1.77.46-2.6,1.27-2.64,2.09-.35,6.44,34.57,6.43,35.19.29.09-.92-.65-1.86-2.63-2.38a14.88,14.88,0,0,0-3.34-.41m-23.24,0c-4.09,3.65,26.47,4.48,23.3,0"/><path class="cls-2" d="M21,183.54c.19-11,7.26-11.23,6-19.68-2.09-14.21,13.34-14.21,11.26,0-1.24,8.45,5.83,8.67,6,19.68"/><path class="cls-2" d="M27,164.61s7.22,2.48,11.24-.17"/><path class="cls-2" d="M20.89,183.65c-1.44.38-2.49.62-2.52,1.27-.28,5.14,28.07,5.14,28.57.23.08-.73-.82-1.18-2.44-1.6"/><path class="cls-2" d="M27,167.33s7.22,2.48,11.24-.16"/><path class="cls-2" d="M26.12,170s8.38,2.88,13-.19"/><path class="cls-11" d="M32.63,222.35c6,0,10.95,1.69,10.95,3.78s-4.9,3.79-10.95,3.79-11-1.7-11-3.79S26.58,222.35,32.63,222.35Z"/><path class="cls-2" d="M32.63,222.35c6,0,10.95,1.69,10.95,3.78s-4.9,3.79-10.95,3.79-11-1.7-11-3.79S26.58,222.35,32.63,222.35Z"/><path class="cls-12" d="M32.65,276.38c4.21,0,7.63,1,7.63,2.16s-3.42,2.15-7.63,2.15-7.63-1-7.63-2.15S28.44,276.38,32.65,276.38Z"/><path class="cls-3" d="M32.63,276.38c4.21,0,7.63,1,7.63,2.16s-3.42,2.15-7.63,2.15-7.63-1-7.63-2.15,3.41-2.16,7.63-2.16"/></g></g></svg>